solid church-tower
facet normal 0 0 -1
outer loop
vertex 0 0 0
vertex 0.5 0.5 0
vertex 0.5 0 0
endloop
endfacet
facet normal 0 0 -1
outer loop
vertex 0 0 0
vertex 0 0.5 0
vertex 0.5 0.5 0
endloop
endfacet
facet normal -1 0 0
outer loop
vertex 0 0 0
vertex 0 0 1.05
vertex 0 0.5 1.05
endloop
endfacet
facet normal -1 0 0
outer loop
vertex 0 0 0
vertex 0 0.5 1.05
vertex 0 0.5 0
endloop
endfacet
facet normal 1 0 0
outer loop
vertex 0.5 0 0
vertex 0.5 0.5 0
vertex 0.5 0.5 1.05
endloop
endfacet
facet normal 1 0 0
outer loop
vertex 0.5 0 0
vertex 0.5 0.5 1.05
vertex 0.5 0 1.05
endloop
endfacet
facet normal 0 -1 0
outer loop
vertex 0 0 1.05
vertex 0 0 0
vertex 0.5 0 0
endloop
endfacet
facet normal 0 -1 0
outer loop
vertex 0 0 1.05
vertex 0.5 0 0
vertex 0.5 0 1.05
endloop
endfacet
facet normal 0 -1 0
outer loop
vertex 0.5 0 1.05
vertex 0.25 0 1.85
vertex 0 0 1.05
endloop
endfacet
facet normal 0 1 0
outer loop
vertex 0 0.5 1.05
vertex 0.5 0.5 0
vertex 0 0.5 0
endloop
endfacet
facet normal 0 1 0
outer loop
vertex 0 0.5 1.05
vertex 0.5 0.5 1.05
vertex 0.5 0.5 0
endloop
endfacet
facet normal 0 1 0
outer loop
vertex 0.5 0.5 1.05
vertex 0 0.5 1.05
vertex 0.25 0.5 1.85
endloop
endfacet
facet normal -0.9544799780350297 0 0.2982749931359468
outer loop
vertex 0 0 1.05
vertex 0.25 0 1.85
vertex 0.25 0.5 1.85
endloop
endfacet
facet normal -0.9544799780350297 0 0.2982749931359468
outer loop
vertex 0 0 1.05
vertex 0.25 0.5 1.85
vertex 0 0.5 1.05
endloop
endfacet
facet normal 0.9544799780350297 0 0.2982749931359468
outer loop
vertex 0.25 0 1.85
vertex 0.5 0 1.05
vertex 0.5 0.5 1.05
endloop
endfacet
facet normal 0.9544799780350297 0 0.2982749931359468
outer loop
vertex 0.25 0 1.85
vertex 0.5 0.5 1.05
vertex 0.25 0.5 1.85
endloop
endfacet
endsolid church-tower
