solid church
facet normal 0 -1 0
outer loop
vertex 0 0 0.85
vertex 0 0 0
vertex 0.39 0 0
endloop
endfacet
facet normal 0 -1 0
outer loop
vertex 0 0 0.85
vertex 0.39 0 0
vertex 0.39 0 0.46
endloop
endfacet
facet normal 0 -1 0
outer loop
vertex 0 0 0.85
vertex 0.39 0 0.46
vertex 0.5 0 0.7
endloop
endfacet
facet normal 0 -1 0
outer loop
vertex 0.61 0 0.46
vertex 0.61 0 0
vertex 1 0 0
endloop
endfacet
facet normal 0 -1 0
outer loop
vertex 0.5 0 0.7
vertex 0.61 0 0.46
vertex 1 0 0
endloop
endfacet
facet normal 0 -1 0
outer loop
vertex 0.5 0 0.7
vertex 1 0 0
vertex 1 0 0.85
endloop
endfacet
facet normal 0 -1 0
outer loop
vertex 0 0 0.85
vertex 0.5 0 0.7
vertex 1 0 0.85
endloop
endfacet
facet normal 0 -1 0
outer loop
vertex 1 0 0.85
vertex 0.5 0 1.45
vertex 0 0 0.85
endloop
endfacet
facet normal 0 -1 0
outer loop
vertex 0 1.5 0.85
vertex 0 1.5 0
vertex 1 1.5 0
endloop
endfacet
facet normal 0 -1 0
outer loop
vertex 0 1.5 0.85
vertex 1 1.5 0
vertex 1 1.5 0.85
endloop
endfacet
facet normal 0 -1 0
outer loop
vertex 1 1.5 0.85
vertex 0.5 1.5 1.45
vertex 0 1.5 0.85
endloop
endfacet
facet normal 1 0 0
outer loop
vertex 0 0 0
vertex 0 1.5 0
vertex 0 1.5 0.85
endloop
endfacet
facet normal 1 0 0
outer loop
vertex 0 0 0
vertex 0 1.5 0.85
vertex 0 0 0.85
endloop
endfacet
facet normal -1 0 0
outer loop
vertex 1 0 0
vertex 1 1.5 0.85
vertex 1 1.5 0
endloop
endfacet
facet normal -1 0 0
outer loop
vertex 1 0 0
vertex 1 0 0.85
vertex 1 1.5 0.85
endloop
endfacet
facet normal -0.7682212795973757 0 0.6401843996644798
outer loop
vertex 0 0 0.85
vertex 0.5 0 1.45
vertex 0.5 1.5 1.45
endloop
endfacet
facet normal -0.7682212795973757 0 0.6401843996644798
outer loop
vertex 0 0 0.85
vertex 0.5 1.5 1.45
vertex 0 1.5 0.85
endloop
endfacet
facet normal 0.7682212795973757 0 0.6401843996644798
outer loop
vertex 0.5 0 1.45
vertex 1 0 0.85
vertex 1 1.5 0.85
endloop
endfacet
facet normal 0.7682212795973757 0 0.6401843996644798
outer loop
vertex 0.5 0 1.45
vertex 1 1.5 0.85
vertex 0.5 1.5 1.45
endloop
endfacet
endsolid church
