solid church-kirigami
facet normal 0 -1 0
outer loop
vertex -17.266666666666666 -36.6 13.222222222222221
vertex -23.333333333333332 -36.6 39.666666666666664
vertex -21.05749716566761 -36.6 19.833333333333332
endloop
endfacet
facet normal 0 1 0
outer loop
vertex -17.266666666666666 -35 13.222222222222221
vertex -21.05749716566761 -35 19.833333333333332
vertex -23.333333333333332 -35 39.666666666666664
endloop
endfacet
facet normal 0 -1 0
outer loop
vertex -17.266666666666666 -36.6 13.222222222222221
vertex -21.05749716566761 -36.6 19.833333333333332
vertex -23.333333333333332 -36.6 0
endloop
endfacet
facet normal 0 1 0
outer loop
vertex -17.266666666666666 -35 13.222222222222221
vertex -23.333333333333332 -35 0
vertex -21.05749716566761 -35 19.833333333333332
endloop
endfacet
facet normal 0 -1 0
outer loop
vertex -17.266666666666666 -36.6 13.222222222222221
vertex -23.333333333333332 -36.6 0
vertex -14.233333333333333 -36.6 0
endloop
endfacet
facet normal 0 1 0
outer loop
vertex -17.266666666666666 -35 13.222222222222221
vertex -14.233333333333333 -35 0
vertex -23.333333333333332 -35 0
endloop
endfacet
facet normal 0 -1 0
outer loop
vertex -17.266666666666666 -36.6 13.222222222222221
vertex -14.233333333333333 -36.6 0
vertex -5.133333333333333 -36.6 0
endloop
endfacet
facet normal 0 1 0
outer loop
vertex -17.266666666666666 -35 13.222222222222221
vertex -5.133333333333333 -35 0
vertex -14.233333333333333 -35 0
endloop
endfacet
facet normal 0 -1 0
outer loop
vertex -17.266666666666666 -36.6 13.222222222222221
vertex -5.133333333333333 -36.6 0
vertex -14.233333333333333 -36.6 19.833333333333332
endloop
endfacet
facet normal 0 1 0
outer loop
vertex -17.266666666666666 -35 13.222222222222221
vertex -14.233333333333333 -35 19.833333333333332
vertex -5.133333333333333 -35 0
endloop
endfacet
facet normal 0 -1 0
outer loop
vertex -17.266666666666666 -36.6 13.222222222222221
vertex -14.233333333333333 -36.6 19.833333333333332
vertex -23.333333333333332 -36.6 39.666666666666664
endloop
endfacet
facet normal 0 1 0
outer loop
vertex -17.266666666666666 -35 13.222222222222221
vertex -23.333333333333332 -35 39.666666666666664
vertex -14.233333333333333 -35 19.833333333333332
endloop
endfacet
facet normal -0.9934807529882014 0 -0.11399997123682312
outer loop
vertex -23.333333333333332 -35 39.666666666666664
vertex -21.05749716566761 -35 19.833333333333332
vertex -21.05749716566761 -36.6 19.833333333333332
endloop
endfacet
facet normal -0.9934807529882014 0 -0.11399997123682312
outer loop
vertex -23.333333333333332 -35 39.666666666666664
vertex -21.05749716566761 -36.6 19.833333333333332
vertex -23.333333333333332 -36.6 39.666666666666664
endloop
endfacet
facet normal -0.9934807529882014 0 0.11399997123682312
outer loop
vertex -21.05749716566761 -35 19.833333333333332
vertex -23.333333333333332 -35 0
vertex -23.333333333333332 -36.6 0
endloop
endfacet
facet normal -0.9934807529882014 0 0.11399997123682312
outer loop
vertex -21.05749716566761 -35 19.833333333333332
vertex -23.333333333333332 -36.6 0
vertex -21.05749716566761 -36.6 19.833333333333332
endloop
endfacet
facet normal 0 0 -1
outer loop
vertex -23.333333333333332 -35 0
vertex -14.233333333333333 -35 0
vertex -14.233333333333333 -36.6 0
endloop
endfacet
facet normal 0 0 -1
outer loop
vertex -23.333333333333332 -35 0
vertex -14.233333333333333 -36.6 0
vertex -23.333333333333332 -36.6 0
endloop
endfacet
facet normal 0 0 -1
outer loop
vertex -14.233333333333333 -35 0
vertex -5.133333333333333 -35 0
vertex -5.133333333333333 -36.6 0
endloop
endfacet
facet normal 0 0 -1
outer loop
vertex -14.233333333333333 -35 0
vertex -5.133333333333333 -36.6 0
vertex -14.233333333333333 -36.6 0
endloop
endfacet
facet normal 0.9088959939060105 0 0.41702286779216957
outer loop
vertex -5.133333333333333 -35 0
vertex -14.233333333333333 -35 19.833333333333332
vertex -14.233333333333333 -36.6 19.833333333333332
endloop
endfacet
facet normal 0.9088959939060105 0 0.41702286779216957
outer loop
vertex -5.133333333333333 -35 0
vertex -14.233333333333333 -36.6 19.833333333333332
vertex -5.133333333333333 -36.6 0
endloop
endfacet
facet normal 0.9088959939060105 0 0.41702286779216957
outer loop
vertex -14.233333333333333 -35 19.833333333333332
vertex -23.333333333333332 -35 39.666666666666664
vertex -23.333333333333332 -36.6 39.666666666666664
endloop
endfacet
facet normal 0.9088959939060105 0 0.41702286779216957
outer loop
vertex -14.233333333333333 -35 19.833333333333332
vertex -23.333333333333332 -36.6 39.666666666666664
vertex -14.233333333333333 -36.6 19.833333333333332
endloop
endfacet
facet normal 0 -1 0
outer loop
vertex -11.199999999999998 -36.6 20.377777777777776
vertex -23.333333333333332 -36.6 39.666666666666664
vertex -14.233333333333333 -36.6 19.833333333333332
endloop
endfacet
facet normal 0 1 0
outer loop
vertex -11.199999999999998 -35 20.377777777777776
vertex -14.233333333333333 -35 19.833333333333332
vertex -23.333333333333332 -35 39.666666666666664
endloop
endfacet
facet normal 0 -1 0
outer loop
vertex -11.199999999999998 -36.6 20.377777777777776
vertex -14.233333333333333 -36.6 19.833333333333332
vertex -5.133333333333333 -36.6 0
endloop
endfacet
facet normal 0 1 0
outer loop
vertex -11.199999999999998 -35 20.377777777777776
vertex -5.133333333333333 -35 0
vertex -14.233333333333333 -35 19.833333333333332
endloop
endfacet
facet normal 0 -1 0
outer loop
vertex -11.199999999999998 -36.6 20.377777777777776
vertex -5.133333333333333 -36.6 0
vertex -5.133333333333333 -36.6 10.733333333333333
endloop
endfacet
facet normal 0 1 0
outer loop
vertex -11.199999999999998 -35 20.377777777777776
vertex -5.133333333333333 -35 10.733333333333333
vertex -5.133333333333333 -35 0
endloop
endfacet
facet normal 0 -1 0
outer loop
vertex -11.199999999999998 -36.6 20.377777777777776
vertex -5.133333333333333 -36.6 10.733333333333333
vertex -5.133333333333333 -36.6 21.466666666666665
endloop
endfacet
facet normal 0 1 0
outer loop
vertex -11.199999999999998 -35 20.377777777777776
vertex -5.133333333333333 -35 21.466666666666665
vertex -5.133333333333333 -35 10.733333333333333
endloop
endfacet
facet normal 0 -1 0
outer loop
vertex -11.199999999999998 -36.6 20.377777777777776
vertex -5.133333333333333 -36.6 21.466666666666665
vertex -14.233333333333333 -36.6 30.566666666666663
endloop
endfacet
facet normal 0 1 0
outer loop
vertex -11.199999999999998 -35 20.377777777777776
vertex -14.233333333333333 -35 30.566666666666663
vertex -5.133333333333333 -35 21.466666666666665
endloop
endfacet
facet normal 0 -1 0
outer loop
vertex -11.199999999999998 -36.6 20.377777777777776
vertex -14.233333333333333 -36.6 30.566666666666663
vertex -23.333333333333332 -36.6 39.666666666666664
endloop
endfacet
facet normal 0 1 0
outer loop
vertex -11.199999999999998 -35 20.377777777777776
vertex -23.333333333333332 -35 39.666666666666664
vertex -14.233333333333333 -35 30.566666666666663
endloop
endfacet
facet normal -0.9088959939060105 0 -0.41702286779216957
outer loop
vertex -23.333333333333332 -35 39.666666666666664
vertex -14.233333333333333 -35 19.833333333333332
vertex -14.233333333333333 -36.6 19.833333333333332
endloop
endfacet
facet normal -0.9088959939060105 0 -0.41702286779216957
outer loop
vertex -23.333333333333332 -35 39.666666666666664
vertex -14.233333333333333 -36.6 19.833333333333332
vertex -23.333333333333332 -36.6 39.666666666666664
endloop
endfacet
facet normal -0.9088959939060105 0 -0.41702286779216957
outer loop
vertex -14.233333333333333 -35 19.833333333333332
vertex -5.133333333333333 -35 0
vertex -5.133333333333333 -36.6 0
endloop
endfacet
facet normal -0.9088959939060105 0 -0.41702286779216957
outer loop
vertex -14.233333333333333 -35 19.833333333333332
vertex -5.133333333333333 -36.6 0
vertex -14.233333333333333 -36.6 19.833333333333332
endloop
endfacet
facet normal 1 0 0
outer loop
vertex -5.133333333333333 -35 0
vertex -5.133333333333333 -35 10.733333333333333
vertex -5.133333333333333 -36.6 10.733333333333333
endloop
endfacet
facet normal 1 0 0
outer loop
vertex -5.133333333333333 -35 0
vertex -5.133333333333333 -36.6 10.733333333333333
vertex -5.133333333333333 -36.6 0
endloop
endfacet
facet normal 1 0 0
outer loop
vertex -5.133333333333333 -35 10.733333333333333
vertex -5.133333333333333 -35 21.466666666666665
vertex -5.133333333333333 -36.6 21.466666666666665
endloop
endfacet
facet normal 1 0 0
outer loop
vertex -5.133333333333333 -35 10.733333333333333
vertex -5.133333333333333 -36.6 21.466666666666665
vertex -5.133333333333333 -36.6 10.733333333333333
endloop
endfacet
facet normal 0.7071067811865474 0 0.7071067811865476
outer loop
vertex -5.133333333333333 -35 21.466666666666665
vertex -14.233333333333333 -35 30.566666666666663
vertex -14.233333333333333 -36.6 30.566666666666663
endloop
endfacet
facet normal 0.7071067811865474 0 0.7071067811865476
outer loop
vertex -5.133333333333333 -35 21.466666666666665
vertex -14.233333333333333 -36.6 30.566666666666663
vertex -5.133333333333333 -36.6 21.466666666666665
endloop
endfacet
facet normal 0.7071067811865477 0 0.7071067811865476
outer loop
vertex -14.233333333333333 -35 30.566666666666663
vertex -23.333333333333332 -35 39.666666666666664
vertex -23.333333333333332 -36.6 39.666666666666664
endloop
endfacet
facet normal 0.7071067811865477 0 0.7071067811865476
outer loop
vertex -14.233333333333333 -35 30.566666666666663
vertex -23.333333333333332 -36.6 39.666666666666664
vertex -14.233333333333333 -36.6 30.566666666666663
endloop
endfacet
facet normal 0 -1 0
outer loop
vertex -9.488888888888889 -36.6 31.266666666666662
vertex -23.333333333333332 -36.6 39.666666666666664
vertex -14.233333333333333 -36.6 30.566666666666663
endloop
endfacet
facet normal 0 1 0
outer loop
vertex -9.488888888888889 -35 31.266666666666662
vertex -14.233333333333333 -35 30.566666666666663
vertex -23.333333333333332 -35 39.666666666666664
endloop
endfacet
facet normal 0 -1 0
outer loop
vertex -9.488888888888889 -36.6 31.266666666666662
vertex -14.233333333333333 -36.6 30.566666666666663
vertex -5.133333333333333 -36.6 21.466666666666665
endloop
endfacet
facet normal 0 1 0
outer loop
vertex -9.488888888888889 -35 31.266666666666662
vertex -5.133333333333333 -35 21.466666666666665
vertex -14.233333333333333 -35 30.566666666666663
endloop
endfacet
facet normal 0 -1 0
outer loop
vertex -9.488888888888889 -36.6 31.266666666666662
vertex -5.133333333333333 -36.6 21.466666666666665
vertex -2.5666666666666664 -36.6 27.066666666666663
endloop
endfacet
facet normal 0 1 0
outer loop
vertex -9.488888888888889 -35 31.266666666666662
vertex -2.5666666666666664 -35 27.066666666666663
vertex -5.133333333333333 -35 21.466666666666665
endloop
endfacet
facet normal 0 -1 0
outer loop
vertex -9.488888888888889 -36.6 31.266666666666662
vertex -2.5666666666666664 -36.6 27.066666666666663
vertex 0 -36.6 32.666666666666664
endloop
endfacet
facet normal 0 1 0
outer loop
vertex -9.488888888888889 -35 31.266666666666662
vertex 0 -35 32.666666666666664
vertex -2.5666666666666664 -35 27.066666666666663
endloop
endfacet
facet normal 0 -1 0
outer loop
vertex -9.488888888888889 -36.6 31.266666666666662
vertex 0 -36.6 32.666666666666664
vertex -12.104573915020898 -36.6 34.706975838819226
endloop
endfacet
facet normal 0 1 0
outer loop
vertex -9.488888888888889 -35 31.266666666666662
vertex -12.104573915020898 -35 34.706975838819226
vertex 0 -35 32.666666666666664
endloop
endfacet
facet normal 0 -1 0
outer loop
vertex -9.488888888888889 -36.6 31.266666666666662
vertex -12.104573915020898 -36.6 34.706975838819226
vertex -23.333333333333332 -36.6 39.666666666666664
endloop
endfacet
facet normal 0 1 0
outer loop
vertex -9.488888888888889 -35 31.266666666666662
vertex -23.333333333333332 -35 39.666666666666664
vertex -12.104573915020898 -35 34.706975838819226
endloop
endfacet
facet normal -0.7071067811865477 0 -0.7071067811865476
outer loop
vertex -23.333333333333332 -35 39.666666666666664
vertex -14.233333333333333 -35 30.566666666666663
vertex -14.233333333333333 -36.6 30.566666666666663
endloop
endfacet
facet normal -0.7071067811865477 0 -0.7071067811865476
outer loop
vertex -23.333333333333332 -35 39.666666666666664
vertex -14.233333333333333 -36.6 30.566666666666663
vertex -23.333333333333332 -36.6 39.666666666666664
endloop
endfacet
facet normal -0.7071067811865474 0 -0.7071067811865476
outer loop
vertex -14.233333333333333 -35 30.566666666666663
vertex -5.133333333333333 -35 21.466666666666665
vertex -5.133333333333333 -36.6 21.466666666666665
endloop
endfacet
facet normal -0.7071067811865474 0 -0.7071067811865476
outer loop
vertex -14.233333333333333 -35 30.566666666666663
vertex -5.133333333333333 -36.6 21.466666666666665
vertex -14.233333333333333 -36.6 30.566666666666663
endloop
endfacet
facet normal 0.9090648228942841 0 -0.4166547104932137
outer loop
vertex -5.133333333333333 -35 21.466666666666665
vertex -2.5666666666666664 -35 27.066666666666663
vertex -2.5666666666666664 -36.6 27.066666666666663
endloop
endfacet
facet normal 0.9090648228942841 0 -0.4166547104932137
outer loop
vertex -5.133333333333333 -35 21.466666666666665
vertex -2.5666666666666664 -36.6 27.066666666666663
vertex -5.133333333333333 -36.6 21.466666666666665
endloop
endfacet
facet normal 0.9090648228942841 0 -0.41665471049321345
outer loop
vertex -2.5666666666666664 -35 27.066666666666663
vertex 0 -35 32.666666666666664
vertex 0 -36.6 32.666666666666664
endloop
endfacet
facet normal 0.9090648228942841 0 -0.41665471049321345
outer loop
vertex -2.5666666666666664 -35 27.066666666666663
vertex 0 -36.6 32.666666666666664
vertex -2.5666666666666664 -36.6 27.066666666666663
endloop
endfacet
facet normal 0.1662122504583483 0 0.9860899998466526
outer loop
vertex 0 -35 32.666666666666664
vertex -12.104573915020898 -35 34.706975838819226
vertex -12.104573915020898 -36.6 34.706975838819226
endloop
endfacet
facet normal 0.1662122504583483 0 0.9860899998466526
outer loop
vertex 0 -35 32.666666666666664
vertex -12.104573915020898 -36.6 34.706975838819226
vertex 0 -36.6 32.666666666666664
endloop
endfacet
facet normal 0.4040374788907291 0 0.9147424313169386
outer loop
vertex -12.104573915020898 -35 34.706975838819226
vertex -23.333333333333332 -35 39.666666666666664
vertex -23.333333333333332 -36.6 39.666666666666664
endloop
endfacet
facet normal 0.4040374788907291 0 0.9147424313169386
outer loop
vertex -12.104573915020898 -35 34.706975838819226
vertex -23.333333333333332 -36.6 39.666666666666664
vertex -12.104573915020898 -36.6 34.706975838819226
endloop
endfacet
facet normal 0 -1 0
outer loop
vertex 11.199999999999998 -36.6 7.155555555555555
vertex 5.133333333333333 -36.6 21.466666666666665
vertex 5.133333333333333 -36.6 10.733333333333333
endloop
endfacet
facet normal 0 1 0
outer loop
vertex 11.199999999999998 -35 7.155555555555555
vertex 5.133333333333333 -35 10.733333333333333
vertex 5.133333333333333 -35 21.466666666666665
endloop
endfacet
facet normal 0 -1 0
outer loop
vertex 11.199999999999998 -36.6 7.155555555555555
vertex 5.133333333333333 -36.6 10.733333333333333
vertex 5.133333333333333 -36.6 0
endloop
endfacet
facet normal 0 1 0
outer loop
vertex 11.199999999999998 -35 7.155555555555555
vertex 5.133333333333333 -35 0
vertex 5.133333333333333 -35 10.733333333333333
endloop
endfacet
facet normal 0 -1 0
outer loop
vertex 11.199999999999998 -36.6 7.155555555555555
vertex 5.133333333333333 -36.6 0
vertex 14.233333333333333 -36.6 0
endloop
endfacet
facet normal 0 1 0
outer loop
vertex 11.199999999999998 -35 7.155555555555555
vertex 14.233333333333333 -35 0
vertex 5.133333333333333 -35 0
endloop
endfacet
facet normal 0 -1 0
outer loop
vertex 11.199999999999998 -36.6 7.155555555555555
vertex 14.233333333333333 -36.6 0
vertex 23.333333333333332 -36.6 0
endloop
endfacet
facet normal 0 1 0
outer loop
vertex 11.199999999999998 -35 7.155555555555555
vertex 23.333333333333332 -35 0
vertex 14.233333333333333 -35 0
endloop
endfacet
facet normal 0 -1 0
outer loop
vertex 11.199999999999998 -36.6 7.155555555555555
vertex 23.333333333333332 -36.6 0
vertex 14.233333333333333 -36.6 10.733333333333333
endloop
endfacet
facet normal 0 1 0
outer loop
vertex 11.199999999999998 -35 7.155555555555555
vertex 14.233333333333333 -35 10.733333333333333
vertex 23.333333333333332 -35 0
endloop
endfacet
facet normal 0 -1 0
outer loop
vertex 11.199999999999998 -36.6 7.155555555555555
vertex 14.233333333333333 -36.6 10.733333333333333
vertex 5.133333333333333 -36.6 21.466666666666665
endloop
endfacet
facet normal 0 1 0
outer loop
vertex 11.199999999999998 -35 7.155555555555555
vertex 5.133333333333333 -35 21.466666666666665
vertex 14.233333333333333 -35 10.733333333333333
endloop
endfacet
facet normal -1 0 0
outer loop
vertex 5.133333333333333 -35 21.466666666666665
vertex 5.133333333333333 -35 10.733333333333333
vertex 5.133333333333333 -36.6 10.733333333333333
endloop
endfacet
facet normal -1 0 0
outer loop
vertex 5.133333333333333 -35 21.466666666666665
vertex 5.133333333333333 -36.6 10.733333333333333
vertex 5.133333333333333 -36.6 21.466666666666665
endloop
endfacet
facet normal -1 0 0
outer loop
vertex 5.133333333333333 -35 10.733333333333333
vertex 5.133333333333333 -35 0
vertex 5.133333333333333 -36.6 0
endloop
endfacet
facet normal -1 0 0
outer loop
vertex 5.133333333333333 -35 10.733333333333333
vertex 5.133333333333333 -36.6 0
vertex 5.133333333333333 -36.6 10.733333333333333
endloop
endfacet
facet normal 0 0 -1
outer loop
vertex 5.133333333333333 -35 0
vertex 14.233333333333333 -35 0
vertex 14.233333333333333 -36.6 0
endloop
endfacet
facet normal 0 0 -1
outer loop
vertex 5.133333333333333 -35 0
vertex 14.233333333333333 -36.6 0
vertex 5.133333333333333 -36.6 0
endloop
endfacet
facet normal 0 0 -1
outer loop
vertex 14.233333333333333 -35 0
vertex 23.333333333333332 -35 0
vertex 23.333333333333332 -36.6 0
endloop
endfacet
facet normal 0 0 -1
outer loop
vertex 14.233333333333333 -35 0
vertex 23.333333333333332 -36.6 0
vertex 14.233333333333333 -36.6 0
endloop
endfacet
facet normal 0.7627569634671121 0 0.6466852516351603
outer loop
vertex 23.333333333333332 -35 0
vertex 14.233333333333333 -35 10.733333333333333
vertex 14.233333333333333 -36.6 10.733333333333333
endloop
endfacet
facet normal 0.7627569634671121 0 0.6466852516351603
outer loop
vertex 23.333333333333332 -35 0
vertex 14.233333333333333 -36.6 10.733333333333333
vertex 23.333333333333332 -36.6 0
endloop
endfacet
facet normal 0.7627569634671121 0 0.6466852516351603
outer loop
vertex 14.233333333333333 -35 10.733333333333333
vertex 5.133333333333333 -35 21.466666666666665
vertex 5.133333333333333 -36.6 21.466666666666665
endloop
endfacet
facet normal 0.7627569634671121 0 0.6466852516351603
outer loop
vertex 14.233333333333333 -35 10.733333333333333
vertex 5.133333333333333 -36.6 21.466666666666665
vertex 14.233333333333333 -36.6 10.733333333333333
endloop
endfacet
facet normal 0 -1 0
outer loop
vertex 9.488888888888889 -36.6 18.04444444444444
vertex 0 -36.6 32.666666666666664
vertex 2.5666666666666664 -36.6 27.066666666666663
endloop
endfacet
facet normal 0 1 0
outer loop
vertex 9.488888888888889 -35 18.04444444444444
vertex 2.5666666666666664 -35 27.066666666666663
vertex 0 -35 32.666666666666664
endloop
endfacet
facet normal 0 -1 0
outer loop
vertex 9.488888888888889 -36.6 18.04444444444444
vertex 2.5666666666666664 -36.6 27.066666666666663
vertex 5.133333333333333 -36.6 21.466666666666665
endloop
endfacet
facet normal 0 1 0
outer loop
vertex 9.488888888888889 -35 18.04444444444444
vertex 5.133333333333333 -35 21.466666666666665
vertex 2.5666666666666664 -35 27.066666666666663
endloop
endfacet
facet normal 0 -1 0
outer loop
vertex 9.488888888888889 -36.6 18.04444444444444
vertex 5.133333333333333 -36.6 21.466666666666665
vertex 14.233333333333333 -36.6 10.733333333333333
endloop
endfacet
facet normal 0 1 0
outer loop
vertex 9.488888888888889 -35 18.04444444444444
vertex 14.233333333333333 -35 10.733333333333333
vertex 5.133333333333333 -35 21.466666666666665
endloop
endfacet
facet normal 0 -1 0
outer loop
vertex 9.488888888888889 -36.6 18.04444444444444
vertex 14.233333333333333 -36.6 10.733333333333333
vertex 23.333333333333332 -36.6 0
endloop
endfacet
facet normal 0 1 0
outer loop
vertex 9.488888888888889 -35 18.04444444444444
vertex 23.333333333333332 -35 0
vertex 14.233333333333333 -35 10.733333333333333
endloop
endfacet
facet normal 0 -1 0
outer loop
vertex 9.488888888888889 -36.6 18.04444444444444
vertex 23.333333333333332 -36.6 0
vertex 11.666666666666666 -36.6 16.333333333333332
endloop
endfacet
facet normal 0 1 0
outer loop
vertex 9.488888888888889 -35 18.04444444444444
vertex 11.666666666666666 -35 16.333333333333332
vertex 23.333333333333332 -35 0
endloop
endfacet
facet normal 0 -1 0
outer loop
vertex 9.488888888888889 -36.6 18.04444444444444
vertex 11.666666666666666 -36.6 16.333333333333332
vertex 0 -36.6 32.666666666666664
endloop
endfacet
facet normal 0 1 0
outer loop
vertex 9.488888888888889 -35 18.04444444444444
vertex 0 -35 32.666666666666664
vertex 11.666666666666666 -35 16.333333333333332
endloop
endfacet
facet normal -0.9090648228942841 0 -0.41665471049321345
outer loop
vertex 0 -35 32.666666666666664
vertex 2.5666666666666664 -35 27.066666666666663
vertex 2.5666666666666664 -36.6 27.066666666666663
endloop
endfacet
facet normal -0.9090648228942841 0 -0.41665471049321345
outer loop
vertex 0 -35 32.666666666666664
vertex 2.5666666666666664 -36.6 27.066666666666663
vertex 0 -36.6 32.666666666666664
endloop
endfacet
facet normal -0.9090648228942841 0 -0.4166547104932137
outer loop
vertex 2.5666666666666664 -35 27.066666666666663
vertex 5.133333333333333 -35 21.466666666666665
vertex 5.133333333333333 -36.6 21.466666666666665
endloop
endfacet
facet normal -0.9090648228942841 0 -0.4166547104932137
outer loop
vertex 2.5666666666666664 -35 27.066666666666663
vertex 5.133333333333333 -36.6 21.466666666666665
vertex 2.5666666666666664 -36.6 27.066666666666663
endloop
endfacet
facet normal -0.7627569634671121 0 -0.6466852516351603
outer loop
vertex 5.133333333333333 -35 21.466666666666665
vertex 14.233333333333333 -35 10.733333333333333
vertex 14.233333333333333 -36.6 10.733333333333333
endloop
endfacet
facet normal -0.7627569634671121 0 -0.6466852516351603
outer loop
vertex 5.133333333333333 -35 21.466666666666665
vertex 14.233333333333333 -36.6 10.733333333333333
vertex 5.133333333333333 -36.6 21.466666666666665
endloop
endfacet
facet normal -0.7627569634671121 0 -0.6466852516351603
outer loop
vertex 14.233333333333333 -35 10.733333333333333
vertex 23.333333333333332 -35 0
vertex 23.333333333333332 -36.6 0
endloop
endfacet
facet normal -0.7627569634671121 0 -0.6466852516351603
outer loop
vertex 14.233333333333333 -35 10.733333333333333
vertex 23.333333333333332 -36.6 0
vertex 14.233333333333333 -36.6 10.733333333333333
endloop
endfacet
facet normal 0.8137334712067349 0 0.5812381937190964
outer loop
vertex 23.333333333333332 -35 0
vertex 11.666666666666666 -35 16.333333333333332
vertex 11.666666666666666 -36.6 16.333333333333332
endloop
endfacet
facet normal 0.8137334712067349 0 0.5812381937190964
outer loop
vertex 23.333333333333332 -35 0
vertex 11.666666666666666 -36.6 16.333333333333332
vertex 23.333333333333332 -36.6 0
endloop
endfacet
facet normal 0.8137334712067349 0 0.5812381937190964
outer loop
vertex 11.666666666666666 -35 16.333333333333332
vertex 0 -35 32.666666666666664
vertex 0 -36.6 32.666666666666664
endloop
endfacet
facet normal 0.8137334712067349 0 0.5812381937190964
outer loop
vertex 11.666666666666666 -35 16.333333333333332
vertex 0 -36.6 32.666666666666664
vertex 11.666666666666666 -36.6 16.333333333333332
endloop
endfacet
facet normal 0 -1 0
outer loop
vertex 15.555555555555555 -36.6 24.11111111111111
vertex 0 -36.6 32.666666666666664
vertex 11.666666666666666 -36.6 16.333333333333332
endloop
endfacet
facet normal 0 1 0
outer loop
vertex 15.555555555555555 -35 24.11111111111111
vertex 11.666666666666666 -35 16.333333333333332
vertex 0 -35 32.666666666666664
endloop
endfacet
facet normal 0 -1 0
outer loop
vertex 15.555555555555555 -36.6 24.11111111111111
vertex 11.666666666666666 -36.6 16.333333333333332
vertex 23.333333333333332 -36.6 0
endloop
endfacet
facet normal 0 1 0
outer loop
vertex 15.555555555555555 -35 24.11111111111111
vertex 23.333333333333332 -35 0
vertex 11.666666666666666 -35 16.333333333333332
endloop
endfacet
facet normal 0 -1 0
outer loop
vertex 15.555555555555555 -36.6 24.11111111111111
vertex 23.333333333333332 -36.6 0
vertex 20.490160403161426 -36.6 19.833333333333332
endloop
endfacet
facet normal 0 1 0
outer loop
vertex 15.555555555555555 -35 24.11111111111111
vertex 20.490160403161426 -35 19.833333333333332
vertex 23.333333333333332 -35 0
endloop
endfacet
facet normal 0 -1 0
outer loop
vertex 15.555555555555555 -36.6 24.11111111111111
vertex 20.490160403161426 -36.6 19.833333333333332
vertex 23.333333333333332 -36.6 39.666666666666664
endloop
endfacet
facet normal 0 1 0
outer loop
vertex 15.555555555555555 -35 24.11111111111111
vertex 23.333333333333332 -35 39.666666666666664
vertex 20.490160403161426 -35 19.833333333333332
endloop
endfacet
facet normal 0 -1 0
outer loop
vertex 15.555555555555555 -36.6 24.11111111111111
vertex 23.333333333333332 -36.6 39.666666666666664
vertex 12.483646396451034 -36.6 33.44340090071877
endloop
endfacet
facet normal 0 1 0
outer loop
vertex 15.555555555555555 -35 24.11111111111111
vertex 12.483646396451034 -35 33.44340090071877
vertex 23.333333333333332 -35 39.666666666666664
endloop
endfacet
facet normal 0 -1 0
outer loop
vertex 15.555555555555555 -36.6 24.11111111111111
vertex 12.483646396451034 -36.6 33.44340090071877
vertex 0 -36.6 32.666666666666664
endloop
endfacet
facet normal 0 1 0
outer loop
vertex 15.555555555555555 -35 24.11111111111111
vertex 0 -35 32.666666666666664
vertex 12.483646396451034 -35 33.44340090071877
endloop
endfacet
facet normal -0.8137334712067349 0 -0.5812381937190964
outer loop
vertex 0 -35 32.666666666666664
vertex 11.666666666666666 -35 16.333333333333332
vertex 11.666666666666666 -36.6 16.333333333333332
endloop
endfacet
facet normal -0.8137334712067349 0 -0.5812381937190964
outer loop
vertex 0 -35 32.666666666666664
vertex 11.666666666666666 -36.6 16.333333333333332
vertex 0 -36.6 32.666666666666664
endloop
endfacet
facet normal -0.8137334712067349 0 -0.5812381937190964
outer loop
vertex 11.666666666666666 -35 16.333333333333332
vertex 23.333333333333332 -35 0
vertex 23.333333333333332 -36.6 0
endloop
endfacet
facet normal -0.8137334712067349 0 -0.5812381937190964
outer loop
vertex 11.666666666666666 -35 16.333333333333332
vertex 23.333333333333332 -36.6 0
vertex 11.666666666666666 -36.6 16.333333333333332
endloop
endfacet
facet normal 0.9898806235475673 0 0.14190261141035956
outer loop
vertex 23.333333333333332 -35 0
vertex 20.490160403161426 -35 19.833333333333332
vertex 20.490160403161426 -36.6 19.833333333333332
endloop
endfacet
facet normal 0.9898806235475673 0 0.14190261141035956
outer loop
vertex 23.333333333333332 -35 0
vertex 20.490160403161426 -36.6 19.833333333333332
vertex 23.333333333333332 -36.6 0
endloop
endfacet
facet normal 0.9898806235475673 0 -0.14190261141035956
outer loop
vertex 20.490160403161426 -35 19.833333333333332
vertex 23.333333333333332 -35 39.666666666666664
vertex 23.333333333333332 -36.6 39.666666666666664
endloop
endfacet
facet normal 0.9898806235475673 0 -0.14190261141035956
outer loop
vertex 20.490160403161426 -35 19.833333333333332
vertex 23.333333333333332 -36.6 39.666666666666664
vertex 20.490160403161426 -36.6 19.833333333333332
endloop
endfacet
facet normal -0.49755129433486117 0 0.8674345563243976
outer loop
vertex 23.333333333333332 -35 39.666666666666664
vertex 12.483646396451034 -35 33.44340090071877
vertex 12.483646396451034 -36.6 33.44340090071877
endloop
endfacet
facet normal -0.49755129433486117 0 0.8674345563243976
outer loop
vertex 23.333333333333332 -35 39.666666666666664
vertex 12.483646396451034 -36.6 33.44340090071877
vertex 23.333333333333332 -36.6 39.666666666666664
endloop
endfacet
facet normal -0.062100051330197144 0 0.9980699292257967
outer loop
vertex 12.483646396451034 -35 33.44340090071877
vertex 0 -35 32.666666666666664
vertex 0 -36.6 32.666666666666664
endloop
endfacet
facet normal -0.062100051330197144 0 0.9980699292257967
outer loop
vertex 12.483646396451034 -35 33.44340090071877
vertex 0 -36.6 32.666666666666664
vertex 12.483646396451034 -36.6 33.44340090071877
endloop
endfacet
facet normal 0 -1 0
outer loop
vertex 0 -36.6 37.333333333333336
vertex -23.333333333333332 -36.6 39.666666666666664
vertex -11.35176959631793 -36.6 37.21632356782912
endloop
endfacet
facet normal 0 1 0
outer loop
vertex 0 -35 37.333333333333336
vertex -11.35176959631793 -35 37.21632356782912
vertex -23.333333333333332 -35 39.666666666666664
endloop
endfacet
facet normal 0 -1 0
outer loop
vertex 0 -36.6 37.333333333333336
vertex -11.35176959631793 -36.6 37.21632356782912
vertex 0 -36.6 32.666666666666664
endloop
endfacet
facet normal 0 1 0
outer loop
vertex 0 -35 37.333333333333336
vertex 0 -35 32.666666666666664
vertex -11.35176959631793 -35 37.21632356782912
endloop
endfacet
facet normal 0 -1 0
outer loop
vertex 0 -36.6 37.333333333333336
vertex 0 -36.6 32.666666666666664
vertex 11.35176959631793 -36.6 37.21632356782912
endloop
endfacet
facet normal 0 1 0
outer loop
vertex 0 -35 37.333333333333336
vertex 11.35176959631793 -35 37.21632356782912
vertex 0 -35 32.666666666666664
endloop
endfacet
facet normal 0 -1 0
outer loop
vertex 0 -36.6 37.333333333333336
vertex 11.35176959631793 -36.6 37.21632356782912
vertex 23.333333333333332 -36.6 39.666666666666664
endloop
endfacet
facet normal 0 1 0
outer loop
vertex 0 -35 37.333333333333336
vertex 23.333333333333332 -35 39.666666666666664
vertex 11.35176959631793 -35 37.21632356782912
endloop
endfacet
facet normal 0 -1 0
outer loop
vertex 0 -36.6 37.333333333333336
vertex 23.333333333333332 -36.6 39.666666666666664
vertex 0 -36.6 39.666666666666664
endloop
endfacet
facet normal 0 1 0
outer loop
vertex 0 -35 37.333333333333336
vertex 0 -35 39.666666666666664
vertex 23.333333333333332 -35 39.666666666666664
endloop
endfacet
facet normal 0 -1 0
outer loop
vertex 0 -36.6 37.333333333333336
vertex 0 -36.6 39.666666666666664
vertex -23.333333333333332 -36.6 39.666666666666664
endloop
endfacet
facet normal 0 1 0
outer loop
vertex 0 -35 37.333333333333336
vertex -23.333333333333332 -35 39.666666666666664
vertex 0 -35 39.666666666666664
endloop
endfacet
facet normal -0.2003623851356309 0 -0.9797218557441502
outer loop
vertex -23.333333333333332 -35 39.666666666666664
vertex -11.35176959631793 -35 37.21632356782912
vertex -11.35176959631793 -36.6 37.21632356782912
endloop
endfacet
facet normal -0.2003623851356309 0 -0.9797218557441502
outer loop
vertex -23.333333333333332 -35 39.666666666666664
vertex -11.35176959631793 -36.6 37.21632356782912
vertex -23.333333333333332 -36.6 39.666666666666664
endloop
endfacet
facet normal -0.37202141557162016 0 -0.9282241466133534
outer loop
vertex -11.35176959631793 -35 37.21632356782912
vertex 0 -35 32.666666666666664
vertex 0 -36.6 32.666666666666664
endloop
endfacet
facet normal -0.37202141557162016 0 -0.9282241466133534
outer loop
vertex -11.35176959631793 -35 37.21632356782912
vertex 0 -36.6 32.666666666666664
vertex -11.35176959631793 -36.6 37.21632356782912
endloop
endfacet
facet normal 0.37202141557162016 0 -0.9282241466133534
outer loop
vertex 0 -35 32.666666666666664
vertex 11.35176959631793 -35 37.21632356782912
vertex 11.35176959631793 -36.6 37.21632356782912
endloop
endfacet
facet normal 0.37202141557162016 0 -0.9282241466133534
outer loop
vertex 0 -35 32.666666666666664
vertex 11.35176959631793 -36.6 37.21632356782912
vertex 0 -36.6 32.666666666666664
endloop
endfacet
facet normal 0.2003623851356309 0 -0.9797218557441502
outer loop
vertex 11.35176959631793 -35 37.21632356782912
vertex 23.333333333333332 -35 39.666666666666664
vertex 23.333333333333332 -36.6 39.666666666666664
endloop
endfacet
facet normal 0.2003623851356309 0 -0.9797218557441502
outer loop
vertex 11.35176959631793 -35 37.21632356782912
vertex 23.333333333333332 -36.6 39.666666666666664
vertex 11.35176959631793 -36.6 37.21632356782912
endloop
endfacet
facet normal 0 0 1
outer loop
vertex 23.333333333333332 -35 39.666666666666664
vertex 0 -35 39.666666666666664
vertex 0 -36.6 39.666666666666664
endloop
endfacet
facet normal 0 0 1
outer loop
vertex 23.333333333333332 -35 39.666666666666664
vertex 0 -36.6 39.666666666666664
vertex 23.333333333333332 -36.6 39.666666666666664
endloop
endfacet
facet normal 0 0 1
outer loop
vertex 0 -35 39.666666666666664
vertex -23.333333333333332 -35 39.666666666666664
vertex -23.333333333333332 -36.6 39.666666666666664
endloop
endfacet
facet normal 0 0 1
outer loop
vertex 0 -35 39.666666666666664
vertex -23.333333333333332 -36.6 39.666666666666664
vertex 0 -36.6 39.666666666666664
endloop
endfacet
facet normal 0 -1 0
outer loop
vertex 0 -36.6 48.99999999999999
vertex 23.333333333333332 -36.6 39.666666666666664
vertex 8.980043517494783 -36.6 51.42781404235676
endloop
endfacet
facet normal 0 1 0
outer loop
vertex 0 -35 48.99999999999999
vertex 8.980043517494783 -35 51.42781404235676
vertex 23.333333333333332 -35 39.666666666666664
endloop
endfacet
facet normal 0 -1 0
outer loop
vertex 0 -36.6 48.99999999999999
vertex 8.980043517494783 -36.6 51.42781404235676
vertex 0 -36.6 67.66666666666666
endloop
endfacet
facet normal 0 1 0
outer loop
vertex 0 -35 48.99999999999999
vertex 0 -35 67.66666666666666
vertex 8.980043517494783 -35 51.42781404235676
endloop
endfacet
facet normal 0 -1 0
outer loop
vertex 0 -36.6 48.99999999999999
vertex 0 -36.6 67.66666666666666
vertex -8.980043517494783 -36.6 51.42781404235676
endloop
endfacet
facet normal 0 1 0
outer loop
vertex 0 -35 48.99999999999999
vertex -8.980043517494783 -35 51.42781404235676
vertex 0 -35 67.66666666666666
endloop
endfacet
facet normal 0 -1 0
outer loop
vertex 0 -36.6 48.99999999999999
vertex -8.980043517494783 -36.6 51.42781404235676
vertex -23.333333333333332 -36.6 39.666666666666664
endloop
endfacet
facet normal 0 1 0
outer loop
vertex 0 -35 48.99999999999999
vertex -23.333333333333332 -35 39.666666666666664
vertex -8.980043517494783 -35 51.42781404235676
endloop
endfacet
facet normal 0 -1 0
outer loop
vertex 0 -36.6 48.99999999999999
vertex -23.333333333333332 -36.6 39.666666666666664
vertex 0 -36.6 39.666666666666664
endloop
endfacet
facet normal 0 1 0
outer loop
vertex 0 -35 48.99999999999999
vertex 0 -35 39.666666666666664
vertex -23.333333333333332 -35 39.666666666666664
endloop
endfacet
facet normal 0 -1 0
outer loop
vertex 0 -36.6 48.99999999999999
vertex 0 -36.6 39.666666666666664
vertex 23.333333333333332 -36.6 39.666666666666664
endloop
endfacet
facet normal 0 1 0
outer loop
vertex 0 -35 48.99999999999999
vertex 23.333333333333332 -35 39.666666666666664
vertex 0 -35 39.666666666666664
endloop
endfacet
facet normal 0.6338040330252319 0 0.7734936636592122
outer loop
vertex 23.333333333333332 -35 39.666666666666664
vertex 8.980043517494783 -35 51.42781404235676
vertex 8.980043517494783 -36.6 51.42781404235676
endloop
endfacet
facet normal 0.6338040330252319 0 0.7734936636592122
outer loop
vertex 23.333333333333332 -35 39.666666666666664
vertex 8.980043517494783 -36.6 51.42781404235676
vertex 23.333333333333332 -36.6 39.666666666666664
endloop
endfacet
facet normal 0.8751059702103325 0 0.4839313390370917
outer loop
vertex 8.980043517494783 -35 51.42781404235676
vertex 0 -35 67.66666666666666
vertex 0 -36.6 67.66666666666666
endloop
endfacet
facet normal 0.8751059702103325 0 0.4839313390370917
outer loop
vertex 8.980043517494783 -35 51.42781404235676
vertex 0 -36.6 67.66666666666666
vertex 8.980043517494783 -36.6 51.42781404235676
endloop
endfacet
facet normal -0.8751059702103325 0 0.4839313390370917
outer loop
vertex 0 -35 67.66666666666666
vertex -8.980043517494783 -35 51.42781404235676
vertex -8.980043517494783 -36.6 51.42781404235676
endloop
endfacet
facet normal -0.8751059702103325 0 0.4839313390370917
outer loop
vertex 0 -35 67.66666666666666
vertex -8.980043517494783 -36.6 51.42781404235676
vertex 0 -36.6 67.66666666666666
endloop
endfacet
facet normal -0.6338040330252319 0 0.7734936636592122
outer loop
vertex -8.980043517494783 -35 51.42781404235676
vertex -23.333333333333332 -35 39.666666666666664
vertex -23.333333333333332 -36.6 39.666666666666664
endloop
endfacet
facet normal -0.6338040330252319 0 0.7734936636592122
outer loop
vertex -8.980043517494783 -35 51.42781404235676
vertex -23.333333333333332 -36.6 39.666666666666664
vertex -8.980043517494783 -36.6 51.42781404235676
endloop
endfacet
facet normal 0 0 -1
outer loop
vertex -23.333333333333332 -35 39.666666666666664
vertex 0 -35 39.666666666666664
vertex 0 -36.6 39.666666666666664
endloop
endfacet
facet normal 0 0 -1
outer loop
vertex -23.333333333333332 -35 39.666666666666664
vertex 0 -36.6 39.666666666666664
vertex -23.333333333333332 -36.6 39.666666666666664
endloop
endfacet
facet normal 0 0 -1
outer loop
vertex 0 -35 39.666666666666664
vertex 23.333333333333332 -35 39.666666666666664
vertex 23.333333333333332 -36.6 39.666666666666664
endloop
endfacet
facet normal 0 0 -1
outer loop
vertex 0 -35 39.666666666666664
vertex 23.333333333333332 -36.6 39.666666666666664
vertex 0 -36.6 39.666666666666664
endloop
endfacet
facet normal 0 1 0
outer loop
vertex -7.777777777777778 36.6 13.222222222222221
vertex -23.333333333333332 36.6 39.666666666666664
vertex 0 36.6 19.833333333333332
endloop
endfacet
facet normal 0 -1 0
outer loop
vertex -7.777777777777778 35 13.222222222222221
vertex 0 35 19.833333333333332
vertex -23.333333333333332 35 39.666666666666664
endloop
endfacet
facet normal 0 1 0
outer loop
vertex -7.777777777777778 36.6 13.222222222222221
vertex 0 36.6 19.833333333333332
vertex 23.333333333333332 36.6 0
endloop
endfacet
facet normal 0 -1 0
outer loop
vertex -7.777777777777778 35 13.222222222222221
vertex 23.333333333333332 35 0
vertex 0 35 19.833333333333332
endloop
endfacet
facet normal 0 1 0
outer loop
vertex -7.777777777777778 36.6 13.222222222222221
vertex 23.333333333333332 36.6 0
vertex 0 36.6 0
endloop
endfacet
facet normal 0 -1 0
outer loop
vertex -7.777777777777778 35 13.222222222222221
vertex 0 35 0
vertex 23.333333333333332 35 0
endloop
endfacet
facet normal 0 1 0
outer loop
vertex -7.777777777777778 36.6 13.222222222222221
vertex 0 36.6 0
vertex -23.333333333333332 36.6 0
endloop
endfacet
facet normal 0 -1 0
outer loop
vertex -7.777777777777778 35 13.222222222222221
vertex -23.333333333333332 35 0
vertex 0 35 0
endloop
endfacet
facet normal 0 1 0
outer loop
vertex -7.777777777777778 36.6 13.222222222222221
vertex -23.333333333333332 36.6 0
vertex -19.31955554547699 36.6 19.833333333333332
endloop
endfacet
facet normal 0 -1 0
outer loop
vertex -7.777777777777778 35 13.222222222222221
vertex -19.31955554547699 35 19.833333333333332
vertex -23.333333333333332 35 0
endloop
endfacet
facet normal 0 1 0
outer loop
vertex -7.777777777777778 36.6 13.222222222222221
vertex -19.31955554547699 36.6 19.833333333333332
vertex -23.333333333333332 36.6 39.666666666666664
endloop
endfacet
facet normal 0 -1 0
outer loop
vertex -7.777777777777778 35 13.222222222222221
vertex -23.333333333333332 35 39.666666666666664
vertex -19.31955554547699 35 19.833333333333332
endloop
endfacet
facet normal 0.6476484200955406 0 0.7619393177594594
outer loop
vertex -23.333333333333332 35 39.666666666666664
vertex 0 35 19.833333333333332
vertex 0 36.6 19.833333333333332
endloop
endfacet
facet normal 0.6476484200955406 0 0.7619393177594594
outer loop
vertex -23.333333333333332 35 39.666666666666664
vertex 0 36.6 19.833333333333332
vertex -23.333333333333332 36.6 39.666666666666664
endloop
endfacet
facet normal 0.6476484200955406 0 0.7619393177594594
outer loop
vertex 0 35 19.833333333333332
vertex 23.333333333333332 35 0
vertex 23.333333333333332 36.6 0
endloop
endfacet
facet normal 0.6476484200955406 0 0.7619393177594594
outer loop
vertex 0 35 19.833333333333332
vertex 23.333333333333332 36.6 0
vertex 0 36.6 19.833333333333332
endloop
endfacet
facet normal 0 0 -1
outer loop
vertex 23.333333333333332 35 0
vertex 0 35 0
vertex 0 36.6 0
endloop
endfacet
facet normal 0 0 -1
outer loop
vertex 23.333333333333332 35 0
vertex 0 36.6 0
vertex 23.333333333333332 36.6 0
endloop
endfacet
facet normal 0 0 -1
outer loop
vertex 0 35 0
vertex -23.333333333333332 35 0
vertex -23.333333333333332 36.6 0
endloop
endfacet
facet normal 0 0 -1
outer loop
vertex 0 35 0
vertex -23.333333333333332 36.6 0
vertex 0 36.6 0
endloop
endfacet
facet normal -0.9801303985766958 0 0.19835423309293734
outer loop
vertex -23.333333333333332 35 0
vertex -19.31955554547699 35 19.833333333333332
vertex -19.31955554547699 36.6 19.833333333333332
endloop
endfacet
facet normal -0.9801303985766958 0 0.19835423309293734
outer loop
vertex -23.333333333333332 35 0
vertex -19.31955554547699 36.6 19.833333333333332
vertex -23.333333333333332 36.6 0
endloop
endfacet
facet normal -0.9801303985766958 0 -0.19835423309293734
outer loop
vertex -19.31955554547699 35 19.833333333333332
vertex -23.333333333333332 35 39.666666666666664
vertex -23.333333333333332 36.6 39.666666666666664
endloop
endfacet
facet normal -0.9801303985766958 0 -0.19835423309293734
outer loop
vertex -19.31955554547699 35 19.833333333333332
vertex -23.333333333333332 36.6 39.666666666666664
vertex -19.31955554547699 36.6 19.833333333333332
endloop
endfacet
facet normal 0 1 0
outer loop
vertex 7.777777777777778 36.6 26.444444444444443
vertex -23.333333333333332 36.6 39.666666666666664
vertex 0 36.6 39.666666666666664
endloop
endfacet
facet normal 0 -1 0
outer loop
vertex 7.777777777777778 35 26.444444444444443
vertex 0 35 39.666666666666664
vertex -23.333333333333332 35 39.666666666666664
endloop
endfacet
facet normal 0 1 0
outer loop
vertex 7.777777777777778 36.6 26.444444444444443
vertex 0 36.6 39.666666666666664
vertex 23.333333333333332 36.6 39.666666666666664
endloop
endfacet
facet normal 0 -1 0
outer loop
vertex 7.777777777777778 35 26.444444444444443
vertex 23.333333333333332 35 39.666666666666664
vertex 0 35 39.666666666666664
endloop
endfacet
facet normal 0 1 0
outer loop
vertex 7.777777777777778 36.6 26.444444444444443
vertex 23.333333333333332 36.6 39.666666666666664
vertex 19.319555545476994 36.6 19.833333333333332
endloop
endfacet
facet normal 0 -1 0
outer loop
vertex 7.777777777777778 35 26.444444444444443
vertex 19.319555545476994 35 19.833333333333332
vertex 23.333333333333332 35 39.666666666666664
endloop
endfacet
facet normal 0 1 0
outer loop
vertex 7.777777777777778 36.6 26.444444444444443
vertex 19.319555545476994 36.6 19.833333333333332
vertex 23.333333333333332 36.6 0
endloop
endfacet
facet normal 0 -1 0
outer loop
vertex 7.777777777777778 35 26.444444444444443
vertex 23.333333333333332 35 0
vertex 19.319555545476994 35 19.833333333333332
endloop
endfacet
facet normal 0 1 0
outer loop
vertex 7.777777777777778 36.6 26.444444444444443
vertex 23.333333333333332 36.6 0
vertex 0 36.6 19.833333333333332
endloop
endfacet
facet normal 0 -1 0
outer loop
vertex 7.777777777777778 35 26.444444444444443
vertex 0 35 19.833333333333332
vertex 23.333333333333332 35 0
endloop
endfacet
facet normal 0 1 0
outer loop
vertex 7.777777777777778 36.6 26.444444444444443
vertex 0 36.6 19.833333333333332
vertex -23.333333333333332 36.6 39.666666666666664
endloop
endfacet
facet normal 0 -1 0
outer loop
vertex 7.777777777777778 35 26.444444444444443
vertex -23.333333333333332 35 39.666666666666664
vertex 0 35 19.833333333333332
endloop
endfacet
facet normal 0 0 1
outer loop
vertex -23.333333333333332 35 39.666666666666664
vertex 0 35 39.666666666666664
vertex 0 36.6 39.666666666666664
endloop
endfacet
facet normal 0 0 1
outer loop
vertex -23.333333333333332 35 39.666666666666664
vertex 0 36.6 39.666666666666664
vertex -23.333333333333332 36.6 39.666666666666664
endloop
endfacet
facet normal 0 0 1
outer loop
vertex 0 35 39.666666666666664
vertex 23.333333333333332 35 39.666666666666664
vertex 23.333333333333332 36.6 39.666666666666664
endloop
endfacet
facet normal 0 0 1
outer loop
vertex 0 35 39.666666666666664
vertex 23.333333333333332 36.6 39.666666666666664
vertex 0 36.6 39.666666666666664
endloop
endfacet
facet normal 0.9801303985766958 0 -0.19835423309293718
outer loop
vertex 23.333333333333332 35 39.666666666666664
vertex 19.319555545476994 35 19.833333333333332
vertex 19.319555545476994 36.6 19.833333333333332
endloop
endfacet
facet normal 0.9801303985766958 0 -0.19835423309293718
outer loop
vertex 23.333333333333332 35 39.666666666666664
vertex 19.319555545476994 36.6 19.833333333333332
vertex 23.333333333333332 36.6 39.666666666666664
endloop
endfacet
facet normal 0.9801303985766958 0 0.19835423309293718
outer loop
vertex 19.319555545476994 35 19.833333333333332
vertex 23.333333333333332 35 0
vertex 23.333333333333332 36.6 0
endloop
endfacet
facet normal 0.9801303985766958 0 0.19835423309293718
outer loop
vertex 19.319555545476994 35 19.833333333333332
vertex 23.333333333333332 36.6 0
vertex 19.319555545476994 36.6 19.833333333333332
endloop
endfacet
facet normal -0.6476484200955406 0 -0.7619393177594594
outer loop
vertex 23.333333333333332 35 0
vertex 0 35 19.833333333333332
vertex 0 36.6 19.833333333333332
endloop
endfacet
facet normal -0.6476484200955406 0 -0.7619393177594594
outer loop
vertex 23.333333333333332 35 0
vertex 0 36.6 19.833333333333332
vertex 23.333333333333332 36.6 0
endloop
endfacet
facet normal -0.6476484200955406 0 -0.7619393177594594
outer loop
vertex 0 35 19.833333333333332
vertex -23.333333333333332 35 39.666666666666664
vertex -23.333333333333332 36.6 39.666666666666664
endloop
endfacet
facet normal -0.6476484200955406 0 -0.7619393177594594
outer loop
vertex 0 35 19.833333333333332
vertex -23.333333333333332 36.6 39.666666666666664
vertex 0 36.6 19.833333333333332
endloop
endfacet
facet normal 0 1 0
outer loop
vertex 0 36.6 49
vertex 23.333333333333332 36.6 39.666666666666664
vertex 0 36.6 39.666666666666664
endloop
endfacet
facet normal 0 -1 0
outer loop
vertex 0 35 49
vertex 0 35 39.666666666666664
vertex 23.333333333333332 35 39.666666666666664
endloop
endfacet
facet normal 0 1 0
outer loop
vertex 0 36.6 49
vertex 0 36.6 39.666666666666664
vertex -23.333333333333332 36.6 39.666666666666664
endloop
endfacet
facet normal 0 -1 0
outer loop
vertex 0 35 49
vertex -23.333333333333332 35 39.666666666666664
vertex 0 35 39.666666666666664
endloop
endfacet
facet normal 0 1 0
outer loop
vertex 0 36.6 49
vertex -23.333333333333332 36.6 39.666666666666664
vertex -8.980043517494783 36.6 51.42781404235676
endloop
endfacet
facet normal 0 -1 0
outer loop
vertex 0 35 49
vertex -8.980043517494783 35 51.42781404235676
vertex -23.333333333333332 35 39.666666666666664
endloop
endfacet
facet normal 0 1 0
outer loop
vertex 0 36.6 49
vertex -8.980043517494783 36.6 51.42781404235676
vertex 0 36.6 67.66666666666666
endloop
endfacet
facet normal 0 -1 0
outer loop
vertex 0 35 49
vertex 0 35 67.66666666666666
vertex -8.980043517494783 35 51.42781404235676
endloop
endfacet
facet normal 0 1 0
outer loop
vertex 0 36.6 49
vertex 0 36.6 67.66666666666666
vertex 8.980043517494783 36.6 51.42781404235676
endloop
endfacet
facet normal 0 -1 0
outer loop
vertex 0 35 49
vertex 8.980043517494783 35 51.42781404235676
vertex 0 35 67.66666666666666
endloop
endfacet
facet normal 0 1 0
outer loop
vertex 0 36.6 49
vertex 8.980043517494783 36.6 51.42781404235676
vertex 23.333333333333332 36.6 39.666666666666664
endloop
endfacet
facet normal 0 -1 0
outer loop
vertex 0 35 49
vertex 23.333333333333332 35 39.666666666666664
vertex 8.980043517494783 35 51.42781404235676
endloop
endfacet
facet normal 0 0 -1
outer loop
vertex 23.333333333333332 35 39.666666666666664
vertex 0 35 39.666666666666664
vertex 0 36.6 39.666666666666664
endloop
endfacet
facet normal 0 0 -1
outer loop
vertex 23.333333333333332 35 39.666666666666664
vertex 0 36.6 39.666666666666664
vertex 23.333333333333332 36.6 39.666666666666664
endloop
endfacet
facet normal 0 0 -1
outer loop
vertex 0 35 39.666666666666664
vertex -23.333333333333332 35 39.666666666666664
vertex -23.333333333333332 36.6 39.666666666666664
endloop
endfacet
facet normal 0 0 -1
outer loop
vertex 0 35 39.666666666666664
vertex -23.333333333333332 36.6 39.666666666666664
vertex 0 36.6 39.666666666666664
endloop
endfacet
facet normal -0.6338040330252319 0 0.7734936636592122
outer loop
vertex -23.333333333333332 35 39.666666666666664
vertex -8.980043517494783 35 51.42781404235676
vertex -8.980043517494783 36.6 51.42781404235676
endloop
endfacet
facet normal -0.6338040330252319 0 0.7734936636592122
outer loop
vertex -23.333333333333332 35 39.666666666666664
vertex -8.980043517494783 36.6 51.42781404235676
vertex -23.333333333333332 36.6 39.666666666666664
endloop
endfacet
facet normal -0.8751059702103325 0 0.4839313390370917
outer loop
vertex -8.980043517494783 35 51.42781404235676
vertex 0 35 67.66666666666666
vertex 0 36.6 67.66666666666666
endloop
endfacet
facet normal -0.8751059702103325 0 0.4839313390370917
outer loop
vertex -8.980043517494783 35 51.42781404235676
vertex 0 36.6 67.66666666666666
vertex -8.980043517494783 36.6 51.42781404235676
endloop
endfacet
facet normal 0.8751059702103325 0 0.4839313390370917
outer loop
vertex 0 35 67.66666666666666
vertex 8.980043517494783 35 51.42781404235676
vertex 8.980043517494783 36.6 51.42781404235676
endloop
endfacet
facet normal 0.8751059702103325 0 0.4839313390370917
outer loop
vertex 0 35 67.66666666666666
vertex 8.980043517494783 36.6 51.42781404235676
vertex 0 36.6 67.66666666666666
endloop
endfacet
facet normal 0.6338040330252319 0 0.7734936636592122
outer loop
vertex 8.980043517494783 35 51.42781404235676
vertex 23.333333333333332 35 39.666666666666664
vertex 23.333333333333332 36.6 39.666666666666664
endloop
endfacet
facet normal 0.6338040330252319 0 0.7734936636592122
outer loop
vertex 8.980043517494783 35 51.42781404235676
vertex 23.333333333333332 36.6 39.666666666666664
vertex 8.980043517494783 36.6 51.42781404235676
endloop
endfacet
facet normal -1 0 0
outer loop
vertex -24.933333333333334 11.666666666666666 13.222222222222221
vertex -24.933333333333334 -35 0
vertex -24.933333333333334 0 19.833333333333332
endloop
endfacet
facet normal 1 0 0
outer loop
vertex -23.333333333333332 11.666666666666666 13.222222222222221
vertex -23.333333333333332 0 19.833333333333332
vertex -23.333333333333332 -35 0
endloop
endfacet
facet normal -1 0 0
outer loop
vertex -24.933333333333334 11.666666666666666 13.222222222222221
vertex -24.933333333333334 0 19.833333333333332
vertex -24.933333333333334 35 39.666666666666664
endloop
endfacet
facet normal 1 0 0
outer loop
vertex -23.333333333333332 11.666666666666666 13.222222222222221
vertex -23.333333333333332 35 39.666666666666664
vertex -23.333333333333332 0 19.833333333333332
endloop
endfacet
facet normal -1 0 0
outer loop
vertex -24.933333333333334 11.666666666666666 13.222222222222221
vertex -24.933333333333334 35 39.666666666666664
vertex -24.933333333333334 30.326568271676443 19.833333333333332
endloop
endfacet
facet normal 1 0 0
outer loop
vertex -23.333333333333332 11.666666666666666 13.222222222222221
vertex -23.333333333333332 30.326568271676443 19.833333333333332
vertex -23.333333333333332 35 39.666666666666664
endloop
endfacet
facet normal -1 0 0
outer loop
vertex -24.933333333333334 11.666666666666666 13.222222222222221
vertex -24.933333333333334 30.326568271676443 19.833333333333332
vertex -24.933333333333334 35 0
endloop
endfacet
facet normal 1 0 0
outer loop
vertex -23.333333333333332 11.666666666666666 13.222222222222221
vertex -23.333333333333332 35 0
vertex -23.333333333333332 30.326568271676443 19.833333333333332
endloop
endfacet
facet normal -1 0 0
outer loop
vertex -24.933333333333334 11.666666666666666 13.222222222222221
vertex -24.933333333333334 35 0
vertex -24.933333333333334 0 0
endloop
endfacet
facet normal 1 0 0
outer loop
vertex -23.333333333333332 11.666666666666666 13.222222222222221
vertex -23.333333333333332 0 0
vertex -23.333333333333332 35 0
endloop
endfacet
facet normal -1 0 0
outer loop
vertex -24.933333333333334 11.666666666666666 13.222222222222221
vertex -24.933333333333334 0 0
vertex -24.933333333333334 -35 0
endloop
endfacet
facet normal 1 0 0
outer loop
vertex -23.333333333333332 11.666666666666666 13.222222222222221
vertex -23.333333333333332 -35 0
vertex -23.333333333333332 0 0
endloop
endfacet
facet normal 0 -0.49301257198088017 0.8700221858486121
outer loop
vertex -23.333333333333332 -35 0
vertex -23.333333333333332 0 19.833333333333332
vertex -24.933333333333334 0 19.833333333333332
endloop
endfacet
facet normal 0 -0.49301257198088017 0.8700221858486121
outer loop
vertex -23.333333333333332 -35 0
vertex -24.933333333333334 0 19.833333333333332
vertex -24.933333333333334 -35 0
endloop
endfacet
facet normal 0 -0.49301257198088017 0.8700221858486121
outer loop
vertex -23.333333333333332 0 19.833333333333332
vertex -23.333333333333332 35 39.666666666666664
vertex -24.933333333333334 35 39.666666666666664
endloop
endfacet
facet normal 0 -0.49301257198088017 0.8700221858486121
outer loop
vertex -23.333333333333332 0 19.833333333333332
vertex -24.933333333333334 35 39.666666666666664
vertex -24.933333333333334 0 19.833333333333332
endloop
endfacet
facet normal 0 0.9733430971601101 -0.2293539082090476
outer loop
vertex -23.333333333333332 35 39.666666666666664
vertex -23.333333333333332 30.326568271676443 19.833333333333332
vertex -24.933333333333334 30.326568271676443 19.833333333333332
endloop
endfacet
facet normal 0 0.9733430971601101 -0.2293539082090476
outer loop
vertex -23.333333333333332 35 39.666666666666664
vertex -24.933333333333334 30.326568271676443 19.833333333333332
vertex -24.933333333333334 35 39.666666666666664
endloop
endfacet
facet normal 0 0.9733430971601101 0.2293539082090476
outer loop
vertex -23.333333333333332 30.326568271676443 19.833333333333332
vertex -23.333333333333332 35 0
vertex -24.933333333333334 35 0
endloop
endfacet
facet normal 0 0.9733430971601101 0.2293539082090476
outer loop
vertex -23.333333333333332 30.326568271676443 19.833333333333332
vertex -24.933333333333334 35 0
vertex -24.933333333333334 30.326568271676443 19.833333333333332
endloop
endfacet
facet normal 0 0 -1
outer loop
vertex -23.333333333333332 35 0
vertex -23.333333333333332 0 0
vertex -24.933333333333334 0 0
endloop
endfacet
facet normal 0 0 -1
outer loop
vertex -23.333333333333332 35 0
vertex -24.933333333333334 0 0
vertex -24.933333333333334 35 0
endloop
endfacet
facet normal 0 0 -1
outer loop
vertex -23.333333333333332 0 0
vertex -23.333333333333332 -35 0
vertex -24.933333333333334 -35 0
endloop
endfacet
facet normal 0 0 -1
outer loop
vertex -23.333333333333332 0 0
vertex -24.933333333333334 -35 0
vertex -24.933333333333334 0 0
endloop
endfacet
facet normal -1 0 0
outer loop
vertex -24.933333333333334 -11.666666666666666 26.444444444444443
vertex -24.933333333333334 -35 0
vertex -24.933333333333334 -30.326568271676443 19.833333333333332
endloop
endfacet
facet normal 1 0 0
outer loop
vertex -23.333333333333332 -11.666666666666666 26.444444444444443
vertex -23.333333333333332 -30.326568271676443 19.833333333333332
vertex -23.333333333333332 -35 0
endloop
endfacet
facet normal -1 0 0
outer loop
vertex -24.933333333333334 -11.666666666666666 26.444444444444443
vertex -24.933333333333334 -30.326568271676443 19.833333333333332
vertex -24.933333333333334 -35 39.666666666666664
endloop
endfacet
facet normal 1 0 0
outer loop
vertex -23.333333333333332 -11.666666666666666 26.444444444444443
vertex -23.333333333333332 -35 39.666666666666664
vertex -23.333333333333332 -30.326568271676443 19.833333333333332
endloop
endfacet
facet normal -1 0 0
outer loop
vertex -24.933333333333334 -11.666666666666666 26.444444444444443
vertex -24.933333333333334 -35 39.666666666666664
vertex -24.933333333333334 0 34.99323493834311
endloop
endfacet
facet normal 1 0 0
outer loop
vertex -23.333333333333332 -11.666666666666666 26.444444444444443
vertex -23.333333333333332 0 34.99323493834311
vertex -23.333333333333332 -35 39.666666666666664
endloop
endfacet
facet normal -1 0 0
outer loop
vertex -24.933333333333334 -11.666666666666666 26.444444444444443
vertex -24.933333333333334 0 34.99323493834311
vertex -24.933333333333334 35 39.666666666666664
endloop
endfacet
facet normal 1 0 0
outer loop
vertex -23.333333333333332 -11.666666666666666 26.444444444444443
vertex -23.333333333333332 35 39.666666666666664
vertex -23.333333333333332 0 34.99323493834311
endloop
endfacet
facet normal -1 0 0
outer loop
vertex -24.933333333333334 -11.666666666666666 26.444444444444443
vertex -24.933333333333334 35 39.666666666666664
vertex -24.933333333333334 0 19.833333333333332
endloop
endfacet
facet normal 1 0 0
outer loop
vertex -23.333333333333332 -11.666666666666666 26.444444444444443
vertex -23.333333333333332 0 19.833333333333332
vertex -23.333333333333332 35 39.666666666666664
endloop
endfacet
facet normal -1 0 0
outer loop
vertex -24.933333333333334 -11.666666666666666 26.444444444444443
vertex -24.933333333333334 0 19.833333333333332
vertex -24.933333333333334 -35 0
endloop
endfacet
facet normal 1 0 0
outer loop
vertex -23.333333333333332 -11.666666666666666 26.444444444444443
vertex -23.333333333333332 -35 0
vertex -23.333333333333332 0 19.833333333333332
endloop
endfacet
facet normal 0 -0.9733430971601101 0.2293539082090476
outer loop
vertex -23.333333333333332 -35 0
vertex -23.333333333333332 -30.326568271676443 19.833333333333332
vertex -24.933333333333334 -30.326568271676443 19.833333333333332
endloop
endfacet
facet normal 0 -0.9733430971601101 0.2293539082090476
outer loop
vertex -23.333333333333332 -35 0
vertex -24.933333333333334 -30.326568271676443 19.833333333333332
vertex -24.933333333333334 -35 0
endloop
endfacet
facet normal 0 -0.9733430971601101 -0.2293539082090476
outer loop
vertex -23.333333333333332 -30.326568271676443 19.833333333333332
vertex -23.333333333333332 -35 39.666666666666664
vertex -24.933333333333334 -35 39.666666666666664
endloop
endfacet
facet normal 0 -0.9733430971601101 -0.2293539082090476
outer loop
vertex -23.333333333333332 -30.326568271676443 19.833333333333332
vertex -24.933333333333334 -35 39.666666666666664
vertex -24.933333333333334 -30.326568271676443 19.833333333333332
endloop
endfacet
facet normal 0 0.13235195829277066 0.9912027840639213
outer loop
vertex -23.333333333333332 -35 39.666666666666664
vertex -23.333333333333332 0 34.99323493834311
vertex -24.933333333333334 0 34.99323493834311
endloop
endfacet
facet normal 0 0.13235195829277066 0.9912027840639213
outer loop
vertex -23.333333333333332 -35 39.666666666666664
vertex -24.933333333333334 0 34.99323493834311
vertex -24.933333333333334 -35 39.666666666666664
endloop
endfacet
facet normal 0 -0.13235195829277066 0.9912027840639213
outer loop
vertex -23.333333333333332 0 34.99323493834311
vertex -23.333333333333332 35 39.666666666666664
vertex -24.933333333333334 35 39.666666666666664
endloop
endfacet
facet normal 0 -0.13235195829277066 0.9912027840639213
outer loop
vertex -23.333333333333332 0 34.99323493834311
vertex -24.933333333333334 35 39.666666666666664
vertex -24.933333333333334 0 34.99323493834311
endloop
endfacet
facet normal 0 0.49301257198088017 -0.8700221858486121
outer loop
vertex -23.333333333333332 35 39.666666666666664
vertex -23.333333333333332 0 19.833333333333332
vertex -24.933333333333334 0 19.833333333333332
endloop
endfacet
facet normal 0 0.49301257198088017 -0.8700221858486121
outer loop
vertex -23.333333333333332 35 39.666666666666664
vertex -24.933333333333334 0 19.833333333333332
vertex -24.933333333333334 35 39.666666666666664
endloop
endfacet
facet normal 0 0.49301257198088017 -0.8700221858486121
outer loop
vertex -23.333333333333332 0 19.833333333333332
vertex -23.333333333333332 -35 0
vertex -24.933333333333334 -35 0
endloop
endfacet
facet normal 0 0.49301257198088017 -0.8700221858486121
outer loop
vertex -23.333333333333332 0 19.833333333333332
vertex -24.933333333333334 -35 0
vertex -24.933333333333334 0 19.833333333333332
endloop
endfacet
facet normal 1 0 0
outer loop
vertex 24.933333333333334 11.666666666666666 13.222222222222221
vertex 24.933333333333334 -35 0
vertex 24.933333333333334 0 0
endloop
endfacet
facet normal -1 0 0
outer loop
vertex 23.333333333333332 11.666666666666666 13.222222222222221
vertex 23.333333333333332 0 0
vertex 23.333333333333332 -35 0
endloop
endfacet
facet normal 1 0 0
outer loop
vertex 24.933333333333334 11.666666666666666 13.222222222222221
vertex 24.933333333333334 0 0
vertex 24.933333333333334 35 0
endloop
endfacet
facet normal -1 0 0
outer loop
vertex 23.333333333333332 11.666666666666666 13.222222222222221
vertex 23.333333333333332 35 0
vertex 23.333333333333332 0 0
endloop
endfacet
facet normal 1 0 0
outer loop
vertex 24.933333333333334 11.666666666666666 13.222222222222221
vertex 24.933333333333334 35 0
vertex 24.933333333333334 30.326568271676443 19.833333333333332
endloop
endfacet
facet normal -1 0 0
outer loop
vertex 23.333333333333332 11.666666666666666 13.222222222222221
vertex 23.333333333333332 30.326568271676443 19.833333333333332
vertex 23.333333333333332 35 0
endloop
endfacet
facet normal 1 0 0
outer loop
vertex 24.933333333333334 11.666666666666666 13.222222222222221
vertex 24.933333333333334 30.326568271676443 19.833333333333332
vertex 24.933333333333334 35 39.666666666666664
endloop
endfacet
facet normal -1 0 0
outer loop
vertex 23.333333333333332 11.666666666666666 13.222222222222221
vertex 23.333333333333332 35 39.666666666666664
vertex 23.333333333333332 30.326568271676443 19.833333333333332
endloop
endfacet
facet normal 1 0 0
outer loop
vertex 24.933333333333334 11.666666666666666 13.222222222222221
vertex 24.933333333333334 35 39.666666666666664
vertex 24.933333333333334 0 19.833333333333332
endloop
endfacet
facet normal -1 0 0
outer loop
vertex 23.333333333333332 11.666666666666666 13.222222222222221
vertex 23.333333333333332 0 19.833333333333332
vertex 23.333333333333332 35 39.666666666666664
endloop
endfacet
facet normal 1 0 0
outer loop
vertex 24.933333333333334 11.666666666666666 13.222222222222221
vertex 24.933333333333334 0 19.833333333333332
vertex 24.933333333333334 -35 0
endloop
endfacet
facet normal -1 0 0
outer loop
vertex 23.333333333333332 11.666666666666666 13.222222222222221
vertex 23.333333333333332 -35 0
vertex 23.333333333333332 0 19.833333333333332
endloop
endfacet
facet normal 0 0 -1
outer loop
vertex 23.333333333333332 -35 0
vertex 23.333333333333332 0 0
vertex 24.933333333333334 0 0
endloop
endfacet
facet normal 0 0 -1
outer loop
vertex 23.333333333333332 -35 0
vertex 24.933333333333334 0 0
vertex 24.933333333333334 -35 0
endloop
endfacet
facet normal 0 0 -1
outer loop
vertex 23.333333333333332 0 0
vertex 23.333333333333332 35 0
vertex 24.933333333333334 35 0
endloop
endfacet
facet normal 0 0 -1
outer loop
vertex 23.333333333333332 0 0
vertex 24.933333333333334 35 0
vertex 24.933333333333334 0 0
endloop
endfacet
facet normal 0 0.9733430971601101 0.2293539082090476
outer loop
vertex 23.333333333333332 35 0
vertex 23.333333333333332 30.326568271676443 19.833333333333332
vertex 24.933333333333334 30.326568271676443 19.833333333333332
endloop
endfacet
facet normal 0 0.9733430971601101 0.2293539082090476
outer loop
vertex 23.333333333333332 35 0
vertex 24.933333333333334 30.326568271676443 19.833333333333332
vertex 24.933333333333334 35 0
endloop
endfacet
facet normal 0 0.9733430971601101 -0.2293539082090476
outer loop
vertex 23.333333333333332 30.326568271676443 19.833333333333332
vertex 23.333333333333332 35 39.666666666666664
vertex 24.933333333333334 35 39.666666666666664
endloop
endfacet
facet normal 0 0.9733430971601101 -0.2293539082090476
outer loop
vertex 23.333333333333332 30.326568271676443 19.833333333333332
vertex 24.933333333333334 35 39.666666666666664
vertex 24.933333333333334 30.326568271676443 19.833333333333332
endloop
endfacet
facet normal 0 -0.49301257198088017 0.8700221858486121
outer loop
vertex 23.333333333333332 35 39.666666666666664
vertex 23.333333333333332 0 19.833333333333332
vertex 24.933333333333334 0 19.833333333333332
endloop
endfacet
facet normal 0 -0.49301257198088017 0.8700221858486121
outer loop
vertex 23.333333333333332 35 39.666666666666664
vertex 24.933333333333334 0 19.833333333333332
vertex 24.933333333333334 35 39.666666666666664
endloop
endfacet
facet normal 0 -0.49301257198088017 0.8700221858486121
outer loop
vertex 23.333333333333332 0 19.833333333333332
vertex 23.333333333333332 -35 0
vertex 24.933333333333334 -35 0
endloop
endfacet
facet normal 0 -0.49301257198088017 0.8700221858486121
outer loop
vertex 23.333333333333332 0 19.833333333333332
vertex 24.933333333333334 -35 0
vertex 24.933333333333334 0 19.833333333333332
endloop
endfacet
facet normal 1 0 0
outer loop
vertex 24.933333333333334 -11.666666666666666 26.444444444444443
vertex 24.933333333333334 -35 0
vertex 24.933333333333334 0 19.833333333333332
endloop
endfacet
facet normal -1 0 0
outer loop
vertex 23.333333333333332 -11.666666666666666 26.444444444444443
vertex 23.333333333333332 0 19.833333333333332
vertex 23.333333333333332 -35 0
endloop
endfacet
facet normal 1 0 0
outer loop
vertex 24.933333333333334 -11.666666666666666 26.444444444444443
vertex 24.933333333333334 0 19.833333333333332
vertex 24.933333333333334 35 39.666666666666664
endloop
endfacet
facet normal -1 0 0
outer loop
vertex 23.333333333333332 -11.666666666666666 26.444444444444443
vertex 23.333333333333332 35 39.666666666666664
vertex 23.333333333333332 0 19.833333333333332
endloop
endfacet
facet normal 1 0 0
outer loop
vertex 24.933333333333334 -11.666666666666666 26.444444444444443
vertex 24.933333333333334 35 39.666666666666664
vertex 24.933333333333334 0 34.99323493834311
endloop
endfacet
facet normal -1 0 0
outer loop
vertex 23.333333333333332 -11.666666666666666 26.444444444444443
vertex 23.333333333333332 0 34.99323493834311
vertex 23.333333333333332 35 39.666666666666664
endloop
endfacet
facet normal 1 0 0
outer loop
vertex 24.933333333333334 -11.666666666666666 26.444444444444443
vertex 24.933333333333334 0 34.99323493834311
vertex 24.933333333333334 -35 39.666666666666664
endloop
endfacet
facet normal -1 0 0
outer loop
vertex 23.333333333333332 -11.666666666666666 26.444444444444443
vertex 23.333333333333332 -35 39.666666666666664
vertex 23.333333333333332 0 34.99323493834311
endloop
endfacet
facet normal 1 0 0
outer loop
vertex 24.933333333333334 -11.666666666666666 26.444444444444443
vertex 24.933333333333334 -35 39.666666666666664
vertex 24.933333333333334 -30.326568271676443 19.833333333333332
endloop
endfacet
facet normal -1 0 0
outer loop
vertex 23.333333333333332 -11.666666666666666 26.444444444444443
vertex 23.333333333333332 -30.326568271676443 19.833333333333332
vertex 23.333333333333332 -35 39.666666666666664
endloop
endfacet
facet normal 1 0 0
outer loop
vertex 24.933333333333334 -11.666666666666666 26.444444444444443
vertex 24.933333333333334 -30.326568271676443 19.833333333333332
vertex 24.933333333333334 -35 0
endloop
endfacet
facet normal -1 0 0
outer loop
vertex 23.333333333333332 -11.666666666666666 26.444444444444443
vertex 23.333333333333332 -35 0
vertex 23.333333333333332 -30.326568271676443 19.833333333333332
endloop
endfacet
facet normal 0 0.49301257198088017 -0.8700221858486121
outer loop
vertex 23.333333333333332 -35 0
vertex 23.333333333333332 0 19.833333333333332
vertex 24.933333333333334 0 19.833333333333332
endloop
endfacet
facet normal 0 0.49301257198088017 -0.8700221858486121
outer loop
vertex 23.333333333333332 -35 0
vertex 24.933333333333334 0 19.833333333333332
vertex 24.933333333333334 -35 0
endloop
endfacet
facet normal 0 0.49301257198088017 -0.8700221858486121
outer loop
vertex 23.333333333333332 0 19.833333333333332
vertex 23.333333333333332 35 39.666666666666664
vertex 24.933333333333334 35 39.666666666666664
endloop
endfacet
facet normal 0 0.49301257198088017 -0.8700221858486121
outer loop
vertex 23.333333333333332 0 19.833333333333332
vertex 24.933333333333334 35 39.666666666666664
vertex 24.933333333333334 0 19.833333333333332
endloop
endfacet
facet normal 0 -0.13235195829277066 0.9912027840639213
outer loop
vertex 23.333333333333332 35 39.666666666666664
vertex 23.333333333333332 0 34.99323493834311
vertex 24.933333333333334 0 34.99323493834311
endloop
endfacet
facet normal 0 -0.13235195829277066 0.9912027840639213
outer loop
vertex 23.333333333333332 35 39.666666666666664
vertex 24.933333333333334 0 34.99323493834311
vertex 24.933333333333334 35 39.666666666666664
endloop
endfacet
facet normal 0 0.13235195829277066 0.9912027840639213
outer loop
vertex 23.333333333333332 0 34.99323493834311
vertex 23.333333333333332 -35 39.666666666666664
vertex 24.933333333333334 -35 39.666666666666664
endloop
endfacet
facet normal 0 0.13235195829277066 0.9912027840639213
outer loop
vertex 23.333333333333332 0 34.99323493834311
vertex 24.933333333333334 -35 39.666666666666664
vertex 24.933333333333334 0 34.99323493834311
endloop
endfacet
facet normal 0 -0.9733430971601101 -0.2293539082090476
outer loop
vertex 23.333333333333332 -35 39.666666666666664
vertex 23.333333333333332 -30.326568271676443 19.833333333333332
vertex 24.933333333333334 -30.326568271676443 19.833333333333332
endloop
endfacet
facet normal 0 -0.9733430971601101 -0.2293539082090476
outer loop
vertex 23.333333333333332 -35 39.666666666666664
vertex 24.933333333333334 -30.326568271676443 19.833333333333332
vertex 24.933333333333334 -35 39.666666666666664
endloop
endfacet
facet normal 0 -0.9733430971601101 0.2293539082090476
outer loop
vertex 23.333333333333332 -30.326568271676443 19.833333333333332
vertex 23.333333333333332 -35 0
vertex 24.933333333333334 -35 0
endloop
endfacet
facet normal 0 -0.9733430971601101 0.2293539082090476
outer loop
vertex 23.333333333333332 -30.326568271676443 19.833333333333332
vertex 24.933333333333334 -35 0
vertex 24.933333333333334 -30.326568271676443 19.833333333333332
endloop
endfacet
facet normal -0.7682212795973757 -8.931892583353835e-17 0.6401843996644802
outer loop
vertex -9.006931825133579 -11.666666666666666 59.35762837279649
vertex -24.562487380689134 -35 40.69096170612983
vertex -12.895820714022467 -30.59562602087123 54.690961706129826
endloop
endfacet
facet normal 0.7682212795973757 0 -0.6401843996644802
outer loop
vertex -7.777777777777778 -11.666666666666666 58.33333333333332
vertex -11.666666666666666 -30.59562602087123 53.66666666666666
vertex -23.333333333333332 -35 39.666666666666664
endloop
endfacet
facet normal -0.768221279597376 3.8230538198631195e-17 0.6401843996644799
outer loop
vertex -9.006931825133579 -11.666666666666666 59.35762837279649
vertex -12.895820714022467 -30.59562602087123 54.690961706129826
vertex -1.2291540473558014 -35 68.69096170612983
endloop
endfacet
facet normal 0.768221279597376 -5.734580729794679e-17 -0.6401843996644799
outer loop
vertex -7.777777777777778 -11.666666666666666 58.33333333333332
vertex 0 -35 67.66666666666666
vertex -11.666666666666666 -30.59562602087123 53.66666666666666
endloop
endfacet
facet normal -0.7682212795973761 -2.2035340739884306e-16 0.6401843996644794
outer loop
vertex -9.006931825133579 -11.666666666666666 59.35762837279649
vertex -1.2291540473558014 -35 68.69096170612983
vertex -4.04876555908221 0 65.30742789205814
endloop
endfacet
facet normal 0.7682212795973761 2.2035340739884306e-16 -0.6401843996644794
outer loop
vertex -7.777777777777778 -11.666666666666666 58.33333333333332
vertex -2.819611511726409 0 64.28313285259497
vertex 0 -35 67.66666666666666
endloop
endfacet
facet normal -0.7682212795973766 3.2343375802965056e-16 0.6401843996644788
outer loop
vertex -9.006931825133579 -11.666666666666666 59.35762837279649
vertex -4.04876555908221 0 65.30742789205814
vertex -1.2291540473558014 35 68.69096170612983
endloop
endfacet
facet normal 0.7682212795973766 -3.2343375802965056e-16 -0.6401843996644788
outer loop
vertex -7.777777777777778 -11.666666666666666 58.33333333333332
vertex 0 35 67.66666666666666
vertex -2.819611511726409 0 64.28313285259497
endloop
endfacet
facet normal -0.7682212795973757 -3.341963569434149e-17 0.6401843996644798
outer loop
vertex -9.006931825133579 -11.666666666666666 59.35762837279649
vertex -1.2291540473558014 35 68.69096170612983
vertex -12.895820714022467 0 54.690961706129826
endloop
endfacet
facet normal 0.7682212795973757 5.0129453541512235e-17 -0.6401843996644798
outer loop
vertex -7.777777777777778 -11.666666666666666 58.33333333333332
vertex -11.666666666666666 0 53.66666666666666
vertex 0 35 67.66666666666666
endloop
endfacet
facet normal -0.7682212795973757 6.683927138868299e-17 0.64018439966448
outer loop
vertex -9.006931825133579 -11.666666666666666 59.35762837279649
vertex -12.895820714022467 0 54.690961706129826
vertex -24.562487380689134 -35 40.69096170612983
endloop
endfacet
facet normal 0.7682212795973757 0 -0.64018439966448
outer loop
vertex -7.777777777777778 -11.666666666666666 58.33333333333332
vertex -23.333333333333332 -35 39.666666666666664
vertex -11.666666666666666 0 53.66666666666666
endloop
endfacet
facet normal 0.15039059122332205 -0.9720152853605025 0.18046870946798588
outer loop
vertex -23.333333333333332 -35 39.666666666666664
vertex -11.666666666666666 -30.59562602087123 53.66666666666666
vertex -12.895820714022467 -30.59562602087123 54.690961706129826
endloop
endfacet
facet normal 0.15039059122332177 -0.9720152853605026 0.18046870946798604
outer loop
vertex -23.333333333333332 -35 39.666666666666664
vertex -12.895820714022467 -30.59562602087123 54.690961706129826
vertex -24.562487380689134 -35 40.69096170612983
endloop
endfacet
facet normal -0.15039059122332205 -0.9720152853605025 -0.18046870946798588
outer loop
vertex -11.666666666666666 -30.59562602087123 53.66666666666666
vertex 0 -35 67.66666666666666
vertex -1.2291540473558014 -35 68.69096170612983
endloop
endfacet
facet normal -0.15039059122332188 -0.9720152853605025 -0.18046870946798588
outer loop
vertex -11.666666666666666 -30.59562602087123 53.66666666666666
vertex -1.2291540473558014 -35 68.69096170612983
vertex -12.895820714022467 -30.59562602087123 54.690961706129826
endloop
endfacet
facet normal 0.6351749907610367 0.12485457105204839 0.762209988913243
outer loop
vertex 0 -35 67.66666666666666
vertex -2.819611511726409 0 64.28313285259497
vertex -4.04876555908221 0 65.30742789205814
endloop
endfacet
facet normal 0.6351749907610367 0.1248545710520484 0.762209988913243
outer loop
vertex 0 -35 67.66666666666666
vertex -4.04876555908221 0 65.30742789205814
vertex -1.2291540473558014 -35 68.69096170612983
endloop
endfacet
facet normal 0.6351749907610367 -0.1248545710520484 0.7622099889132429
outer loop
vertex -2.819611511726409 0 64.28313285259497
vertex 0 35 67.66666666666666
vertex -1.2291540473558014 35 68.69096170612983
endloop
endfacet
facet normal 0.6351749907610367 -0.1248545710520484 0.762209988913243
outer loop
vertex -2.819611511726409 0 64.28313285259497
vertex -1.2291540473558014 35 68.69096170612983
vertex -4.04876555908221 0 65.30742789205814
endloop
endfacet
facet normal -0.5678234568606552 0.46182974491333223 -0.6813881482327838
outer loop
vertex 0 35 67.66666666666666
vertex -11.666666666666666 0 53.66666666666666
vertex -12.895820714022467 0 54.690961706129826
endloop
endfacet
facet normal -0.5678234568606545 0.461829744913332 -0.6813881482327846
outer loop
vertex 0 35 67.66666666666666
vertex -12.895820714022467 0 54.690961706129826
vertex -1.2291540473558014 35 68.69096170612983
endloop
endfacet
facet normal -0.5678234568606544 0.4618297449133316 -0.6813881482327848
outer loop
vertex -11.666666666666666 0 53.66666666666666
vertex -23.333333333333332 -35 39.666666666666664
vertex -24.562487380689134 -35 40.69096170612983
endloop
endfacet
facet normal -0.5678234568606547 0.46182974491333184 -0.6813881482327844
outer loop
vertex -11.666666666666666 0 53.66666666666666
vertex -24.562487380689134 -35 40.69096170612983
vertex -12.895820714022467 0 54.690961706129826
endloop
endfacet
facet normal -0.7682212795973757 0 0.6401843996644802
outer loop
vertex -16.784709602911356 11.666666666666666 50.02429503946316
vertex -24.562487380689134 -35 40.69096170612983
vertex -12.895820714022467 0 54.690961706129826
endloop
endfacet
facet normal 0.7682212795973757 1.6709817847170748e-17 -0.6401843996644802
outer loop
vertex -15.555555555555555 11.666666666666666 48.99999999999999
vertex -11.666666666666666 0 53.66666666666666
vertex -23.333333333333332 -35 39.666666666666664
endloop
endfacet
facet normal -0.7682212795973757 -1.0025890708302447e-16 0.6401843996644798
outer loop
vertex -16.784709602911356 11.666666666666666 50.02429503946316
vertex -12.895820714022467 0 54.690961706129826
vertex -1.2291540473558014 35 68.69096170612983
endloop
endfacet
facet normal 0.7682212795973757 1.0025890708302447e-16 -0.6401843996644799
outer loop
vertex -15.555555555555555 11.666666666666666 48.99999999999999
vertex 0 35 67.66666666666666
vertex -11.666666666666666 0 53.66666666666666
endloop
endfacet
facet normal -0.7682212795973759 1.3397838875030746e-16 0.6401843996644798
outer loop
vertex -16.784709602911356 11.666666666666666 50.02429503946316
vertex -1.2291540473558014 35 68.69096170612983
vertex -12.895820714022467 30.59562602087123 54.690961706129826
endloop
endfacet
facet normal 0.7682212795973759 -1.3397838875030746e-16 -0.6401843996644798
outer loop
vertex -15.555555555555555 11.666666666666666 48.99999999999999
vertex -11.666666666666666 30.59562602087123 53.66666666666666
vertex 0 35 67.66666666666666
endloop
endfacet
facet normal -0.7682212795973757 0 0.6401843996644802
outer loop
vertex -16.784709602911356 11.666666666666666 50.02429503946316
vertex -12.895820714022467 30.59562602087123 54.690961706129826
vertex -24.562487380689134 35 40.69096170612983
endloop
endfacet
facet normal 0.7682212795973757 -1.91152690993156e-17 -0.64018439966448
outer loop
vertex -15.555555555555555 11.666666666666666 48.99999999999999
vertex -23.333333333333332 35 39.666666666666664
vertex -11.666666666666666 30.59562602087123 53.66666666666666
endloop
endfacet
facet normal -0.7682212795973759 -2.2035340739884332e-17 0.6401843996644802
outer loop
vertex -16.784709602911356 11.666666666666666 50.02429503946316
vertex -24.562487380689134 35 40.69096170612983
vertex -21.742875868962724 0 44.07449552020152
endloop
endfacet
facet normal 0.7682212795973759 4.4070681479768663e-17 -0.6401843996644799
outer loop
vertex -15.555555555555555 11.666666666666666 48.99999999999999
vertex -20.51372182160692 0 43.050200480738354
vertex -23.333333333333332 35 39.666666666666664
endloop
endfacet
facet normal -0.7682212795973757 3.234337580296513e-17 0.64018439966448
outer loop
vertex -16.784709602911356 11.666666666666666 50.02429503946316
vertex -21.742875868962724 0 44.07449552020152
vertex -24.562487380689134 -35 40.69096170612983
endloop
endfacet
facet normal 0.768221279597376 -6.468675160593028e-17 -0.6401843996644799
outer loop
vertex -15.555555555555555 11.666666666666666 48.99999999999999
vertex -23.333333333333332 -35 39.666666666666664
vertex -20.51372182160692 0 43.050200480738354
endloop
endfacet
facet normal 0.5678234568606553 -0.46182974491333184 0.6813881482327839
outer loop
vertex -23.333333333333332 -35 39.666666666666664
vertex -11.666666666666666 0 53.66666666666666
vertex -12.895820714022467 0 54.690961706129826
endloop
endfacet
facet normal 0.5678234568606544 -0.46182974491333195 0.6813881482327848
outer loop
vertex -23.333333333333332 -35 39.666666666666664
vertex -12.895820714022467 0 54.690961706129826
vertex -24.562487380689134 -35 40.69096170612983
endloop
endfacet
facet normal 0.5678234568606553 -0.46182974491333184 0.6813881482327839
outer loop
vertex -11.666666666666666 0 53.66666666666666
vertex 0 35 67.66666666666666
vertex -1.2291540473558014 35 68.69096170612983
endloop
endfacet
facet normal 0.5678234568606547 -0.46182974491333195 0.6813881482327844
outer loop
vertex -11.666666666666666 0 53.66666666666666
vertex -1.2291540473558014 35 68.69096170612983
vertex -12.895820714022467 0 54.690961706129826
endloop
endfacet
facet normal -0.1503905912233219 0.9720152853605026 -0.18046870946798593
outer loop
vertex 0 35 67.66666666666666
vertex -11.666666666666666 30.59562602087123 53.66666666666666
vertex -12.895820714022467 30.59562602087123 54.690961706129826
endloop
endfacet
facet normal -0.15039059122332182 0.9720152853605026 -0.18046870946798596
outer loop
vertex 0 35 67.66666666666666
vertex -12.895820714022467 30.59562602087123 54.690961706129826
vertex -1.2291540473558014 35 68.69096170612983
endloop
endfacet
facet normal 0.1503905912233219 0.9720152853605026 0.18046870946798618
outer loop
vertex -11.666666666666666 30.59562602087123 53.66666666666666
vertex -23.333333333333332 35 39.666666666666664
vertex -24.562487380689134 35 40.69096170612983
endloop
endfacet
facet normal 0.1503905912233219 0.9720152853605025 0.1804687094679859
outer loop
vertex -11.666666666666666 30.59562602087123 53.66666666666666
vertex -24.562487380689134 35 40.69096170612983
vertex -12.895820714022467 30.59562602087123 54.690961706129826
endloop
endfacet
facet normal -0.6351749907610363 -0.12485457105204859 -0.7622099889132432
outer loop
vertex -23.333333333333332 35 39.666666666666664
vertex -20.51372182160692 0 43.050200480738354
vertex -21.742875868962724 0 44.07449552020152
endloop
endfacet
facet normal -0.6351749907610363 -0.1248545710520486 -0.7622099889132431
outer loop
vertex -23.333333333333332 35 39.666666666666664
vertex -21.742875868962724 0 44.07449552020152
vertex -24.562487380689134 35 40.69096170612983
endloop
endfacet
facet normal -0.6351749907610363 0.1248545710520486 -0.7622099889132433
outer loop
vertex -20.51372182160692 0 43.050200480738354
vertex -23.333333333333332 -35 39.666666666666664
vertex -24.562487380689134 -35 40.69096170612983
endloop
endfacet
facet normal -0.6351749907610363 0.1248545710520486 -0.7622099889132431
outer loop
vertex -20.51372182160692 0 43.050200480738354
vertex -24.562487380689134 -35 40.69096170612983
vertex -21.742875868962724 0 44.07449552020152
endloop
endfacet
facet normal 0.7682212795973759 -1.3397838875030746e-16 0.6401843996644798
outer loop
vertex 16.784709602911356 -11.666666666666666 50.02429503946316
vertex 1.2291540473558014 -35 68.69096170612983
vertex 12.895820714022467 -30.59562602087123 54.690961706129826
endloop
endfacet
facet normal -0.7682212795973759 1.3397838875030746e-16 -0.6401843996644798
outer loop
vertex 15.555555555555555 -11.666666666666666 48.99999999999999
vertex 11.666666666666666 -30.59562602087123 53.66666666666666
vertex 0 -35 67.66666666666666
endloop
endfacet
facet normal 0.7682212795973757 0 0.6401843996644802
outer loop
vertex 16.784709602911356 -11.666666666666666 50.02429503946316
vertex 12.895820714022467 -30.59562602087123 54.690961706129826
vertex 24.562487380689134 -35 40.69096170612983
endloop
endfacet
facet normal -0.7682212795973757 1.91152690993156e-17 -0.64018439966448
outer loop
vertex 15.555555555555555 -11.666666666666666 48.99999999999999
vertex 23.333333333333332 -35 39.666666666666664
vertex 11.666666666666666 -30.59562602087123 53.66666666666666
endloop
endfacet
facet normal 0.7682212795973759 2.2035340739884332e-17 0.6401843996644802
outer loop
vertex 16.784709602911356 -11.666666666666666 50.02429503946316
vertex 24.562487380689134 -35 40.69096170612983
vertex 21.742875868962724 0 44.07449552020152
endloop
endfacet
facet normal -0.7682212795973759 -4.4070681479768663e-17 -0.6401843996644799
outer loop
vertex 15.555555555555555 -11.666666666666666 48.99999999999999
vertex 20.51372182160692 0 43.050200480738354
vertex 23.333333333333332 -35 39.666666666666664
endloop
endfacet
facet normal 0.7682212795973757 -3.234337580296513e-17 0.64018439966448
outer loop
vertex 16.784709602911356 -11.666666666666666 50.02429503946316
vertex 21.742875868962724 0 44.07449552020152
vertex 24.562487380689134 35 40.69096170612983
endloop
endfacet
facet normal -0.768221279597376 6.468675160593028e-17 -0.6401843996644799
outer loop
vertex 15.555555555555555 -11.666666666666666 48.99999999999999
vertex 23.333333333333332 35 39.666666666666664
vertex 20.51372182160692 0 43.050200480738354
endloop
endfacet
facet normal 0.7682212795973757 0 0.6401843996644802
outer loop
vertex 16.784709602911356 -11.666666666666666 50.02429503946316
vertex 24.562487380689134 35 40.69096170612983
vertex 12.895820714022467 0 54.690961706129826
endloop
endfacet
facet normal -0.7682212795973757 -1.6709817847170748e-17 -0.6401843996644802
outer loop
vertex 15.555555555555555 -11.666666666666666 48.99999999999999
vertex 11.666666666666666 0 53.66666666666666
vertex 23.333333333333332 35 39.666666666666664
endloop
endfacet
facet normal 0.7682212795973757 1.0025890708302447e-16 0.6401843996644798
outer loop
vertex 16.784709602911356 -11.666666666666666 50.02429503946316
vertex 12.895820714022467 0 54.690961706129826
vertex 1.2291540473558014 -35 68.69096170612983
endloop
endfacet
facet normal -0.7682212795973757 -1.0025890708302447e-16 -0.6401843996644799
outer loop
vertex 15.555555555555555 -11.666666666666666 48.99999999999999
vertex 0 -35 67.66666666666666
vertex 11.666666666666666 0 53.66666666666666
endloop
endfacet
facet normal 0.1503905912233219 -0.9720152853605026 -0.18046870946798593
outer loop
vertex 0 -35 67.66666666666666
vertex 11.666666666666666 -30.59562602087123 53.66666666666666
vertex 12.895820714022467 -30.59562602087123 54.690961706129826
endloop
endfacet
facet normal 0.15039059122332182 -0.9720152853605026 -0.18046870946798596
outer loop
vertex 0 -35 67.66666666666666
vertex 12.895820714022467 -30.59562602087123 54.690961706129826
vertex 1.2291540473558014 -35 68.69096170612983
endloop
endfacet
facet normal -0.1503905912233219 -0.9720152853605026 0.18046870946798618
outer loop
vertex 11.666666666666666 -30.59562602087123 53.66666666666666
vertex 23.333333333333332 -35 39.666666666666664
vertex 24.562487380689134 -35 40.69096170612983
endloop
endfacet
facet normal -0.1503905912233219 -0.9720152853605025 0.1804687094679859
outer loop
vertex 11.666666666666666 -30.59562602087123 53.66666666666666
vertex 24.562487380689134 -35 40.69096170612983
vertex 12.895820714022467 -30.59562602087123 54.690961706129826
endloop
endfacet
facet normal 0.6351749907610363 0.12485457105204859 -0.7622099889132432
outer loop
vertex 23.333333333333332 -35 39.666666666666664
vertex 20.51372182160692 0 43.050200480738354
vertex 21.742875868962724 0 44.07449552020152
endloop
endfacet
facet normal 0.6351749907610363 0.1248545710520486 -0.7622099889132431
outer loop
vertex 23.333333333333332 -35 39.666666666666664
vertex 21.742875868962724 0 44.07449552020152
vertex 24.562487380689134 -35 40.69096170612983
endloop
endfacet
facet normal 0.6351749907610363 -0.1248545710520486 -0.7622099889132433
outer loop
vertex 20.51372182160692 0 43.050200480738354
vertex 23.333333333333332 35 39.666666666666664
vertex 24.562487380689134 35 40.69096170612983
endloop
endfacet
facet normal 0.6351749907610363 -0.1248545710520486 -0.7622099889132431
outer loop
vertex 20.51372182160692 0 43.050200480738354
vertex 24.562487380689134 35 40.69096170612983
vertex 21.742875868962724 0 44.07449552020152
endloop
endfacet
facet normal -0.5678234568606553 0.46182974491333184 0.6813881482327839
outer loop
vertex 23.333333333333332 35 39.666666666666664
vertex 11.666666666666666 0 53.66666666666666
vertex 12.895820714022467 0 54.690961706129826
endloop
endfacet
facet normal -0.5678234568606544 0.46182974491333195 0.6813881482327848
outer loop
vertex 23.333333333333332 35 39.666666666666664
vertex 12.895820714022467 0 54.690961706129826
vertex 24.562487380689134 35 40.69096170612983
endloop
endfacet
facet normal -0.5678234568606553 0.46182974491333184 0.6813881482327839
outer loop
vertex 11.666666666666666 0 53.66666666666666
vertex 0 -35 67.66666666666666
vertex 1.2291540473558014 -35 68.69096170612983
endloop
endfacet
facet normal -0.5678234568606547 0.46182974491333195 0.6813881482327844
outer loop
vertex 11.666666666666666 0 53.66666666666666
vertex 1.2291540473558014 -35 68.69096170612983
vertex 12.895820714022467 0 54.690961706129826
endloop
endfacet
facet normal 0.7682212795973757 3.341963569434149e-17 0.6401843996644798
outer loop
vertex 9.006931825133579 11.666666666666666 59.35762837279649
vertex 1.2291540473558014 -35 68.69096170612983
vertex 12.895820714022467 0 54.690961706129826
endloop
endfacet
facet normal -0.7682212795973757 -5.0129453541512235e-17 -0.6401843996644798
outer loop
vertex 7.777777777777778 11.666666666666666 58.33333333333332
vertex 11.666666666666666 0 53.66666666666666
vertex 0 -35 67.66666666666666
endloop
endfacet
facet normal 0.7682212795973757 -6.683927138868299e-17 0.64018439966448
outer loop
vertex 9.006931825133579 11.666666666666666 59.35762837279649
vertex 12.895820714022467 0 54.690961706129826
vertex 24.562487380689134 35 40.69096170612983
endloop
endfacet
facet normal -0.7682212795973757 0 -0.64018439966448
outer loop
vertex 7.777777777777778 11.666666666666666 58.33333333333332
vertex 23.333333333333332 35 39.666666666666664
vertex 11.666666666666666 0 53.66666666666666
endloop
endfacet
facet normal 0.7682212795973757 8.931892583353835e-17 0.6401843996644802
outer loop
vertex 9.006931825133579 11.666666666666666 59.35762837279649
vertex 24.562487380689134 35 40.69096170612983
vertex 12.895820714022467 30.59562602087123 54.690961706129826
endloop
endfacet
facet normal -0.7682212795973757 0 -0.6401843996644802
outer loop
vertex 7.777777777777778 11.666666666666666 58.33333333333332
vertex 11.666666666666666 30.59562602087123 53.66666666666666
vertex 23.333333333333332 35 39.666666666666664
endloop
endfacet
facet normal 0.768221279597376 -3.8230538198631195e-17 0.6401843996644799
outer loop
vertex 9.006931825133579 11.666666666666666 59.35762837279649
vertex 12.895820714022467 30.59562602087123 54.690961706129826
vertex 1.2291540473558014 35 68.69096170612983
endloop
endfacet
facet normal -0.768221279597376 5.734580729794679e-17 -0.6401843996644799
outer loop
vertex 7.777777777777778 11.666666666666666 58.33333333333332
vertex 0 35 67.66666666666666
vertex 11.666666666666666 30.59562602087123 53.66666666666666
endloop
endfacet
facet normal 0.7682212795973761 2.2035340739884306e-16 0.6401843996644794
outer loop
vertex 9.006931825133579 11.666666666666666 59.35762837279649
vertex 1.2291540473558014 35 68.69096170612983
vertex 4.04876555908221 0 65.30742789205814
endloop
endfacet
facet normal -0.7682212795973761 -2.2035340739884306e-16 -0.6401843996644794
outer loop
vertex 7.777777777777778 11.666666666666666 58.33333333333332
vertex 2.819611511726409 0 64.28313285259497
vertex 0 35 67.66666666666666
endloop
endfacet
facet normal 0.7682212795973766 -3.2343375802965056e-16 0.6401843996644788
outer loop
vertex 9.006931825133579 11.666666666666666 59.35762837279649
vertex 4.04876555908221 0 65.30742789205814
vertex 1.2291540473558014 -35 68.69096170612983
endloop
endfacet
facet normal -0.7682212795973766 3.2343375802965056e-16 -0.6401843996644788
outer loop
vertex 7.777777777777778 11.666666666666666 58.33333333333332
vertex 0 -35 67.66666666666666
vertex 2.819611511726409 0 64.28313285259497
endloop
endfacet
facet normal 0.5678234568606552 -0.46182974491333223 -0.6813881482327838
outer loop
vertex 0 -35 67.66666666666666
vertex 11.666666666666666 0 53.66666666666666
vertex 12.895820714022467 0 54.690961706129826
endloop
endfacet
facet normal 0.5678234568606545 -0.461829744913332 -0.6813881482327846
outer loop
vertex 0 -35 67.66666666666666
vertex 12.895820714022467 0 54.690961706129826
vertex 1.2291540473558014 -35 68.69096170612983
endloop
endfacet
facet normal 0.5678234568606544 -0.4618297449133316 -0.6813881482327848
outer loop
vertex 11.666666666666666 0 53.66666666666666
vertex 23.333333333333332 35 39.666666666666664
vertex 24.562487380689134 35 40.69096170612983
endloop
endfacet
facet normal 0.5678234568606547 -0.46182974491333184 -0.6813881482327844
outer loop
vertex 11.666666666666666 0 53.66666666666666
vertex 24.562487380689134 35 40.69096170612983
vertex 12.895820714022467 0 54.690961706129826
endloop
endfacet
facet normal -0.15039059122332205 0.9720152853605025 0.18046870946798588
outer loop
vertex 23.333333333333332 35 39.666666666666664
vertex 11.666666666666666 30.59562602087123 53.66666666666666
vertex 12.895820714022467 30.59562602087123 54.690961706129826
endloop
endfacet
facet normal -0.15039059122332177 0.9720152853605026 0.18046870946798604
outer loop
vertex 23.333333333333332 35 39.666666666666664
vertex 12.895820714022467 30.59562602087123 54.690961706129826
vertex 24.562487380689134 35 40.69096170612983
endloop
endfacet
facet normal 0.15039059122332205 0.9720152853605025 -0.18046870946798588
outer loop
vertex 11.666666666666666 30.59562602087123 53.66666666666666
vertex 0 35 67.66666666666666
vertex 1.2291540473558014 35 68.69096170612983
endloop
endfacet
facet normal 0.15039059122332188 0.9720152853605025 -0.18046870946798588
outer loop
vertex 11.666666666666666 30.59562602087123 53.66666666666666
vertex 1.2291540473558014 35 68.69096170612983
vertex 12.895820714022467 30.59562602087123 54.690961706129826
endloop
endfacet
facet normal -0.6351749907610367 -0.12485457105204839 0.762209988913243
outer loop
vertex 0 35 67.66666666666666
vertex 2.819611511726409 0 64.28313285259497
vertex 4.04876555908221 0 65.30742789205814
endloop
endfacet
facet normal -0.6351749907610367 -0.1248545710520484 0.762209988913243
outer loop
vertex 0 35 67.66666666666666
vertex 4.04876555908221 0 65.30742789205814
vertex 1.2291540473558014 35 68.69096170612983
endloop
endfacet
facet normal -0.6351749907610367 0.1248545710520484 0.7622099889132429
outer loop
vertex 2.819611511726409 0 64.28313285259497
vertex 0 -35 67.66666666666666
vertex 1.2291540473558014 -35 68.69096170612983
endloop
endfacet
facet normal -0.6351749907610367 0.1248545710520484 0.762209988913243
outer loop
vertex 2.819611511726409 0 64.28313285259497
vertex 1.2291540473558014 -35 68.69096170612983
vertex 4.04876555908221 0 65.30742789205814
endloop
endfacet
endsolid church-kirigami
