solid church
facet normal 0 0 -1
outer loop
vertex 0 0 0
vertex 1.45 1.4 0
vertex 1.45 0 0
endloop
endfacet
facet normal 0 0 -1
outer loop
vertex 0 0 0
vertex 0 1.4 0
vertex 1.45 1.4 0
endloop
endfacet
facet normal -1 0 0
outer loop
vertex 0 0 0
vertex 0 0 0.78
vertex 0 1.4 0.78
endloop
endfacet
facet normal -1 0 0
outer loop
vertex 0 0 0
vertex 0 1.4 0.78
vertex 0 1.4 0
endloop
endfacet
facet normal 1 0 0
outer loop
vertex 1.45 0 0
vertex 1.45 1.4 0
vertex 1.45 1.4 0.78
endloop
endfacet
facet normal 1 0 0
outer loop
vertex 1.45 0 0
vertex 1.45 1.4 0.78
vertex 1.45 0 0.78
endloop
endfacet
facet normal 0 -1 0
outer loop
vertex 0 0 0.78
vertex 0 0 0
vertex 1.45 0 0
endloop
endfacet
facet normal 0 -1 0
outer loop
vertex 0 0 0.78
vertex 1.45 0 0
vertex 1.45 0 0.78
endloop
endfacet
facet normal 0 -1 0
outer loop
vertex 0 0 0.78
vertex 1.45 0 0.78
vertex 1.025 0 1.4
endloop
endfacet
facet normal 0 -1 0
outer loop
vertex 1.025 0 1.4
vertex 0.425 0 1.4
vertex 0 0 0.78
endloop
endfacet
facet normal 0 1 0
outer loop
vertex 0 1.4 0.78
vertex 1.45 1.4 0
vertex 0 1.4 0
endloop
endfacet
facet normal 0 1 0
outer loop
vertex 0 1.4 0.78
vertex 1.45 1.4 0.78
vertex 1.45 1.4 0
endloop
endfacet
facet normal 0 1 0
outer loop
vertex 0 1.4 0.78
vertex 1.025 1.4 1.4
vertex 1.45 1.4 0.78
endloop
endfacet
facet normal 0 1 0
outer loop
vertex 1.025 1.4 1.4
vertex 0 1.4 0.78
vertex 0.425 1.4 1.4
endloop
endfacet
facet normal -0.8248174825222604 0 0.565399080761227
outer loop
vertex 0 0 0.78
vertex 0.425 0 1.4
vertex 0.425 1.4 1.4
endloop
endfacet
facet normal -0.8248174825222604 0 0.565399080761227
outer loop
vertex 0 0 0.78
vertex 0.425 1.4 1.4
vertex 0 1.4 0.78
endloop
endfacet
facet normal 0.8248174825222604 0 0.565399080761227
outer loop
vertex 1.025 0 1.4
vertex 1.45 0 0.78
vertex 1.45 1.4 0.78
endloop
endfacet
facet normal 0.8248174825222604 0 0.565399080761227
outer loop
vertex 1.025 0 1.4
vertex 1.45 1.4 0.78
vertex 1.025 1.4 1.4
endloop
endfacet
facet normal 0 0 1
outer loop
vertex 0.425 0 1.4
vertex 1.025 0 1.4
vertex 1.025 1.4 1.4
endloop
endfacet
facet normal 0 0 1
outer loop
vertex 0.425 0 1.4
vertex 1.025 1.4 1.4
vertex 0.425 1.4 1.4
endloop
endfacet
endsolid church
