solid corner_saloon
facet normal 0 0 1
outer loop
vertex 0.9700735091368512 -0.40181760398334404 1.5
vertex 0.9700735091368511 0.40181760398334426 1.5
vertex 0.4018176039833444 0.9700735091368511 1.5
endloop
endfacet
facet normal 0 0 1
outer loop
vertex 0.9700735091368512 -0.40181760398334404 1.5
vertex 0.4018176039833444 0.9700735091368511 1.5
vertex -0.4018176039833442 0.9700735091368511 1.5
endloop
endfacet
facet normal 0 0 1
outer loop
vertex 0.9700735091368512 -0.40181760398334404 1.5
vertex -0.4018176039833442 0.9700735091368511 1.5
vertex -0.9700735091368511 0.40181760398334443 1.5
endloop
endfacet
facet normal 0 0 1
outer loop
vertex 0.9700735091368512 -0.40181760398334404 1.5
vertex -0.9700735091368511 0.40181760398334443 1.5
vertex -0.9700735091368513 -0.4018176039833437 1.5
endloop
endfacet
facet normal 0 0 1
outer loop
vertex 0.9700735091368512 -0.40181760398334404 1.5
vertex -0.9700735091368513 -0.4018176039833437 1.5
vertex -0.401817603983344 -0.9700735091368512 1.5
endloop
endfacet
facet normal 0 0 1
outer loop
vertex -0.401817603983344 -0.9700735091368512 1.5
vertex 0.40181760398334454 -0.970073509136851 1.5
vertex 0.9700735091368512 -0.40181760398334404 1.5
endloop
endfacet
facet normal 0.7071067811865475 0.7071067811865475 0
outer loop
vertex 0.9700735091368511 0.40181760398334426 0.9199999999999999
vertex 0.4018176039833444 0.9700735091368511 0.9199999999999999
vertex 0.4018176039833444 0.9700735091368511 1.5
endloop
endfacet
facet normal 0.7071067811865475 0.7071067811865475 0
outer loop
vertex 0.9700735091368511 0.40181760398334426 0.9199999999999999
vertex 0.4018176039833444 0.9700735091368511 1.5
vertex 0.9700735091368511 0.40181760398334426 1.5
endloop
endfacet
facet normal 0.7071067811865475 0.7071067811865475 0
outer loop
vertex 0.9700735091368511 0.40181760398334426 0
vertex 0.4018176039833444 0.9700735091368511 0
vertex 0.4018176039833444 0.9700735091368511 0.84
endloop
endfacet
facet normal 0.7071067811865475 0.7071067811865475 0
outer loop
vertex 0.9700735091368511 0.40181760398334426 0
vertex 0.4018176039833444 0.9700735091368511 0.84
vertex 0.9700735091368511 0.40181760398334426 0.84
endloop
endfacet
facet normal 0 1 0
outer loop
vertex 0.4018176039833444 0.9700735091368511 0.9199999999999999
vertex -0.4018176039833442 0.9700735091368511 0.9199999999999999
vertex -0.4018176039833442 0.9700735091368511 1.5
endloop
endfacet
facet normal 0 1 0
outer loop
vertex 0.4018176039833444 0.9700735091368511 0.9199999999999999
vertex -0.4018176039833442 0.9700735091368511 1.5
vertex 0.4018176039833444 0.9700735091368511 1.5
endloop
endfacet
facet normal 0 1 0
outer loop
vertex 0.4018176039833444 0.9700735091368511 0
vertex -0.4018176039833442 0.9700735091368511 0
vertex -0.4018176039833442 0.9700735091368511 0.84
endloop
endfacet
facet normal 0 1 0
outer loop
vertex 0.4018176039833444 0.9700735091368511 0
vertex -0.4018176039833442 0.9700735091368511 0.84
vertex 0.4018176039833444 0.9700735091368511 0.84
endloop
endfacet
facet normal -0.7071067811865474 0.7071067811865476 0
outer loop
vertex -0.4018176039833442 0.9700735091368511 0.9199999999999999
vertex -0.9700735091368511 0.40181760398334443 0.9199999999999999
vertex -0.9700735091368511 0.40181760398334443 1.5
endloop
endfacet
facet normal -0.7071067811865474 0.7071067811865476 0
outer loop
vertex -0.4018176039833442 0.9700735091368511 0.9199999999999999
vertex -0.9700735091368511 0.40181760398334443 1.5
vertex -0.4018176039833442 0.9700735091368511 1.5
endloop
endfacet
facet normal -0.7071067811865474 0.7071067811865476 0
outer loop
vertex -0.4018176039833442 0.9700735091368511 0
vertex -0.9700735091368511 0.40181760398334443 0
vertex -0.9700735091368511 0.40181760398334443 0.84
endloop
endfacet
facet normal -0.7071067811865474 0.7071067811865476 0
outer loop
vertex -0.4018176039833442 0.9700735091368511 0
vertex -0.9700735091368511 0.40181760398334443 0.84
vertex -0.4018176039833442 0.9700735091368511 0.84
endloop
endfacet
facet normal -1 2.7630024509109783e-16 0
outer loop
vertex -0.9700735091368511 0.40181760398334443 0.9199999999999999
vertex -0.9700735091368513 -0.4018176039833437 0.9199999999999999
vertex -0.9700735091368513 -0.4018176039833437 1.5
endloop
endfacet
facet normal -1 2.7630024509109783e-16 0
outer loop
vertex -0.9700735091368511 0.40181760398334443 0.9199999999999999
vertex -0.9700735091368513 -0.4018176039833437 1.5
vertex -0.9700735091368511 0.40181760398334443 1.5
endloop
endfacet
facet normal -1 2.763002450910978e-16 0
outer loop
vertex -0.9700735091368511 0.40181760398334443 0
vertex -0.9700735091368513 -0.4018176039833437 0
vertex -0.9700735091368513 -0.4018176039833437 0.84
endloop
endfacet
facet normal -1 2.763002450910978e-16 0
outer loop
vertex -0.9700735091368511 0.40181760398334443 0
vertex -0.9700735091368513 -0.4018176039833437 0.84
vertex -0.9700735091368511 0.40181760398334443 0.84
endloop
endfacet
facet normal -0.7071067811865476 -0.7071067811865475 0
outer loop
vertex -0.9700735091368513 -0.4018176039833437 0.9199999999999999
vertex -0.401817603983344 -0.9700735091368512 0.9199999999999999
vertex -0.401817603983344 -0.9700735091368512 1.5
endloop
endfacet
facet normal -0.7071067811865476 -0.7071067811865475 0
outer loop
vertex -0.9700735091368513 -0.4018176039833437 0.9199999999999999
vertex -0.401817603983344 -0.9700735091368512 1.5
vertex -0.9700735091368513 -0.4018176039833437 1.5
endloop
endfacet
facet normal -0.7071067811865476 -0.7071067811865475 0
outer loop
vertex -0.9700735091368513 -0.4018176039833437 0
vertex -0.401817603983344 -0.9700735091368512 0
vertex -0.401817603983344 -0.9700735091368512 0.84
endloop
endfacet
facet normal -0.7071067811865476 -0.7071067811865475 0
outer loop
vertex -0.9700735091368513 -0.4018176039833437 0
vertex -0.401817603983344 -0.9700735091368512 0.84
vertex -0.9700735091368513 -0.4018176039833437 0.84
endloop
endfacet
facet normal 2.763002450910977e-16 -1 0
outer loop
vertex -0.401817603983344 -0.9700735091368512 0.9199999999999999
vertex 0.40181760398334454 -0.970073509136851 0.9199999999999999
vertex 0.40181760398334454 -0.970073509136851 1.5
endloop
endfacet
facet normal 2.763002450910977e-16 -1 0
outer loop
vertex -0.401817603983344 -0.9700735091368512 0.9199999999999999
vertex 0.40181760398334454 -0.970073509136851 1.5
vertex -0.401817603983344 -0.9700735091368512 1.5
endloop
endfacet
facet normal 4.933932948055316e-16 -1 0
outer loop
vertex -0.401817603983344 -0.9700735091368512 0
vertex -0.17679974575267118 -0.9700735091368511 0
vertex -0.17679974575267118 -0.9700735091368511 0.84
endloop
endfacet
facet normal 4.933932948055316e-16 -1 0
outer loop
vertex -0.401817603983344 -0.9700735091368512 0
vertex -0.17679974575267118 -0.9700735091368511 0.84
vertex -0.401817603983344 -0.9700735091368512 0.84
endloop
endfacet
facet normal 4.933932948055316e-16 -1 0
outer loop
vertex 0.17679974575267177 -0.9700735091368511 0
vertex 0.40181760398334454 -0.970073509136851 0
vertex 0.40181760398334454 -0.970073509136851 0.84
endloop
endfacet
facet normal 4.933932948055316e-16 -1 0
outer loop
vertex 0.17679974575267177 -0.9700735091368511 0
vertex 0.40181760398334454 -0.970073509136851 0.84
vertex 0.17679974575267177 -0.9700735091368511 0.84
endloop
endfacet
facet normal 0 -1 0
outer loop
vertex -0.17679974575267118 -0.9700735091368511 0.6
vertex 0.17679974575267177 -0.9700735091368511 0.6
vertex 0.17679974575267177 -0.9700735091368511 0.84
endloop
endfacet
facet normal 0 -1 0
outer loop
vertex -0.17679974575267118 -0.9700735091368511 0.6
vertex 0.17679974575267177 -0.9700735091368511 0.84
vertex -0.17679974575267118 -0.9700735091368511 0.84
endloop
endfacet
facet normal 0 -1 0
outer loop
vertex -0.040181760398334154 -0.9700735091368511 0
vertex 0.040181760398334765 -0.9700735091368511 0
vertex 0.040181760398334765 -0.9700735091368511 0.6
endloop
endfacet
facet normal 0 -1 0
outer loop
vertex -0.040181760398334154 -0.9700735091368511 0
vertex 0.040181760398334765 -0.9700735091368511 0.6
vertex -0.040181760398334154 -0.9700735091368511 0.6
endloop
endfacet
facet normal 0.7071067811865477 -0.7071067811865474 0
outer loop
vertex 0.40181760398334454 -0.970073509136851 0.9199999999999999
vertex 0.9700735091368512 -0.40181760398334404 0.9199999999999999
vertex 0.9700735091368512 -0.40181760398334404 1.5
endloop
endfacet
facet normal 0.7071067811865477 -0.7071067811865474 0
outer loop
vertex 0.40181760398334454 -0.970073509136851 0.9199999999999999
vertex 0.9700735091368512 -0.40181760398334404 1.5
vertex 0.40181760398334454 -0.970073509136851 1.5
endloop
endfacet
facet normal 0.7071067811865477 -0.7071067811865474 0
outer loop
vertex 0.40181760398334454 -0.970073509136851 0
vertex 0.9700735091368512 -0.40181760398334404 0
vertex 0.9700735091368512 -0.40181760398334404 0.84
endloop
endfacet
facet normal 0.7071067811865477 -0.7071067811865474 0
outer loop
vertex 0.40181760398334454 -0.970073509136851 0
vertex 0.9700735091368512 -0.40181760398334404 0.84
vertex 0.40181760398334454 -0.970073509136851 0.84
endloop
endfacet
facet normal 1 1.381501225455489e-16 0
outer loop
vertex 0.9700735091368512 -0.40181760398334404 0.9199999999999999
vertex 0.9700735091368511 0.40181760398334426 0.9199999999999999
vertex 0.9700735091368511 0.40181760398334426 1.5
endloop
endfacet
facet normal 1 1.381501225455489e-16 0
outer loop
vertex 0.9700735091368512 -0.40181760398334404 0.9199999999999999
vertex 0.9700735091368511 0.40181760398334426 1.5
vertex 0.9700735091368512 -0.40181760398334404 1.5
endloop
endfacet
facet normal 1 1.381501225455489e-16 0
outer loop
vertex 0.9700735091368512 -0.40181760398334404 0
vertex 0.9700735091368511 0.40181760398334426 0
vertex 0.9700735091368511 0.40181760398334426 0.84
endloop
endfacet
facet normal 1 1.381501225455489e-16 0
outer loop
vertex 0.9700735091368512 -0.40181760398334404 0
vertex 0.9700735091368511 0.40181760398334426 0.84
vertex 0.9700735091368512 -0.40181760398334404 0.84
endloop
endfacet
facet normal 0 0 -1
outer loop
vertex 0.9700735091368511 0.40181760398334426 0.84
vertex 0.4018176039833444 0.9700735091368511 0.84
vertex 0.48466031645796326 1.170073509136851 0.84
endloop
endfacet
facet normal 0 0 -1
outer loop
vertex 0.9700735091368511 0.40181760398334426 0.84
vertex 0.48466031645796326 1.170073509136851 0.84
vertex 1.170073509136851 0.4846603164579632 0.84
endloop
endfacet
facet normal 0 0 1
outer loop
vertex 0.9700735091368511 0.40181760398334426 0.9199999999999999
vertex 0.48466031645796326 1.170073509136851 0.9199999999999999
vertex 0.4018176039833444 0.9700735091368511 0.9199999999999999
endloop
endfacet
facet normal 0 0 1
outer loop
vertex 0.9700735091368511 0.40181760398334426 0.9199999999999999
vertex 1.170073509136851 0.4846603164579632 0.9199999999999999
vertex 0.48466031645796326 1.170073509136851 0.9199999999999999
endloop
endfacet
facet normal 0.7071067811865475 0.7071067811865475 0
outer loop
vertex 1.170073509136851 0.4846603164579632 0.84
vertex 0.48466031645796326 1.170073509136851 0.84
vertex 0.48466031645796326 1.170073509136851 0.9199999999999999
endloop
endfacet
facet normal 0.7071067811865475 0.7071067811865475 0
outer loop
vertex 1.170073509136851 0.4846603164579632 0.84
vertex 0.48466031645796326 1.170073509136851 0.9199999999999999
vertex 1.170073509136851 0.4846603164579632 0.9199999999999999
endloop
endfacet
facet normal 0 0 -1
outer loop
vertex 0.4018176039833444 0.9700735091368511 0.84
vertex -0.4018176039833442 0.9700735091368511 0.84
vertex -0.4846603164579634 1.170073509136851 0.84
endloop
endfacet
facet normal 0 0 -1
outer loop
vertex 0.4018176039833444 0.9700735091368511 0.84
vertex -0.4846603164579634 1.170073509136851 0.84
vertex 0.48466031645796326 1.170073509136851 0.84
endloop
endfacet
facet normal 0 0 1
outer loop
vertex 0.4018176039833444 0.9700735091368511 0.9199999999999999
vertex -0.4846603164579634 1.170073509136851 0.9199999999999999
vertex -0.4018176039833442 0.9700735091368511 0.9199999999999999
endloop
endfacet
facet normal 0 0 1
outer loop
vertex 0.4018176039833444 0.9700735091368511 0.9199999999999999
vertex 0.48466031645796326 1.170073509136851 0.9199999999999999
vertex -0.4846603164579634 1.170073509136851 0.9199999999999999
endloop
endfacet
facet normal 0 1 0
outer loop
vertex 0.48466031645796326 1.170073509136851 0.84
vertex -0.4846603164579634 1.170073509136851 0.84
vertex -0.4846603164579634 1.170073509136851 0.9199999999999999
endloop
endfacet
facet normal 0 1 0
outer loop
vertex 0.48466031645796326 1.170073509136851 0.84
vertex -0.4846603164579634 1.170073509136851 0.9199999999999999
vertex 0.48466031645796326 1.170073509136851 0.9199999999999999
endloop
endfacet
facet normal 0 0 -1
outer loop
vertex -0.4018176039833442 0.9700735091368511 0.84
vertex -0.9700735091368511 0.40181760398334443 0.84
vertex -1.1700735091368508 0.4846603164579635 0.84
endloop
endfacet
facet normal 0 0 -1
outer loop
vertex -0.4018176039833442 0.9700735091368511 0.84
vertex -1.1700735091368508 0.4846603164579635 0.84
vertex -0.4846603164579634 1.170073509136851 0.84
endloop
endfacet
facet normal 0 0 1
outer loop
vertex -0.4018176039833442 0.9700735091368511 0.9199999999999999
vertex -1.1700735091368508 0.4846603164579635 0.9199999999999999
vertex -0.9700735091368511 0.40181760398334443 0.9199999999999999
endloop
endfacet
facet normal 0 0 1
outer loop
vertex -0.4018176039833442 0.9700735091368511 0.9199999999999999
vertex -0.4846603164579634 1.170073509136851 0.9199999999999999
vertex -1.1700735091368508 0.4846603164579635 0.9199999999999999
endloop
endfacet
facet normal -0.7071067811865476 0.7071067811865474 0
outer loop
vertex -0.4846603164579634 1.170073509136851 0.84
vertex -1.1700735091368508 0.4846603164579635 0.84
vertex -1.1700735091368508 0.4846603164579635 0.9199999999999999
endloop
endfacet
facet normal -0.7071067811865476 0.7071067811865474 0
outer loop
vertex -0.4846603164579634 1.170073509136851 0.84
vertex -1.1700735091368508 0.4846603164579635 0.9199999999999999
vertex -0.4846603164579634 1.170073509136851 0.9199999999999999
endloop
endfacet
facet normal 0 0 -1
outer loop
vertex -0.9700735091368511 0.40181760398334443 0.84
vertex -0.9700735091368513 -0.4018176039833437 0.84
vertex -1.1700735091368513 -0.48466031645796276 0.84
endloop
endfacet
facet normal 0 0 -1
outer loop
vertex -0.9700735091368511 0.40181760398334443 0.84
vertex -1.1700735091368513 -0.48466031645796276 0.84
vertex -1.1700735091368508 0.4846603164579635 0.84
endloop
endfacet
facet normal 0 0 1
outer loop
vertex -0.9700735091368511 0.40181760398334443 0.9199999999999999
vertex -1.1700735091368513 -0.48466031645796276 0.9199999999999999
vertex -0.9700735091368513 -0.4018176039833437 0.9199999999999999
endloop
endfacet
facet normal 0 0 1
outer loop
vertex -0.9700735091368511 0.40181760398334443 0.9199999999999999
vertex -1.1700735091368508 0.4846603164579635 0.9199999999999999
vertex -1.1700735091368513 -0.48466031645796276 0.9199999999999999
endloop
endfacet
facet normal -1 4.581448024212032e-16 0
outer loop
vertex -1.1700735091368508 0.4846603164579635 0.84
vertex -1.1700735091368513 -0.48466031645796276 0.84
vertex -1.1700735091368513 -0.48466031645796276 0.9199999999999999
endloop
endfacet
facet normal -1 4.581448024212032e-16 0
outer loop
vertex -1.1700735091368508 0.4846603164579635 0.84
vertex -1.1700735091368513 -0.48466031645796276 0.9199999999999999
vertex -1.1700735091368508 0.4846603164579635 0.9199999999999999
endloop
endfacet
facet normal 0 0 -1
outer loop
vertex -0.9700735091368513 -0.4018176039833437 0.84
vertex -0.401817603983344 -0.9700735091368512 0.84
vertex -0.4846603164579628 -1.1700735091368513 0.84
endloop
endfacet
facet normal 0 0 -1
outer loop
vertex -0.9700735091368513 -0.4018176039833437 0.84
vertex -0.4846603164579628 -1.1700735091368513 0.84
vertex -1.1700735091368513 -0.48466031645796276 0.84
endloop
endfacet
facet normal 0 0 1
outer loop
vertex -0.9700735091368513 -0.4018176039833437 0.9199999999999999
vertex -0.4846603164579628 -1.1700735091368513 0.9199999999999999
vertex -0.401817603983344 -0.9700735091368512 0.9199999999999999
endloop
endfacet
facet normal 0 0 1
outer loop
vertex -0.9700735091368513 -0.4018176039833437 0.9199999999999999
vertex -1.1700735091368513 -0.48466031645796276 0.9199999999999999
vertex -0.4846603164579628 -1.1700735091368513 0.9199999999999999
endloop
endfacet
facet normal -0.7071067811865475 -0.7071067811865475 0
outer loop
vertex -1.1700735091368513 -0.48466031645796276 0.84
vertex -0.4846603164579628 -1.1700735091368513 0.84
vertex -0.4846603164579628 -1.1700735091368513 0.9199999999999999
endloop
endfacet
facet normal -0.7071067811865475 -0.7071067811865475 0
outer loop
vertex -1.1700735091368513 -0.48466031645796276 0.84
vertex -0.4846603164579628 -1.1700735091368513 0.9199999999999999
vertex -1.1700735091368513 -0.48466031645796276 0.9199999999999999
endloop
endfacet
facet normal 0 0 -1
outer loop
vertex -0.401817603983344 -0.9700735091368512 0.84
vertex 0.40181760398334454 -0.970073509136851 0.84
vertex 0.48466031645796376 -1.170073509136851 0.84
endloop
endfacet
facet normal 0 0 -1
outer loop
vertex -0.401817603983344 -0.9700735091368512 0.84
vertex 0.48466031645796376 -1.170073509136851 0.84
vertex -0.4846603164579628 -1.1700735091368513 0.84
endloop
endfacet
facet normal 0 0 1
outer loop
vertex -0.401817603983344 -0.9700735091368512 0.9199999999999999
vertex 0.48466031645796376 -1.170073509136851 0.9199999999999999
vertex 0.40181760398334454 -0.970073509136851 0.9199999999999999
endloop
endfacet
facet normal 0 0 1
outer loop
vertex -0.401817603983344 -0.9700735091368512 0.9199999999999999
vertex -0.4846603164579628 -1.1700735091368513 0.9199999999999999
vertex 0.48466031645796376 -1.170073509136851 0.9199999999999999
endloop
endfacet
facet normal 2.2907240121060153e-16 -1 0
outer loop
vertex -0.4846603164579628 -1.1700735091368513 0.84
vertex 0.48466031645796376 -1.170073509136851 0.84
vertex 0.48466031645796376 -1.170073509136851 0.9199999999999999
endloop
endfacet
facet normal 2.2907240121060153e-16 -1 0
outer loop
vertex -0.4846603164579628 -1.1700735091368513 0.84
vertex 0.48466031645796376 -1.170073509136851 0.9199999999999999
vertex -0.4846603164579628 -1.1700735091368513 0.9199999999999999
endloop
endfacet
facet normal 0 0 -1
outer loop
vertex 0.40181760398334454 -0.970073509136851 0.84
vertex 0.9700735091368512 -0.40181760398334404 0.84
vertex 1.1700735091368513 -0.4846603164579629 0.84
endloop
endfacet
facet normal 0 0 -1
outer loop
vertex 0.40181760398334454 -0.970073509136851 0.84
vertex 1.1700735091368513 -0.4846603164579629 0.84
vertex 0.48466031645796376 -1.170073509136851 0.84
endloop
endfacet
facet normal 0 0 1
outer loop
vertex 0.40181760398334454 -0.970073509136851 0.9199999999999999
vertex 1.1700735091368513 -0.4846603164579629 0.9199999999999999
vertex 0.9700735091368512 -0.40181760398334404 0.9199999999999999
endloop
endfacet
facet normal 0 0 1
outer loop
vertex 0.40181760398334454 -0.970073509136851 0.9199999999999999
vertex 0.48466031645796376 -1.170073509136851 0.9199999999999999
vertex 1.1700735091368513 -0.4846603164579629 0.9199999999999999
endloop
endfacet
facet normal 0.7071067811865479 -0.7071067811865474 0
outer loop
vertex 0.48466031645796376 -1.170073509136851 0.84
vertex 1.1700735091368513 -0.4846603164579629 0.84
vertex 1.1700735091368513 -0.4846603164579629 0.9199999999999999
endloop
endfacet
facet normal 0.7071067811865479 -0.7071067811865474 0
outer loop
vertex 0.48466031645796376 -1.170073509136851 0.84
vertex 1.1700735091368513 -0.4846603164579629 0.9199999999999999
vertex 0.48466031645796376 -1.170073509136851 0.9199999999999999
endloop
endfacet
facet normal 0 0 -1
outer loop
vertex 0.9700735091368512 -0.40181760398334404 0.84
vertex 0.9700735091368511 0.40181760398334426 0.84
vertex 1.170073509136851 0.4846603164579632 0.84
endloop
endfacet
facet normal 0 0 -1
outer loop
vertex 0.9700735091368512 -0.40181760398334404 0.84
vertex 1.170073509136851 0.4846603164579632 0.84
vertex 1.1700735091368513 -0.4846603164579629 0.84
endloop
endfacet
facet normal 0 0 1
outer loop
vertex 0.9700735091368512 -0.40181760398334404 0.9199999999999999
vertex 1.170073509136851 0.4846603164579632 0.9199999999999999
vertex 0.9700735091368511 0.40181760398334426 0.9199999999999999
endloop
endfacet
facet normal 0 0 1
outer loop
vertex 0.9700735091368512 -0.40181760398334404 0.9199999999999999
vertex 1.1700735091368513 -0.4846603164579629 0.9199999999999999
vertex 1.170073509136851 0.4846603164579632 0.9199999999999999
endloop
endfacet
facet normal 1 2.290724012106016e-16 0
outer loop
vertex 1.1700735091368513 -0.4846603164579629 0.84
vertex 1.170073509136851 0.4846603164579632 0.84
vertex 1.170073509136851 0.4846603164579632 0.9199999999999999
endloop
endfacet
facet normal 1 2.290724012106016e-16 0
outer loop
vertex 1.1700735091368513 -0.4846603164579629 0.84
vertex 1.170073509136851 0.4846603164579632 0.9199999999999999
vertex 1.1700735091368513 -0.4846603164579629 0.9199999999999999
endloop
endfacet
endsolid corner_saloon
