solid quarterDome
  facet normal 0.110187 0.010853 0.993852
    outer loop
      vertex 0 0 49
      vertex 21.631189606246316 0 46.60176929846252
      vertex 21.215552363417736 4.220035745874521 46.60176929846252
    endloop
  endfacet
  facet normal 0.105953 0.032140 0.993852
    outer loop
      vertex 0 0 49
      vertex 21.215552363417736 4.220035745874521 46.60176929846252
      vertex 19.98461334108185 8.277897884658396 46.60176929846252
    endloop
  endfacet
  facet normal 0.097647 0.052193 0.993852
    outer loop
      vertex 0 0 49
      vertex 19.98461334108185 8.277897884658396 46.60176929846252
      vertex 17.98567683554847 12.017645050033462 46.60176929846252
    endloop
  endfacet
  facet normal 0.085588 0.070240 0.993852
    outer loop
      vertex 0 0 49
      vertex 17.98567683554847 12.017645050033462 46.60176929846252
      vertex 15.295560855708736 15.295560855708734 46.60176929846252
    endloop
  endfacet
  facet normal 0.070240 0.085588 0.993852
    outer loop
      vertex 0 0 49
      vertex 15.295560855708736 15.295560855708734 46.60176929846252
      vertex 12.017645050033465 17.98567683554847 46.60176929846252
    endloop
  endfacet
  facet normal 0.052193 0.097647 0.993852
    outer loop
      vertex 0 0 49
      vertex 12.017645050033465 17.98567683554847 46.60176929846252
      vertex 8.277897884658396 19.98461334108185 46.60176929846252
    endloop
  endfacet
  facet normal 0.032140 0.105953 0.993852
    outer loop
      vertex 0 0 49
      vertex 8.277897884658396 19.98461334108185 46.60176929846252
      vertex 4.220035745874522 21.215552363417736 46.60176929846252
    endloop
  endfacet
  facet normal 0.010853 0.110187 0.993852
    outer loop
      vertex 0 0 49
      vertex 4.220035745874522 21.215552363417736 46.60176929846252
      vertex 1.3245283556519523e-15 21.631189606246316 46.60176929846252
    endloop
  endfacet
  facet normal 0.335756 0.033069 0.941368
    outer loop
      vertex 21.631189606246316 0 46.60176929846252
      vertex 40.354378644058976 8.026984990224884 39.64183272437243
      vertex 21.215552363417736 4.220035745874521 46.60176929846252
    endloop
  endfacet
  facet normal 0.335756 0.033069 0.941368
    outer loop
      vertex 21.631189606246316 0 46.60176929846252
      vertex 41.14496766047312 0 39.64183272437243
      vertex 40.354378644058976 8.026984990224884 39.64183272437243
    endloop
  endfacet
  facet normal 0.572550 0.056391 0.817928
    outer loop
      vertex 41.14496766047312 0 39.64183272437243
      vertex 55.543037177530806 11.04819701643901 28.801477362331184
      vertex 40.354378644058976 8.026984990224884 39.64183272437243
    endloop
  endfacet
  facet normal 0.572550 0.056391 0.817928
    outer loop
      vertex 41.14496766047312 0 39.64183272437243
      vertex 56.63118960624632 0 28.801477362331184
      vertex 55.543037177530806 11.04819701643901 28.801477362331184
    endloop
  endfacet
  facet normal 0.805946 0.079379 0.586643
    outer loop
      vertex 56.63118960624632 0 28.801477362331184
      vertex 65.29475624097032 12.987934541369102 15.141832724372424
      vertex 55.543037177530806 11.04819701643901 28.801477362331184
    endloop
  endfacet
  facet normal 0.805946 0.079379 0.586643
    outer loop
      vertex 56.63118960624632 0 28.801477362331184
      vertex 66.57395614066074 0 15.141832724372424
      vertex 65.29475624097032 12.987934541369102 15.141832724372424
    endloop
  endfacet
  facet normal 0.970876 0.095623 0.219674
    outer loop
      vertex 66.57395614066074 0 15.141832724372424
      vertex 68.65496962822613 13.656322541128977 3.0003846579110155e-15
      vertex 65.29475624097032 12.987934541369102 15.141832724372424
    endloop
  endfacet
  facet normal 0.970876 0.095623 0.219674
    outer loop
      vertex 66.57395614066074 0 15.141832724372424
      vertex 70 0 3.0003846579110155e-15
      vertex 68.65496962822613 13.656322541128977 3.0003846579110155e-15
    endloop
  endfacet
  facet normal 0.322853 0.097936 0.941368
    outer loop
      vertex 21.215552363417736 4.220035745874521 46.60176929846252
      vertex 38.01299348734992 15.745497448860473 39.64183272437243
      vertex 19.98461334108185 8.277897884658396 46.60176929846252
    endloop
  endfacet
  facet normal 0.322853 0.097936 0.941368
    outer loop
      vertex 21.215552363417736 4.220035745874521 46.60176929846252
      vertex 40.354378644058976 8.026984990224884 39.64183272437243
      vertex 38.01299348734992 15.745497448860473 39.64183272437243
    endloop
  endfacet
  facet normal 0.550547 0.167007 0.817928
    outer loop
      vertex 40.354378644058976 8.026984990224884 39.64183272437243
      vertex 52.320396978976895 21.67181801743654 28.801477362331184
      vertex 38.01299348734992 15.745497448860473 39.64183272437243
    endloop
  endfacet
  facet normal 0.550547 0.167007 0.817928
    outer loop
      vertex 40.354378644058976 8.026984990224884 39.64183272437243
      vertex 55.543037177530806 11.04819701643901 28.801477362331184
      vertex 52.320396978976895 21.67181801743654 28.801477362331184
    endloop
  endfacet
  facet normal 0.774974 0.235086 0.586643
    outer loop
      vertex 55.543037177530806 11.04819701643901 28.801477362331184
      vertex 61.50631547666055 25.476750042030996 15.141832724372424
      vertex 52.320396978976895 21.67181801743654 28.801477362331184
    endloop
  endfacet
  facet normal 0.774974 0.235086 0.586643
    outer loop
      vertex 55.543037177530806 11.04819701643901 28.801477362331184
      vertex 65.29475624097032 12.987934541369102 15.141832724372424
      vertex 61.50631547666055 25.476750042030996 15.141832724372424
    endloop
  endfacet
  facet normal 0.933566 0.283194 0.219674
    outer loop
      vertex 65.29475624097032 12.987934541369102 15.141832724372424
      vertex 64.67156727579007 26.787840265556284 3.0003846579110155e-15
      vertex 61.50631547666055 25.476750042030996 15.141832724372424
    endloop
  endfacet
  facet normal 0.933566 0.283194 0.219674
    outer loop
      vertex 65.29475624097032 12.987934541369102 15.141832724372424
      vertex 68.65496962822613 13.656322541128977 3.0003846579110155e-15
      vertex 64.67156727579007 26.787840265556284 3.0003846579110155e-15
    endloop
  endfacet
  facet normal 0.297543 0.159040 0.941368
    outer loop
      vertex 19.98461334108185 8.277897884658396 46.60176929846252
      vertex 34.21079030885435 22.85891927071305 39.64183272437243
      vertex 17.98567683554847 12.017645050033462 46.60176929846252
    endloop
  endfacet
  facet normal 0.297543 0.159040 0.941368
    outer loop
      vertex 19.98461334108185 8.277897884658396 46.60176929846252
      vertex 38.01299348734992 15.745497448860473 39.64183272437243
      vertex 34.21079030885435 22.85891927071305 39.64183272437243
    endloop
  endfacet
  facet normal 0.507387 0.271204 0.817928
    outer loop
      vertex 38.01299348734992 15.745497448860473 39.64183272437243
      vertex 47.08711326613756 31.462603205719542 28.801477362331184
      vertex 34.21079030885435 22.85891927071305 39.64183272437243
    endloop
  endfacet
  facet normal 0.507387 0.271204 0.817928
    outer loop
      vertex 38.01299348734992 15.745497448860473 39.64183272437243
      vertex 52.320396978976895 21.67181801743654 28.801477362331184
      vertex 47.08711326613756 31.462603205719542 28.801477362331184
    endloop
  endfacet
  facet normal 0.714220 0.381759 0.586643
    outer loop
      vertex 52.320396978976895 21.67181801743654 28.801477362331184
      vertex 55.35422150172184 36.98650832610366 15.141832724372424
      vertex 47.08711326613756 31.462603205719542 28.801477362331184
    endloop
  endfacet
  facet normal 0.714220 0.381759 0.586643
    outer loop
      vertex 52.320396978976895 21.67181801743654 28.801477362331184
      vertex 61.50631547666055 25.476750042030996 15.141832724372424
      vertex 55.35422150172184 36.98650832610366 15.141832724372424
    endloop
  endfacet
  facet normal 0.860379 0.459882 0.219674
    outer loop
      vertex 61.50631547666055 25.476750042030996 15.141832724372424
      vertex 58.202872861178164 38.889916311372154 3.0003846579110155e-15
      vertex 55.35422150172184 36.98650832610366 15.141832724372424
    endloop
  endfacet
  facet normal 0.860379 0.459882 0.219674
    outer loop
      vertex 61.50631547666055 25.476750042030996 15.141832724372424
      vertex 64.67156727579007 26.787840265556284 3.0003846579110155e-15
      vertex 58.202872861178164 38.889916311372154 3.0003846579110155e-15
    endloop
  endfacet
  facet normal 0.260799 0.214032 0.941368
    outer loop
      vertex 17.98567683554847 12.017645050033462 46.60176929846252
      vertex 29.093885644421743 29.09388564442174 39.64183272437243
      vertex 15.295560855708736 15.295560855708734 46.60176929846252
    endloop
  endfacet
  facet normal 0.260799 0.214032 0.941368
    outer loop
      vertex 17.98567683554847 12.017645050033462 46.60176929846252
      vertex 34.21079030885435 22.85891927071305 39.64183272437243
      vertex 29.093885644421743 29.09388564442174 39.64183272437243
    endloop
  endfacet
  facet normal 0.444728 0.364979 0.817928
    outer loop
      vertex 34.21079030885435 22.85891927071305 39.64183272437243
      vertex 40.04429819723791 40.0442981972379 28.801477362331184
      vertex 29.093885644421743 29.09388564442174 39.64183272437243
    endloop
  endfacet
  facet normal 0.444728 0.364979 0.817928
    outer loop
      vertex 34.21079030885435 22.85891927071305 39.64183272437243
      vertex 47.08711326613756 31.462603205719542 28.801477362331184
      vertex 40.04429819723791 40.0442981972379 28.801477362331184
    endloop
  endfacet
  facet normal 0.626019 0.513761 0.586643
    outer loop
      vertex 47.08711326613756 31.462603205719542 28.801477362331184
      vertex 47.07489583747701 47.074895837477 15.141832724372424
      vertex 40.04429819723791 40.0442981972379 28.801477362331184
    endloop
  endfacet
  facet normal 0.626019 0.513761 0.586643
    outer loop
      vertex 47.08711326613756 31.462603205719542 28.801477362331184
      vertex 55.35422150172184 36.98650832610366 15.141832724372424
      vertex 47.07489583747701 47.074895837477 15.141832724372424
    endloop
  endfacet
  facet normal 0.754128 0.618897 0.219674
    outer loop
      vertex 55.35422150172184 36.98650832610366 15.141832724372424
      vertex 49.49747468305833 49.49747468305832 3.0003846579110155e-15
      vertex 47.07489583747701 47.074895837477 15.141832724372424
    endloop
  endfacet
  facet normal 0.754128 0.618897 0.219674
    outer loop
      vertex 55.35422150172184 36.98650832610366 15.141832724372424
      vertex 58.202872861178164 38.889916311372154 3.0003846579110155e-15
      vertex 49.49747468305833 49.49747468305832 3.0003846579110155e-15
    endloop
  endfacet
  facet normal 0.214032 0.260799 0.941368
    outer loop
      vertex 15.295560855708736 15.295560855708734 46.60176929846252
      vertex 22.858919270713052 34.21079030885435 39.64183272437243
      vertex 12.017645050033465 17.98567683554847 46.60176929846252
    endloop
  endfacet
  facet normal 0.214032 0.260799 0.941368
    outer loop
      vertex 15.295560855708736 15.295560855708734 46.60176929846252
      vertex 29.093885644421743 29.09388564442174 39.64183272437243
      vertex 22.858919270713052 34.21079030885435 39.64183272437243
    endloop
  endfacet
  facet normal 0.364979 0.444728 0.817928
    outer loop
      vertex 29.093885644421743 29.09388564442174 39.64183272437243
      vertex 31.46260320571955 47.08711326613756 28.801477362331184
      vertex 22.858919270713052 34.21079030885435 39.64183272437243
    endloop
  endfacet
  facet normal 0.364979 0.444728 0.817928
    outer loop
      vertex 29.093885644421743 29.09388564442174 39.64183272437243
      vertex 40.04429819723791 40.0442981972379 28.801477362331184
      vertex 31.46260320571955 47.08711326613756 28.801477362331184
    endloop
  endfacet
  facet normal 0.513761 0.626019 0.586643
    outer loop
      vertex 40.04429819723791 40.0442981972379 28.801477362331184
      vertex 36.98650832610367 55.35422150172184 15.141832724372424
      vertex 31.46260320571955 47.08711326613756 28.801477362331184
    endloop
  endfacet
  facet normal 0.513761 0.626019 0.586643
    outer loop
      vertex 40.04429819723791 40.0442981972379 28.801477362331184
      vertex 47.07489583747701 47.074895837477 15.141832724372424
      vertex 36.98650832610367 55.35422150172184 15.141832724372424
    endloop
  endfacet
  facet normal 0.618897 0.754128 0.219674
    outer loop
      vertex 47.07489583747701 47.074895837477 15.141832724372424
      vertex 38.88991631137216 58.202872861178164 3.0003846579110155e-15
      vertex 36.98650832610367 55.35422150172184 15.141832724372424
    endloop
  endfacet
  facet normal 0.618897 0.754128 0.219674
    outer loop
      vertex 47.07489583747701 47.074895837477 15.141832724372424
      vertex 49.49747468305833 49.49747468305832 3.0003846579110155e-15
      vertex 38.88991631137216 58.202872861178164 3.0003846579110155e-15
    endloop
  endfacet
  facet normal 0.159040 0.297543 0.941368
    outer loop
      vertex 12.017645050033465 17.98567683554847 46.60176929846252
      vertex 15.745497448860474 38.01299348734992 39.64183272437243
      vertex 8.277897884658396 19.98461334108185 46.60176929846252
    endloop
  endfacet
  facet normal 0.159040 0.297543 0.941368
    outer loop
      vertex 12.017645050033465 17.98567683554847 46.60176929846252
      vertex 22.858919270713052 34.21079030885435 39.64183272437243
      vertex 15.745497448860474 38.01299348734992 39.64183272437243
    endloop
  endfacet
  facet normal 0.271204 0.507387 0.817928
    outer loop
      vertex 22.858919270713052 34.21079030885435 39.64183272437243
      vertex 21.671818017436543 52.320396978976895 28.801477362331184
      vertex 15.745497448860474 38.01299348734992 39.64183272437243
    endloop
  endfacet
  facet normal 0.271204 0.507387 0.817928
    outer loop
      vertex 22.858919270713052 34.21079030885435 39.64183272437243
      vertex 31.46260320571955 47.08711326613756 28.801477362331184
      vertex 21.671818017436543 52.320396978976895 28.801477362331184
    endloop
  endfacet
  facet normal 0.381759 0.714220 0.586643
    outer loop
      vertex 31.46260320571955 47.08711326613756 28.801477362331184
      vertex 25.476750042031004 61.50631547666055 15.141832724372424
      vertex 21.671818017436543 52.320396978976895 28.801477362331184
    endloop
  endfacet
  facet normal 0.381759 0.714220 0.586643
    outer loop
      vertex 31.46260320571955 47.08711326613756 28.801477362331184
      vertex 36.98650832610367 55.35422150172184 15.141832724372424
      vertex 25.476750042031004 61.50631547666055 15.141832724372424
    endloop
  endfacet
  facet normal 0.459882 0.860379 0.219674
    outer loop
      vertex 36.98650832610367 55.35422150172184 15.141832724372424
      vertex 26.787840265556287 64.67156727579007 3.0003846579110155e-15
      vertex 25.476750042031004 61.50631547666055 15.141832724372424
    endloop
  endfacet
  facet normal 0.459882 0.860379 0.219674
    outer loop
      vertex 36.98650832610367 55.35422150172184 15.141832724372424
      vertex 38.88991631137216 58.202872861178164 3.0003846579110155e-15
      vertex 26.787840265556287 64.67156727579007 3.0003846579110155e-15
    endloop
  endfacet
  facet normal 0.097936 0.322853 0.941368
    outer loop
      vertex 8.277897884658396 19.98461334108185 46.60176929846252
      vertex 8.026984990224888 40.354378644058976 39.64183272437243
      vertex 4.220035745874522 21.215552363417736 46.60176929846252
    endloop
  endfacet
  facet normal 0.097936 0.322853 0.941368
    outer loop
      vertex 8.277897884658396 19.98461334108185 46.60176929846252
      vertex 15.745497448860474 38.01299348734992 39.64183272437243
      vertex 8.026984990224888 40.354378644058976 39.64183272437243
    endloop
  endfacet
  facet normal 0.167007 0.550547 0.817928
    outer loop
      vertex 15.745497448860474 38.01299348734992 39.64183272437243
      vertex 11.048197016439016 55.543037177530806 28.801477362331184
      vertex 8.026984990224888 40.354378644058976 39.64183272437243
    endloop
  endfacet
  facet normal 0.167007 0.550547 0.817928
    outer loop
      vertex 15.745497448860474 38.01299348734992 39.64183272437243
      vertex 21.671818017436543 52.320396978976895 28.801477362331184
      vertex 11.048197016439016 55.543037177530806 28.801477362331184
    endloop
  endfacet
  facet normal 0.235086 0.774974 0.586643
    outer loop
      vertex 21.671818017436543 52.320396978976895 28.801477362331184
      vertex 12.987934541369109 65.29475624097032 15.141832724372424
      vertex 11.048197016439016 55.543037177530806 28.801477362331184
    endloop
  endfacet
  facet normal 0.235086 0.774974 0.586643
    outer loop
      vertex 21.671818017436543 52.320396978976895 28.801477362331184
      vertex 25.476750042031004 61.50631547666055 15.141832724372424
      vertex 12.987934541369109 65.29475624097032 15.141832724372424
    endloop
  endfacet
  facet normal 0.283194 0.933566 0.219674
    outer loop
      vertex 25.476750042031004 61.50631547666055 15.141832724372424
      vertex 13.656322541128983 68.65496962822613 3.0003846579110155e-15
      vertex 12.987934541369109 65.29475624097032 15.141832724372424
    endloop
  endfacet
  facet normal 0.283194 0.933566 0.219674
    outer loop
      vertex 25.476750042031004 61.50631547666055 15.141832724372424
      vertex 26.787840265556287 64.67156727579007 3.0003846579110155e-15
      vertex 13.656322541128983 68.65496962822613 3.0003846579110155e-15
    endloop
  endfacet
  facet normal 0.033069 0.335756 0.941368
    outer loop
      vertex 4.220035745874522 21.215552363417736 46.60176929846252
      vertex 2.5194026473209883e-15 41.14496766047312 39.64183272437243
      vertex 1.3245283556519523e-15 21.631189606246316 46.60176929846252
    endloop
  endfacet
  facet normal 0.033069 0.335756 0.941368
    outer loop
      vertex 4.220035745874522 21.215552363417736 46.60176929846252
      vertex 8.026984990224888 40.354378644058976 39.64183272437243
      vertex 2.5194026473209883e-15 41.14496766047312 39.64183272437243
    endloop
  endfacet
  facet normal 0.056391 0.572550 0.817928
    outer loop
      vertex 8.026984990224888 40.354378644058976 39.64183272437243
      vertex 3.467660254159821e-15 56.63118960624632 28.801477362331184
      vertex 2.5194026473209883e-15 41.14496766047312 39.64183272437243
    endloop
  endfacet
  facet normal 0.056391 0.572550 0.817928
    outer loop
      vertex 8.026984990224888 40.354378644058976 39.64183272437243
      vertex 11.048197016439016 55.543037177530806 28.801477362331184
      vertex 3.467660254159821e-15 56.63118960624632 28.801477362331184
    endloop
  endfacet
  facet normal 0.079379 0.805946 0.586643
    outer loop
      vertex 11.048197016439016 55.543037177530806 28.801477362331184
      vertex 4.0764791147118225e-15 66.57395614066074 15.141832724372424
      vertex 3.467660254159821e-15 56.63118960624632 28.801477362331184
    endloop
  endfacet
  facet normal 0.079379 0.805946 0.586643
    outer loop
      vertex 11.048197016439016 55.543037177530806 28.801477362331184
      vertex 12.987934541369109 65.29475624097032 15.141832724372424
      vertex 4.0764791147118225e-15 66.57395614066074 15.141832724372424
    endloop
  endfacet
  facet normal 0.095623 0.970876 0.219674
    outer loop
      vertex 12.987934541369109 65.29475624097032 15.141832724372424
      vertex 4.2862637970157365e-15 70 3.0003846579110155e-15
      vertex 4.0764791147118225e-15 66.57395614066074 15.141832724372424
    endloop
  endfacet
  facet normal 0.095623 0.970876 0.219674
    outer loop
      vertex 12.987934541369109 65.29475624097032 15.141832724372424
      vertex 13.656322541128983 68.65496962822613 3.0003846579110155e-15
      vertex 4.2862637970157365e-15 70 3.0003846579110155e-15
    endloop
  endfacet
endsolid quarterDome
