solid general_store
facet normal 0 -1 0
outer loop
vertex 0 0 1.12
vertex 0 0 0
vertex 0.6 0 0
endloop
endfacet
facet normal 0 -1 0
outer loop
vertex 0 0 1.12
vertex 0.6 0 0
vertex 0.6 0 0.58
endloop
endfacet
facet normal 0 -1 0
outer loop
vertex 0 0 1.12
vertex 0.6 0 0.58
vertex 0.92 0 0.58
endloop
endfacet
facet normal 0 -1 0
outer loop
vertex 0.92 0 0.58
vertex 0.92 0 0
vertex 1.5 0 0
endloop
endfacet
facet normal 0 -1 0
outer loop
vertex 0.92 0 0.58
vertex 1.5 0 0
vertex 1.5 0 1.12
endloop
endfacet
facet normal 0 -1 0
outer loop
vertex 0.92 0 0.58
vertex 1.5 0 1.12
vertex 1.37 0 1.12
endloop
endfacet
facet normal 0 -1 0
outer loop
vertex 0.92 0 0.58
vertex 1.37 0 1.12
vertex 1.3223076923076924 0 1.2254767596444263
endloop
endfacet
facet normal 0 -1 0
outer loop
vertex 0.92 0 0.58
vertex 1.3223076923076924 0 1.2254767596444263
vertex 1.2746153846153847 0 1.2983891336401663
endloop
endfacet
facet normal 0 -1 0
outer loop
vertex 0.92 0 0.58
vertex 1.2746153846153847 0 1.2983891336401663
vertex 1.226923076923077 0 1.3547950406024722
endloop
endfacet
facet normal 0 -1 0
outer loop
vertex 0.92 0 0.58
vertex 1.226923076923077 0 1.3547950406024722
vertex 1.1792307692307693 0 1.4003448404516812
endloop
endfacet
facet normal 0 -1 0
outer loop
vertex 0.92 0 0.58
vertex 1.1792307692307693 0 1.4003448404516812
vertex 1.1315384615384616 0 1.4378205058334004
endloop
endfacet
facet normal 0 -1 0
outer loop
vertex 0.92 0 0.58
vertex 1.1315384615384616 0 1.4378205058334004
vertex 1.083846153846154 0 1.4688291195358265
endloop
endfacet
facet normal 0 -1 0
outer loop
vertex 0.92 0 0.58
vertex 1.083846153846154 0 1.4688291195358265
vertex 1.0361538461538462 0 1.4943891424753382
endloop
endfacet
facet normal 0 -1 0
outer loop
vertex 0.92 0 0.58
vertex 1.0361538461538462 0 1.4943891424753382
vertex 0.9884615384615386 0 1.5151836307947373
endloop
endfacet
facet normal 0 -1 0
outer loop
vertex 0.92 0 0.58
vertex 0.9884615384615386 0 1.5151836307947373
vertex 0.940769230769231 0 1.5316857756543691
endloop
endfacet
facet normal 0 -1 0
outer loop
vertex 0.92 0 0.58
vertex 0.940769230769231 0 1.5316857756543691
vertex 0.8930769230769232 0 1.5442271504710272
endloop
endfacet
facet normal 0 -1 0
outer loop
vertex 0.92 0 0.58
vertex 0.8930769230769232 0 1.5442271504710272
vertex 0.8453846153846154 0 1.5530371090850092
endloop
endfacet
facet normal 0 -1 0
outer loop
vertex 0.92 0 0.58
vertex 0.8453846153846154 0 1.5530371090850092
vertex 0.7976923076923078 0 1.5582662156100615
endloop
endfacet
facet normal 0 -1 0
outer loop
vertex 0.92 0 0.58
vertex 0.7976923076923078 0 1.5582662156100615
vertex 0.7500000000000002 0 1.56
endloop
endfacet
facet normal 0 -1 0
outer loop
vertex 0.92 0 0.58
vertex 0.7500000000000002 0 1.56
vertex 0.7023076923076924 0 1.5582662156100615
endloop
endfacet
facet normal 0 -1 0
outer loop
vertex 0.92 0 0.58
vertex 0.7023076923076924 0 1.5582662156100615
vertex 0.6546153846153847 0 1.5530371090850092
endloop
endfacet
facet normal 0 -1 0
outer loop
vertex 0.92 0 0.58
vertex 0.6546153846153847 0 1.5530371090850092
vertex 0.606923076923077 0 1.5442271504710274
endloop
endfacet
facet normal 0 -1 0
outer loop
vertex 0.92 0 0.58
vertex 0.606923076923077 0 1.5442271504710274
vertex 0.5592307692307693 0 1.5316857756543691
endloop
endfacet
facet normal 0 -1 0
outer loop
vertex 0.92 0 0.58
vertex 0.5592307692307693 0 1.5316857756543691
vertex 0.5115384615384616 0 1.5151836307947373
endloop
endfacet
facet normal 0 -1 0
outer loop
vertex 0.92 0 0.58
vertex 0.5115384615384616 0 1.5151836307947373
vertex 0.4638461538461539 0 1.4943891424753382
endloop
endfacet
facet normal 0 -1 0
outer loop
vertex 0.92 0 0.58
vertex 0.4638461538461539 0 1.4943891424753382
vertex 0.4161538461538462 0 1.4688291195358265
endloop
endfacet
facet normal 0 -1 0
outer loop
vertex 0.92 0 0.58
vertex 0.4161538461538462 0 1.4688291195358265
vertex 0.3684615384615385 0 1.4378205058334004
endloop
endfacet
facet normal 0 -1 0
outer loop
vertex 0.92 0 0.58
vertex 0.3684615384615385 0 1.4378205058334004
vertex 0.3207692307692308 0 1.4003448404516812
endloop
endfacet
facet normal 0 -1 0
outer loop
vertex 0.92 0 0.58
vertex 0.3207692307692308 0 1.4003448404516812
vertex 0.2730769230769231 0 1.3547950406024722
endloop
endfacet
facet normal 0 -1 0
outer loop
vertex 0.92 0 0.58
vertex 0.2730769230769231 0 1.3547950406024722
vertex 0.2253846153846154 0 1.2983891336401663
endloop
endfacet
facet normal 0 -1 0
outer loop
vertex 0.92 0 0.58
vertex 0.2253846153846154 0 1.2983891336401663
vertex 0.1776923076923077 0 1.2254767596444265
endloop
endfacet
facet normal 0 -1 0
outer loop
vertex 0.92 0 0.58
vertex 0.1776923076923077 0 1.2254767596444265
vertex 0.13 0 1.12
endloop
endfacet
facet normal 0 -1 0
outer loop
vertex 0.92 0 0.58
vertex 0.13 0 1.12
vertex 0 0 1.12
endloop
endfacet
facet normal 0 1 0
outer loop
vertex 0 0.12 1.12
vertex 1.5 0.12 0.95
vertex 0 0.12 0.95
endloop
endfacet
facet normal 0 1 0
outer loop
vertex 1.5 0.12 0.95
vertex 1.37 0.12 1.12
vertex 1.5 0.12 1.12
endloop
endfacet
facet normal 0 1 0
outer loop
vertex 1.37 0.12 1.12
vertex 1.2746153846153847 0.12 1.2983891336401663
vertex 1.3223076923076924 0.12 1.2254767596444263
endloop
endfacet
facet normal 0 1 0
outer loop
vertex 1.37 0.12 1.12
vertex 1.226923076923077 0.12 1.3547950406024722
vertex 1.2746153846153847 0.12 1.2983891336401663
endloop
endfacet
facet normal 0 1 0
outer loop
vertex 1.37 0.12 1.12
vertex 1.1792307692307693 0.12 1.4003448404516812
vertex 1.226923076923077 0.12 1.3547950406024722
endloop
endfacet
facet normal 0 1 0
outer loop
vertex 1.37 0.12 1.12
vertex 1.1315384615384616 0.12 1.4378205058334004
vertex 1.1792307692307693 0.12 1.4003448404516812
endloop
endfacet
facet normal 0 1 0
outer loop
vertex 1.37 0.12 1.12
vertex 1.083846153846154 0.12 1.4688291195358265
vertex 1.1315384615384616 0.12 1.4378205058334004
endloop
endfacet
facet normal 0 1 0
outer loop
vertex 1.5 0.12 0.95
vertex 1.083846153846154 0.12 1.4688291195358265
vertex 1.37 0.12 1.12
endloop
endfacet
facet normal 0 1 0
outer loop
vertex 1.5 0.12 0.95
vertex 1.0361538461538462 0.12 1.4943891424753382
vertex 1.083846153846154 0.12 1.4688291195358265
endloop
endfacet
facet normal 0 1 0
outer loop
vertex 1.5 0.12 0.95
vertex 0.9884615384615386 0.12 1.5151836307947373
vertex 1.0361538461538462 0.12 1.4943891424753382
endloop
endfacet
facet normal 0 1 0
outer loop
vertex 1.5 0.12 0.95
vertex 0.940769230769231 0.12 1.5316857756543691
vertex 0.9884615384615386 0.12 1.5151836307947373
endloop
endfacet
facet normal 0 1 0
outer loop
vertex 1.5 0.12 0.95
vertex 0.8930769230769232 0.12 1.5442271504710272
vertex 0.940769230769231 0.12 1.5316857756543691
endloop
endfacet
facet normal 0 1 0
outer loop
vertex 1.5 0.12 0.95
vertex 0.8453846153846154 0.12 1.5530371090850092
vertex 0.8930769230769232 0.12 1.5442271504710272
endloop
endfacet
facet normal 0 1 0
outer loop
vertex 1.5 0.12 0.95
vertex 0.7976923076923078 0.12 1.5582662156100615
vertex 0.8453846153846154 0.12 1.5530371090850092
endloop
endfacet
facet normal 0 1 0
outer loop
vertex 1.5 0.12 0.95
vertex 0.7500000000000002 0.12 1.56
vertex 0.7976923076923078 0.12 1.5582662156100615
endloop
endfacet
facet normal 0 1 0
outer loop
vertex 1.5 0.12 0.95
vertex 0.7023076923076924 0.12 1.5582662156100615
vertex 0.7500000000000002 0.12 1.56
endloop
endfacet
facet normal 0 1 0
outer loop
vertex 1.5 0.12 0.95
vertex 0.6546153846153847 0.12 1.5530371090850092
vertex 0.7023076923076924 0.12 1.5582662156100615
endloop
endfacet
facet normal 0 1 0
outer loop
vertex 1.5 0.12 0.95
vertex 0.606923076923077 0.12 1.5442271504710274
vertex 0.6546153846153847 0.12 1.5530371090850092
endloop
endfacet
facet normal 0 1 0
outer loop
vertex 1.5 0.12 0.95
vertex 0.5592307692307693 0.12 1.5316857756543691
vertex 0.606923076923077 0.12 1.5442271504710274
endloop
endfacet
facet normal 0 1 0
outer loop
vertex 1.5 0.12 0.95
vertex 0.5115384615384616 0.12 1.5151836307947373
vertex 0.5592307692307693 0.12 1.5316857756543691
endloop
endfacet
facet normal 0 1 0
outer loop
vertex 1.5 0.12 0.95
vertex 0.4638461538461539 0.12 1.4943891424753382
vertex 0.5115384615384616 0.12 1.5151836307947373
endloop
endfacet
facet normal 0 1 0
outer loop
vertex 1.5 0.12 0.95
vertex 0.4161538461538462 0.12 1.4688291195358265
vertex 0.4638461538461539 0.12 1.4943891424753382
endloop
endfacet
facet normal 0 1 0
outer loop
vertex 1.5 0.12 0.95
vertex 0.3684615384615385 0.12 1.4378205058334004
vertex 0.4161538461538462 0.12 1.4688291195358265
endloop
endfacet
facet normal 0 1 0
outer loop
vertex 1.5 0.12 0.95
vertex 0.3207692307692308 0.12 1.4003448404516812
vertex 0.3684615384615385 0.12 1.4378205058334004
endloop
endfacet
facet normal 0 1 0
outer loop
vertex 1.5 0.12 0.95
vertex 0.2730769230769231 0.12 1.3547950406024722
vertex 0.3207692307692308 0.12 1.4003448404516812
endloop
endfacet
facet normal 0 1 0
outer loop
vertex 1.5 0.12 0.95
vertex 0.2253846153846154 0.12 1.2983891336401663
vertex 0.2730769230769231 0.12 1.3547950406024722
endloop
endfacet
facet normal 0 1 0
outer loop
vertex 1.5 0.12 0.95
vertex 0.1776923076923077 0.12 1.2254767596444265
vertex 0.2253846153846154 0.12 1.2983891336401663
endloop
endfacet
facet normal 0 1 0
outer loop
vertex 1.5 0.12 0.95
vertex 0.13 0.12 1.12
vertex 0.1776923076923077 0.12 1.2254767596444265
endloop
endfacet
facet normal 0 1 0
outer loop
vertex 1.5 0.12 0.95
vertex 0 0.12 1.12
vertex 0.13 0.12 1.12
endloop
endfacet
facet normal 0 0 1
outer loop
vertex 0 0 1.12
vertex 0.13 0 1.12
vertex 0.13 0.12 1.12
endloop
endfacet
facet normal 0 0 1
outer loop
vertex 0 0 1.12
vertex 0.13 0.12 1.12
vertex 0 0.12 1.12
endloop
endfacet
facet normal -0.9111837195460041 0 0.412000278196883
outer loop
vertex 0.13 0 1.12
vertex 0.1776923076923077 0 1.2254767596444265
vertex 0.1776923076923077 0.12 1.2254767596444265
endloop
endfacet
facet normal -0.9111837195460041 0 0.412000278196883
outer loop
vertex 0.13 0 1.12
vertex 0.1776923076923077 0.12 1.2254767596444265
vertex 0.13 0.12 1.12
endloop
endfacet
facet normal -0.8368705952134577 0 0.5474007735353255
outer loop
vertex 0.1776923076923077 0 1.2254767596444265
vertex 0.2253846153846154 0 1.2983891336401663
vertex 0.2253846153846154 0.12 1.2983891336401663
endloop
endfacet
facet normal -0.8368705952134577 0 0.5474007735353255
outer loop
vertex 0.1776923076923077 0 1.2254767596444265
vertex 0.2253846153846154 0.12 1.2983891336401663
vertex 0.1776923076923077 0.12 1.2254767596444265
endloop
endfacet
facet normal -0.763625004075522 0 0.6456600135912547
outer loop
vertex 0.2253846153846154 0 1.2983891336401663
vertex 0.2730769230769231 0 1.3547950406024722
vertex 0.2730769230769231 0.12 1.3547950406024722
endloop
endfacet
facet normal -0.763625004075522 0 0.6456600135912547
outer loop
vertex 0.2253846153846154 0 1.2983891336401663
vertex 0.2730769230769231 0.12 1.3547950406024722
vertex 0.2253846153846154 0.12 1.2983891336401663
endloop
endfacet
facet normal -0.6906766431133835 0 0.723163726038321
outer loop
vertex 0.2730769230769231 0 1.3547950406024722
vertex 0.3207692307692308 0 1.4003448404516812
vertex 0.3207692307692308 0.12 1.4003448404516812
endloop
endfacet
facet normal -0.6906766431133835 0 0.723163726038321
outer loop
vertex 0.2730769230769231 0 1.3547950406024722
vertex 0.3207692307692308 0.12 1.4003448404516812
vertex 0.2730769230769231 0.12 1.3547950406024722
endloop
endfacet
facet normal -0.6178535384100946 0 0.7862932055373019
outer loop
vertex 0.3207692307692308 0 1.4003448404516812
vertex 0.3684615384615385 0 1.4378205058334004
vertex 0.3684615384615385 0.12 1.4378205058334004
endloop
endfacet
facet normal -0.6178535384100946 0 0.7862932055373019
outer loop
vertex 0.3207692307692308 0 1.4003448404516812
vertex 0.3684615384615385 0.12 1.4378205058334004
vertex 0.3207692307692308 0.12 1.4003448404516812
endloop
endfacet
facet normal -0.5450947916947279 0 0.8383744199743223
outer loop
vertex 0.3684615384615385 0 1.4378205058334004
vertex 0.4161538461538462 0 1.4688291195358265
vertex 0.4161538461538462 0.12 1.4688291195358265
endloop
endfacet
facet normal -0.5450947916947279 0 0.8383744199743223
outer loop
vertex 0.3684615384615385 0 1.4378205058334004
vertex 0.4161538461538462 0.12 1.4688291195358265
vertex 0.3684615384615385 0.12 1.4378205058334004
endloop
endfacet
facet normal -0.47237322310621294 0 0.8813986261007264
outer loop
vertex 0.4161538461538462 0 1.4688291195358265
vertex 0.4638461538461539 0 1.4943891424753382
vertex 0.4638461538461539 0.12 1.4943891424753382
endloop
endfacet
facet normal -0.47237322310621294 0 0.8813986261007264
outer loop
vertex 0.4161538461538462 0 1.4688291195358265
vertex 0.4638461538461539 0.12 1.4943891424753382
vertex 0.4161538461538462 0.12 1.4688291195358265
endloop
endfacet
facet normal -0.3996747951551014 0 0.9166570013465929
outer loop
vertex 0.4638461538461539 0 1.4943891424753382
vertex 0.5115384615384616 0 1.5151836307947373
vertex 0.5115384615384616 0.12 1.5151836307947373
endloop
endfacet
facet normal -0.3996747951551014 0 0.9166570013465929
outer loop
vertex 0.4638461538461539 0 1.4943891424753382
vertex 0.5115384615384616 0.12 1.5151836307947373
vertex 0.4638461538461539 0.12 1.4943891424753382
endloop
endfacet
facet normal -0.32699145938786106 0 0.9450272935145296
outer loop
vertex 0.5115384615384616 0 1.5151836307947373
vertex 0.5592307692307693 0 1.5316857756543691
vertex 0.5592307692307693 0.12 1.5316857756543691
endloop
endfacet
facet normal -0.32699145938786106 0 0.9450272935145296
outer loop
vertex 0.5115384615384616 0 1.5151836307947373
vertex 0.5592307692307693 0.12 1.5316857756543691
vertex 0.5115384615384616 0.12 1.5151836307947373
endloop
endfacet
facet normal -0.25431820156334156 0 0.9671205986605742
outer loop
vertex 0.5592307692307693 0 1.5316857756543691
vertex 0.606923076923077 0 1.5442271504710274
vertex 0.606923076923077 0.12 1.5442271504710274
endloop
endfacet
facet normal -0.25431820156334156 0 0.9671205986605742
outer loop
vertex 0.5592307692307693 0 1.5316857756543691
vertex 0.606923076923077 0.12 1.5442271504710274
vertex 0.5592307692307693 0.12 1.5316857756543691
endloop
endfacet
facet normal -0.18165165907284023 0 0.983362941520619
outer loop
vertex 0.606923076923077 0 1.5442271504710274
vertex 0.6546153846153847 0 1.5530371090850092
vertex 0.6546153846153847 0.12 1.5530371090850092
endloop
endfacet
facet normal -0.18165165907284023 0 0.983362941520619
outer loop
vertex 0.606923076923077 0 1.5442271504710274
vertex 0.6546153846153847 0.12 1.5530371090850092
vertex 0.606923076923077 0.12 1.5442271504710274
endloop
endfacet
facet normal -0.10898940573429318 0 0.994042911265749
outer loop
vertex 0.6546153846153847 0 1.5530371090850092
vertex 0.7023076923076924 0 1.5582662156100615
vertex 0.7023076923076924 0.12 1.5582662156100615
endloop
endfacet
facet normal -0.10898940573429318 0 0.994042911265749
outer loop
vertex 0.6546153846153847 0 1.5530371090850092
vertex 0.7023076923076924 0.12 1.5582662156100615
vertex 0.6546153846153847 0.12 1.5530371090850092
endloop
endfacet
facet normal -0.03632954538351902 0 0.9993398641764607
outer loop
vertex 0.7023076923076924 0 1.5582662156100615
vertex 0.7500000000000002 0 1.56
vertex 0.7500000000000002 0.12 1.56
endloop
endfacet
facet normal -0.03632954538351902 0 0.9993398641764607
outer loop
vertex 0.7023076923076924 0 1.5582662156100615
vertex 0.7500000000000002 0.12 1.56
vertex 0.7023076923076924 0.12 1.5582662156100615
endloop
endfacet
facet normal 0.03632954538351919 0 0.9993398641764607
outer loop
vertex 0.7500000000000002 0 1.56
vertex 0.7976923076923078 0 1.5582662156100615
vertex 0.7976923076923078 0.12 1.5582662156100615
endloop
endfacet
facet normal 0.03632954538351919 0 0.9993398641764607
outer loop
vertex 0.7500000000000002 0 1.56
vertex 0.7976923076923078 0.12 1.5582662156100615
vertex 0.7500000000000002 0.12 1.56
endloop
endfacet
facet normal 0.10898940573429342 0 0.994042911265749
outer loop
vertex 0.7976923076923078 0 1.5582662156100615
vertex 0.8453846153846154 0 1.5530371090850092
vertex 0.8453846153846154 0.12 1.5530371090850092
endloop
endfacet
facet normal 0.10898940573429342 0 0.994042911265749
outer loop
vertex 0.7976923076923078 0 1.5582662156100615
vertex 0.8453846153846154 0.12 1.5530371090850092
vertex 0.7976923076923078 0.12 1.5582662156100615
endloop
endfacet
facet normal 0.18165165907284428 0 0.9833629415206185
outer loop
vertex 0.8453846153846154 0 1.5530371090850092
vertex 0.8930769230769232 0 1.5442271504710272
vertex 0.8930769230769232 0.12 1.5442271504710272
endloop
endfacet
facet normal 0.18165165907284428 0 0.9833629415206185
outer loop
vertex 0.8453846153846154 0 1.5530371090850092
vertex 0.8930769230769232 0.12 1.5442271504710272
vertex 0.8453846153846154 0.12 1.5530371090850092
endloop
endfacet
facet normal 0.25431820156333684 0 0.9671205986605756
outer loop
vertex 0.8930769230769232 0 1.5442271504710272
vertex 0.940769230769231 0 1.5316857756543691
vertex 0.940769230769231 0.12 1.5316857756543691
endloop
endfacet
facet normal 0.25431820156333684 0 0.9671205986605756
outer loop
vertex 0.8930769230769232 0 1.5442271504710272
vertex 0.940769230769231 0.12 1.5316857756543691
vertex 0.8930769230769232 0.12 1.5442271504710272
endloop
endfacet
facet normal 0.3269914593878617 0 0.9450272935145293
outer loop
vertex 0.940769230769231 0 1.5316857756543691
vertex 0.9884615384615386 0 1.5151836307947373
vertex 0.9884615384615386 0.12 1.5151836307947373
endloop
endfacet
facet normal 0.3269914593878617 0 0.9450272935145293
outer loop
vertex 0.940769230769231 0 1.5316857756543691
vertex 0.9884615384615386 0.12 1.5151836307947373
vertex 0.940769230769231 0.12 1.5316857756543691
endloop
endfacet
facet normal 0.3996747951551022 0 0.9166570013465926
outer loop
vertex 0.9884615384615386 0 1.5151836307947373
vertex 1.0361538461538462 0 1.4943891424753382
vertex 1.0361538461538462 0.12 1.4943891424753382
endloop
endfacet
facet normal 0.3996747951551022 0 0.9166570013465926
outer loop
vertex 0.9884615384615386 0 1.5151836307947373
vertex 1.0361538461538462 0.12 1.4943891424753382
vertex 0.9884615384615386 0.12 1.5151836307947373
endloop
endfacet
facet normal 0.47237322310621294 0 0.8813986261007264
outer loop
vertex 1.0361538461538462 0 1.4943891424753382
vertex 1.083846153846154 0 1.4688291195358265
vertex 1.083846153846154 0.12 1.4688291195358265
endloop
endfacet
facet normal 0.47237322310621294 0 0.8813986261007264
outer loop
vertex 1.0361538461538462 0 1.4943891424753382
vertex 1.083846153846154 0.12 1.4688291195358265
vertex 1.0361538461538462 0.12 1.4943891424753382
endloop
endfacet
facet normal 0.5450947916947279 0 0.8383744199743223
outer loop
vertex 1.083846153846154 0 1.4688291195358265
vertex 1.1315384615384616 0 1.4378205058334004
vertex 1.1315384615384616 0.12 1.4378205058334004
endloop
endfacet
facet normal 0.5450947916947279 0 0.8383744199743223
outer loop
vertex 1.083846153846154 0 1.4688291195358265
vertex 1.1315384615384616 0.12 1.4378205058334004
vertex 1.083846153846154 0.12 1.4688291195358265
endloop
endfacet
facet normal 0.6178535384100946 0 0.7862932055373019
outer loop
vertex 1.1315384615384616 0 1.4378205058334004
vertex 1.1792307692307693 0 1.4003448404516812
vertex 1.1792307692307693 0.12 1.4003448404516812
endloop
endfacet
facet normal 0.6178535384100946 0 0.7862932055373019
outer loop
vertex 1.1315384615384616 0 1.4378205058334004
vertex 1.1792307692307693 0.12 1.4003448404516812
vertex 1.1315384615384616 0.12 1.4378205058334004
endloop
endfacet
facet normal 0.6906766431133835 0 0.723163726038321
outer loop
vertex 1.1792307692307693 0 1.4003448404516812
vertex 1.226923076923077 0 1.3547950406024722
vertex 1.226923076923077 0.12 1.3547950406024722
endloop
endfacet
facet normal 0.6906766431133835 0 0.723163726038321
outer loop
vertex 1.1792307692307693 0 1.4003448404516812
vertex 1.226923076923077 0.12 1.3547950406024722
vertex 1.1792307692307693 0.12 1.4003448404516812
endloop
endfacet
facet normal 0.763625004075522 0 0.6456600135912547
outer loop
vertex 1.226923076923077 0 1.3547950406024722
vertex 1.2746153846153847 0 1.2983891336401663
vertex 1.2746153846153847 0.12 1.2983891336401663
endloop
endfacet
facet normal 0.763625004075522 0 0.6456600135912547
outer loop
vertex 1.226923076923077 0 1.3547950406024722
vertex 1.2746153846153847 0.12 1.2983891336401663
vertex 1.226923076923077 0.12 1.3547950406024722
endloop
endfacet
facet normal 0.8368705952134586 0 0.5474007735353243
outer loop
vertex 1.2746153846153847 0 1.2983891336401663
vertex 1.3223076923076924 0 1.2254767596444263
vertex 1.3223076923076924 0.12 1.2254767596444263
endloop
endfacet
facet normal 0.8368705952134586 0 0.5474007735353243
outer loop
vertex 1.2746153846153847 0 1.2983891336401663
vertex 1.3223076923076924 0.12 1.2254767596444263
vertex 1.2746153846153847 0.12 1.2983891336401663
endloop
endfacet
facet normal 0.9111837195460036 0 0.41200027819688373
outer loop
vertex 1.3223076923076924 0 1.2254767596444263
vertex 1.37 0 1.12
vertex 1.37 0.12 1.12
endloop
endfacet
facet normal 0.9111837195460036 0 0.41200027819688373
outer loop
vertex 1.3223076923076924 0 1.2254767596444263
vertex 1.37 0.12 1.12
vertex 1.3223076923076924 0.12 1.2254767596444263
endloop
endfacet
facet normal 0 0 1
outer loop
vertex 1.37 0 1.12
vertex 1.5 0 1.12
vertex 1.5 0.12 1.12
endloop
endfacet
facet normal 0 0 1
outer loop
vertex 1.37 0 1.12
vertex 1.5 0.12 1.12
vertex 1.37 0.12 1.12
endloop
endfacet
facet normal 0 0 1
outer loop
vertex 0 0.12 0.95
vertex 1.5 0.12 0.95
vertex 1.5 1.2 0.95
endloop
endfacet
facet normal 0 0 1
outer loop
vertex 0 0.12 0.95
vertex 1.5 1.2 0.95
vertex 0 1.2 0.95
endloop
endfacet
facet normal 0 1 0
outer loop
vertex 0 1.2 0
vertex 1.5 1.2 0.95
vertex 1.5 1.2 0
endloop
endfacet
facet normal 0 1 0
outer loop
vertex 0 1.2 0
vertex 0 1.2 0.95
vertex 1.5 1.2 0.95
endloop
endfacet
facet normal -1 0 0
outer loop
vertex 0 0 0
vertex 0 1.2 0.95
vertex 0 1.2 0
endloop
endfacet
facet normal -1 0 0
outer loop
vertex 0 0 0
vertex 0 0.12 0.95
vertex 0 1.2 0.95
endloop
endfacet
facet normal -1 0 0
outer loop
vertex 0 0 0
vertex 0 0.12 1.12
vertex 0 0.12 0.95
endloop
endfacet
facet normal -1 0 0
outer loop
vertex 0 0.12 1.12
vertex 0 0 0
vertex 0 0 1.12
endloop
endfacet
facet normal 1 0 0
outer loop
vertex 1.5 0 0
vertex 1.5 1.2 0
vertex 1.5 1.2 0.95
endloop
endfacet
facet normal 1 0 0
outer loop
vertex 1.5 0 0
vertex 1.5 1.2 0.95
vertex 1.5 0.12 0.95
endloop
endfacet
facet normal 1 0 0
outer loop
vertex 1.5 0 0
vertex 1.5 0.12 0.95
vertex 1.5 0.12 1.12
endloop
endfacet
facet normal 1 0 0
outer loop
vertex 1.5 0.12 1.12
vertex 1.5 0 1.12
vertex 1.5 0 0
endloop
endfacet
endsolid general_store
