solid hotel
facet normal -1 0 0
outer loop
vertex 0 0 0.53
vertex 0 1.5 0
vertex 0 0 0
endloop
endfacet
facet normal -1 0 0
outer loop
vertex 0 0 0.53
vertex 0 1.5 1.3
vertex 0 1.5 0
endloop
endfacet
facet normal -1 0 0
outer loop
vertex 0 0 0.53
vertex 0 0.14 1.3
vertex 0 1.5 1.3
endloop
endfacet
facet normal -1 0 0
outer loop
vertex 0 0 0.53
vertex 0 0.14 1.7
vertex 0 0.14 1.3
endloop
endfacet
facet normal -1 0 0
outer loop
vertex 0 0.14 1.7
vertex 0 0 0.62
vertex 0 0 1.7
endloop
endfacet
facet normal -1 0 0
outer loop
vertex 0 0 0.53
vertex 0 0 0.62
vertex 0 0.14 1.7
endloop
endfacet
facet normal -1 0 0
outer loop
vertex 0 0 0.53
vertex 0 -0.42 0.62
vertex 0 0 0.62
endloop
endfacet
facet normal -1 0 0
outer loop
vertex 0 -0.42 0.62
vertex 0 0 0.53
vertex 0 -0.42 0.53
endloop
endfacet
facet normal 1 0 0
outer loop
vertex 1.45 0 0.53
vertex 1.45 0 0
vertex 1.45 1.5 0
endloop
endfacet
facet normal 1 0 0
outer loop
vertex 1.45 0 0.53
vertex 1.45 1.5 0
vertex 1.45 1.5 1.3
endloop
endfacet
facet normal 1 0 0
outer loop
vertex 1.45 0 0.53
vertex 1.45 1.5 1.3
vertex 1.45 0.14 1.3
endloop
endfacet
facet normal 1 0 0
outer loop
vertex 1.45 0 0.53
vertex 1.45 0.14 1.3
vertex 1.45 0.14 1.7
endloop
endfacet
facet normal 1 0 0
outer loop
vertex 1.45 0.14 1.7
vertex 1.45 0 1.7
vertex 1.45 0 0.62
endloop
endfacet
facet normal 1 0 0
outer loop
vertex 1.45 0 0.53
vertex 1.45 0.14 1.7
vertex 1.45 0 0.62
endloop
endfacet
facet normal 1 0 0
outer loop
vertex 1.45 0 0.53
vertex 1.45 0 0.62
vertex 1.45 -0.42 0.62
endloop
endfacet
facet normal 1 0 0
outer loop
vertex 1.45 -0.42 0.62
vertex 1.45 -0.42 0.53
vertex 1.45 0 0.53
endloop
endfacet
facet normal 0 1 0
outer loop
vertex 0 1.5 0
vertex 0 1.5 1.3
vertex 1.45 1.5 1.3
endloop
endfacet
facet normal 0 1 0
outer loop
vertex 0 1.5 0
vertex 1.45 1.5 1.3
vertex 1.45 1.5 0
endloop
endfacet
facet normal 0 0 1
outer loop
vertex 0 1.5 1.3
vertex 0 0.14 1.3
vertex 1.45 0.14 1.3
endloop
endfacet
facet normal 0 0 1
outer loop
vertex 0 1.5 1.3
vertex 1.45 0.14 1.3
vertex 1.45 1.5 1.3
endloop
endfacet
facet normal 0 -1 0
outer loop
vertex 0 0.14 1.3
vertex 1.45 0.14 1.7
vertex 0 0.14 1.7
endloop
endfacet
facet normal 0 -1 0
outer loop
vertex 0 0.14 1.3
vertex 1.45 0.14 1.3
vertex 1.45 0.14 1.7
endloop
endfacet
facet normal 0 0 1
outer loop
vertex 0 0.14 1.7
vertex 0 0 1.7
vertex 1.45 0 1.7
endloop
endfacet
facet normal 0 0 1
outer loop
vertex 0 0.14 1.7
vertex 1.45 0 1.7
vertex 1.45 0.14 1.7
endloop
endfacet
facet normal 0 -1 0
outer loop
vertex 0 0 1.7
vertex 0 0 0.62
vertex 1.45 0 0.62
endloop
endfacet
facet normal 0 -1 0
outer loop
vertex 0 0 1.7
vertex 1.45 0 0.62
vertex 1.45 0 1.7
endloop
endfacet
facet normal 0 0 -1
outer loop
vertex 0 0 0.62
vertex 1.45 -0.42 0.62
vertex 0 -0.42 0.62
endloop
endfacet
facet normal 0 0 -1
outer loop
vertex 0 0 0.62
vertex 1.45 0 0.62
vertex 1.45 -0.42 0.62
endloop
endfacet
facet normal 0 -1 0
outer loop
vertex 0 -0.42 0.62
vertex 0 -0.42 0.53
vertex 1.45 -0.42 0.53
endloop
endfacet
facet normal 0 -1 0
outer loop
vertex 0 -0.42 0.62
vertex 1.45 -0.42 0.53
vertex 1.45 -0.42 0.62
endloop
endfacet
facet normal 0 0 -1
outer loop
vertex 0 -0.42 0.53
vertex 0 0 0.53
vertex 1.45 0 0.53
endloop
endfacet
facet normal 0 0 -1
outer loop
vertex 0 -0.42 0.53
vertex 1.45 0 0.53
vertex 1.45 -0.42 0.53
endloop
endfacet
facet normal 0 -1 0
outer loop
vertex 0 0 0
vertex 0.56 0 0
vertex 0.56 0 0.53
endloop
endfacet
facet normal 0 -1 0
outer loop
vertex 0 0 0
vertex 0.56 0 0.53
vertex 0 0 0.53
endloop
endfacet
facet normal 0 -1 0
outer loop
vertex 0.89 0 0
vertex 1.45 0 0
vertex 1.45 0 0.53
endloop
endfacet
facet normal 0 -1 0
outer loop
vertex 0.89 0 0
vertex 1.45 0 0.53
vertex 0.89 0 0.53
endloop
endfacet
facet normal 0 -1 0
outer loop
vertex 0.56 0 0.5
vertex 0.89 0 0.5
vertex 0.89 0 0.53
endloop
endfacet
facet normal 0 -1 0
outer loop
vertex 0.56 0 0.5
vertex 0.89 0 0.53
vertex 0.56 0 0.53
endloop
endfacet
endsolid hotel
