solid house-kirigami-flat
facet normal 0 0 1
outer loop
vertex -43.26054351734994 26.087347779180075 1.6
vertex -65 17.9350515981863 1.6
vertex -48.695407638012455 20.543786376104308 1.6
endloop
endfacet
facet normal 0 0 -1
outer loop
vertex -43.26054351734994 26.087347779180075 0
vertex -48.695407638012455 20.543786376104308 0
vertex -65 17.9350515981863 0
endloop
endfacet
facet normal 0 0 1
outer loop
vertex -43.26054351734994 26.087347779180075 1.6
vertex -48.695407638012455 20.543786376104308 1.6
vertex -32.3908152760249 17.9350515981863 1.6
endloop
endfacet
facet normal 0 0 -1
outer loop
vertex -43.26054351734994 26.087347779180075 0
vertex -32.3908152760249 17.9350515981863 0
vertex -48.695407638012455 20.543786376104308 0
endloop
endfacet
facet normal 0 0 1
outer loop
vertex -43.26054351734994 26.087347779180075 1.6
vertex -32.3908152760249 17.9350515981863 1.6
vertex -34.99955005394291 30.16349586967696 1.6
endloop
endfacet
facet normal 0 0 -1
outer loop
vertex -43.26054351734994 26.087347779180075 0
vertex -34.99955005394291 30.16349586967696 0
vertex -32.3908152760249 17.9350515981863 0
endloop
endfacet
facet normal 0 0 1
outer loop
vertex -43.26054351734994 26.087347779180075 1.6
vertex -34.99955005394291 30.16349586967696 1.6
vertex -32.3908152760249 42.39194014116762 1.6
endloop
endfacet
facet normal 0 0 -1
outer loop
vertex -43.26054351734994 26.087347779180075 0
vertex -32.3908152760249 42.39194014116762 0
vertex -34.99955005394291 30.16349586967696 0
endloop
endfacet
facet normal 0 0 1
outer loop
vertex -43.26054351734994 26.087347779180075 1.6
vertex -32.3908152760249 42.39194014116762 1.6
vertex -48.695407638012455 30.16349586967696 1.6
endloop
endfacet
facet normal 0 0 -1
outer loop
vertex -43.26054351734994 26.087347779180075 0
vertex -48.695407638012455 30.16349586967696 0
vertex -32.3908152760249 42.39194014116762 0
endloop
endfacet
facet normal 0 0 1
outer loop
vertex -43.26054351734994 26.087347779180075 1.6
vertex -48.695407638012455 30.16349586967696 1.6
vertex -65 17.9350515981863 1.6
endloop
endfacet
facet normal 0 0 -1
outer loop
vertex -43.26054351734994 26.087347779180075 0
vertex -65 17.9350515981863 0
vertex -48.695407638012455 30.16349586967696 0
endloop
endfacet
facet normal 0.15799050110667295 -0.9874406319167053 0
outer loop
vertex -65 17.9350515981863 0
vertex -48.695407638012455 20.543786376104308 0
vertex -48.695407638012455 20.543786376104308 1.6
endloop
endfacet
facet normal 0.15799050110667295 -0.9874406319167053 0
outer loop
vertex -65 17.9350515981863 0
vertex -48.695407638012455 20.543786376104308 1.6
vertex -65 17.9350515981863 1.6
endloop
endfacet
facet normal -0.1579905011066729 -0.9874406319167053 0
outer loop
vertex -48.695407638012455 20.543786376104308 0
vertex -32.3908152760249 17.9350515981863 0
vertex -32.3908152760249 17.9350515981863 1.6
endloop
endfacet
facet normal -0.1579905011066729 -0.9874406319167053 0
outer loop
vertex -48.695407638012455 20.543786376104308 0
vertex -32.3908152760249 17.9350515981863 1.6
vertex -48.695407638012455 20.543786376104308 1.6
endloop
endfacet
facet normal 0.9779928364243076 0.208638471770519 0
outer loop
vertex -32.3908152760249 17.9350515981863 0
vertex -34.99955005394291 30.16349586967696 0
vertex -34.99955005394291 30.16349586967696 1.6
endloop
endfacet
facet normal 0.9779928364243076 0.208638471770519 0
outer loop
vertex -32.3908152760249 17.9350515981863 0
vertex -34.99955005394291 30.16349586967696 1.6
vertex -32.3908152760249 17.9350515981863 1.6
endloop
endfacet
facet normal 0.9779928364243076 -0.208638471770519 0
outer loop
vertex -34.99955005394291 30.16349586967696 0
vertex -32.3908152760249 42.39194014116762 0
vertex -32.3908152760249 42.39194014116762 1.6
endloop
endfacet
facet normal 0.9779928364243076 -0.208638471770519 0
outer loop
vertex -34.99955005394291 30.16349586967696 0
vertex -32.3908152760249 42.39194014116762 1.6
vertex -34.99955005394291 30.16349586967696 1.6
endloop
endfacet
facet normal -0.6 0.8 0
outer loop
vertex -32.3908152760249 42.39194014116762 0
vertex -48.695407638012455 30.16349586967696 0
vertex -48.695407638012455 30.16349586967696 1.6
endloop
endfacet
facet normal -0.6 0.8 0
outer loop
vertex -32.3908152760249 42.39194014116762 0
vertex -48.695407638012455 30.16349586967696 1.6
vertex -32.3908152760249 42.39194014116762 1.6
endloop
endfacet
facet normal -0.6000000000000001 0.7999999999999999 0
outer loop
vertex -48.695407638012455 30.16349586967696 0
vertex -65 17.9350515981863 0
vertex -65 17.9350515981863 1.6
endloop
endfacet
facet normal -0.6000000000000001 0.7999999999999999 0
outer loop
vertex -48.695407638012455 30.16349586967696 0
vertex -65 17.9350515981863 1.6
vertex -48.695407638012455 30.16349586967696 1.6
endloop
endfacet
facet normal 0 0 1
outer loop
vertex -48.695407638012455 40.217994492902626 1.6
vertex -65 17.9350515981863 1.6
vertex -48.695407638012455 30.16349586967696 1.6
endloop
endfacet
facet normal 0 0 -1
outer loop
vertex -48.695407638012455 40.217994492902626 0
vertex -48.695407638012455 30.16349586967696 0
vertex -65 17.9350515981863 0
endloop
endfacet
facet normal 0 0 1
outer loop
vertex -48.695407638012455 40.217994492902626 1.6
vertex -48.695407638012455 30.16349586967696 1.6
vertex -32.3908152760249 42.39194014116762 1.6
endloop
endfacet
facet normal 0 0 -1
outer loop
vertex -48.695407638012455 40.217994492902626 0
vertex -32.3908152760249 42.39194014116762 0
vertex -48.695407638012455 30.16349586967696 0
endloop
endfacet
facet normal 0 0 1
outer loop
vertex -48.695407638012455 40.217994492902626 1.6
vertex -32.3908152760249 42.39194014116762 1.6
vertex -42.65233689178698 49.441988272289606 1.6
endloop
endfacet
facet normal 0 0 -1
outer loop
vertex -48.695407638012455 40.217994492902626 0
vertex -42.65233689178698 49.441988272289606 0
vertex -32.3908152760249 42.39194014116762 0
endloop
endfacet
facet normal 0 0 1
outer loop
vertex -48.695407638012455 40.217994492902626 1.6
vertex -42.65233689178698 49.441988272289606 1.6
vertex -48.69540763801245 60.32699173935395 1.6
endloop
endfacet
facet normal 0 0 -1
outer loop
vertex -48.695407638012455 40.217994492902626 0
vertex -48.69540763801245 60.32699173935395 0
vertex -42.65233689178698 49.441988272289606 0
endloop
endfacet
facet normal 0 0 1
outer loop
vertex -48.695407638012455 40.217994492902626 1.6
vertex -48.69540763801245 60.32699173935395 1.6
vertex -56.84770381900623 39.131021668770124 1.6
endloop
endfacet
facet normal 0 0 -1
outer loop
vertex -48.695407638012455 40.217994492902626 0
vertex -56.84770381900623 39.131021668770124 0
vertex -48.69540763801245 60.32699173935395 0
endloop
endfacet
facet normal 0 0 1
outer loop
vertex -48.695407638012455 40.217994492902626 1.6
vertex -56.84770381900623 39.131021668770124 1.6
vertex -65 17.9350515981863 1.6
endloop
endfacet
facet normal 0 0 -1
outer loop
vertex -48.695407638012455 40.217994492902626 0
vertex -65 17.9350515981863 0
vertex -56.84770381900623 39.131021668770124 0
endloop
endfacet
facet normal 0.6000000000000001 -0.7999999999999999 0
outer loop
vertex -65 17.9350515981863 0
vertex -48.695407638012455 30.16349586967696 0
vertex -48.695407638012455 30.16349586967696 1.6
endloop
endfacet
facet normal 0.6000000000000001 -0.7999999999999999 0
outer loop
vertex -65 17.9350515981863 0
vertex -48.695407638012455 30.16349586967696 1.6
vertex -65 17.9350515981863 1.6
endloop
endfacet
facet normal 0.6 -0.8 0
outer loop
vertex -48.695407638012455 30.16349586967696 0
vertex -32.3908152760249 42.39194014116762 0
vertex -32.3908152760249 42.39194014116762 1.6
endloop
endfacet
facet normal 0.6 -0.8 0
outer loop
vertex -48.695407638012455 30.16349586967696 0
vertex -32.3908152760249 42.39194014116762 1.6
vertex -48.695407638012455 30.16349586967696 1.6
endloop
endfacet
facet normal 0.5662698312590698 0.8242199210197632 0
outer loop
vertex -32.3908152760249 42.39194014116762 0
vertex -42.65233689178698 49.441988272289606 0
vertex -42.65233689178698 49.441988272289606 1.6
endloop
endfacet
facet normal 0.5662698312590698 0.8242199210197632 0
outer loop
vertex -32.3908152760249 42.39194014116762 0
vertex -42.65233689178698 49.441988272289606 1.6
vertex -32.3908152760249 42.39194014116762 1.6
endloop
endfacet
facet normal 0.8742988646189526 0.48538798432389146 0
outer loop
vertex -42.65233689178698 49.441988272289606 0
vertex -48.69540763801245 60.32699173935395 0
vertex -48.69540763801245 60.32699173935395 1.6
endloop
endfacet
facet normal 0.8742988646189526 0.48538798432389146 0
outer loop
vertex -42.65233689178698 49.441988272289606 0
vertex -48.69540763801245 60.32699173935395 1.6
vertex -42.65233689178698 49.441988272289606 1.6
endloop
endfacet
facet normal -0.9333456062030595 0.3589790793088691 0
outer loop
vertex -48.69540763801245 60.32699173935395 0
vertex -56.84770381900623 39.131021668770124 0
vertex -56.84770381900623 39.131021668770124 1.6
endloop
endfacet
facet normal -0.9333456062030595 0.3589790793088691 0
outer loop
vertex -48.69540763801245 60.32699173935395 0
vertex -56.84770381900623 39.131021668770124 1.6
vertex -48.69540763801245 60.32699173935395 1.6
endloop
endfacet
facet normal -0.9333456062030596 0.35897907930886885 0
outer loop
vertex -56.84770381900623 39.131021668770124 0
vertex -65 17.9350515981863 0
vertex -65 17.9350515981863 1.6
endloop
endfacet
facet normal -0.9333456062030596 0.35897907930886885 0
outer loop
vertex -56.84770381900623 39.131021668770124 0
vertex -65 17.9350515981863 1.6
vertex -56.84770381900623 39.131021668770124 1.6
endloop
endfacet
facet normal 0 0 1
outer loop
vertex -59.56513587933748 40.217994492902626 1.6
vertex -65 17.9350515981863 1.6
vertex -56.84770381900623 39.131021668770124 1.6
endloop
endfacet
facet normal 0 0 -1
outer loop
vertex -59.56513587933748 40.217994492902626 0
vertex -56.84770381900623 39.131021668770124 0
vertex -65 17.9350515981863 0
endloop
endfacet
facet normal 0 0 1
outer loop
vertex -59.56513587933748 40.217994492902626 1.6
vertex -56.84770381900623 39.131021668770124 1.6
vertex -48.69540763801245 60.32699173935395 1.6
endloop
endfacet
facet normal 0 0 -1
outer loop
vertex -59.56513587933748 40.217994492902626 0
vertex -48.69540763801245 60.32699173935395 0
vertex -56.84770381900623 39.131021668770124 0
endloop
endfacet
facet normal 0 0 1
outer loop
vertex -59.56513587933748 40.217994492902626 1.6
vertex -48.69540763801245 60.32699173935395 1.6
vertex -55.844474997061724 50.44743973849306 1.6
endloop
endfacet
facet normal 0 0 -1
outer loop
vertex -59.56513587933748 40.217994492902626 0
vertex -55.844474997061724 50.44743973849306 0
vertex -48.69540763801245 60.32699173935395 0
endloop
endfacet
facet normal 0 0 1
outer loop
vertex -59.56513587933748 40.217994492902626 1.6
vertex -55.844474997061724 50.44743973849306 1.6
vertex -65 42.39194014116762 1.6
endloop
endfacet
facet normal 0 0 -1
outer loop
vertex -59.56513587933748 40.217994492902626 0
vertex -65 42.39194014116762 0
vertex -55.844474997061724 50.44743973849306 0
endloop
endfacet
facet normal 0 0 1
outer loop
vertex -59.56513587933748 40.217994492902626 1.6
vertex -65 42.39194014116762 1.6
vertex -63.64417557851652 30.16349586967696 1.6
endloop
endfacet
facet normal 0 0 -1
outer loop
vertex -59.56513587933748 40.217994492902626 0
vertex -63.64417557851652 30.16349586967696 0
vertex -65 42.39194014116762 0
endloop
endfacet
facet normal 0 0 1
outer loop
vertex -59.56513587933748 40.217994492902626 1.6
vertex -63.64417557851652 30.16349586967696 1.6
vertex -65 17.9350515981863 1.6
endloop
endfacet
facet normal 0 0 -1
outer loop
vertex -59.56513587933748 40.217994492902626 0
vertex -65 17.9350515981863 0
vertex -63.64417557851652 30.16349586967696 0
endloop
endfacet
facet normal 0.9333456062030596 -0.35897907930886885 0
outer loop
vertex -65 17.9350515981863 0
vertex -56.84770381900623 39.131021668770124 0
vertex -56.84770381900623 39.131021668770124 1.6
endloop
endfacet
facet normal 0.9333456062030596 -0.35897907930886885 0
outer loop
vertex -65 17.9350515981863 0
vertex -56.84770381900623 39.131021668770124 1.6
vertex -65 17.9350515981863 1.6
endloop
endfacet
facet normal 0.9333456062030595 -0.3589790793088691 0
outer loop
vertex -56.84770381900623 39.131021668770124 0
vertex -48.69540763801245 60.32699173935395 0
vertex -48.69540763801245 60.32699173935395 1.6
endloop
endfacet
facet normal 0.9333456062030595 -0.3589790793088691 0
outer loop
vertex -56.84770381900623 39.131021668770124 0
vertex -48.69540763801245 60.32699173935395 1.6
vertex -56.84770381900623 39.131021668770124 1.6
endloop
endfacet
facet normal -0.8101403896370655 0.5862359158894171 0
outer loop
vertex -48.69540763801245 60.32699173935395 0
vertex -55.844474997061724 50.44743973849306 0
vertex -55.844474997061724 50.44743973849306 1.6
endloop
endfacet
facet normal -0.8101403896370655 0.5862359158894171 0
outer loop
vertex -48.69540763801245 60.32699173935395 0
vertex -55.844474997061724 50.44743973849306 1.6
vertex -48.69540763801245 60.32699173935395 1.6
endloop
endfacet
facet normal -0.660564930669911 0.7507689207532873 0
outer loop
vertex -55.844474997061724 50.44743973849306 0
vertex -65 42.39194014116762 0
vertex -65 42.39194014116762 1.6
endloop
endfacet
facet normal -0.660564930669911 0.7507689207532873 0
outer loop
vertex -55.844474997061724 50.44743973849306 0
vertex -65 42.39194014116762 1.6
vertex -55.844474997061724 50.44743973849306 1.6
endloop
endfacet
facet normal -0.9939095030505298 -0.11019936363631565 0
outer loop
vertex -65 42.39194014116762 0
vertex -63.64417557851652 30.16349586967696 0
vertex -63.64417557851652 30.16349586967696 1.6
endloop
endfacet
facet normal -0.9939095030505298 -0.11019936363631565 0
outer loop
vertex -65 42.39194014116762 0
vertex -63.64417557851652 30.16349586967696 1.6
vertex -65 42.39194014116762 1.6
endloop
endfacet
facet normal -0.9939095030505298 0.11019936363631565 0
outer loop
vertex -63.64417557851652 30.16349586967696 0
vertex -65 17.9350515981863 0
vertex -65 17.9350515981863 1.6
endloop
endfacet
facet normal -0.9939095030505298 0.11019936363631565 0
outer loop
vertex -63.64417557851652 30.16349586967696 0
vertex -65 17.9350515981863 1.6
vertex -63.64417557851652 30.16349586967696 1.6
endloop
endfacet
facet normal 0 0 1
outer loop
vertex -43.26054351734994 -26.087347779180075 1.6
vertex -65 -17.9350515981863 1.6
vertex -48.695407638012455 -30.16349586967696 1.6
endloop
endfacet
facet normal 0 0 -1
outer loop
vertex -43.26054351734994 -26.087347779180075 0
vertex -48.695407638012455 -30.16349586967696 0
vertex -65 -17.9350515981863 0
endloop
endfacet
facet normal 0 0 1
outer loop
vertex -43.26054351734994 -26.087347779180075 1.6
vertex -48.695407638012455 -30.16349586967696 1.6
vertex -32.3908152760249 -42.39194014116762 1.6
endloop
endfacet
facet normal 0 0 -1
outer loop
vertex -43.26054351734994 -26.087347779180075 0
vertex -32.3908152760249 -42.39194014116762 0
vertex -48.695407638012455 -30.16349586967696 0
endloop
endfacet
facet normal 0 0 1
outer loop
vertex -43.26054351734994 -26.087347779180075 1.6
vertex -32.3908152760249 -42.39194014116762 1.6
vertex -34.99955005394291 -30.16349586967696 1.6
endloop
endfacet
facet normal 0 0 -1
outer loop
vertex -43.26054351734994 -26.087347779180075 0
vertex -34.99955005394291 -30.16349586967696 0
vertex -32.3908152760249 -42.39194014116762 0
endloop
endfacet
facet normal 0 0 1
outer loop
vertex -43.26054351734994 -26.087347779180075 1.6
vertex -34.99955005394291 -30.16349586967696 1.6
vertex -32.3908152760249 -17.9350515981863 1.6
endloop
endfacet
facet normal 0 0 -1
outer loop
vertex -43.26054351734994 -26.087347779180075 0
vertex -32.3908152760249 -17.9350515981863 0
vertex -34.99955005394291 -30.16349586967696 0
endloop
endfacet
facet normal 0 0 1
outer loop
vertex -43.26054351734994 -26.087347779180075 1.6
vertex -32.3908152760249 -17.9350515981863 1.6
vertex -48.695407638012455 -20.543786376104308 1.6
endloop
endfacet
facet normal 0 0 -1
outer loop
vertex -43.26054351734994 -26.087347779180075 0
vertex -48.695407638012455 -20.543786376104308 0
vertex -32.3908152760249 -17.9350515981863 0
endloop
endfacet
facet normal 0 0 1
outer loop
vertex -43.26054351734994 -26.087347779180075 1.6
vertex -48.695407638012455 -20.543786376104308 1.6
vertex -65 -17.9350515981863 1.6
endloop
endfacet
facet normal 0 0 -1
outer loop
vertex -43.26054351734994 -26.087347779180075 0
vertex -65 -17.9350515981863 0
vertex -48.695407638012455 -20.543786376104308 0
endloop
endfacet
facet normal -0.6000000000000001 -0.7999999999999999 0
outer loop
vertex -65 -17.9350515981863 0
vertex -48.695407638012455 -30.16349586967696 0
vertex -48.695407638012455 -30.16349586967696 1.6
endloop
endfacet
facet normal -0.6000000000000001 -0.7999999999999999 0
outer loop
vertex -65 -17.9350515981863 0
vertex -48.695407638012455 -30.16349586967696 1.6
vertex -65 -17.9350515981863 1.6
endloop
endfacet
facet normal -0.6 -0.8 0
outer loop
vertex -48.695407638012455 -30.16349586967696 0
vertex -32.3908152760249 -42.39194014116762 0
vertex -32.3908152760249 -42.39194014116762 1.6
endloop
endfacet
facet normal -0.6 -0.8 0
outer loop
vertex -48.695407638012455 -30.16349586967696 0
vertex -32.3908152760249 -42.39194014116762 1.6
vertex -48.695407638012455 -30.16349586967696 1.6
endloop
endfacet
facet normal 0.9779928364243076 0.208638471770519 0
outer loop
vertex -32.3908152760249 -42.39194014116762 0
vertex -34.99955005394291 -30.16349586967696 0
vertex -34.99955005394291 -30.16349586967696 1.6
endloop
endfacet
facet normal 0.9779928364243076 0.208638471770519 0
outer loop
vertex -32.3908152760249 -42.39194014116762 0
vertex -34.99955005394291 -30.16349586967696 1.6
vertex -32.3908152760249 -42.39194014116762 1.6
endloop
endfacet
facet normal 0.9779928364243076 -0.208638471770519 0
outer loop
vertex -34.99955005394291 -30.16349586967696 0
vertex -32.3908152760249 -17.9350515981863 0
vertex -32.3908152760249 -17.9350515981863 1.6
endloop
endfacet
facet normal 0.9779928364243076 -0.208638471770519 0
outer loop
vertex -34.99955005394291 -30.16349586967696 0
vertex -32.3908152760249 -17.9350515981863 1.6
vertex -34.99955005394291 -30.16349586967696 1.6
endloop
endfacet
facet normal -0.1579905011066729 0.9874406319167053 0
outer loop
vertex -32.3908152760249 -17.9350515981863 0
vertex -48.695407638012455 -20.543786376104308 0
vertex -48.695407638012455 -20.543786376104308 1.6
endloop
endfacet
facet normal -0.1579905011066729 0.9874406319167053 0
outer loop
vertex -32.3908152760249 -17.9350515981863 0
vertex -48.695407638012455 -20.543786376104308 1.6
vertex -32.3908152760249 -17.9350515981863 1.6
endloop
endfacet
facet normal 0.15799050110667295 0.9874406319167053 0
outer loop
vertex -48.695407638012455 -20.543786376104308 0
vertex -65 -17.9350515981863 0
vertex -65 -17.9350515981863 1.6
endloop
endfacet
facet normal 0.15799050110667295 0.9874406319167053 0
outer loop
vertex -48.695407638012455 -20.543786376104308 0
vertex -65 -17.9350515981863 1.6
vertex -48.695407638012455 -20.543786376104308 1.6
endloop
endfacet
facet normal 0 0 1
outer loop
vertex -48.695407638012455 -40.217994492902626 1.6
vertex -65 -17.9350515981863 1.6
vertex -56.84770381900623 -39.131021668770124 1.6
endloop
endfacet
facet normal 0 0 -1
outer loop
vertex -48.695407638012455 -40.217994492902626 0
vertex -56.84770381900623 -39.131021668770124 0
vertex -65 -17.9350515981863 0
endloop
endfacet
facet normal 0 0 1
outer loop
vertex -48.695407638012455 -40.217994492902626 1.6
vertex -56.84770381900623 -39.131021668770124 1.6
vertex -48.69540763801245 -60.32699173935395 1.6
endloop
endfacet
facet normal 0 0 -1
outer loop
vertex -48.695407638012455 -40.217994492902626 0
vertex -48.69540763801245 -60.32699173935395 0
vertex -56.84770381900623 -39.131021668770124 0
endloop
endfacet
facet normal 0 0 1
outer loop
vertex -48.695407638012455 -40.217994492902626 1.6
vertex -48.69540763801245 -60.32699173935395 1.6
vertex -42.65233689178698 -49.441988272289606 1.6
endloop
endfacet
facet normal 0 0 -1
outer loop
vertex -48.695407638012455 -40.217994492902626 0
vertex -42.65233689178698 -49.441988272289606 0
vertex -48.69540763801245 -60.32699173935395 0
endloop
endfacet
facet normal 0 0 1
outer loop
vertex -48.695407638012455 -40.217994492902626 1.6
vertex -42.65233689178698 -49.441988272289606 1.6
vertex -32.3908152760249 -42.39194014116762 1.6
endloop
endfacet
facet normal 0 0 -1
outer loop
vertex -48.695407638012455 -40.217994492902626 0
vertex -32.3908152760249 -42.39194014116762 0
vertex -42.65233689178698 -49.441988272289606 0
endloop
endfacet
facet normal 0 0 1
outer loop
vertex -48.695407638012455 -40.217994492902626 1.6
vertex -32.3908152760249 -42.39194014116762 1.6
vertex -48.695407638012455 -30.16349586967696 1.6
endloop
endfacet
facet normal 0 0 -1
outer loop
vertex -48.695407638012455 -40.217994492902626 0
vertex -48.695407638012455 -30.16349586967696 0
vertex -32.3908152760249 -42.39194014116762 0
endloop
endfacet
facet normal 0 0 1
outer loop
vertex -48.695407638012455 -40.217994492902626 1.6
vertex -48.695407638012455 -30.16349586967696 1.6
vertex -65 -17.9350515981863 1.6
endloop
endfacet
facet normal 0 0 -1
outer loop
vertex -48.695407638012455 -40.217994492902626 0
vertex -65 -17.9350515981863 0
vertex -48.695407638012455 -30.16349586967696 0
endloop
endfacet
facet normal -0.9333456062030596 -0.35897907930886885 0
outer loop
vertex -65 -17.9350515981863 0
vertex -56.84770381900623 -39.131021668770124 0
vertex -56.84770381900623 -39.131021668770124 1.6
endloop
endfacet
facet normal -0.9333456062030596 -0.35897907930886885 0
outer loop
vertex -65 -17.9350515981863 0
vertex -56.84770381900623 -39.131021668770124 1.6
vertex -65 -17.9350515981863 1.6
endloop
endfacet
facet normal -0.9333456062030595 -0.3589790793088691 0
outer loop
vertex -56.84770381900623 -39.131021668770124 0
vertex -48.69540763801245 -60.32699173935395 0
vertex -48.69540763801245 -60.32699173935395 1.6
endloop
endfacet
facet normal -0.9333456062030595 -0.3589790793088691 0
outer loop
vertex -56.84770381900623 -39.131021668770124 0
vertex -48.69540763801245 -60.32699173935395 1.6
vertex -56.84770381900623 -39.131021668770124 1.6
endloop
endfacet
facet normal 0.8742988646189526 -0.48538798432389146 0
outer loop
vertex -48.69540763801245 -60.32699173935395 0
vertex -42.65233689178698 -49.441988272289606 0
vertex -42.65233689178698 -49.441988272289606 1.6
endloop
endfacet
facet normal 0.8742988646189526 -0.48538798432389146 0
outer loop
vertex -48.69540763801245 -60.32699173935395 0
vertex -42.65233689178698 -49.441988272289606 1.6
vertex -48.69540763801245 -60.32699173935395 1.6
endloop
endfacet
facet normal 0.5662698312590698 -0.8242199210197632 0
outer loop
vertex -42.65233689178698 -49.441988272289606 0
vertex -32.3908152760249 -42.39194014116762 0
vertex -32.3908152760249 -42.39194014116762 1.6
endloop
endfacet
facet normal 0.5662698312590698 -0.8242199210197632 0
outer loop
vertex -42.65233689178698 -49.441988272289606 0
vertex -32.3908152760249 -42.39194014116762 1.6
vertex -42.65233689178698 -49.441988272289606 1.6
endloop
endfacet
facet normal 0.6 0.8 0
outer loop
vertex -32.3908152760249 -42.39194014116762 0
vertex -48.695407638012455 -30.16349586967696 0
vertex -48.695407638012455 -30.16349586967696 1.6
endloop
endfacet
facet normal 0.6 0.8 0
outer loop
vertex -32.3908152760249 -42.39194014116762 0
vertex -48.695407638012455 -30.16349586967696 1.6
vertex -32.3908152760249 -42.39194014116762 1.6
endloop
endfacet
facet normal 0.6000000000000001 0.7999999999999999 0
outer loop
vertex -48.695407638012455 -30.16349586967696 0
vertex -65 -17.9350515981863 0
vertex -65 -17.9350515981863 1.6
endloop
endfacet
facet normal 0.6000000000000001 0.7999999999999999 0
outer loop
vertex -48.695407638012455 -30.16349586967696 0
vertex -65 -17.9350515981863 1.6
vertex -48.695407638012455 -30.16349586967696 1.6
endloop
endfacet
facet normal 0 0 1
outer loop
vertex -59.565135879337475 -40.217994492902626 1.6
vertex -65 -17.9350515981863 1.6
vertex -63.6441755785165 -30.16349586967696 1.6
endloop
endfacet
facet normal 0 0 -1
outer loop
vertex -59.565135879337475 -40.217994492902626 0
vertex -63.6441755785165 -30.16349586967696 0
vertex -65 -17.9350515981863 0
endloop
endfacet
facet normal 0 0 1
outer loop
vertex -59.565135879337475 -40.217994492902626 1.6
vertex -63.6441755785165 -30.16349586967696 1.6
vertex -64.99999999999997 -42.39194014116762 1.6
endloop
endfacet
facet normal 0 0 -1
outer loop
vertex -59.565135879337475 -40.217994492902626 0
vertex -64.99999999999997 -42.39194014116762 0
vertex -63.6441755785165 -30.16349586967696 0
endloop
endfacet
facet normal 0 0 1
outer loop
vertex -59.565135879337475 -40.217994492902626 1.6
vertex -64.99999999999997 -42.39194014116762 1.6
vertex -55.84447499706171 -50.44743973849307 1.6
endloop
endfacet
facet normal 0 0 -1
outer loop
vertex -59.565135879337475 -40.217994492902626 0
vertex -55.84447499706171 -50.44743973849307 0
vertex -64.99999999999997 -42.39194014116762 0
endloop
endfacet
facet normal 0 0 1
outer loop
vertex -59.565135879337475 -40.217994492902626 1.6
vertex -55.84447499706171 -50.44743973849307 1.6
vertex -48.69540763801245 -60.32699173935395 1.6
endloop
endfacet
facet normal 0 0 -1
outer loop
vertex -59.565135879337475 -40.217994492902626 0
vertex -48.69540763801245 -60.32699173935395 0
vertex -55.84447499706171 -50.44743973849307 0
endloop
endfacet
facet normal 0 0 1
outer loop
vertex -59.565135879337475 -40.217994492902626 1.6
vertex -48.69540763801245 -60.32699173935395 1.6
vertex -56.84770381900623 -39.131021668770124 1.6
endloop
endfacet
facet normal 0 0 -1
outer loop
vertex -59.565135879337475 -40.217994492902626 0
vertex -56.84770381900623 -39.131021668770124 0
vertex -48.69540763801245 -60.32699173935395 0
endloop
endfacet
facet normal 0 0 1
outer loop
vertex -59.565135879337475 -40.217994492902626 1.6
vertex -56.84770381900623 -39.131021668770124 1.6
vertex -65 -17.9350515981863 1.6
endloop
endfacet
facet normal 0 0 -1
outer loop
vertex -59.565135879337475 -40.217994492902626 0
vertex -65 -17.9350515981863 0
vertex -56.84770381900623 -39.131021668770124 0
endloop
endfacet
facet normal -0.9939095030505296 -0.11019936363631679 0
outer loop
vertex -65 -17.9350515981863 0
vertex -63.6441755785165 -30.16349586967696 0
vertex -63.6441755785165 -30.16349586967696 1.6
endloop
endfacet
facet normal -0.9939095030505296 -0.11019936363631679 0
outer loop
vertex -65 -17.9350515981863 0
vertex -63.6441755785165 -30.16349586967696 1.6
vertex -65 -17.9350515981863 1.6
endloop
endfacet
facet normal -0.9939095030505298 0.1101993636363145 0
outer loop
vertex -63.6441755785165 -30.16349586967696 0
vertex -64.99999999999997 -42.39194014116762 0
vertex -64.99999999999997 -42.39194014116762 1.6
endloop
endfacet
facet normal -0.9939095030505298 0.1101993636363145 0
outer loop
vertex -63.6441755785165 -30.16349586967696 0
vertex -64.99999999999997 -42.39194014116762 1.6
vertex -63.6441755785165 -30.16349586967696 1.6
endloop
endfacet
facet normal -0.6605649306699117 -0.7507689207532865 0
outer loop
vertex -64.99999999999997 -42.39194014116762 0
vertex -55.84447499706171 -50.44743973849307 0
vertex -55.84447499706171 -50.44743973849307 1.6
endloop
endfacet
facet normal -0.6605649306699117 -0.7507689207532865 0
outer loop
vertex -64.99999999999997 -42.39194014116762 0
vertex -55.84447499706171 -50.44743973849307 1.6
vertex -64.99999999999997 -42.39194014116762 1.6
endloop
endfacet
facet normal -0.8101403896370659 -0.5862359158894167 0
outer loop
vertex -55.84447499706171 -50.44743973849307 0
vertex -48.69540763801245 -60.32699173935395 0
vertex -48.69540763801245 -60.32699173935395 1.6
endloop
endfacet
facet normal -0.8101403896370659 -0.5862359158894167 0
outer loop
vertex -55.84447499706171 -50.44743973849307 0
vertex -48.69540763801245 -60.32699173935395 1.6
vertex -55.84447499706171 -50.44743973849307 1.6
endloop
endfacet
facet normal 0.9333456062030595 0.3589790793088691 0
outer loop
vertex -48.69540763801245 -60.32699173935395 0
vertex -56.84770381900623 -39.131021668770124 0
vertex -56.84770381900623 -39.131021668770124 1.6
endloop
endfacet
facet normal 0.9333456062030595 0.3589790793088691 0
outer loop
vertex -48.69540763801245 -60.32699173935395 0
vertex -56.84770381900623 -39.131021668770124 1.6
vertex -48.69540763801245 -60.32699173935395 1.6
endloop
endfacet
facet normal 0.9333456062030596 0.35897907930886885 0
outer loop
vertex -56.84770381900623 -39.131021668770124 0
vertex -65 -17.9350515981863 0
vertex -65 -17.9350515981863 1.6
endloop
endfacet
facet normal 0.9333456062030596 0.35897907930886885 0
outer loop
vertex -56.84770381900623 -39.131021668770124 0
vertex -65 -17.9350515981863 1.6
vertex -56.84770381900623 -39.131021668770124 1.6
endloop
endfacet
facet normal 0 0 1
outer loop
vertex -43.26054351734994 5.978350532728766 1.6
vertex -65 17.9350515981863 1.6
vertex -48.695407638012455 0 1.6
endloop
endfacet
facet normal 0 0 -1
outer loop
vertex -43.26054351734994 5.978350532728766 0
vertex -48.695407638012455 0 0
vertex -65 17.9350515981863 0
endloop
endfacet
facet normal 0 0 1
outer loop
vertex -43.26054351734994 5.978350532728766 1.6
vertex -48.695407638012455 0 1.6
vertex -32.3908152760249 -17.9350515981863 1.6
endloop
endfacet
facet normal 0 0 -1
outer loop
vertex -43.26054351734994 5.978350532728766 0
vertex -32.3908152760249 -17.9350515981863 0
vertex -48.695407638012455 0 0
endloop
endfacet
facet normal 0 0 1
outer loop
vertex -43.26054351734994 5.978350532728766 1.6
vertex -32.3908152760249 -17.9350515981863 1.6
vertex -35.59117523287058 0 1.6
endloop
endfacet
facet normal 0 0 -1
outer loop
vertex -43.26054351734994 5.978350532728766 0
vertex -35.59117523287058 0 0
vertex -32.3908152760249 -17.9350515981863 0
endloop
endfacet
facet normal 0 0 1
outer loop
vertex -43.26054351734994 5.978350532728766 1.6
vertex -35.59117523287058 0 1.6
vertex -32.3908152760249 17.9350515981863 1.6
endloop
endfacet
facet normal 0 0 -1
outer loop
vertex -43.26054351734994 5.978350532728766 0
vertex -32.3908152760249 17.9350515981863 0
vertex -35.59117523287058 0 0
endloop
endfacet
facet normal 0 0 1
outer loop
vertex -43.26054351734994 5.978350532728766 1.6
vertex -32.3908152760249 17.9350515981863 1.6
vertex -48.695407638012455 14.734691641340621 1.6
endloop
endfacet
facet normal 0 0 -1
outer loop
vertex -43.26054351734994 5.978350532728766 0
vertex -48.695407638012455 14.734691641340621 0
vertex -32.3908152760249 17.9350515981863 0
endloop
endfacet
facet normal 0 0 1
outer loop
vertex -43.26054351734994 5.978350532728766 1.6
vertex -48.695407638012455 14.734691641340621 1.6
vertex -65 17.9350515981863 1.6
endloop
endfacet
facet normal 0 0 -1
outer loop
vertex -43.26054351734994 5.978350532728766 0
vertex -65 17.9350515981863 0
vertex -48.695407638012455 14.734691641340621 0
endloop
endfacet
facet normal -0.7399400733959436 -0.6726727939963124 0
outer loop
vertex -65 17.9350515981863 0
vertex -48.695407638012455 0 0
vertex -48.695407638012455 0 1.6
endloop
endfacet
facet normal -0.7399400733959436 -0.6726727939963124 0
outer loop
vertex -65 17.9350515981863 0
vertex -48.695407638012455 0 1.6
vertex -65 17.9350515981863 1.6
endloop
endfacet
facet normal -0.7399400733959436 -0.6726727939963126 0
outer loop
vertex -48.695407638012455 0 0
vertex -32.3908152760249 -17.9350515981863 0
vertex -32.3908152760249 -17.9350515981863 1.6
endloop
endfacet
facet normal -0.7399400733959436 -0.6726727939963126 0
outer loop
vertex -48.695407638012455 0 0
vertex -32.3908152760249 -17.9350515981863 1.6
vertex -48.695407638012455 0 1.6
endloop
endfacet
facet normal 0.9844496793832509 0.17566681178359878 0
outer loop
vertex -32.3908152760249 -17.9350515981863 0
vertex -35.59117523287058 0 0
vertex -35.59117523287058 0 1.6
endloop
endfacet
facet normal 0.9844496793832509 0.17566681178359878 0
outer loop
vertex -32.3908152760249 -17.9350515981863 0
vertex -35.59117523287058 0 1.6
vertex -32.3908152760249 -17.9350515981863 1.6
endloop
endfacet
facet normal 0.9844496793832509 -0.17566681178359878 0
outer loop
vertex -35.59117523287058 0 0
vertex -32.3908152760249 17.9350515981863 0
vertex -32.3908152760249 17.9350515981863 1.6
endloop
endfacet
facet normal 0.9844496793832509 -0.17566681178359878 0
outer loop
vertex -35.59117523287058 0 0
vertex -32.3908152760249 17.9350515981863 1.6
vertex -35.59117523287058 0 1.6
endloop
endfacet
facet normal -0.19261040896212642 0.9812753081370397 0
outer loop
vertex -32.3908152760249 17.9350515981863 0
vertex -48.695407638012455 14.734691641340621 0
vertex -48.695407638012455 14.734691641340621 1.6
endloop
endfacet
facet normal -0.19261040896212642 0.9812753081370397 0
outer loop
vertex -32.3908152760249 17.9350515981863 0
vertex -48.695407638012455 14.734691641340621 1.6
vertex -32.3908152760249 17.9350515981863 1.6
endloop
endfacet
facet normal 0.1926104089621265 0.9812753081370397 0
outer loop
vertex -48.695407638012455 14.734691641340621 0
vertex -65 17.9350515981863 0
vertex -65 17.9350515981863 1.6
endloop
endfacet
facet normal 0.1926104089621265 0.9812753081370397 0
outer loop
vertex -48.695407638012455 14.734691641340621 0
vertex -65 17.9350515981863 1.6
vertex -48.695407638012455 14.734691641340621 1.6
endloop
endfacet
facet normal 0 0 1
outer loop
vertex -54.13027175867497 -5.978350532728766 1.6
vertex -65 17.9350515981863 1.6
vertex -61.79964004315433 0 1.6
endloop
endfacet
facet normal 0 0 -1
outer loop
vertex -54.13027175867497 -5.978350532728766 0
vertex -61.79964004315433 0 0
vertex -65 17.9350515981863 0
endloop
endfacet
facet normal 0 0 1
outer loop
vertex -54.13027175867497 -5.978350532728766 1.6
vertex -61.79964004315433 0 1.6
vertex -65 -17.9350515981863 1.6
endloop
endfacet
facet normal 0 0 -1
outer loop
vertex -54.13027175867497 -5.978350532728766 0
vertex -65 -17.9350515981863 0
vertex -61.79964004315433 0 0
endloop
endfacet
facet normal 0 0 1
outer loop
vertex -54.13027175867497 -5.978350532728766 1.6
vertex -65 -17.9350515981863 1.6
vertex -48.695407638012455 -14.734691641340621 1.6
endloop
endfacet
facet normal 0 0 -1
outer loop
vertex -54.13027175867497 -5.978350532728766 0
vertex -48.695407638012455 -14.734691641340621 0
vertex -65 -17.9350515981863 0
endloop
endfacet
facet normal 0 0 1
outer loop
vertex -54.13027175867497 -5.978350532728766 1.6
vertex -48.695407638012455 -14.734691641340621 1.6
vertex -32.3908152760249 -17.9350515981863 1.6
endloop
endfacet
facet normal 0 0 -1
outer loop
vertex -54.13027175867497 -5.978350532728766 0
vertex -32.3908152760249 -17.9350515981863 0
vertex -48.695407638012455 -14.734691641340621 0
endloop
endfacet
facet normal 0 0 1
outer loop
vertex -54.13027175867497 -5.978350532728766 1.6
vertex -32.3908152760249 -17.9350515981863 1.6
vertex -48.695407638012455 0 1.6
endloop
endfacet
facet normal 0 0 -1
outer loop
vertex -54.13027175867497 -5.978350532728766 0
vertex -48.695407638012455 0 0
vertex -32.3908152760249 -17.9350515981863 0
endloop
endfacet
facet normal 0 0 1
outer loop
vertex -54.13027175867497 -5.978350532728766 1.6
vertex -48.695407638012455 0 1.6
vertex -65 17.9350515981863 1.6
endloop
endfacet
facet normal 0 0 -1
outer loop
vertex -54.13027175867497 -5.978350532728766 0
vertex -65 17.9350515981863 0
vertex -48.695407638012455 0 0
endloop
endfacet
facet normal -0.9844496793832511 -0.17566681178359841 0
outer loop
vertex -65 17.9350515981863 0
vertex -61.79964004315433 0 0
vertex -61.79964004315433 0 1.6
endloop
endfacet
facet normal -0.9844496793832511 -0.17566681178359841 0
outer loop
vertex -65 17.9350515981863 0
vertex -61.79964004315433 0 1.6
vertex -65 17.9350515981863 1.6
endloop
endfacet
facet normal -0.9844496793832511 0.17566681178359841 0
outer loop
vertex -61.79964004315433 0 0
vertex -65 -17.9350515981863 0
vertex -65 -17.9350515981863 1.6
endloop
endfacet
facet normal -0.9844496793832511 0.17566681178359841 0
outer loop
vertex -61.79964004315433 0 0
vertex -65 -17.9350515981863 1.6
vertex -61.79964004315433 0 1.6
endloop
endfacet
facet normal 0.1926104089621265 -0.9812753081370397 0
outer loop
vertex -65 -17.9350515981863 0
vertex -48.695407638012455 -14.734691641340621 0
vertex -48.695407638012455 -14.734691641340621 1.6
endloop
endfacet
facet normal 0.1926104089621265 -0.9812753081370397 0
outer loop
vertex -65 -17.9350515981863 0
vertex -48.695407638012455 -14.734691641340621 1.6
vertex -65 -17.9350515981863 1.6
endloop
endfacet
facet normal -0.19261040896212642 -0.9812753081370397 0
outer loop
vertex -48.695407638012455 -14.734691641340621 0
vertex -32.3908152760249 -17.9350515981863 0
vertex -32.3908152760249 -17.9350515981863 1.6
endloop
endfacet
facet normal -0.19261040896212642 -0.9812753081370397 0
outer loop
vertex -48.695407638012455 -14.734691641340621 0
vertex -32.3908152760249 -17.9350515981863 1.6
vertex -48.695407638012455 -14.734691641340621 1.6
endloop
endfacet
facet normal 0.7399400733959436 0.6726727939963126 0
outer loop
vertex -32.3908152760249 -17.9350515981863 0
vertex -48.695407638012455 0 0
vertex -48.695407638012455 0 1.6
endloop
endfacet
facet normal 0.7399400733959436 0.6726727939963126 0
outer loop
vertex -32.3908152760249 -17.9350515981863 0
vertex -48.695407638012455 0 1.6
vertex -32.3908152760249 -17.9350515981863 1.6
endloop
endfacet
facet normal 0.7399400733959436 0.6726727939963124 0
outer loop
vertex -48.695407638012455 0 0
vertex -65 17.9350515981863 0
vertex -65 17.9350515981863 1.6
endloop
endfacet
facet normal 0.7399400733959436 0.6726727939963124 0
outer loop
vertex -48.695407638012455 0 0
vertex -65 17.9350515981863 1.6
vertex -48.695407638012455 0 1.6
endloop
endfacet
facet normal 0 0 1
outer loop
vertex -16.086222914037354 5.978350532728766 1.6
vertex -32.3908152760249 17.9350515981863 1.6
vertex -20.16237100453424 0 1.6
endloop
endfacet
facet normal 0 0 -1
outer loop
vertex -16.086222914037354 5.978350532728766 0
vertex -20.16237100453424 0 0
vertex -32.3908152760249 17.9350515981863 0
endloop
endfacet
facet normal 0 0 1
outer loop
vertex -16.086222914037354 5.978350532728766 1.6
vertex -20.16237100453424 0 1.6
vertex -7.933926733043577 -17.9350515981863 1.6
endloop
endfacet
facet normal 0 0 -1
outer loop
vertex -16.086222914037354 5.978350532728766 0
vertex -7.933926733043577 -17.9350515981863 0
vertex -20.16237100453424 0 0
endloop
endfacet
facet normal 0 0 1
outer loop
vertex -16.086222914037354 5.978350532728766 1.6
vertex -7.933926733043577 -17.9350515981863 1.6
vertex -10.639953254126466 0 1.6
endloop
endfacet
facet normal 0 0 -1
outer loop
vertex -16.086222914037354 5.978350532728766 0
vertex -10.639953254126466 0 0
vertex -7.933926733043577 -17.9350515981863 0
endloop
endfacet
facet normal 0 0 1
outer loop
vertex -16.086222914037354 5.978350532728766 1.6
vertex -10.639953254126466 0 1.6
vertex -7.933926733043577 17.9350515981863 1.6
endloop
endfacet
facet normal 0 0 -1
outer loop
vertex -16.086222914037354 5.978350532728766 0
vertex -7.933926733043577 17.9350515981863 0
vertex -10.639953254126466 0 0
endloop
endfacet
facet normal 0 0 1
outer loop
vertex -16.086222914037354 5.978350532728766 1.6
vertex -7.933926733043577 17.9350515981863 1.6
vertex -20.16237100453424 15.22902507710341 1.6
endloop
endfacet
facet normal 0 0 -1
outer loop
vertex -16.086222914037354 5.978350532728766 0
vertex -20.16237100453424 15.22902507710341 0
vertex -7.933926733043577 17.9350515981863 0
endloop
endfacet
facet normal 0 0 1
outer loop
vertex -16.086222914037354 5.978350532728766 1.6
vertex -20.16237100453424 15.22902507710341 1.6
vertex -32.3908152760249 17.9350515981863 1.6
endloop
endfacet
facet normal 0 0 -1
outer loop
vertex -16.086222914037354 5.978350532728766 0
vertex -32.3908152760249 17.9350515981863 0
vertex -20.16237100453424 15.22902507710341 0
endloop
endfacet
facet normal -0.8262273428075475 -0.5633368246415099 0
outer loop
vertex -32.3908152760249 17.9350515981863 0
vertex -20.16237100453424 0 0
vertex -20.16237100453424 0 1.6
endloop
endfacet
facet normal -0.8262273428075475 -0.5633368246415099 0
outer loop
vertex -32.3908152760249 17.9350515981863 0
vertex -20.16237100453424 0 1.6
vertex -32.3908152760249 17.9350515981863 1.6
endloop
endfacet
facet normal -0.8262273428075475 -0.5633368246415099 0
outer loop
vertex -20.16237100453424 0 0
vertex -7.933926733043577 -17.9350515981863 0
vertex -7.933926733043577 -17.9350515981863 1.6
endloop
endfacet
facet normal -0.8262273428075475 -0.5633368246415099 0
outer loop
vertex -20.16237100453424 0 0
vertex -7.933926733043577 -17.9350515981863 1.6
vertex -20.16237100453424 0 1.6
endloop
endfacet
facet normal 0.9888084505373264 0.14919064362744683 0
outer loop
vertex -7.933926733043577 -17.9350515981863 0
vertex -10.639953254126466 0 0
vertex -10.639953254126466 0 1.6
endloop
endfacet
facet normal 0.9888084505373264 0.14919064362744683 0
outer loop
vertex -7.933926733043577 -17.9350515981863 0
vertex -10.639953254126466 0 1.6
vertex -7.933926733043577 -17.9350515981863 1.6
endloop
endfacet
facet normal 0.9888084505373264 -0.14919064362744683 0
outer loop
vertex -10.639953254126466 0 0
vertex -7.933926733043577 17.9350515981863 0
vertex -7.933926733043577 17.9350515981863 1.6
endloop
endfacet
facet normal 0.9888084505373264 -0.14919064362744683 0
outer loop
vertex -10.639953254126466 0 0
vertex -7.933926733043577 17.9350515981863 1.6
vertex -10.639953254126466 0 1.6
endloop
endfacet
facet normal -0.21606255266637248 0.976379523205649 0
outer loop
vertex -7.933926733043577 17.9350515981863 0
vertex -20.16237100453424 15.22902507710341 0
vertex -20.16237100453424 15.22902507710341 1.6
endloop
endfacet
facet normal -0.21606255266637248 0.976379523205649 0
outer loop
vertex -7.933926733043577 17.9350515981863 0
vertex -20.16237100453424 15.22902507710341 1.6
vertex -7.933926733043577 17.9350515981863 1.6
endloop
endfacet
facet normal 0.21606255266637248 0.976379523205649 0
outer loop
vertex -20.16237100453424 15.22902507710341 0
vertex -32.3908152760249 17.9350515981863 0
vertex -32.3908152760249 17.9350515981863 1.6
endloop
endfacet
facet normal 0.21606255266637248 0.976379523205649 0
outer loop
vertex -20.16237100453424 15.22902507710341 0
vertex -32.3908152760249 17.9350515981863 1.6
vertex -20.16237100453424 15.22902507710341 1.6
endloop
endfacet
facet normal 0 0 1
outer loop
vertex -24.238519095031126 -5.978350532728766 1.6
vertex -32.3908152760249 17.9350515981863 1.6
vertex -29.684788754942016 0 1.6
endloop
endfacet
facet normal 0 0 -1
outer loop
vertex -24.238519095031126 -5.978350532728766 0
vertex -29.684788754942016 0 0
vertex -32.3908152760249 17.9350515981863 0
endloop
endfacet
facet normal 0 0 1
outer loop
vertex -24.238519095031126 -5.978350532728766 1.6
vertex -29.684788754942016 0 1.6
vertex -32.3908152760249 -17.9350515981863 1.6
endloop
endfacet
facet normal 0 0 -1
outer loop
vertex -24.238519095031126 -5.978350532728766 0
vertex -32.3908152760249 -17.9350515981863 0
vertex -29.684788754942016 0 0
endloop
endfacet
facet normal 0 0 1
outer loop
vertex -24.238519095031126 -5.978350532728766 1.6
vertex -32.3908152760249 -17.9350515981863 1.6
vertex -20.16237100453424 -15.22902507710341 1.6
endloop
endfacet
facet normal 0 0 -1
outer loop
vertex -24.238519095031126 -5.978350532728766 0
vertex -20.16237100453424 -15.22902507710341 0
vertex -32.3908152760249 -17.9350515981863 0
endloop
endfacet
facet normal 0 0 1
outer loop
vertex -24.238519095031126 -5.978350532728766 1.6
vertex -20.16237100453424 -15.22902507710341 1.6
vertex -7.933926733043577 -17.9350515981863 1.6
endloop
endfacet
facet normal 0 0 -1
outer loop
vertex -24.238519095031126 -5.978350532728766 0
vertex -7.933926733043577 -17.9350515981863 0
vertex -20.16237100453424 -15.22902507710341 0
endloop
endfacet
facet normal 0 0 1
outer loop
vertex -24.238519095031126 -5.978350532728766 1.6
vertex -7.933926733043577 -17.9350515981863 1.6
vertex -20.16237100453424 0 1.6
endloop
endfacet
facet normal 0 0 -1
outer loop
vertex -24.238519095031126 -5.978350532728766 0
vertex -20.16237100453424 0 0
vertex -7.933926733043577 -17.9350515981863 0
endloop
endfacet
facet normal 0 0 1
outer loop
vertex -24.238519095031126 -5.978350532728766 1.6
vertex -20.16237100453424 0 1.6
vertex -32.3908152760249 17.9350515981863 1.6
endloop
endfacet
facet normal 0 0 -1
outer loop
vertex -24.238519095031126 -5.978350532728766 0
vertex -32.3908152760249 17.9350515981863 0
vertex -20.16237100453424 0 0
endloop
endfacet
facet normal -0.9888084505373264 -0.1491906436274467 0
outer loop
vertex -32.3908152760249 17.9350515981863 0
vertex -29.684788754942016 0 0
vertex -29.684788754942016 0 1.6
endloop
endfacet
facet normal -0.9888084505373264 -0.1491906436274467 0
outer loop
vertex -32.3908152760249 17.9350515981863 0
vertex -29.684788754942016 0 1.6
vertex -32.3908152760249 17.9350515981863 1.6
endloop
endfacet
facet normal -0.9888084505373264 0.1491906436274467 0
outer loop
vertex -29.684788754942016 0 0
vertex -32.3908152760249 -17.9350515981863 0
vertex -32.3908152760249 -17.9350515981863 1.6
endloop
endfacet
facet normal -0.9888084505373264 0.1491906436274467 0
outer loop
vertex -29.684788754942016 0 0
vertex -32.3908152760249 -17.9350515981863 1.6
vertex -29.684788754942016 0 1.6
endloop
endfacet
facet normal 0.21606255266637248 -0.976379523205649 0
outer loop
vertex -32.3908152760249 -17.9350515981863 0
vertex -20.16237100453424 -15.22902507710341 0
vertex -20.16237100453424 -15.22902507710341 1.6
endloop
endfacet
facet normal 0.21606255266637248 -0.976379523205649 0
outer loop
vertex -32.3908152760249 -17.9350515981863 0
vertex -20.16237100453424 -15.22902507710341 1.6
vertex -32.3908152760249 -17.9350515981863 1.6
endloop
endfacet
facet normal -0.21606255266637248 -0.976379523205649 0
outer loop
vertex -20.16237100453424 -15.22902507710341 0
vertex -7.933926733043577 -17.9350515981863 0
vertex -7.933926733043577 -17.9350515981863 1.6
endloop
endfacet
facet normal -0.21606255266637248 -0.976379523205649 0
outer loop
vertex -20.16237100453424 -15.22902507710341 0
vertex -7.933926733043577 -17.9350515981863 1.6
vertex -20.16237100453424 -15.22902507710341 1.6
endloop
endfacet
facet normal 0.8262273428075475 0.5633368246415099 0
outer loop
vertex -7.933926733043577 -17.9350515981863 0
vertex -20.16237100453424 0 0
vertex -20.16237100453424 0 1.6
endloop
endfacet
facet normal 0.8262273428075475 0.5633368246415099 0
outer loop
vertex -7.933926733043577 -17.9350515981863 0
vertex -20.16237100453424 0 1.6
vertex -7.933926733043577 -17.9350515981863 1.6
endloop
endfacet
facet normal 0.8262273428075475 0.5633368246415099 0
outer loop
vertex -20.16237100453424 0 0
vertex -32.3908152760249 17.9350515981863 0
vertex -32.3908152760249 17.9350515981863 1.6
endloop
endfacet
facet normal 0.8262273428075475 0.5633368246415099 0
outer loop
vertex -20.16237100453424 0 0
vertex -32.3908152760249 17.9350515981863 1.6
vertex -20.16237100453424 0 1.6
endloop
endfacet
facet normal 0 0 1
outer loop
vertex 8.225085996977164 5.978350532728757 1.6
vertex -7.933926733043577 17.9350515981863 1.6
vertex 4.185332814471986 -1.4210854715202004e-14 1.6
endloop
endfacet
facet normal 0 0 -1
outer loop
vertex 8.225085996977164 5.978350532728757 0
vertex 4.185332814471986 -1.4210854715202004e-14 0
vertex -7.933926733043577 17.9350515981863 0
endloop
endfacet
facet normal 0 0 1
outer loop
vertex 8.225085996977164 5.978350532728757 1.6
vertex 4.185332814471986 -1.4210854715202004e-14 1.6
vertex 16.30459236198755 -17.935051598186327 1.6
endloop
endfacet
facet normal 0 0 -1
outer loop
vertex 8.225085996977164 5.978350532728757 0
vertex 16.30459236198755 -17.935051598186327 0
vertex 4.185332814471986 -1.4210854715202004e-14 0
endloop
endfacet
facet normal 0 0 1
outer loop
vertex 8.225085996977164 5.978350532728757 1.6
vertex 16.30459236198755 -17.935051598186327 1.6
vertex 13.61388261914611 -1.6342841067567157e-14 1.6
endloop
endfacet
facet normal 0 0 -1
outer loop
vertex 8.225085996977164 5.978350532728757 0
vertex 13.61388261914611 -1.6342841067567157e-14 0
vertex 16.30459236198755 -17.935051598186327 0
endloop
endfacet
facet normal 0 0 1
outer loop
vertex 8.225085996977164 5.978350532728757 1.6
vertex 13.61388261914611 -1.6342841067567157e-14 1.6
vertex 16.30459236198752 17.9350515981863 1.6
endloop
endfacet
facet normal 0 0 -1
outer loop
vertex 8.225085996977164 5.978350532728757 0
vertex 16.30459236198752 17.9350515981863 0
vertex 13.61388261914611 -1.6342841067567157e-14 0
endloop
endfacet
facet normal 0 0 1
outer loop
vertex 8.225085996977164 5.978350532728757 1.6
vertex 16.30459236198752 17.9350515981863 1.6
vertex 4.1853328144719715 15.244341855344874 1.6
endloop
endfacet
facet normal 0 0 -1
outer loop
vertex 8.225085996977164 5.978350532728757 0
vertex 4.1853328144719715 15.244341855344874 0
vertex 16.30459236198752 17.9350515981863 0
endloop
endfacet
facet normal 0 0 1
outer loop
vertex 8.225085996977164 5.978350532728757 1.6
vertex 4.1853328144719715 15.244341855344874 1.6
vertex -7.933926733043577 17.9350515981863 1.6
endloop
endfacet
facet normal 0 0 -1
outer loop
vertex 8.225085996977164 5.978350532728757 0
vertex -7.933926733043577 17.9350515981863 0
vertex 4.1853328144719715 15.244341855344874 0
endloop
endfacet
facet normal -0.8285679348701804 -0.5598885400729011 0
outer loop
vertex -7.933926733043577 17.9350515981863 0
vertex 4.185332814471986 -1.4210854715202004e-14 0
vertex 4.185332814471986 -1.4210854715202004e-14 1.6
endloop
endfacet
facet normal -0.8285679348701804 -0.5598885400729011 0
outer loop
vertex -7.933926733043577 17.9350515981863 0
vertex 4.185332814471986 -1.4210854715202004e-14 1.6
vertex -7.933926733043577 17.9350515981863 1.6
endloop
endfacet
facet normal -0.8285679348701804 -0.5598885400729011 0
outer loop
vertex 4.185332814471986 -1.4210854715202004e-14 0
vertex 16.30459236198755 -17.935051598186327 0
vertex 16.30459236198755 -17.935051598186327 1.6
endloop
endfacet
facet normal -0.8285679348701804 -0.5598885400729011 0
outer loop
vertex 4.185332814471986 -1.4210854715202004e-14 0
vertex 16.30459236198755 -17.935051598186327 1.6
vertex 4.185332814471986 -1.4210854715202004e-14 1.6
endloop
endfacet
facet normal 0.9889326963381904 0.14836482774996368 0
outer loop
vertex 16.30459236198755 -17.935051598186327 0
vertex 13.61388261914611 -1.6342841067567157e-14 0
vertex 13.61388261914611 -1.6342841067567157e-14 1.6
endloop
endfacet
facet normal 0.9889326963381904 0.14836482774996368 0
outer loop
vertex 16.30459236198755 -17.935051598186327 0
vertex 13.61388261914611 -1.6342841067567157e-14 1.6
vertex 16.30459236198755 -17.935051598186327 1.6
endloop
endfacet
facet normal 0.9889326963381907 -0.1483648277499621 0
outer loop
vertex 13.61388261914611 -1.6342841067567157e-14 0
vertex 16.30459236198752 17.9350515981863 0
vertex 16.30459236198752 17.9350515981863 1.6
endloop
endfacet
facet normal 0.9889326963381907 -0.1483648277499621 0
outer loop
vertex 13.61388261914611 -1.6342841067567157e-14 0
vertex 16.30459236198752 17.9350515981863 1.6
vertex 13.61388261914611 -1.6342841067567157e-14 1.6
endloop
endfacet
facet normal -0.2167416945014614 0.9762289884369522 0
outer loop
vertex 16.30459236198752 17.9350515981863 0
vertex 4.1853328144719715 15.244341855344874 0
vertex 4.1853328144719715 15.244341855344874 1.6
endloop
endfacet
facet normal -0.2167416945014614 0.9762289884369522 0
outer loop
vertex 16.30459236198752 17.9350515981863 0
vertex 4.1853328144719715 15.244341855344874 1.6
vertex 16.30459236198752 17.9350515981863 1.6
endloop
endfacet
facet normal 0.2167416945014614 0.9762289884369522 0
outer loop
vertex 4.1853328144719715 15.244341855344874 0
vertex -7.933926733043577 17.9350515981863 0
vertex -7.933926733043577 17.9350515981863 1.6
endloop
endfacet
facet normal 0.2167416945014614 0.9762289884369522 0
outer loop
vertex 4.1853328144719715 15.244341855344874 0
vertex -7.933926733043577 17.9350515981863 1.6
vertex 4.1853328144719715 15.244341855344874 1.6
endloop
endfacet
facet normal 0 0 1
outer loop
vertex 0.145579631966798 -5.978350532728776 1.6
vertex -7.933926733043577 17.9350515981863 1.6
vertex -5.243216990202152 0 1.6
endloop
endfacet
facet normal 0 0 -1
outer loop
vertex 0.145579631966798 -5.978350532728776 0
vertex -5.243216990202152 0 0
vertex -7.933926733043577 17.9350515981863 0
endloop
endfacet
facet normal 0 0 1
outer loop
vertex 0.145579631966798 -5.978350532728776 1.6
vertex -5.243216990202152 0 1.6
vertex -7.933926733043577 -17.9350515981863 1.6
endloop
endfacet
facet normal 0 0 -1
outer loop
vertex 0.145579631966798 -5.978350532728776 0
vertex -7.933926733043577 -17.9350515981863 0
vertex -5.243216990202152 0 0
endloop
endfacet
facet normal 0 0 1
outer loop
vertex 0.145579631966798 -5.978350532728776 1.6
vertex -7.933926733043577 -17.9350515981863 1.6
vertex 4.185332814471989 -15.244341855344887 1.6
endloop
endfacet
facet normal 0 0 -1
outer loop
vertex 0.145579631966798 -5.978350532728776 0
vertex 4.185332814471989 -15.244341855344887 0
vertex -7.933926733043577 -17.9350515981863 0
endloop
endfacet
facet normal 0 0 1
outer loop
vertex 0.145579631966798 -5.978350532728776 1.6
vertex 4.185332814471989 -15.244341855344887 1.6
vertex 16.30459236198755 -17.935051598186327 1.6
endloop
endfacet
facet normal 0 0 -1
outer loop
vertex 0.145579631966798 -5.978350532728776 0
vertex 16.30459236198755 -17.935051598186327 0
vertex 4.185332814471989 -15.244341855344887 0
endloop
endfacet
facet normal 0 0 1
outer loop
vertex 0.145579631966798 -5.978350532728776 1.6
vertex 16.30459236198755 -17.935051598186327 1.6
vertex 4.185332814471986 -1.4210854715202004e-14 1.6
endloop
endfacet
facet normal 0 0 -1
outer loop
vertex 0.145579631966798 -5.978350532728776 0
vertex 4.185332814471986 -1.4210854715202004e-14 0
vertex 16.30459236198755 -17.935051598186327 0
endloop
endfacet
facet normal 0 0 1
outer loop
vertex 0.145579631966798 -5.978350532728776 1.6
vertex 4.185332814471986 -1.4210854715202004e-14 1.6
vertex -7.933926733043577 17.9350515981863 1.6
endloop
endfacet
facet normal 0 0 -1
outer loop
vertex 0.145579631966798 -5.978350532728776 0
vertex -7.933926733043577 17.9350515981863 0
vertex 4.185332814471986 -1.4210854715202004e-14 0
endloop
endfacet
facet normal -0.9889326963381906 -0.14836482774996307 0
outer loop
vertex -7.933926733043577 17.9350515981863 0
vertex -5.243216990202152 0 0
vertex -5.243216990202152 0 1.6
endloop
endfacet
facet normal -0.9889326963381906 -0.14836482774996307 0
outer loop
vertex -7.933926733043577 17.9350515981863 0
vertex -5.243216990202152 0 1.6
vertex -7.933926733043577 17.9350515981863 1.6
endloop
endfacet
facet normal -0.9889326963381906 0.14836482774996307 0
outer loop
vertex -5.243216990202152 0 0
vertex -7.933926733043577 -17.9350515981863 0
vertex -7.933926733043577 -17.9350515981863 1.6
endloop
endfacet
facet normal -0.9889326963381906 0.14836482774996307 0
outer loop
vertex -5.243216990202152 0 0
vertex -7.933926733043577 -17.9350515981863 1.6
vertex -5.243216990202152 0 1.6
endloop
endfacet
facet normal 0.21674169450146016 -0.9762289884369524 0
outer loop
vertex -7.933926733043577 -17.9350515981863 0
vertex 4.185332814471989 -15.244341855344887 0
vertex 4.185332814471989 -15.244341855344887 1.6
endloop
endfacet
facet normal 0.21674169450146016 -0.9762289884369524 0
outer loop
vertex -7.933926733043577 -17.9350515981863 0
vertex 4.185332814471989 -15.244341855344887 1.6
vertex -7.933926733043577 -17.9350515981863 1.6
endloop
endfacet
facet normal -0.21674169450146252 -0.976228988436952 0
outer loop
vertex 4.185332814471989 -15.244341855344887 0
vertex 16.30459236198755 -17.935051598186327 0
vertex 16.30459236198755 -17.935051598186327 1.6
endloop
endfacet
facet normal -0.21674169450146252 -0.976228988436952 0
outer loop
vertex 4.185332814471989 -15.244341855344887 0
vertex 16.30459236198755 -17.935051598186327 1.6
vertex 4.185332814471989 -15.244341855344887 1.6
endloop
endfacet
facet normal 0.8285679348701804 0.5598885400729011 0
outer loop
vertex 16.30459236198755 -17.935051598186327 0
vertex 4.185332814471986 -1.4210854715202004e-14 0
vertex 4.185332814471986 -1.4210854715202004e-14 1.6
endloop
endfacet
facet normal 0.8285679348701804 0.5598885400729011 0
outer loop
vertex 16.30459236198755 -17.935051598186327 0
vertex 4.185332814471986 -1.4210854715202004e-14 1.6
vertex 16.30459236198755 -17.935051598186327 1.6
endloop
endfacet
facet normal 0.8285679348701804 0.5598885400729011 0
outer loop
vertex 4.185332814471986 -1.4210854715202004e-14 0
vertex -7.933926733043577 17.9350515981863 0
vertex -7.933926733043577 17.9350515981863 1.6
endloop
endfacet
facet normal 0.8285679348701804 0.5598885400729011 0
outer loop
vertex 4.185332814471986 -1.4210854715202004e-14 0
vertex -7.933926733043577 17.9350515981863 1.6
vertex 4.185332814471986 -1.4210854715202004e-14 1.6
endloop
endfacet
facet normal 0 0 1
outer loop
vertex 32.463605092008294 5.978350532728757 1.6
vertex 16.30459236198752 17.9350515981863 1.6
vertex 28.4238519095031 -1.4210854715202004e-14 1.6
endloop
endfacet
facet normal 0 0 -1
outer loop
vertex 32.463605092008294 5.978350532728757 0
vertex 28.4238519095031 -1.4210854715202004e-14 0
vertex 16.30459236198752 17.9350515981863 0
endloop
endfacet
facet normal 0 0 1
outer loop
vertex 32.463605092008294 5.978350532728757 1.6
vertex 28.4238519095031 -1.4210854715202004e-14 1.6
vertex 40.543111457018675 -17.935051598186327 1.6
endloop
endfacet
facet normal 0 0 -1
outer loop
vertex 32.463605092008294 5.978350532728757 0
vertex 40.543111457018675 -17.935051598186327 0
vertex 28.4238519095031 -1.4210854715202004e-14 0
endloop
endfacet
facet normal 0 0 1
outer loop
vertex 32.463605092008294 5.978350532728757 1.6
vertex 40.543111457018675 -17.935051598186327 1.6
vertex 37.85240171417725 -1.4210854715202004e-14 1.6
endloop
endfacet
facet normal 0 0 -1
outer loop
vertex 32.463605092008294 5.978350532728757 0
vertex 37.85240171417725 -1.4210854715202004e-14 0
vertex 40.543111457018675 -17.935051598186327 0
endloop
endfacet
facet normal 0 0 1
outer loop
vertex 32.463605092008294 5.978350532728757 1.6
vertex 37.85240171417725 -1.4210854715202004e-14 1.6
vertex 40.543111457018675 17.9350515981863 1.6
endloop
endfacet
facet normal 0 0 -1
outer loop
vertex 32.463605092008294 5.978350532728757 0
vertex 40.543111457018675 17.9350515981863 0
vertex 37.85240171417725 -1.4210854715202004e-14 0
endloop
endfacet
facet normal 0 0 1
outer loop
vertex 32.463605092008294 5.978350532728757 1.6
vertex 40.543111457018675 17.9350515981863 1.6
vertex 28.4238519095031 15.244341855344869 1.6
endloop
endfacet
facet normal 0 0 -1
outer loop
vertex 32.463605092008294 5.978350532728757 0
vertex 28.4238519095031 15.244341855344869 0
vertex 40.543111457018675 17.9350515981863 0
endloop
endfacet
facet normal 0 0 1
outer loop
vertex 32.463605092008294 5.978350532728757 1.6
vertex 28.4238519095031 15.244341855344869 1.6
vertex 16.30459236198752 17.9350515981863 1.6
endloop
endfacet
facet normal 0 0 -1
outer loop
vertex 32.463605092008294 5.978350532728757 0
vertex 16.30459236198752 17.9350515981863 0
vertex 28.4238519095031 15.244341855344869 0
endloop
endfacet
facet normal -0.8285679348701801 -0.5598885400729017 0
outer loop
vertex 16.30459236198752 17.9350515981863 0
vertex 28.4238519095031 -1.4210854715202004e-14 0
vertex 28.4238519095031 -1.4210854715202004e-14 1.6
endloop
endfacet
facet normal -0.8285679348701801 -0.5598885400729017 0
outer loop
vertex 16.30459236198752 17.9350515981863 0
vertex 28.4238519095031 -1.4210854715202004e-14 1.6
vertex 16.30459236198752 17.9350515981863 1.6
endloop
endfacet
facet normal -0.8285679348701801 -0.5598885400729016 0
outer loop
vertex 28.4238519095031 -1.4210854715202004e-14 0
vertex 40.543111457018675 -17.935051598186327 0
vertex 40.543111457018675 -17.935051598186327 1.6
endloop
endfacet
facet normal -0.8285679348701801 -0.5598885400729016 0
outer loop
vertex 28.4238519095031 -1.4210854715202004e-14 0
vertex 40.543111457018675 -17.935051598186327 1.6
vertex 28.4238519095031 -1.4210854715202004e-14 1.6
endloop
endfacet
facet normal 0.9889326963381906 0.1483648277499631 0
outer loop
vertex 40.543111457018675 -17.935051598186327 0
vertex 37.85240171417725 -1.4210854715202004e-14 0
vertex 37.85240171417725 -1.4210854715202004e-14 1.6
endloop
endfacet
facet normal 0.9889326963381906 0.1483648277499631 0
outer loop
vertex 40.543111457018675 -17.935051598186327 0
vertex 37.85240171417725 -1.4210854715202004e-14 1.6
vertex 40.543111457018675 -17.935051598186327 1.6
endloop
endfacet
facet normal 0.9889326963381906 -0.1483648277499631 0
outer loop
vertex 37.85240171417725 -1.4210854715202004e-14 0
vertex 40.543111457018675 17.9350515981863 0
vertex 40.543111457018675 17.9350515981863 1.6
endloop
endfacet
facet normal 0.9889326963381906 -0.1483648277499631 0
outer loop
vertex 37.85240171417725 -1.4210854715202004e-14 0
vertex 40.543111457018675 17.9350515981863 1.6
vertex 37.85240171417725 -1.4210854715202004e-14 1.6
endloop
endfacet
facet normal -0.2167416945014614 0.9762289884369523 0
outer loop
vertex 40.543111457018675 17.9350515981863 0
vertex 28.4238519095031 15.244341855344869 0
vertex 28.4238519095031 15.244341855344869 1.6
endloop
endfacet
facet normal -0.2167416945014614 0.9762289884369523 0
outer loop
vertex 40.543111457018675 17.9350515981863 0
vertex 28.4238519095031 15.244341855344869 1.6
vertex 40.543111457018675 17.9350515981863 1.6
endloop
endfacet
facet normal 0.21674169450146136 0.9762289884369523 0
outer loop
vertex 28.4238519095031 15.244341855344869 0
vertex 16.30459236198752 17.9350515981863 0
vertex 16.30459236198752 17.9350515981863 1.6
endloop
endfacet
facet normal 0.21674169450146136 0.9762289884369523 0
outer loop
vertex 28.4238519095031 15.244341855344869 0
vertex 16.30459236198752 17.9350515981863 1.6
vertex 28.4238519095031 15.244341855344869 1.6
endloop
endfacet
facet normal 0 0 1
outer loop
vertex 24.384098726997916 -5.978350532728785 1.6
vertex 16.30459236198752 17.9350515981863 1.6
vertex 18.995302104828962 -1.207886836283685e-14 1.6
endloop
endfacet
facet normal 0 0 -1
outer loop
vertex 24.384098726997916 -5.978350532728785 0
vertex 18.995302104828962 -1.207886836283685e-14 0
vertex 16.30459236198752 17.9350515981863 0
endloop
endfacet
facet normal 0 0 1
outer loop
vertex 24.384098726997916 -5.978350532728785 1.6
vertex 18.995302104828962 -1.207886836283685e-14 1.6
vertex 16.30459236198755 -17.935051598186327 1.6
endloop
endfacet
facet normal 0 0 -1
outer loop
vertex 24.384098726997916 -5.978350532728785 0
vertex 16.30459236198755 -17.935051598186327 0
vertex 18.995302104828962 -1.207886836283685e-14 0
endloop
endfacet
facet normal 0 0 1
outer loop
vertex 24.384098726997916 -5.978350532728785 1.6
vertex 16.30459236198755 -17.935051598186327 1.6
vertex 28.423851909503114 -15.244341855344901 1.6
endloop
endfacet
facet normal 0 0 -1
outer loop
vertex 24.384098726997916 -5.978350532728785 0
vertex 28.423851909503114 -15.244341855344901 0
vertex 16.30459236198755 -17.935051598186327 0
endloop
endfacet
facet normal 0 0 1
outer loop
vertex 24.384098726997916 -5.978350532728785 1.6
vertex 28.423851909503114 -15.244341855344901 1.6
vertex 40.543111457018675 -17.935051598186327 1.6
endloop
endfacet
facet normal 0 0 -1
outer loop
vertex 24.384098726997916 -5.978350532728785 0
vertex 40.543111457018675 -17.935051598186327 0
vertex 28.423851909503114 -15.244341855344901 0
endloop
endfacet
facet normal 0 0 1
outer loop
vertex 24.384098726997916 -5.978350532728785 1.6
vertex 40.543111457018675 -17.935051598186327 1.6
vertex 28.4238519095031 -1.4210854715202004e-14 1.6
endloop
endfacet
facet normal 0 0 -1
outer loop
vertex 24.384098726997916 -5.978350532728785 0
vertex 28.4238519095031 -1.4210854715202004e-14 0
vertex 40.543111457018675 -17.935051598186327 0
endloop
endfacet
facet normal 0 0 1
outer loop
vertex 24.384098726997916 -5.978350532728785 1.6
vertex 28.4238519095031 -1.4210854715202004e-14 1.6
vertex 16.30459236198752 17.9350515981863 1.6
endloop
endfacet
facet normal 0 0 -1
outer loop
vertex 24.384098726997916 -5.978350532728785 0
vertex 16.30459236198752 17.9350515981863 0
vertex 28.4238519095031 -1.4210854715202004e-14 0
endloop
endfacet
facet normal -0.9889326963381904 -0.14836482774996385 0
outer loop
vertex 16.30459236198752 17.9350515981863 0
vertex 18.995302104828962 -1.207886836283685e-14 0
vertex 18.995302104828962 -1.207886836283685e-14 1.6
endloop
endfacet
facet normal -0.9889326963381904 -0.14836482774996385 0
outer loop
vertex 16.30459236198752 17.9350515981863 0
vertex 18.995302104828962 -1.207886836283685e-14 1.6
vertex 16.30459236198752 17.9350515981863 1.6
endloop
endfacet
facet normal -0.9889326963381906 0.14836482774996226 0
outer loop
vertex 18.995302104828962 -1.207886836283685e-14 0
vertex 16.30459236198755 -17.935051598186327 0
vertex 16.30459236198755 -17.935051598186327 1.6
endloop
endfacet
facet normal -0.9889326963381906 0.14836482774996226 0
outer loop
vertex 18.995302104828962 -1.207886836283685e-14 0
vertex 16.30459236198755 -17.935051598186327 1.6
vertex 18.995302104828962 -1.207886836283685e-14 1.6
endloop
endfacet
facet normal 0.21674169450146127 -0.9762289884369522 0
outer loop
vertex 16.30459236198755 -17.935051598186327 0
vertex 28.423851909503114 -15.244341855344901 0
vertex 28.423851909503114 -15.244341855344901 1.6
endloop
endfacet
facet normal 0.21674169450146127 -0.9762289884369522 0
outer loop
vertex 16.30459236198755 -17.935051598186327 0
vertex 28.423851909503114 -15.244341855344901 1.6
vertex 16.30459236198755 -17.935051598186327 1.6
endloop
endfacet
facet normal -0.21674169450146136 -0.9762289884369522 0
outer loop
vertex 28.423851909503114 -15.244341855344901 0
vertex 40.543111457018675 -17.935051598186327 0
vertex 40.543111457018675 -17.935051598186327 1.6
endloop
endfacet
facet normal -0.21674169450146136 -0.9762289884369522 0
outer loop
vertex 28.423851909503114 -15.244341855344901 0
vertex 40.543111457018675 -17.935051598186327 1.6
vertex 28.423851909503114 -15.244341855344901 1.6
endloop
endfacet
facet normal 0.8285679348701801 0.5598885400729016 0
outer loop
vertex 40.543111457018675 -17.935051598186327 0
vertex 28.4238519095031 -1.4210854715202004e-14 0
vertex 28.4238519095031 -1.4210854715202004e-14 1.6
endloop
endfacet
facet normal 0.8285679348701801 0.5598885400729016 0
outer loop
vertex 40.543111457018675 -17.935051598186327 0
vertex 28.4238519095031 -1.4210854715202004e-14 1.6
vertex 40.543111457018675 -17.935051598186327 1.6
endloop
endfacet
facet normal 0.8285679348701801 0.5598885400729017 0
outer loop
vertex 28.4238519095031 -1.4210854715202004e-14 0
vertex 16.30459236198752 17.9350515981863 0
vertex 16.30459236198752 17.9350515981863 1.6
endloop
endfacet
facet normal 0.8285679348701801 0.5598885400729017 0
outer loop
vertex 28.4238519095031 -1.4210854715202004e-14 0
vertex 16.30459236198752 17.9350515981863 1.6
vertex 28.4238519095031 -1.4210854715202004e-14 1.6
endloop
endfacet
facet normal 0 0 1
outer loop
vertex 56.84770381900623 5.978350532728757 1.6
vertex 40.543111457018675 17.9350515981863 1.6
vertex 52.77155572850934 -1.4210854715202004e-14 1.6
endloop
endfacet
facet normal 0 0 -1
outer loop
vertex 56.84770381900623 5.978350532728757 0
vertex 52.77155572850934 -1.4210854715202004e-14 0
vertex 40.543111457018675 17.9350515981863 0
endloop
endfacet
facet normal 0 0 1
outer loop
vertex 56.84770381900623 5.978350532728757 1.6
vertex 52.77155572850934 -1.4210854715202004e-14 1.6
vertex 65 -17.935051598186327 1.6
endloop
endfacet
facet normal 0 0 -1
outer loop
vertex 56.84770381900623 5.978350532728757 0
vertex 65 -17.935051598186327 0
vertex 52.77155572850934 -1.4210854715202004e-14 0
endloop
endfacet
facet normal 0 0 1
outer loop
vertex 56.84770381900623 5.978350532728757 1.6
vertex 65 -17.935051598186327 1.6
vertex 62.29397347891711 -1.4210854715202004e-14 1.6
endloop
endfacet
facet normal 0 0 -1
outer loop
vertex 56.84770381900623 5.978350532728757 0
vertex 62.29397347891711 -1.4210854715202004e-14 0
vertex 65 -17.935051598186327 0
endloop
endfacet
facet normal 0 0 1
outer loop
vertex 56.84770381900623 5.978350532728757 1.6
vertex 62.29397347891711 -1.4210854715202004e-14 1.6
vertex 65 17.9350515981863 1.6
endloop
endfacet
facet normal 0 0 -1
outer loop
vertex 56.84770381900623 5.978350532728757 0
vertex 65 17.9350515981863 0
vertex 62.29397347891711 -1.4210854715202004e-14 0
endloop
endfacet
facet normal 0 0 1
outer loop
vertex 56.84770381900623 5.978350532728757 1.6
vertex 65 17.9350515981863 1.6
vertex 52.77155572850934 15.22902507710341 1.6
endloop
endfacet
facet normal 0 0 -1
outer loop
vertex 56.84770381900623 5.978350532728757 0
vertex 52.77155572850934 15.22902507710341 0
vertex 65 17.9350515981863 0
endloop
endfacet
facet normal 0 0 1
outer loop
vertex 56.84770381900623 5.978350532728757 1.6
vertex 52.77155572850934 15.22902507710341 1.6
vertex 40.543111457018675 17.9350515981863 1.6
endloop
endfacet
facet normal 0 0 -1
outer loop
vertex 56.84770381900623 5.978350532728757 0
vertex 40.543111457018675 17.9350515981863 0
vertex 52.77155572850934 15.22902507710341 0
endloop
endfacet
facet normal -0.8262273428075476 -0.5633368246415097 0
outer loop
vertex 40.543111457018675 17.9350515981863 0
vertex 52.77155572850934 -1.4210854715202004e-14 0
vertex 52.77155572850934 -1.4210854715202004e-14 1.6
endloop
endfacet
facet normal -0.8262273428075476 -0.5633368246415097 0
outer loop
vertex 40.543111457018675 17.9350515981863 0
vertex 52.77155572850934 -1.4210854715202004e-14 1.6
vertex 40.543111457018675 17.9350515981863 1.6
endloop
endfacet
facet normal -0.8262273428075478 -0.5633368246415095 0
outer loop
vertex 52.77155572850934 -1.4210854715202004e-14 0
vertex 65 -17.935051598186327 0
vertex 65 -17.935051598186327 1.6
endloop
endfacet
facet normal -0.8262273428075478 -0.5633368246415095 0
outer loop
vertex 52.77155572850934 -1.4210854715202004e-14 0
vertex 65 -17.935051598186327 1.6
vertex 52.77155572850934 -1.4210854715202004e-14 1.6
endloop
endfacet
facet normal 0.9888084505373264 0.1491906436274468 0
outer loop
vertex 65 -17.935051598186327 0
vertex 62.29397347891711 -1.4210854715202004e-14 0
vertex 62.29397347891711 -1.4210854715202004e-14 1.6
endloop
endfacet
facet normal 0.9888084505373264 0.1491906436274468 0
outer loop
vertex 65 -17.935051598186327 0
vertex 62.29397347891711 -1.4210854715202004e-14 1.6
vertex 65 -17.935051598186327 1.6
endloop
endfacet
facet normal 0.9888084505373264 -0.1491906436274468 0
outer loop
vertex 62.29397347891711 -1.4210854715202004e-14 0
vertex 65 17.9350515981863 0
vertex 65 17.9350515981863 1.6
endloop
endfacet
facet normal 0.9888084505373264 -0.1491906436274468 0
outer loop
vertex 62.29397347891711 -1.4210854715202004e-14 0
vertex 65 17.9350515981863 1.6
vertex 62.29397347891711 -1.4210854715202004e-14 1.6
endloop
endfacet
facet normal -0.21606255266637253 0.976379523205649 0
outer loop
vertex 65 17.9350515981863 0
vertex 52.77155572850934 15.22902507710341 0
vertex 52.77155572850934 15.22902507710341 1.6
endloop
endfacet
facet normal -0.21606255266637253 0.976379523205649 0
outer loop
vertex 65 17.9350515981863 0
vertex 52.77155572850934 15.22902507710341 1.6
vertex 65 17.9350515981863 1.6
endloop
endfacet
facet normal 0.21606255266637242 0.976379523205649 0
outer loop
vertex 52.77155572850934 15.22902507710341 0
vertex 40.543111457018675 17.9350515981863 0
vertex 40.543111457018675 17.9350515981863 1.6
endloop
endfacet
facet normal 0.21606255266637242 0.976379523205649 0
outer loop
vertex 52.77155572850934 15.22902507710341 0
vertex 40.543111457018675 17.9350515981863 1.6
vertex 52.77155572850934 15.22902507710341 1.6
endloop
endfacet
facet normal 0 0 1
outer loop
vertex 48.695407638012455 -5.978350532728785 1.6
vertex 40.543111457018675 17.9350515981863 1.6
vertex 43.249137978101565 -1.4210854715202004e-14 1.6
endloop
endfacet
facet normal 0 0 -1
outer loop
vertex 48.695407638012455 -5.978350532728785 0
vertex 43.249137978101565 -1.4210854715202004e-14 0
vertex 40.543111457018675 17.9350515981863 0
endloop
endfacet
facet normal 0 0 1
outer loop
vertex 48.695407638012455 -5.978350532728785 1.6
vertex 43.249137978101565 -1.4210854715202004e-14 1.6
vertex 40.543111457018675 -17.935051598186327 1.6
endloop
endfacet
facet normal 0 0 -1
outer loop
vertex 48.695407638012455 -5.978350532728785 0
vertex 40.543111457018675 -17.935051598186327 0
vertex 43.249137978101565 -1.4210854715202004e-14 0
endloop
endfacet
facet normal 0 0 1
outer loop
vertex 48.695407638012455 -5.978350532728785 1.6
vertex 40.543111457018675 -17.935051598186327 1.6
vertex 52.77155572850934 -15.229025077103438 1.6
endloop
endfacet
facet normal 0 0 -1
outer loop
vertex 48.695407638012455 -5.978350532728785 0
vertex 52.77155572850934 -15.229025077103438 0
vertex 40.543111457018675 -17.935051598186327 0
endloop
endfacet
facet normal 0 0 1
outer loop
vertex 48.695407638012455 -5.978350532728785 1.6
vertex 52.77155572850934 -15.229025077103438 1.6
vertex 65 -17.935051598186327 1.6
endloop
endfacet
facet normal 0 0 -1
outer loop
vertex 48.695407638012455 -5.978350532728785 0
vertex 65 -17.935051598186327 0
vertex 52.77155572850934 -15.229025077103438 0
endloop
endfacet
facet normal 0 0 1
outer loop
vertex 48.695407638012455 -5.978350532728785 1.6
vertex 65 -17.935051598186327 1.6
vertex 52.77155572850934 -1.4210854715202004e-14 1.6
endloop
endfacet
facet normal 0 0 -1
outer loop
vertex 48.695407638012455 -5.978350532728785 0
vertex 52.77155572850934 -1.4210854715202004e-14 0
vertex 65 -17.935051598186327 0
endloop
endfacet
facet normal 0 0 1
outer loop
vertex 48.695407638012455 -5.978350532728785 1.6
vertex 52.77155572850934 -1.4210854715202004e-14 1.6
vertex 40.543111457018675 17.9350515981863 1.6
endloop
endfacet
facet normal 0 0 -1
outer loop
vertex 48.695407638012455 -5.978350532728785 0
vertex 40.543111457018675 17.9350515981863 0
vertex 52.77155572850934 -1.4210854715202004e-14 0
endloop
endfacet
facet normal -0.9888084505373264 -0.1491906436274468 0
outer loop
vertex 40.543111457018675 17.9350515981863 0
vertex 43.249137978101565 -1.4210854715202004e-14 0
vertex 43.249137978101565 -1.4210854715202004e-14 1.6
endloop
endfacet
facet normal -0.9888084505373264 -0.1491906436274468 0
outer loop
vertex 40.543111457018675 17.9350515981863 0
vertex 43.249137978101565 -1.4210854715202004e-14 1.6
vertex 40.543111457018675 17.9350515981863 1.6
endloop
endfacet
facet normal -0.9888084505373264 0.1491906436274468 0
outer loop
vertex 43.249137978101565 -1.4210854715202004e-14 0
vertex 40.543111457018675 -17.935051598186327 0
vertex 40.543111457018675 -17.935051598186327 1.6
endloop
endfacet
facet normal -0.9888084505373264 0.1491906436274468 0
outer loop
vertex 43.249137978101565 -1.4210854715202004e-14 0
vertex 40.543111457018675 -17.935051598186327 1.6
vertex 43.249137978101565 -1.4210854715202004e-14 1.6
endloop
endfacet
facet normal 0.21606255266637242 -0.976379523205649 0
outer loop
vertex 40.543111457018675 -17.935051598186327 0
vertex 52.77155572850934 -15.229025077103438 0
vertex 52.77155572850934 -15.229025077103438 1.6
endloop
endfacet
facet normal 0.21606255266637242 -0.976379523205649 0
outer loop
vertex 40.543111457018675 -17.935051598186327 0
vertex 52.77155572850934 -15.229025077103438 1.6
vertex 40.543111457018675 -17.935051598186327 1.6
endloop
endfacet
facet normal -0.21606255266637253 -0.976379523205649 0
outer loop
vertex 52.77155572850934 -15.229025077103438 0
vertex 65 -17.935051598186327 0
vertex 65 -17.935051598186327 1.6
endloop
endfacet
facet normal -0.21606255266637253 -0.976379523205649 0
outer loop
vertex 52.77155572850934 -15.229025077103438 0
vertex 65 -17.935051598186327 1.6
vertex 52.77155572850934 -15.229025077103438 1.6
endloop
endfacet
facet normal 0.8262273428075478 0.5633368246415095 0
outer loop
vertex 65 -17.935051598186327 0
vertex 52.77155572850934 -1.4210854715202004e-14 0
vertex 52.77155572850934 -1.4210854715202004e-14 1.6
endloop
endfacet
facet normal 0.8262273428075478 0.5633368246415095 0
outer loop
vertex 65 -17.935051598186327 0
vertex 52.77155572850934 -1.4210854715202004e-14 1.6
vertex 65 -17.935051598186327 1.6
endloop
endfacet
facet normal 0.8262273428075476 0.5633368246415097 0
outer loop
vertex 52.77155572850934 -1.4210854715202004e-14 0
vertex 40.543111457018675 17.9350515981863 0
vertex 40.543111457018675 17.9350515981863 1.6
endloop
endfacet
facet normal 0.8262273428075476 0.5633368246415097 0
outer loop
vertex 52.77155572850934 -1.4210854715202004e-14 0
vertex 40.543111457018675 17.9350515981863 1.6
vertex 52.77155572850934 -1.4210854715202004e-14 1.6
endloop
endfacet
endsolid house-kirigami-flat
