solid lampDome
  facet normal 0.000000 0.000000 1.000000
    outer loop
      vertex 0 0 85
      vertex 22 0 85
      vertex 19.052558883257653 10.999999999999998 85
    endloop
  endfacet
  facet normal 0.000000 0.000000 1.000000
    outer loop
      vertex 0 0 85
      vertex 19.052558883257653 10.999999999999998 85
      vertex 11.000000000000002 19.05255888325765 85
    endloop
  endfacet
  facet normal 0.000000 0.000000 1.000000
    outer loop
      vertex 0 0 85
      vertex 11.000000000000002 19.05255888325765 85
      vertex 1.3471114790620886e-15 22 85
    endloop
  endfacet
  facet normal 0.000000 0.000000 1.000000
    outer loop
      vertex 0 0 85
      vertex 1.3471114790620886e-15 22 85
      vertex -10.999999999999995 19.052558883257653 85
    endloop
  endfacet
  facet normal 0.000000 0.000000 1.000000
    outer loop
      vertex 0 0 85
      vertex -10.999999999999995 19.052558883257653 85
      vertex -19.052558883257646 11.000000000000007 85
    endloop
  endfacet
  facet normal 0.000000 0.000000 1.000000
    outer loop
      vertex 0 0 85
      vertex -19.052558883257646 11.000000000000007 85
      vertex -22 2.6942229581241772e-15 85
    endloop
  endfacet
  facet normal 0.000000 0.000000 1.000000
    outer loop
      vertex 0 0 85
      vertex -22 2.6942229581241772e-15 85
      vertex -19.052558883257653 -10.999999999999995 85
    endloop
  endfacet
  facet normal 0.000000 0.000000 1.000000
    outer loop
      vertex 0 0 85
      vertex -19.052558883257653 -10.999999999999995 85
      vertex -11.00000000000001 -19.052558883257646 85
    endloop
  endfacet
  facet normal 0.000000 0.000000 1.000000
    outer loop
      vertex 0 0 85
      vertex -11.00000000000001 -19.052558883257646 85
      vertex -4.0413344371862654e-15 -22 85
    endloop
  endfacet
  facet normal 0.000000 0.000000 1.000000
    outer loop
      vertex 0 0 85
      vertex -4.0413344371862654e-15 -22 85
      vertex 10.999999999999986 -19.05255888325766 85
    endloop
  endfacet
  facet normal 0.000000 0.000000 1.000000
    outer loop
      vertex 0 0 85
      vertex 10.999999999999986 -19.05255888325766 85
      vertex 19.052558883257646 -11.00000000000001 85
    endloop
  endfacet
  facet normal 0.000000 0.000000 1.000000
    outer loop
      vertex 0 0 85
      vertex 19.052558883257646 -11.00000000000001 85
      vertex 22 0 85
    endloop
  endfacet
  facet normal 0.132357 0.035465 0.990567
    outer loop
      vertex 22 0 85
      vertex 40.7503681783595 10.919028244662348 82.10369523457081
      vertex 19.052558883257653 10.999999999999998 85
    endloop
  endfacet
  facet normal 0.132204 0.076328 0.988279
    outer loop
      vertex 19.052558883257653 10.999999999999998 85
      vertex 40.7503681783595 10.919028244662348 82.10369523457081
      vertex 29.831339933697155 29.83133993369715 82.10369523457081
    endloop
  endfacet
  facet normal 0.096892 0.096892 0.990567
    outer loop
      vertex 19.052558883257653 10.999999999999998 85
      vertex 29.831339933697155 29.83133993369715 82.10369523457081
      vertex 11.000000000000002 19.05255888325765 85
    endloop
  endfacet
  facet normal 0.076328 0.132204 0.988279
    outer loop
      vertex 11.000000000000002 19.05255888325765 85
      vertex 29.831339933697155 29.83133993369715 82.10369523457081
      vertex 10.919028244662359 40.7503681783595 82.10369523457081
    endloop
  endfacet
  facet normal 0.035465 0.132357 0.990567
    outer loop
      vertex 11.000000000000002 19.05255888325765 85
      vertex 10.919028244662359 40.7503681783595 82.10369523457081
      vertex 1.3471114790620886e-15 22 85
    endloop
  endfacet
  facet normal 0.000000 0.152656 0.988279
    outer loop
      vertex 1.3471114790620886e-15 22 85
      vertex 10.919028244662359 40.7503681783595 82.10369523457081
      vertex -10.919028244662345 40.7503681783595 82.10369523457081
    endloop
  endfacet
  facet normal -0.035465 0.132357 0.990567
    outer loop
      vertex 1.3471114790620886e-15 22 85
      vertex -10.919028244662345 40.7503681783595 82.10369523457081
      vertex -10.999999999999995 19.052558883257653 85
    endloop
  endfacet
  facet normal -0.076328 0.132204 0.988279
    outer loop
      vertex -10.999999999999995 19.052558883257653 85
      vertex -10.919028244662345 40.7503681783595 82.10369523457081
      vertex -29.83133993369715 29.831339933697155 82.10369523457081
    endloop
  endfacet
  facet normal -0.096892 0.096892 0.990567
    outer loop
      vertex -10.999999999999995 19.052558883257653 85
      vertex -29.83133993369715 29.831339933697155 82.10369523457081
      vertex -19.052558883257646 11.000000000000007 85
    endloop
  endfacet
  facet normal -0.132204 0.076328 0.988279
    outer loop
      vertex -19.052558883257646 11.000000000000007 85
      vertex -29.83133993369715 29.831339933697155 82.10369523457081
      vertex -40.7503681783595 10.91902824466236 82.10369523457081
    endloop
  endfacet
  facet normal -0.132357 0.035465 0.990567
    outer loop
      vertex -19.052558883257646 11.000000000000007 85
      vertex -40.7503681783595 10.91902824466236 82.10369523457081
      vertex -22 2.6942229581241772e-15 85
    endloop
  endfacet
  facet normal -0.152656 0.000000 0.988279
    outer loop
      vertex -22 2.6942229581241772e-15 85
      vertex -40.7503681783595 10.91902824466236 82.10369523457081
      vertex -40.75036817835951 -10.919028244662332 82.10369523457081
    endloop
  endfacet
  facet normal -0.132357 -0.035465 0.990567
    outer loop
      vertex -22 2.6942229581241772e-15 85
      vertex -40.75036817835951 -10.919028244662332 82.10369523457081
      vertex -19.052558883257653 -10.999999999999995 85
    endloop
  endfacet
  facet normal -0.132204 -0.076328 0.988279
    outer loop
      vertex -19.052558883257653 -10.999999999999995 85
      vertex -40.75036817835951 -10.919028244662332 82.10369523457081
      vertex -29.83133993369717 -29.831339933697137 82.10369523457081
    endloop
  endfacet
  facet normal -0.096892 -0.096892 0.990567
    outer loop
      vertex -19.052558883257653 -10.999999999999995 85
      vertex -29.83133993369717 -29.831339933697137 82.10369523457081
      vertex -11.00000000000001 -19.052558883257646 85
    endloop
  endfacet
  facet normal -0.076328 -0.132204 0.988279
    outer loop
      vertex -11.00000000000001 -19.052558883257646 85
      vertex -29.83133993369717 -29.831339933697137 82.10369523457081
      vertex -10.919028244662382 -40.750368178359494 82.10369523457081
    endloop
  endfacet
  facet normal -0.035465 -0.132357 0.990567
    outer loop
      vertex -11.00000000000001 -19.052558883257646 85
      vertex -10.919028244662382 -40.750368178359494 82.10369523457081
      vertex -4.0413344371862654e-15 -22 85
    endloop
  endfacet
  facet normal -0.000000 -0.152656 0.988279
    outer loop
      vertex -4.0413344371862654e-15 -22 85
      vertex -10.919028244662382 -40.750368178359494 82.10369523457081
      vertex 10.91902824466233 -40.75036817835951 82.10369523457081
    endloop
  endfacet
  facet normal 0.035465 -0.132357 0.990567
    outer loop
      vertex -4.0413344371862654e-15 -22 85
      vertex 10.91902824466233 -40.75036817835951 82.10369523457081
      vertex 10.999999999999986 -19.05255888325766 85
    endloop
  endfacet
  facet normal 0.076328 -0.132204 0.988279
    outer loop
      vertex 10.999999999999986 -19.05255888325766 85
      vertex 10.91902824466233 -40.75036817835951 82.10369523457081
      vertex 29.831339933697144 -29.83133993369716 82.10369523457081
    endloop
  endfacet
  facet normal 0.096892 -0.096892 0.990567
    outer loop
      vertex 10.999999999999986 -19.05255888325766 85
      vertex 29.831339933697144 -29.83133993369716 82.10369523457081
      vertex 19.052558883257646 -11.00000000000001 85
    endloop
  endfacet
  facet normal 0.132204 -0.076328 0.988279
    outer loop
      vertex 19.052558883257646 -11.00000000000001 85
      vertex 29.831339933697144 -29.83133993369716 82.10369523457081
      vertex 40.750368178359494 -10.919028244662384 82.10369523457081
    endloop
  endfacet
  facet normal 0.132357 -0.035465 0.990567
    outer loop
      vertex 19.052558883257646 -11.00000000000001 85
      vertex 40.750368178359494 -10.919028244662384 82.10369523457081
      vertex 22 0 85
    endloop
  endfacet
  facet normal 0.152656 -0.000000 0.988279
    outer loop
      vertex 22 0 85
      vertex 40.750368178359494 -10.919028244662384 82.10369523457081
      vertex 40.7503681783595 10.919028244662348 82.10369523457081
    endloop
  endfacet
  facet normal 0.334907 0.193359 0.922198
    outer loop
      vertex 40.7503681783595 10.919028244662348 82.10369523457081
      vertex 52.827549630850754 30.499999999999993 73.6121593216773
      vertex 29.831339933697155 29.83133993369715 82.10369523457081
    endloop
  endfacet
  facet normal 0.437104 0.117122 0.891752
    outer loop
      vertex 40.7503681783595 10.919028244662348 82.10369523457081
      vertex 60.99999999999999 0 73.6121593216773
      vertex 52.827549630850754 30.499999999999993 73.6121593216773
    endloop
  endfacet
  facet normal 0.193359 0.334907 0.922198
    outer loop
      vertex 29.831339933697155 29.83133993369715 82.10369523457081
      vertex 30.500000000000004 52.82754963085075 73.6121593216773
      vertex 10.919028244662359 40.7503681783595 82.10369523457081
    endloop
  endfacet
  facet normal 0.319983 0.319983 0.891752
    outer loop
      vertex 29.831339933697155 29.83133993369715 82.10369523457081
      vertex 52.827549630850754 30.499999999999993 73.6121593216773
      vertex 30.500000000000004 52.82754963085075 73.6121593216773
    endloop
  endfacet
  facet normal 0.000000 0.386717 0.922198
    outer loop
      vertex 10.919028244662359 40.7503681783595 82.10369523457081
      vertex 3.735172737399427e-15 60.99999999999999 73.6121593216773
      vertex -10.919028244662345 40.7503681783595 82.10369523457081
    endloop
  endfacet
  facet normal 0.117122 0.437104 0.891752
    outer loop
      vertex 10.919028244662359 40.7503681783595 82.10369523457081
      vertex 30.500000000000004 52.82754963085075 73.6121593216773
      vertex 3.735172737399427e-15 60.99999999999999 73.6121593216773
    endloop
  endfacet
  facet normal -0.193359 0.334907 0.922198
    outer loop
      vertex -10.919028244662345 40.7503681783595 82.10369523457081
      vertex -30.499999999999982 52.827549630850754 73.6121593216773
      vertex -29.83133993369715 29.831339933697155 82.10369523457081
    endloop
  endfacet
  facet normal -0.117122 0.437104 0.891752
    outer loop
      vertex -10.919028244662345 40.7503681783595 82.10369523457081
      vertex 3.735172737399427e-15 60.99999999999999 73.6121593216773
      vertex -30.499999999999982 52.827549630850754 73.6121593216773
    endloop
  endfacet
  facet normal -0.334907 0.193359 0.922198
    outer loop
      vertex -29.83133993369715 29.831339933697155 82.10369523457081
      vertex -52.82754963085074 30.500000000000018 73.6121593216773
      vertex -40.7503681783595 10.91902824466236 82.10369523457081
    endloop
  endfacet
  facet normal -0.319983 0.319983 0.891752
    outer loop
      vertex -29.83133993369715 29.831339933697155 82.10369523457081
      vertex -30.499999999999982 52.827549630850754 73.6121593216773
      vertex -52.82754963085074 30.500000000000018 73.6121593216773
    endloop
  endfacet
  facet normal -0.386717 0.000000 0.922198
    outer loop
      vertex -40.7503681783595 10.91902824466236 82.10369523457081
      vertex -60.99999999999999 7.470345474798854e-15 73.6121593216773
      vertex -40.75036817835951 -10.919028244662332 82.10369523457081
    endloop
  endfacet
  facet normal -0.437104 0.117122 0.891752
    outer loop
      vertex -40.7503681783595 10.91902824466236 82.10369523457081
      vertex -52.82754963085074 30.500000000000018 73.6121593216773
      vertex -60.99999999999999 7.470345474798854e-15 73.6121593216773
    endloop
  endfacet
  facet normal -0.334907 -0.193359 0.922198
    outer loop
      vertex -40.75036817835951 -10.919028244662332 82.10369523457081
      vertex -52.82754963085076 -30.49999999999998 73.6121593216773
      vertex -29.83133993369717 -29.831339933697137 82.10369523457081
    endloop
  endfacet
  facet normal -0.437104 -0.117122 0.891752
    outer loop
      vertex -40.75036817835951 -10.919028244662332 82.10369523457081
      vertex -60.99999999999999 7.470345474798854e-15 73.6121593216773
      vertex -52.82754963085076 -30.49999999999998 73.6121593216773
    endloop
  endfacet
  facet normal -0.193359 -0.334907 0.922198
    outer loop
      vertex -29.83133993369717 -29.831339933697137 82.10369523457081
      vertex -30.500000000000025 -52.82754963085074 73.6121593216773
      vertex -10.919028244662382 -40.750368178359494 82.10369523457081
    endloop
  endfacet
  facet normal -0.319983 -0.319983 0.891752
    outer loop
      vertex -29.83133993369717 -29.831339933697137 82.10369523457081
      vertex -52.82754963085076 -30.49999999999998 73.6121593216773
      vertex -30.500000000000025 -52.82754963085074 73.6121593216773
    endloop
  endfacet
  facet normal -0.000000 -0.386717 0.922198
    outer loop
      vertex -10.919028244662382 -40.750368178359494 82.10369523457081
      vertex -1.120551821219828e-14 -60.99999999999999 73.6121593216773
      vertex 10.91902824466233 -40.75036817835951 82.10369523457081
    endloop
  endfacet
  facet normal -0.117122 -0.437104 0.891752
    outer loop
      vertex -10.919028244662382 -40.750368178359494 82.10369523457081
      vertex -30.500000000000025 -52.82754963085074 73.6121593216773
      vertex -1.120551821219828e-14 -60.99999999999999 73.6121593216773
    endloop
  endfacet
  facet normal 0.193359 -0.334907 0.922198
    outer loop
      vertex 10.91902824466233 -40.75036817835951 82.10369523457081
      vertex 30.499999999999957 -52.827549630850775 73.6121593216773
      vertex 29.831339933697144 -29.83133993369716 82.10369523457081
    endloop
  endfacet
  facet normal 0.117122 -0.437104 0.891752
    outer loop
      vertex 10.91902824466233 -40.75036817835951 82.10369523457081
      vertex -1.120551821219828e-14 -60.99999999999999 73.6121593216773
      vertex 30.499999999999957 -52.827549630850775 73.6121593216773
    endloop
  endfacet
  facet normal 0.334907 -0.193359 0.922198
    outer loop
      vertex 29.831339933697144 -29.83133993369716 82.10369523457081
      vertex 52.82754963085073 -30.500000000000025 73.6121593216773
      vertex 40.750368178359494 -10.919028244662384 82.10369523457081
    endloop
  endfacet
  facet normal 0.319983 -0.319983 0.891752
    outer loop
      vertex 29.831339933697144 -29.83133993369716 82.10369523457081
      vertex 30.499999999999957 -52.827549630850775 73.6121593216773
      vertex 52.82754963085073 -30.500000000000025 73.6121593216773
    endloop
  endfacet
  facet normal 0.386717 -0.000000 0.922198
    outer loop
      vertex 40.750368178359494 -10.919028244662384 82.10369523457081
      vertex 60.99999999999999 0 73.6121593216773
      vertex 40.7503681783595 10.919028244662348 82.10369523457081
    endloop
  endfacet
  facet normal 0.437104 -0.117122 0.891752
    outer loop
      vertex 40.750368178359494 -10.919028244662384 82.10369523457081
      vertex 52.82754963085073 -30.500000000000025 73.6121593216773
      vertex 60.99999999999999 0 73.6121593216773
    endloop
  endfacet
  facet normal 0.575008 0.154073 0.803509
    outer loop
      vertex 60.99999999999999 0 73.6121593216773
      vertex 74.5253589259526 19.96900973984856 60.10407640085654
      vertex 52.827549630850754 30.499999999999993 73.6121593216773
    endloop
  endfacet
  facet normal 0.611981 0.353327 0.707559
    outer loop
      vertex 52.827549630850754 30.499999999999993 73.6121593216773
      vertex 74.5253589259526 19.96900973984856 60.10407640085654
      vertex 54.55634918610404 54.556349186104036 60.10407640085654
    endloop
  endfacet
  facet normal 0.420935 0.420935 0.803509
    outer loop
      vertex 52.827549630850754 30.499999999999993 73.6121593216773
      vertex 54.55634918610404 54.556349186104036 60.10407640085654
      vertex 30.500000000000004 52.82754963085075 73.6121593216773
    endloop
  endfacet
  facet normal 0.353327 0.611981 0.707559
    outer loop
      vertex 30.500000000000004 52.82754963085075 73.6121593216773
      vertex 54.55634918610404 54.556349186104036 60.10407640085654
      vertex 19.969009739848577 74.52535892595259 60.10407640085654
    endloop
  endfacet
  facet normal 0.154073 0.575008 0.803509
    outer loop
      vertex 30.500000000000004 52.82754963085075 73.6121593216773
      vertex 19.969009739848577 74.52535892595259 60.10407640085654
      vertex 3.735172737399427e-15 60.99999999999999 73.6121593216773
    endloop
  endfacet
  facet normal 0.000000 0.706655 0.707559
    outer loop
      vertex 3.735172737399427e-15 60.99999999999999 73.6121593216773
      vertex 19.969009739848577 74.52535892595259 60.10407640085654
      vertex -19.969009739848552 74.5253589259526 60.10407640085654
    endloop
  endfacet
  facet normal -0.154073 0.575008 0.803509
    outer loop
      vertex 3.735172737399427e-15 60.99999999999999 73.6121593216773
      vertex -19.969009739848552 74.5253589259526 60.10407640085654
      vertex -30.499999999999982 52.827549630850754 73.6121593216773
    endloop
  endfacet
  facet normal -0.353327 0.611981 0.707559
    outer loop
      vertex -30.499999999999982 52.827549630850754 73.6121593216773
      vertex -19.969009739848552 74.5253589259526 60.10407640085654
      vertex -54.556349186104036 54.55634918610404 60.10407640085654
    endloop
  endfacet
  facet normal -0.420935 0.420935 0.803509
    outer loop
      vertex -30.499999999999982 52.827549630850754 73.6121593216773
      vertex -54.556349186104036 54.55634918610404 60.10407640085654
      vertex -52.82754963085074 30.500000000000018 73.6121593216773
    endloop
  endfacet
  facet normal -0.611981 0.353327 0.707559
    outer loop
      vertex -52.82754963085074 30.500000000000018 73.6121593216773
      vertex -54.556349186104036 54.55634918610404 60.10407640085654
      vertex -74.52535892595259 19.96900973984858 60.10407640085654
    endloop
  endfacet
  facet normal -0.575008 0.154073 0.803509
    outer loop
      vertex -52.82754963085074 30.500000000000018 73.6121593216773
      vertex -74.52535892595259 19.96900973984858 60.10407640085654
      vertex -60.99999999999999 7.470345474798854e-15 73.6121593216773
    endloop
  endfacet
  facet normal -0.706655 0.000000 0.707559
    outer loop
      vertex -60.99999999999999 7.470345474798854e-15 73.6121593216773
      vertex -74.52535892595259 19.96900973984858 60.10407640085654
      vertex -74.52535892595262 -19.96900973984853 60.10407640085654
    endloop
  endfacet
  facet normal -0.575008 -0.154073 0.803509
    outer loop
      vertex -60.99999999999999 7.470345474798854e-15 73.6121593216773
      vertex -74.52535892595262 -19.96900973984853 60.10407640085654
      vertex -52.82754963085076 -30.49999999999998 73.6121593216773
    endloop
  endfacet
  facet normal -0.611981 -0.353327 0.707559
    outer loop
      vertex -52.82754963085076 -30.49999999999998 73.6121593216773
      vertex -74.52535892595262 -19.96900973984853 60.10407640085654
      vertex -54.55634918610407 -54.55634918610401 60.10407640085654
    endloop
  endfacet
  facet normal -0.420935 -0.420935 0.803509
    outer loop
      vertex -52.82754963085076 -30.49999999999998 73.6121593216773
      vertex -54.55634918610407 -54.55634918610401 60.10407640085654
      vertex -30.500000000000025 -52.82754963085074 73.6121593216773
    endloop
  endfacet
  facet normal -0.353327 -0.611981 0.707559
    outer loop
      vertex -30.500000000000025 -52.82754963085074 73.6121593216773
      vertex -54.55634918610407 -54.55634918610401 60.10407640085654
      vertex -19.96900973984862 -74.52535892595259 60.10407640085654
    endloop
  endfacet
  facet normal -0.154073 -0.575008 0.803509
    outer loop
      vertex -30.500000000000025 -52.82754963085074 73.6121593216773
      vertex -19.96900973984862 -74.52535892595259 60.10407640085654
      vertex -1.120551821219828e-14 -60.99999999999999 73.6121593216773
    endloop
  endfacet
  facet normal -0.000000 -0.706655 0.707559
    outer loop
      vertex -1.120551821219828e-14 -60.99999999999999 73.6121593216773
      vertex -19.96900973984862 -74.52535892595259 60.10407640085654
      vertex 19.969009739848527 -74.52535892595262 60.10407640085654
    endloop
  endfacet
  facet normal 0.154073 -0.575008 0.803509
    outer loop
      vertex -1.120551821219828e-14 -60.99999999999999 73.6121593216773
      vertex 19.969009739848527 -74.52535892595262 60.10407640085654
      vertex 30.499999999999957 -52.827549630850775 73.6121593216773
    endloop
  endfacet
  facet normal 0.353327 -0.611981 0.707559
    outer loop
      vertex 30.499999999999957 -52.827549630850775 73.6121593216773
      vertex 19.969009739848527 -74.52535892595262 60.10407640085654
      vertex 54.55634918610403 -54.55634918610405 60.10407640085654
    endloop
  endfacet
  facet normal 0.420935 -0.420935 0.803509
    outer loop
      vertex 30.499999999999957 -52.827549630850775 73.6121593216773
      vertex 54.55634918610403 -54.55634918610405 60.10407640085654
      vertex 52.82754963085073 -30.500000000000025 73.6121593216773
    endloop
  endfacet
  facet normal 0.611981 -0.353327 0.707559
    outer loop
      vertex 52.82754963085073 -30.500000000000025 73.6121593216773
      vertex 54.55634918610403 -54.55634918610405 60.10407640085654
      vertex 74.52535892595259 -19.969009739848623 60.10407640085654
    endloop
  endfacet
  facet normal 0.575008 -0.154073 0.803509
    outer loop
      vertex 52.82754963085073 -30.500000000000025 73.6121593216773
      vertex 74.52535892595259 -19.969009739848623 60.10407640085654
      vertex 60.99999999999999 0 73.6121593216773
    endloop
  endfacet
  facet normal 0.706655 -0.000000 0.707559
    outer loop
      vertex 60.99999999999999 0 73.6121593216773
      vertex 74.52535892595259 -19.969009739848623 60.10407640085654
      vertex 74.5253589259526 19.96900973984856 60.10407640085654
    endloop
  endfacet
  facet normal 0.658728 0.380317 0.649181
    outer loop
      vertex 74.5253589259526 19.96900973984856 60.10407640085654
      vertex 77.55255888325766 44.7749907475931 42.50000000000001
      vertex 54.55634918610404 54.556349186104036 60.10407640085654
    endloop
  endfacet
  facet normal 0.853182 0.228609 0.468848
    outer loop
      vertex 74.5253589259526 19.96900973984856 60.10407640085654
      vertex 89.54998149518622 0 42.50000000000001
      vertex 77.55255888325766 44.7749907475931 42.50000000000001
    endloop
  endfacet
  facet normal 0.380317 0.658728 0.649181
    outer loop
      vertex 54.55634918610404 54.556349186104036 60.10407640085654
      vertex 44.774990747593115 77.55255888325765 42.50000000000001
      vertex 19.969009739848577 74.52535892595259 60.10407640085654
    endloop
  endfacet
  facet normal 0.624573 0.624573 0.468848
    outer loop
      vertex 54.55634918610404 54.556349186104036 60.10407640085654
      vertex 77.55255888325766 44.7749907475931 42.50000000000001
      vertex 44.774990747593115 77.55255888325765 42.50000000000001
    endloop
  endfacet
  facet normal 0.000000 0.760634 0.649181
    outer loop
      vertex 19.969009739848577 74.52535892595259 60.10407640085654
      vertex 5.483354910089226e-15 89.54998149518622 42.50000000000001
      vertex -19.969009739848552 74.5253589259526 60.10407640085654
    endloop
  endfacet
  facet normal 0.228609 0.853182 0.468848
    outer loop
      vertex 19.969009739848577 74.52535892595259 60.10407640085654
      vertex 44.774990747593115 77.55255888325765 42.50000000000001
      vertex 5.483354910089226e-15 89.54998149518622 42.50000000000001
    endloop
  endfacet
  facet normal -0.380317 0.658728 0.649181
    outer loop
      vertex -19.969009739848552 74.5253589259526 60.10407640085654
      vertex -44.77499074759309 77.55255888325766 42.50000000000001
      vertex -54.556349186104036 54.55634918610404 60.10407640085654
    endloop
  endfacet
  facet normal -0.228609 0.853182 0.468848
    outer loop
      vertex -19.969009739848552 74.5253589259526 60.10407640085654
      vertex 5.483354910089226e-15 89.54998149518622 42.50000000000001
      vertex -44.77499074759309 77.55255888325766 42.50000000000001
    endloop
  endfacet
  facet normal -0.658728 0.380317 0.649181
    outer loop
      vertex -54.556349186104036 54.55634918610404 60.10407640085654
      vertex -77.55255888325763 44.77499074759314 42.50000000000001
      vertex -74.52535892595259 19.96900973984858 60.10407640085654
    endloop
  endfacet
  facet normal -0.624573 0.624573 0.468848
    outer loop
      vertex -54.556349186104036 54.55634918610404 60.10407640085654
      vertex -44.77499074759309 77.55255888325766 42.50000000000001
      vertex -77.55255888325763 44.77499074759314 42.50000000000001
    endloop
  endfacet
  facet normal -0.760634 0.000000 0.649181
    outer loop
      vertex -74.52535892595259 19.96900973984858 60.10407640085654
      vertex -89.54998149518622 1.0966709820178452e-14 42.50000000000001
      vertex -74.52535892595262 -19.96900973984853 60.10407640085654
    endloop
  endfacet
  facet normal -0.853182 0.228609 0.468848
    outer loop
      vertex -74.52535892595259 19.96900973984858 60.10407640085654
      vertex -77.55255888325763 44.77499074759314 42.50000000000001
      vertex -89.54998149518622 1.0966709820178452e-14 42.50000000000001
    endloop
  endfacet
  facet normal -0.658728 -0.380317 0.649181
    outer loop
      vertex -74.52535892595262 -19.96900973984853 60.10407640085654
      vertex -77.55255888325766 -44.77499074759309 42.50000000000001
      vertex -54.55634918610407 -54.55634918610401 60.10407640085654
    endloop
  endfacet
  facet normal -0.853182 -0.228609 0.468848
    outer loop
      vertex -74.52535892595262 -19.96900973984853 60.10407640085654
      vertex -89.54998149518622 1.0966709820178452e-14 42.50000000000001
      vertex -77.55255888325766 -44.77499074759309 42.50000000000001
    endloop
  endfacet
  facet normal -0.380317 -0.658728 0.649181
    outer loop
      vertex -54.55634918610407 -54.55634918610401 60.10407640085654
      vertex -44.77499074759315 -77.55255888325763 42.50000000000001
      vertex -19.96900973984862 -74.52535892595259 60.10407640085654
    endloop
  endfacet
  facet normal -0.624573 -0.624573 0.468848
    outer loop
      vertex -54.55634918610407 -54.55634918610401 60.10407640085654
      vertex -77.55255888325766 -44.77499074759309 42.50000000000001
      vertex -44.77499074759315 -77.55255888325763 42.50000000000001
    endloop
  endfacet
  facet normal -0.000000 -0.760634 0.649181
    outer loop
      vertex -19.96900973984862 -74.52535892595259 60.10407640085654
      vertex -1.6450064730267674e-14 -89.54998149518622 42.50000000000001
      vertex 19.969009739848527 -74.52535892595262 60.10407640085654
    endloop
  endfacet
  facet normal -0.228609 -0.853182 0.468848
    outer loop
      vertex -19.96900973984862 -74.52535892595259 60.10407640085654
      vertex -44.77499074759315 -77.55255888325763 42.50000000000001
      vertex -1.6450064730267674e-14 -89.54998149518622 42.50000000000001
    endloop
  endfacet
  facet normal 0.380317 -0.658728 0.649181
    outer loop
      vertex 19.969009739848527 -74.52535892595262 60.10407640085654
      vertex 44.77499074759305 -77.55255888325769 42.50000000000001
      vertex 54.55634918610403 -54.55634918610405 60.10407640085654
    endloop
  endfacet
  facet normal 0.228609 -0.853182 0.468848
    outer loop
      vertex 19.969009739848527 -74.52535892595262 60.10407640085654
      vertex -1.6450064730267674e-14 -89.54998149518622 42.50000000000001
      vertex 44.77499074759305 -77.55255888325769 42.50000000000001
    endloop
  endfacet
  facet normal 0.658728 -0.380317 0.649181
    outer loop
      vertex 54.55634918610403 -54.55634918610405 60.10407640085654
      vertex 77.55255888325763 -44.77499074759315 42.50000000000001
      vertex 74.52535892595259 -19.969009739848623 60.10407640085654
    endloop
  endfacet
  facet normal 0.624573 -0.624573 0.468848
    outer loop
      vertex 54.55634918610403 -54.55634918610405 60.10407640085654
      vertex 44.77499074759305 -77.55255888325769 42.50000000000001
      vertex 77.55255888325763 -44.77499074759315 42.50000000000001
    endloop
  endfacet
  facet normal 0.760634 -0.000000 0.649181
    outer loop
      vertex 74.52535892595259 -19.969009739848623 60.10407640085654
      vertex 89.54998149518622 0 42.50000000000001
      vertex 74.5253589259526 19.96900973984856 60.10407640085654
    endloop
  endfacet
  facet normal 0.853182 -0.228609 0.468848
    outer loop
      vertex 74.52535892595259 -19.969009739848623 60.10407640085654
      vertex 77.55255888325763 -44.77499074759315 42.50000000000001
      vertex 89.54998149518622 0 42.50000000000001
    endloop
  endfacet
  facet normal 0.853838 0.228785 0.467565
    outer loop
      vertex 89.54998149518622 0 42.50000000000001
      vertex 94.02535892595262 25.194018992255454 21.999618833714262
      vertex 77.55255888325766 44.7749907475931 42.50000000000001
    endloop
  endfacet
  facet normal 0.846098 0.488495 0.213284
    outer loop
      vertex 77.55255888325766 44.7749907475931 42.50000000000001
      vertex 94.02535892595262 25.194018992255454 21.999618833714262
      vertex 68.83133993369717 68.83133993369715 21.999618833714262
    endloop
  endfacet
  facet normal 0.625053 0.625053 0.467565
    outer loop
      vertex 77.55255888325766 44.7749907475931 42.50000000000001
      vertex 68.83133993369717 68.83133993369715 21.999618833714262
      vertex 44.774990747593115 77.55255888325765 42.50000000000001
    endloop
  endfacet
  facet normal 0.488495 0.846098 0.213284
    outer loop
      vertex 44.774990747593115 77.55255888325765 42.50000000000001
      vertex 68.83133993369717 68.83133993369715 21.999618833714262
      vertex 25.194018992255476 94.0253589259526 21.999618833714262
    endloop
  endfacet
  facet normal 0.228785 0.853838 0.467565
    outer loop
      vertex 44.774990747593115 77.55255888325765 42.50000000000001
      vertex 25.194018992255476 94.0253589259526 21.999618833714262
      vertex 5.483354910089226e-15 89.54998149518622 42.50000000000001
    endloop
  endfacet
  facet normal 0.000000 0.976990 0.213284
    outer loop
      vertex 5.483354910089226e-15 89.54998149518622 42.50000000000001
      vertex 25.194018992255476 94.0253589259526 21.999618833714262
      vertex -25.194018992255444 94.02535892595262 21.999618833714262
    endloop
  endfacet
  facet normal -0.228785 0.853838 0.467565
    outer loop
      vertex 5.483354910089226e-15 89.54998149518622 42.50000000000001
      vertex -25.194018992255444 94.02535892595262 21.999618833714262
      vertex -44.77499074759309 77.55255888325766 42.50000000000001
    endloop
  endfacet
  facet normal -0.488495 0.846098 0.213284
    outer loop
      vertex -44.77499074759309 77.55255888325766 42.50000000000001
      vertex -25.194018992255444 94.02535892595262 21.999618833714262
      vertex -68.83133993369715 68.83133993369717 21.999618833714262
    endloop
  endfacet
  facet normal -0.625053 0.625053 0.467565
    outer loop
      vertex -44.77499074759309 77.55255888325766 42.50000000000001
      vertex -68.83133993369715 68.83133993369717 21.999618833714262
      vertex -77.55255888325763 44.77499074759314 42.50000000000001
    endloop
  endfacet
  facet normal -0.846098 0.488495 0.213284
    outer loop
      vertex -77.55255888325763 44.77499074759314 42.50000000000001
      vertex -68.83133993369715 68.83133993369717 21.999618833714262
      vertex -94.0253589259526 25.194018992255483 21.999618833714262
    endloop
  endfacet
  facet normal -0.853838 0.228785 0.467565
    outer loop
      vertex -77.55255888325763 44.77499074759314 42.50000000000001
      vertex -94.0253589259526 25.194018992255483 21.999618833714262
      vertex -89.54998149518622 1.0966709820178452e-14 42.50000000000001
    endloop
  endfacet
  facet normal -0.976990 0.000000 0.213284
    outer loop
      vertex -89.54998149518622 1.0966709820178452e-14 42.50000000000001
      vertex -94.0253589259526 25.194018992255483 21.999618833714262
      vertex -94.02535892595263 -25.19401899225542 21.999618833714262
    endloop
  endfacet
  facet normal -0.853838 -0.228785 0.467565
    outer loop
      vertex -89.54998149518622 1.0966709820178452e-14 42.50000000000001
      vertex -94.02535892595263 -25.19401899225542 21.999618833714262
      vertex -77.55255888325766 -44.77499074759309 42.50000000000001
    endloop
  endfacet
  facet normal -0.846098 -0.488495 0.213284
    outer loop
      vertex -77.55255888325766 -44.77499074759309 42.50000000000001
      vertex -94.02535892595263 -25.19401899225542 21.999618833714262
      vertex -68.8313399336972 -68.83133993369712 21.999618833714262
    endloop
  endfacet
  facet normal -0.625053 -0.625053 0.467565
    outer loop
      vertex -77.55255888325766 -44.77499074759309 42.50000000000001
      vertex -68.8313399336972 -68.83133993369712 21.999618833714262
      vertex -44.77499074759315 -77.55255888325763 42.50000000000001
    endloop
  endfacet
  facet normal -0.488495 -0.846098 0.213284
    outer loop
      vertex -44.77499074759315 -77.55255888325763 42.50000000000001
      vertex -68.8313399336972 -68.83133993369712 21.999618833714262
      vertex -25.194018992255533 -94.02535892595259 21.999618833714262
    endloop
  endfacet
  facet normal -0.228785 -0.853838 0.467565
    outer loop
      vertex -44.77499074759315 -77.55255888325763 42.50000000000001
      vertex -25.194018992255533 -94.02535892595259 21.999618833714262
      vertex -1.6450064730267674e-14 -89.54998149518622 42.50000000000001
    endloop
  endfacet
  facet normal -0.000000 -0.976990 0.213284
    outer loop
      vertex -1.6450064730267674e-14 -89.54998149518622 42.50000000000001
      vertex -25.194018992255533 -94.02535892595259 21.999618833714262
      vertex 25.194018992255412 -94.02535892595263 21.999618833714262
    endloop
  endfacet
  facet normal 0.228785 -0.853838 0.467565
    outer loop
      vertex -1.6450064730267674e-14 -89.54998149518622 42.50000000000001
      vertex 25.194018992255412 -94.02535892595263 21.999618833714262
      vertex 44.77499074759305 -77.55255888325769 42.50000000000001
    endloop
  endfacet
  facet normal 0.488495 -0.846098 0.213284
    outer loop
      vertex 44.77499074759305 -77.55255888325769 42.50000000000001
      vertex 25.194018992255412 -94.02535892595263 21.999618833714262
      vertex 68.83133993369714 -68.83133993369717 21.999618833714262
    endloop
  endfacet
  facet normal 0.625053 -0.625053 0.467565
    outer loop
      vertex 44.77499074759305 -77.55255888325769 42.50000000000001
      vertex 68.83133993369714 -68.83133993369717 21.999618833714262
      vertex 77.55255888325763 -44.77499074759315 42.50000000000001
    endloop
  endfacet
  facet normal 0.846098 -0.488495 0.213284
    outer loop
      vertex 77.55255888325763 -44.77499074759315 42.50000000000001
      vertex 68.83133993369714 -68.83133993369717 21.999618833714262
      vertex 94.02535892595259 -25.194018992255536 21.999618833714262
    endloop
  endfacet
  facet normal 0.853838 -0.228785 0.467565
    outer loop
      vertex 77.55255888325763 -44.77499074759315 42.50000000000001
      vertex 94.02535892595259 -25.194018992255536 21.999618833714262
      vertex 89.54998149518622 0 42.50000000000001
    endloop
  endfacet
  facet normal 0.976990 -0.000000 0.213284
    outer loop
      vertex 89.54998149518622 0 42.50000000000001
      vertex 94.02535892595259 -25.194018992255536 21.999618833714262
      vertex 94.02535892595262 25.194018992255454 21.999618833714262
    endloop
  endfacet
  facet normal 0.835753 0.482522 0.262086
    outer loop
      vertex 94.02535892595262 25.194018992255454 21.999618833714262
      vertex 86.60254037844388 49.99999999999999 5.204748896376251e-15
      vertex 68.83133993369717 68.83133993369715 21.999618833714262
    endloop
  endfacet
  facet normal 0.965366 0.258669 -0.034055
    outer loop
      vertex 94.02535892595262 25.194018992255454 21.999618833714262
      vertex 100 0 5.204748896376251e-15
      vertex 86.60254037844388 49.99999999999999 5.204748896376251e-15
    endloop
  endfacet
  facet normal 0.482522 0.835753 0.262086
    outer loop
      vertex 68.83133993369717 68.83133993369715 21.999618833714262
      vertex 50.000000000000014 86.60254037844386 5.204748896376251e-15
      vertex 25.194018992255476 94.0253589259526 21.999618833714262
    endloop
  endfacet
  facet normal 0.706697 0.706697 -0.034055
    outer loop
      vertex 68.83133993369717 68.83133993369715 21.999618833714262
      vertex 86.60254037844388 49.99999999999999 5.204748896376251e-15
      vertex 50.000000000000014 86.60254037844386 5.204748896376251e-15
    endloop
  endfacet
  facet normal 0.000000 0.965044 0.262086
    outer loop
      vertex 25.194018992255476 94.0253589259526 21.999618833714262
      vertex 6.123233995736766e-15 100 5.204748896376251e-15
      vertex -25.194018992255444 94.02535892595262 21.999618833714262
    endloop
  endfacet
  facet normal 0.258669 0.965366 -0.034055
    outer loop
      vertex 25.194018992255476 94.0253589259526 21.999618833714262
      vertex 50.000000000000014 86.60254037844386 5.204748896376251e-15
      vertex 6.123233995736766e-15 100 5.204748896376251e-15
    endloop
  endfacet
  facet normal -0.482522 0.835753 0.262086
    outer loop
      vertex -25.194018992255444 94.02535892595262 21.999618833714262
      vertex -49.99999999999998 86.60254037844388 5.204748896376251e-15
      vertex -68.83133993369715 68.83133993369717 21.999618833714262
    endloop
  endfacet
  facet normal -0.258669 0.965366 -0.034055
    outer loop
      vertex -25.194018992255444 94.02535892595262 21.999618833714262
      vertex 6.123233995736766e-15 100 5.204748896376251e-15
      vertex -49.99999999999998 86.60254037844388 5.204748896376251e-15
    endloop
  endfacet
  facet normal -0.835753 0.482522 0.262086
    outer loop
      vertex -68.83133993369715 68.83133993369717 21.999618833714262
      vertex -86.60254037844385 50.000000000000036 5.204748896376251e-15
      vertex -94.0253589259526 25.194018992255483 21.999618833714262
    endloop
  endfacet
  facet normal -0.706697 0.706697 -0.034055
    outer loop
      vertex -68.83133993369715 68.83133993369717 21.999618833714262
      vertex -49.99999999999998 86.60254037844388 5.204748896376251e-15
      vertex -86.60254037844385 50.000000000000036 5.204748896376251e-15
    endloop
  endfacet
  facet normal -0.965044 0.000000 0.262086
    outer loop
      vertex -94.0253589259526 25.194018992255483 21.999618833714262
      vertex -100 1.2246467991473532e-14 5.204748896376251e-15
      vertex -94.02535892595263 -25.19401899225542 21.999618833714262
    endloop
  endfacet
  facet normal -0.965366 0.258669 -0.034055
    outer loop
      vertex -94.0253589259526 25.194018992255483 21.999618833714262
      vertex -86.60254037844385 50.000000000000036 5.204748896376251e-15
      vertex -100 1.2246467991473532e-14 5.204748896376251e-15
    endloop
  endfacet
  facet normal -0.835753 -0.482522 0.262086
    outer loop
      vertex -94.02535892595263 -25.19401899225542 21.999618833714262
      vertex -86.60254037844388 -49.99999999999997 5.204748896376251e-15
      vertex -68.8313399336972 -68.83133993369712 21.999618833714262
    endloop
  endfacet
  facet normal -0.965366 -0.258669 -0.034055
    outer loop
      vertex -94.02535892595263 -25.19401899225542 21.999618833714262
      vertex -100 1.2246467991473532e-14 5.204748896376251e-15
      vertex -86.60254037844388 -49.99999999999997 5.204748896376251e-15
    endloop
  endfacet
  facet normal -0.482522 -0.835753 0.262086
    outer loop
      vertex -68.8313399336972 -68.83133993369712 21.999618833714262
      vertex -50.00000000000004 -86.60254037844385 5.204748896376251e-15
      vertex -25.194018992255533 -94.02535892595259 21.999618833714262
    endloop
  endfacet
  facet normal -0.706697 -0.706697 -0.034055
    outer loop
      vertex -68.8313399336972 -68.83133993369712 21.999618833714262
      vertex -86.60254037844388 -49.99999999999997 5.204748896376251e-15
      vertex -50.00000000000004 -86.60254037844385 5.204748896376251e-15
    endloop
  endfacet
  facet normal -0.000000 -0.965044 0.262086
    outer loop
      vertex -25.194018992255533 -94.02535892595259 21.999618833714262
      vertex -1.8369701987210297e-14 -100 5.204748896376251e-15
      vertex 25.194018992255412 -94.02535892595263 21.999618833714262
    endloop
  endfacet
  facet normal -0.258669 -0.965366 -0.034055
    outer loop
      vertex -25.194018992255533 -94.02535892595259 21.999618833714262
      vertex -50.00000000000004 -86.60254037844385 5.204748896376251e-15
      vertex -1.8369701987210297e-14 -100 5.204748896376251e-15
    endloop
  endfacet
  facet normal 0.482522 -0.835753 0.262086
    outer loop
      vertex 25.194018992255412 -94.02535892595263 21.999618833714262
      vertex 49.999999999999936 -86.6025403784439 5.204748896376251e-15
      vertex 68.83133993369714 -68.83133993369717 21.999618833714262
    endloop
  endfacet
  facet normal 0.258669 -0.965366 -0.034055
    outer loop
      vertex 25.194018992255412 -94.02535892595263 21.999618833714262
      vertex -1.8369701987210297e-14 -100 5.204748896376251e-15
      vertex 49.999999999999936 -86.6025403784439 5.204748896376251e-15
    endloop
  endfacet
  facet normal 0.835753 -0.482522 0.262086
    outer loop
      vertex 68.83133993369714 -68.83133993369717 21.999618833714262
      vertex 86.60254037844383 -50.00000000000004 5.204748896376251e-15
      vertex 94.02535892595259 -25.194018992255536 21.999618833714262
    endloop
  endfacet
  facet normal 0.706697 -0.706697 -0.034055
    outer loop
      vertex 68.83133993369714 -68.83133993369717 21.999618833714262
      vertex 49.999999999999936 -86.6025403784439 5.204748896376251e-15
      vertex 86.60254037844383 -50.00000000000004 5.204748896376251e-15
    endloop
  endfacet
  facet normal 0.965044 -0.000000 0.262086
    outer loop
      vertex 94.02535892595259 -25.194018992255536 21.999618833714262
      vertex 100 0 5.204748896376251e-15
      vertex 94.02535892595262 25.194018992255454 21.999618833714262
    endloop
  endfacet
  facet normal 0.965366 -0.258669 -0.034055
    outer loop
      vertex 94.02535892595259 -25.194018992255536 21.999618833714262
      vertex 86.60254037844383 -50.00000000000004 5.204748896376251e-15
      vertex 100 0 5.204748896376251e-15
    endloop
  endfacet
endsolid lampDome
