solid pyramid
  facet normal 0.000000 -0.813733 0.581238
    outer loop
      vertex -50.000000 -50.000000 0.000000
      vertex 50.000000 -50.000000 0.000000
      vertex 0.000000 0.000000 70.000000
    endloop
  endfacet
  facet normal 0.813733 0.000000 0.581238
    outer loop
      vertex 50.000000 -50.000000 0.000000
      vertex 50.000000 50.000000 0.000000
      vertex 0.000000 0.000000 70.000000
    endloop
  endfacet
  facet normal 0.000000 0.813733 0.581238
    outer loop
      vertex 50.000000 50.000000 0.000000
      vertex -50.000000 50.000000 0.000000
      vertex 0.000000 0.000000 70.000000
    endloop
  endfacet
  facet normal -0.813733 0.000000 0.581238
    outer loop
      vertex -50.000000 50.000000 0.000000
      vertex -50.000000 -50.000000 0.000000
      vertex 0.000000 0.000000 70.000000
    endloop
  endfacet
  facet normal 0.000000 0.000000 -1.000000
    outer loop
      vertex -50.000000 -50.000000 0.000000
      vertex 50.000000 50.000000 0.000000
      vertex 50.000000 -50.000000 0.000000
    endloop
  endfacet
  facet normal 0.000000 0.000000 -1.000000
    outer loop
      vertex -50.000000 -50.000000 0.000000
      vertex -50.000000 50.000000 0.000000
      vertex 50.000000 50.000000 0.000000
    endloop
  endfacet
endsolid pyramid
