solid windmill
facet normal 0.7057693554432638 -0.7057693554432637 0.061475473437789294
outer loop
vertex 0.16072704159333773 -0.3880294036547404 0
vertex 0.3880294036547404 -0.1607270415933377 0
vertex 0.31411904105383753 -0.13011236700413054 1.2
endloop
endfacet
facet normal 0.7057693554432638 -0.7057693554432637 0.06147547343778927
outer loop
vertex 0.16072704159333773 -0.3880294036547404 0
vertex 0.31411904105383753 -0.13011236700413054 1.2
vertex 0.13011236700413056 -0.31411904105383753 1.2
endloop
endfacet
facet normal 0.998108594375181 0 0.06147547343778929
outer loop
vertex 0.3880294036547404 -0.1607270415933377 0
vertex 0.3880294036547404 0.1607270415933377 0
vertex 0.31411904105383753 0.13011236700413054 1.2
endloop
endfacet
facet normal 0.9981085943751811 0 0.06147547343778927
outer loop
vertex 0.3880294036547404 -0.1607270415933377 0
vertex 0.31411904105383753 0.13011236700413054 1.2
vertex 0.31411904105383753 -0.13011236700413054 1.2
endloop
endfacet
facet normal 0.7057693554432638 0.7057693554432637 0.06147547343778927
outer loop
vertex 0.3880294036547404 0.1607270415933377 0
vertex 0.16072704159333773 0.3880294036547404 0
vertex 0.13011236700413056 0.31411904105383753 1.2
endloop
endfacet
facet normal 0.7057693554432637 0.7057693554432635 0.06147547343778929
outer loop
vertex 0.3880294036547404 0.1607270415933377 0
vertex 0.13011236700413056 0.31411904105383753 1.2
vertex 0.31411904105383753 0.13011236700413054 1.2
endloop
endfacet
facet normal 0 0.998108594375181 0.06147547343778929
outer loop
vertex 0.16072704159333773 0.3880294036547404 0
vertex -0.16072704159333767 0.3880294036547404 0
vertex -0.1301123670041305 0.31411904105383753 1.2
endloop
endfacet
facet normal 0 0.9981085943751811 0.06147547343778927
outer loop
vertex 0.16072704159333773 0.3880294036547404 0
vertex -0.1301123670041305 0.31411904105383753 1.2
vertex 0.13011236700413056 0.31411904105383753 1.2
endloop
endfacet
facet normal -0.7057693554432637 0.7057693554432638 0.061475473437789294
outer loop
vertex -0.16072704159333767 0.3880294036547404 0
vertex -0.3880294036547404 0.16072704159333775 0
vertex -0.31411904105383753 0.13011236700413056 1.2
endloop
endfacet
facet normal -0.7057693554432635 0.7057693554432638 0.06147547343778929
outer loop
vertex -0.16072704159333767 0.3880294036547404 0
vertex -0.31411904105383753 0.13011236700413056 1.2
vertex -0.1301123670041305 0.31411904105383753 1.2
endloop
endfacet
facet normal -0.998108594375181 3.447220615667421e-16 0.06147547343778931
outer loop
vertex -0.3880294036547404 0.16072704159333775 0
vertex -0.38802940365474053 -0.16072704159333748 0
vertex -0.3141190410538376 -0.13011236700413034 1.2
endloop
endfacet
facet normal -0.9981085943751811 2.2178809108154366e-16 0.061475473437789294
outer loop
vertex -0.3880294036547404 0.16072704159333775 0
vertex -0.3141190410538376 -0.13011236700413034 1.2
vertex -0.31411904105383753 0.13011236700413056 1.2
endloop
endfacet
facet normal -0.7057693554432637 -0.7057693554432636 0.06147547343778929
outer loop
vertex -0.38802940365474053 -0.16072704159333748 0
vertex -0.1607270415933376 -0.3880294036547405 0
vertex -0.13011236700413045 -0.31411904105383753 1.2
endloop
endfacet
facet normal -0.7057693554432639 -0.7057693554432636 0.06147547343778931
outer loop
vertex -0.38802940365474053 -0.16072704159333748 0
vertex -0.13011236700413045 -0.31411904105383753 1.2
vertex -0.3141190410538376 -0.13011236700413034 1.2
endloop
endfacet
facet normal 0 -0.9981085943751812 0.061475473437789335
outer loop
vertex -0.1607270415933376 -0.3880294036547405 0
vertex -0.05143265330986796 -0.3880294036547405 0
vertex -0.0416359574413217 -0.31411904105383753 1.2
endloop
endfacet
facet normal 0 -0.9981085943751811 0.06147547343778933
outer loop
vertex -0.1607270415933376 -0.3880294036547405 0
vertex -0.0416359574413217 -0.31411904105383753 1.2
vertex -0.13011236700413045 -0.31411904105383753 1.2
endloop
endfacet
facet normal 0 -0.9981085943751812 0.06147547343778928
outer loop
vertex 0.051432653309868154 -0.3880294036547404 0
vertex 0.16072704159333775 -0.3880294036547404 0
vertex 0.13011236700413056 -0.31411904105383753 1.2
endloop
endfacet
facet normal 0 -0.9981085943751811 0.06147547343778927
outer loop
vertex 0.051432653309868154 -0.3880294036547404 0
vertex 0.13011236700413056 -0.31411904105383753 1.2
vertex 0.041635957441321814 -0.31411904105383753 1.2
endloop
endfacet
facet normal 5.854654578239503e-16 -0.9981085943751811 0.06147547343778926
outer loop
vertex -0.04731804104507853 -0.35698705136236125 0.504
vertex 0.04731804104507869 -0.3569870513623612 0.504
vertex 0.041635957441321814 -0.31411904105383753 1.2
endloop
endfacet
facet normal 0 -0.9981085943751811 0.06147547343778935
outer loop
vertex -0.04731804104507853 -0.35698705136236125 0.504
vertex 0.041635957441321814 -0.31411904105383753 1.2
vertex -0.0416359574413217 -0.31411904105383753 1.2
endloop
endfacet
facet normal 0.5193766873761451 -0.5193766873761451 0.678598344545847
outer loop
vertex 0.13011236700413056 -0.31411904105383753 1.2
vertex 0.31411904105383753 -0.13011236700413054 1.2
vertex 0 0 1.54
endloop
endfacet
facet normal 0.7345095552677554 0 0.6785983445458469
outer loop
vertex 0.31411904105383753 -0.13011236700413054 1.2
vertex 0.31411904105383753 0.13011236700413054 1.2
vertex 0 0 1.54
endloop
endfacet
facet normal 0.5193766873761451 0.5193766873761451 0.678598344545847
outer loop
vertex 0.31411904105383753 0.13011236700413054 1.2
vertex 0.13011236700413056 0.31411904105383753 1.2
vertex 0 0 1.54
endloop
endfacet
facet normal 0 0.7345095552677554 0.6785983445458469
outer loop
vertex 0.13011236700413056 0.31411904105383753 1.2
vertex -0.1301123670041305 0.31411904105383753 1.2
vertex 0 0 1.54
endloop
endfacet
facet normal -0.5193766873761451 0.5193766873761452 0.678598344545847
outer loop
vertex -0.1301123670041305 0.31411904105383753 1.2
vertex -0.31411904105383753 0.13011236700413056 1.2
vertex 0 0 1.54
endloop
endfacet
facet normal -0.7345095552677554 1.5668560930098958e-16 0.6785983445458471
outer loop
vertex -0.31411904105383753 0.13011236700413056 1.2
vertex -0.3141190410538376 -0.13011236700413034 1.2
vertex 0 0 1.54
endloop
endfacet
facet normal -0.5193766873761452 -0.5193766873761451 0.6785983445458469
outer loop
vertex -0.3141190410538376 -0.13011236700413034 1.2
vertex -0.13011236700413045 -0.31411904105383753 1.2
vertex 0 0 1.54
endloop
endfacet
facet normal 0 -0.7345095552677554 0.6785983445458469
outer loop
vertex -0.13011236700413045 -0.31411904105383753 1.2
vertex 0.13011236700413056 -0.31411904105383753 1.2
vertex 0 0 1.54
endloop
endfacet
facet normal -0.2588190451025176 0 0.9659258262890692
outer loop
vertex 0 -0.33 1.011
vertex -0.03749999999999999 -0.33 1.000951905283833
vertex -0.03749999999999999 -0.43 1.000951905283833
endloop
endfacet
facet normal -0.2588190451025176 0 0.9659258262890692
outer loop
vertex 0 -0.33 1.011
vertex -0.03749999999999999 -0.43 1.000951905283833
vertex 0 -0.43 1.011
endloop
endfacet
facet normal 0 -1 0
outer loop
vertex 0 -0.43 0.9359999999999999
vertex 0 -0.43 1.011
vertex -0.03749999999999999 -0.43 1.000951905283833
endloop
endfacet
facet normal 0 1 0
outer loop
vertex 0 -0.33 0.9359999999999999
vertex -0.03749999999999999 -0.33 1.000951905283833
vertex 0 -0.33 1.011
endloop
endfacet
facet normal -0.7071067811865489 0 0.7071067811865461
outer loop
vertex -0.03749999999999999 -0.33 1.000951905283833
vertex -0.06495190528383289 -0.33 0.9734999999999999
vertex -0.06495190528383289 -0.43 0.9734999999999999
endloop
endfacet
facet normal -0.7071067811865489 0 0.7071067811865461
outer loop
vertex -0.03749999999999999 -0.33 1.000951905283833
vertex -0.06495190528383289 -0.43 0.9734999999999999
vertex -0.03749999999999999 -0.43 1.000951905283833
endloop
endfacet
facet normal 0 -1 0
outer loop
vertex 0 -0.43 0.9359999999999999
vertex -0.03749999999999999 -0.43 1.000951905283833
vertex -0.06495190528383289 -0.43 0.9734999999999999
endloop
endfacet
facet normal 0 1 0
outer loop
vertex 0 -0.33 0.9359999999999999
vertex -0.06495190528383289 -0.33 0.9734999999999999
vertex -0.03749999999999999 -0.33 1.000951905283833
endloop
endfacet
facet normal -0.9659258262890682 0 0.25881904510252096
outer loop
vertex -0.06495190528383289 -0.33 0.9734999999999999
vertex -0.075 -0.33 0.9359999999999999
vertex -0.075 -0.43 0.9359999999999999
endloop
endfacet
facet normal -0.9659258262890682 0 0.25881904510252096
outer loop
vertex -0.06495190528383289 -0.33 0.9734999999999999
vertex -0.075 -0.43 0.9359999999999999
vertex -0.06495190528383289 -0.43 0.9734999999999999
endloop
endfacet
facet normal 0 -1 0
outer loop
vertex 0 -0.43 0.9359999999999999
vertex -0.06495190528383289 -0.43 0.9734999999999999
vertex -0.075 -0.43 0.9359999999999999
endloop
endfacet
facet normal 0 1 0
outer loop
vertex 0 -0.33 0.9359999999999999
vertex -0.075 -0.33 0.9359999999999999
vertex -0.06495190528383289 -0.33 0.9734999999999999
endloop
endfacet
facet normal -0.9659258262890684 0 -0.2588190451025207
outer loop
vertex -0.075 -0.33 0.9359999999999999
vertex -0.0649519052838329 -0.33 0.8985
vertex -0.0649519052838329 -0.43 0.8985
endloop
endfacet
facet normal -0.9659258262890684 0 -0.2588190451025207
outer loop
vertex -0.075 -0.33 0.9359999999999999
vertex -0.0649519052838329 -0.43 0.8985
vertex -0.075 -0.43 0.9359999999999999
endloop
endfacet
facet normal 0 -1 0
outer loop
vertex 0 -0.43 0.9359999999999999
vertex -0.075 -0.43 0.9359999999999999
vertex -0.0649519052838329 -0.43 0.8985
endloop
endfacet
facet normal 0 1 0
outer loop
vertex 0 -0.33 0.9359999999999999
vertex -0.0649519052838329 -0.33 0.8985
vertex -0.075 -0.33 0.9359999999999999
endloop
endfacet
facet normal -0.7071067811865474 0 -0.7071067811865477
outer loop
vertex -0.0649519052838329 -0.33 0.8985
vertex -0.03749999999999999 -0.33 0.8710480947161671
vertex -0.03749999999999999 -0.43 0.8710480947161671
endloop
endfacet
facet normal -0.7071067811865474 0 -0.7071067811865477
outer loop
vertex -0.0649519052838329 -0.33 0.8985
vertex -0.03749999999999999 -0.43 0.8710480947161671
vertex -0.0649519052838329 -0.43 0.8985
endloop
endfacet
facet normal 0 -1 0
outer loop
vertex 0 -0.43 0.9359999999999999
vertex -0.0649519052838329 -0.43 0.8985
vertex -0.03749999999999999 -0.43 0.8710480947161671
endloop
endfacet
facet normal 0 1 0
outer loop
vertex 0 -0.33 0.9359999999999999
vertex -0.03749999999999999 -0.33 0.8710480947161671
vertex -0.0649519052838329 -0.33 0.8985
endloop
endfacet
facet normal -0.25881904510252024 0 -0.9659258262890684
outer loop
vertex -0.03749999999999999 -0.33 0.8710480947161671
vertex -9.184850993605149e-18 -0.33 0.861
vertex -9.184850993605149e-18 -0.43 0.861
endloop
endfacet
facet normal -0.25881904510252024 0 -0.9659258262890684
outer loop
vertex -0.03749999999999999 -0.33 0.8710480947161671
vertex -9.184850993605149e-18 -0.43 0.861
vertex -0.03749999999999999 -0.43 0.8710480947161671
endloop
endfacet
facet normal 0 -1 0
outer loop
vertex 0 -0.43 0.9359999999999999
vertex -0.03749999999999999 -0.43 0.8710480947161671
vertex -9.184850993605149e-18 -0.43 0.861
endloop
endfacet
facet normal 0 1 0
outer loop
vertex 0 -0.33 0.9359999999999999
vertex -9.184850993605149e-18 -0.33 0.861
vertex -0.03749999999999999 -0.33 0.8710480947161671
endloop
endfacet
facet normal 0.25881904510252024 0 -0.9659258262890684
outer loop
vertex -9.184850993605149e-18 -0.33 0.861
vertex 0.03749999999999998 -0.33 0.8710480947161671
vertex 0.03749999999999998 -0.43 0.8710480947161671
endloop
endfacet
facet normal 0.25881904510252024 0 -0.9659258262890684
outer loop
vertex -9.184850993605149e-18 -0.33 0.861
vertex 0.03749999999999998 -0.43 0.8710480947161671
vertex -9.184850993605149e-18 -0.43 0.861
endloop
endfacet
facet normal 0 -1 0
outer loop
vertex 0 -0.43 0.9359999999999999
vertex -9.184850993605149e-18 -0.43 0.861
vertex 0.03749999999999998 -0.43 0.8710480947161671
endloop
endfacet
facet normal 0 1 0
outer loop
vertex 0 -0.33 0.9359999999999999
vertex 0.03749999999999998 -0.33 0.8710480947161671
vertex -9.184850993605149e-18 -0.33 0.861
endloop
endfacet
facet normal 0.7071067811865461 0 -0.707106781186549
outer loop
vertex 0.03749999999999998 -0.33 0.8710480947161671
vertex 0.06495190528383288 -0.33 0.8984999999999999
vertex 0.06495190528383288 -0.43 0.8984999999999999
endloop
endfacet
facet normal 0.7071067811865461 0 -0.707106781186549
outer loop
vertex 0.03749999999999998 -0.33 0.8710480947161671
vertex 0.06495190528383288 -0.43 0.8984999999999999
vertex 0.03749999999999998 -0.43 0.8710480947161671
endloop
endfacet
facet normal 0 -1 0
outer loop
vertex 0 -0.43 0.9359999999999999
vertex 0.03749999999999998 -0.43 0.8710480947161671
vertex 0.06495190528383288 -0.43 0.8984999999999999
endloop
endfacet
facet normal 0 1 0
outer loop
vertex 0 -0.33 0.9359999999999999
vertex 0.06495190528383288 -0.33 0.8984999999999999
vertex 0.03749999999999998 -0.33 0.8710480947161671
endloop
endfacet
facet normal 0.9659258262890684 0 -0.2588190451025207
outer loop
vertex 0.06495190528383288 -0.33 0.8984999999999999
vertex 0.075 -0.33 0.9359999999999999
vertex 0.075 -0.43 0.9359999999999999
endloop
endfacet
facet normal 0.9659258262890684 0 -0.2588190451025207
outer loop
vertex 0.06495190528383288 -0.33 0.8984999999999999
vertex 0.075 -0.43 0.9359999999999999
vertex 0.06495190528383288 -0.43 0.8984999999999999
endloop
endfacet
facet normal 0 -1 0
outer loop
vertex 0 -0.43 0.9359999999999999
vertex 0.06495190528383288 -0.43 0.8984999999999999
vertex 0.075 -0.43 0.9359999999999999
endloop
endfacet
facet normal 0 1 0
outer loop
vertex 0 -0.33 0.9359999999999999
vertex 0.075 -0.33 0.9359999999999999
vertex 0.06495190528383288 -0.33 0.8984999999999999
endloop
endfacet
facet normal 0.9659258262890682 0 0.25881904510252096
outer loop
vertex 0.075 -0.33 0.9359999999999999
vertex 0.06495190528383289 -0.33 0.9734999999999999
vertex 0.06495190528383289 -0.43 0.9734999999999999
endloop
endfacet
facet normal 0.9659258262890682 0 0.25881904510252096
outer loop
vertex 0.075 -0.33 0.9359999999999999
vertex 0.06495190528383289 -0.43 0.9734999999999999
vertex 0.075 -0.43 0.9359999999999999
endloop
endfacet
facet normal 0 -1 0
outer loop
vertex 0 -0.43 0.9359999999999999
vertex 0.075 -0.43 0.9359999999999999
vertex 0.06495190528383289 -0.43 0.9734999999999999
endloop
endfacet
facet normal 0 1 0
outer loop
vertex 0 -0.33 0.9359999999999999
vertex 0.06495190528383289 -0.33 0.9734999999999999
vertex 0.075 -0.33 0.9359999999999999
endloop
endfacet
facet normal 0.7071067811865495 0 0.7071067811865456
outer loop
vertex 0.06495190528383289 -0.33 0.9734999999999999
vertex 0.03750000000000003 -0.33 1.000951905283833
vertex 0.03750000000000003 -0.43 1.000951905283833
endloop
endfacet
facet normal 0.7071067811865495 0 0.7071067811865456
outer loop
vertex 0.06495190528383289 -0.33 0.9734999999999999
vertex 0.03750000000000003 -0.43 1.000951905283833
vertex 0.06495190528383289 -0.43 0.9734999999999999
endloop
endfacet
facet normal 0 -1 0
outer loop
vertex 0 -0.43 0.9359999999999999
vertex 0.06495190528383289 -0.43 0.9734999999999999
vertex 0.03750000000000003 -0.43 1.000951905283833
endloop
endfacet
facet normal 0 1 0
outer loop
vertex 0 -0.33 0.9359999999999999
vertex 0.03750000000000003 -0.33 1.000951905283833
vertex 0.06495190528383289 -0.33 0.9734999999999999
endloop
endfacet
facet normal 0.2588190451025173 0 0.9659258262890692
outer loop
vertex 0.03750000000000003 -0.33 1.000951905283833
vertex 0 -0.33 1.011
vertex 0 -0.43 1.011
endloop
endfacet
facet normal 0.2588190451025173 0 0.9659258262890692
outer loop
vertex 0.03750000000000003 -0.33 1.000951905283833
vertex 0 -0.43 1.011
vertex 0.03750000000000003 -0.43 1.000951905283833
endloop
endfacet
facet normal 0 -1 0
outer loop
vertex 0 -0.43 0.9359999999999999
vertex 0.03750000000000003 -0.43 1.000951905283833
vertex 0 -0.43 1.011
endloop
endfacet
facet normal 0 1 0
outer loop
vertex 0 -0.33 0.9359999999999999
vertex 0 -0.33 1.011
vertex 0.03750000000000003 -0.33 1.000951905283833
endloop
endfacet
facet normal -0.25881904510252285 0 -0.9659258262890678
outer loop
vertex 0 -0.4 0.8859999999999999
vertex -0.024999999999999998 -0.4 0.892698729810778
vertex -0.024999999999999998 0.04000000000000001 0.892698729810778
endloop
endfacet
facet normal -0.25881904510252285 0 -0.9659258262890678
outer loop
vertex 0 -0.4 0.8859999999999999
vertex -0.024999999999999998 0.04000000000000001 0.892698729810778
vertex 0 0.04000000000000001 0.8859999999999999
endloop
endfacet
facet normal 0 1 0
outer loop
vertex 0 0.04000000000000001 0.9359999999999999
vertex 0 0.04000000000000001 0.8859999999999999
vertex -0.024999999999999998 0.04000000000000001 0.892698729810778
endloop
endfacet
facet normal 0 -1 0
outer loop
vertex 0 -0.4 0.9359999999999999
vertex -0.024999999999999998 -0.4 0.892698729810778
vertex 0 -0.4 0.8859999999999999
endloop
endfacet
facet normal -0.7071067811865467 0 -0.7071067811865482
outer loop
vertex -0.024999999999999998 -0.4 0.892698729810778
vertex -0.04330127018922193 -0.4 0.9109999999999999
vertex -0.04330127018922193 0.04000000000000001 0.9109999999999999
endloop
endfacet
facet normal -0.7071067811865467 0 -0.7071067811865482
outer loop
vertex -0.024999999999999998 -0.4 0.892698729810778
vertex -0.04330127018922193 0.04000000000000001 0.9109999999999999
vertex -0.024999999999999998 0.04000000000000001 0.892698729810778
endloop
endfacet
facet normal 0 1 0
outer loop
vertex 0 0.04000000000000001 0.9359999999999999
vertex -0.024999999999999998 0.04000000000000001 0.892698729810778
vertex -0.04330127018922193 0.04000000000000001 0.9109999999999999
endloop
endfacet
facet normal 0 -1 0
outer loop
vertex 0 -0.4 0.9359999999999999
vertex -0.04330127018922193 -0.4 0.9109999999999999
vertex -0.024999999999999998 -0.4 0.892698729810778
endloop
endfacet
facet normal -0.9659258262890684 0 -0.25881904510252063
outer loop
vertex -0.04330127018922193 -0.4 0.9109999999999999
vertex -0.05 -0.4 0.9359999999999999
vertex -0.05 0.04000000000000001 0.9359999999999999
endloop
endfacet
facet normal -0.9659258262890684 0 -0.25881904510252063
outer loop
vertex -0.04330127018922193 -0.4 0.9109999999999999
vertex -0.05 0.04000000000000001 0.9359999999999999
vertex -0.04330127018922193 0.04000000000000001 0.9109999999999999
endloop
endfacet
facet normal 0 1 0
outer loop
vertex 0 0.04000000000000001 0.9359999999999999
vertex -0.04330127018922193 0.04000000000000001 0.9109999999999999
vertex -0.05 0.04000000000000001 0.9359999999999999
endloop
endfacet
facet normal 0 -1 0
outer loop
vertex 0 -0.4 0.9359999999999999
vertex -0.05 -0.4 0.9359999999999999
vertex -0.04330127018922193 -0.4 0.9109999999999999
endloop
endfacet
facet normal -0.9659258262890684 0 0.2588190451025204
outer loop
vertex -0.05 -0.4 0.9359999999999999
vertex -0.04330127018922194 -0.4 0.961
vertex -0.04330127018922194 0.04000000000000001 0.961
endloop
endfacet
facet normal -0.9659258262890684 0 0.2588190451025204
outer loop
vertex -0.05 -0.4 0.9359999999999999
vertex -0.04330127018922194 0.04000000000000001 0.961
vertex -0.05 0.04000000000000001 0.9359999999999999
endloop
endfacet
facet normal 0 1 0
outer loop
vertex 0 0.04000000000000001 0.9359999999999999
vertex -0.05 0.04000000000000001 0.9359999999999999
vertex -0.04330127018922194 0.04000000000000001 0.961
endloop
endfacet
facet normal 0 -1 0
outer loop
vertex 0 -0.4 0.9359999999999999
vertex -0.04330127018922194 -0.4 0.961
vertex -0.05 -0.4 0.9359999999999999
endloop
endfacet
facet normal -0.7071067811865466 0 0.7071067811865485
outer loop
vertex -0.04330127018922194 -0.4 0.961
vertex -0.024999999999999998 -0.4 0.9793012701892219
vertex -0.024999999999999998 0.04000000000000001 0.9793012701892219
endloop
endfacet
facet normal -0.7071067811865466 0 0.7071067811865485
outer loop
vertex -0.04330127018922194 -0.4 0.961
vertex -0.024999999999999998 0.04000000000000001 0.9793012701892219
vertex -0.04330127018922194 0.04000000000000001 0.961
endloop
endfacet
facet normal 0 1 0
outer loop
vertex 0 0.04000000000000001 0.9359999999999999
vertex -0.04330127018922194 0.04000000000000001 0.961
vertex -0.024999999999999998 0.04000000000000001 0.9793012701892219
endloop
endfacet
facet normal 0 -1 0
outer loop
vertex 0 -0.4 0.9359999999999999
vertex -0.024999999999999998 -0.4 0.9793012701892219
vertex -0.04330127018922194 -0.4 0.961
endloop
endfacet
facet normal -0.25881904510252296 0 0.9659258262890678
outer loop
vertex -0.024999999999999998 -0.4 0.9793012701892219
vertex -6.123233995736766e-18 -0.4 0.986
vertex -6.123233995736766e-18 0.04000000000000001 0.986
endloop
endfacet
facet normal -0.25881904510252296 0 0.9659258262890678
outer loop
vertex -0.024999999999999998 -0.4 0.9793012701892219
vertex -6.123233995736766e-18 0.04000000000000001 0.986
vertex -0.024999999999999998 0.04000000000000001 0.9793012701892219
endloop
endfacet
facet normal 0 1 0
outer loop
vertex 0 0.04000000000000001 0.9359999999999999
vertex -0.024999999999999998 0.04000000000000001 0.9793012701892219
vertex -6.123233995736766e-18 0.04000000000000001 0.986
endloop
endfacet
facet normal 0 -1 0
outer loop
vertex 0 -0.4 0.9359999999999999
vertex -6.123233995736766e-18 -0.4 0.986
vertex -0.024999999999999998 -0.4 0.9793012701892219
endloop
endfacet
facet normal 0.2588190451025229 0 0.9659258262890678
outer loop
vertex -6.123233995736766e-18 -0.4 0.986
vertex 0.024999999999999988 -0.4 0.9793012701892219
vertex 0.024999999999999988 0.04000000000000001 0.9793012701892219
endloop
endfacet
facet normal 0.2588190451025229 0 0.9659258262890678
outer loop
vertex -6.123233995736766e-18 -0.4 0.986
vertex 0.024999999999999988 0.04000000000000001 0.9793012701892219
vertex -6.123233995736766e-18 0.04000000000000001 0.986
endloop
endfacet
facet normal 0 1 0
outer loop
vertex 0 0.04000000000000001 0.9359999999999999
vertex -6.123233995736766e-18 0.04000000000000001 0.986
vertex 0.024999999999999988 0.04000000000000001 0.9793012701892219
endloop
endfacet
facet normal 0 -1 0
outer loop
vertex 0 -0.4 0.9359999999999999
vertex 0.024999999999999988 -0.4 0.9793012701892219
vertex -6.123233995736766e-18 -0.4 0.986
endloop
endfacet
facet normal 0.7071067811865467 0 0.7071067811865483
outer loop
vertex 0.024999999999999988 -0.4 0.9793012701892219
vertex 0.043301270189221926 -0.4 0.961
vertex 0.043301270189221926 0.04000000000000001 0.961
endloop
endfacet
facet normal 0.7071067811865467 0 0.7071067811865483
outer loop
vertex 0.024999999999999988 -0.4 0.9793012701892219
vertex 0.043301270189221926 0.04000000000000001 0.961
vertex 0.024999999999999988 0.04000000000000001 0.9793012701892219
endloop
endfacet
facet normal 0 1 0
outer loop
vertex 0 0.04000000000000001 0.9359999999999999
vertex 0.024999999999999988 0.04000000000000001 0.9793012701892219
vertex 0.043301270189221926 0.04000000000000001 0.961
endloop
endfacet
facet normal 0 -1 0
outer loop
vertex 0 -0.4 0.9359999999999999
vertex 0.043301270189221926 -0.4 0.961
vertex 0.024999999999999988 -0.4 0.9793012701892219
endloop
endfacet
facet normal 0.9659258262890682 0 0.2588190451025209
outer loop
vertex 0.043301270189221926 -0.4 0.961
vertex 0.05 -0.4 0.9359999999999999
vertex 0.05 0.04000000000000001 0.9359999999999999
endloop
endfacet
facet normal 0.9659258262890682 0 0.2588190451025209
outer loop
vertex 0.043301270189221926 -0.4 0.961
vertex 0.05 0.04000000000000001 0.9359999999999999
vertex 0.043301270189221926 0.04000000000000001 0.961
endloop
endfacet
facet normal 0 1 0
outer loop
vertex 0 0.04000000000000001 0.9359999999999999
vertex 0.043301270189221926 0.04000000000000001 0.961
vertex 0.05 0.04000000000000001 0.9359999999999999
endloop
endfacet
facet normal 0 -1 0
outer loop
vertex 0 -0.4 0.9359999999999999
vertex 0.05 -0.4 0.9359999999999999
vertex 0.043301270189221926 -0.4 0.961
endloop
endfacet
facet normal 0.9659258262890684 0 -0.25881904510252063
outer loop
vertex 0.05 -0.4 0.9359999999999999
vertex 0.04330127018922193 -0.4 0.9109999999999999
vertex 0.04330127018922193 0.04000000000000001 0.9109999999999999
endloop
endfacet
facet normal 0.9659258262890684 0 -0.25881904510252063
outer loop
vertex 0.05 -0.4 0.9359999999999999
vertex 0.04330127018922193 0.04000000000000001 0.9109999999999999
vertex 0.05 0.04000000000000001 0.9359999999999999
endloop
endfacet
facet normal 0 1 0
outer loop
vertex 0 0.04000000000000001 0.9359999999999999
vertex 0.05 0.04000000000000001 0.9359999999999999
vertex 0.04330127018922193 0.04000000000000001 0.9109999999999999
endloop
endfacet
facet normal 0 -1 0
outer loop
vertex 0 -0.4 0.9359999999999999
vertex 0.04330127018922193 -0.4 0.9109999999999999
vertex 0.05 -0.4 0.9359999999999999
endloop
endfacet
facet normal 0.7071067811865472 0 -0.7071067811865479
outer loop
vertex 0.04330127018922193 -0.4 0.9109999999999999
vertex 0.025000000000000022 -0.4 0.892698729810778
vertex 0.025000000000000022 0.04000000000000001 0.892698729810778
endloop
endfacet
facet normal 0.7071067811865472 0 -0.7071067811865479
outer loop
vertex 0.04330127018922193 -0.4 0.9109999999999999
vertex 0.025000000000000022 0.04000000000000001 0.892698729810778
vertex 0.04330127018922193 0.04000000000000001 0.9109999999999999
endloop
endfacet
facet normal 0 1 0
outer loop
vertex 0 0.04000000000000001 0.9359999999999999
vertex 0.04330127018922193 0.04000000000000001 0.9109999999999999
vertex 0.025000000000000022 0.04000000000000001 0.892698729810778
endloop
endfacet
facet normal 0 -1 0
outer loop
vertex 0 -0.4 0.9359999999999999
vertex 0.025000000000000022 -0.4 0.892698729810778
vertex 0.04330127018922193 -0.4 0.9109999999999999
endloop
endfacet
facet normal 0.2588190451025226 0 -0.9659258262890678
outer loop
vertex 0.025000000000000022 -0.4 0.892698729810778
vertex 0 -0.4 0.8859999999999999
vertex 0 0.04000000000000001 0.8859999999999999
endloop
endfacet
facet normal 0.2588190451025226 0 -0.9659258262890678
outer loop
vertex 0.025000000000000022 -0.4 0.892698729810778
vertex 0 0.04000000000000001 0.8859999999999999
vertex 0.025000000000000022 0.04000000000000001 0.892698729810778
endloop
endfacet
facet normal 0 1 0
outer loop
vertex 0 0.04000000000000001 0.9359999999999999
vertex 0.025000000000000022 0.04000000000000001 0.892698729810778
vertex 0 0.04000000000000001 0.8859999999999999
endloop
endfacet
facet normal 0 -1 0
outer loop
vertex 0 -0.4 0.9359999999999999
vertex 0 -0.4 0.8859999999999999
vertex 0.025000000000000022 -0.4 0.892698729810778
endloop
endfacet
facet normal 0.7071067811865486 7.359432928386452e-15 0.7071067811865465
outer loop
vertex 0.4589565773872508 -0.41124668034159645 1.2972872887891445
vertex 0.3612872887891444 -0.34875331965840356 1.3949565773872505
vertex 0.3569993778333208 -0.36990107696904656 1.3992444883430744
endloop
endfacet
facet normal 0.7071067811865486 7.014459509868337e-15 0.7071067811865465
outer loop
vertex 0.4589565773872508 -0.41124668034159645 1.2972872887891445
vertex 0.4632444883430744 -0.39009892303095345 1.2929993778333206
vertex 0.3612872887891444 -0.34875331965840356 1.3949565773872505
endloop
endfacet
facet normal -0.7071067811865491 -5.256737805990318e-15 -0.707106781186546
outer loop
vertex 0.09126105117024602 -0.41124668034159645 0.9295917625721397
vertex -0.010696148383683933 -0.36990107696904656 1.0315489621260698
vertex -0.006408237427860288 -0.34875331965840356 1.027261051170246
endloop
endfacet
facet normal -0.707106781186547 1.6427305643719788e-15 -0.707106781186548
outer loop
vertex 0.09126105117024602 -0.41124668034159645 0.9295917625721397
vertex -0.006408237427860288 -0.34875331965840356 1.027261051170246
vertex 0.09554896212606967 -0.39009892303095345 0.9253038516163161
endloop
endfacet
facet normal -0.6797146636928656 0.2756373558170027 0.679714663692866
outer loop
vertex -0.010696148383683933 -0.36990107696904656 1.0315489621260698
vertex 0.3569993778333208 -0.36990107696904656 1.3992444883430744
vertex 0.3612872887891444 -0.34875331965840356 1.3949565773872505
endloop
endfacet
facet normal -0.6797146636928653 0.2756373558170043 0.6797146636928655
outer loop
vertex -0.010696148383683933 -0.36990107696904656 1.0315489621260698
vertex 0.3612872887891444 -0.34875331965840356 1.3949565773872505
vertex -0.006408237427860288 -0.34875331965840356 1.027261051170246
endloop
endfacet
facet normal 0.6797146636928657 -0.27563735581700255 -0.6797146636928658
outer loop
vertex 0.09126105117024602 -0.41124668034159645 0.9295917625721397
vertex 0.4632444883430744 -0.39009892303095345 1.2929993778333206
vertex 0.4589565773872508 -0.41124668034159645 1.2972872887891445
endloop
endfacet
facet normal 0.6797146636928666 -0.2756373558169979 -0.679714663692867
outer loop
vertex 0.09126105117024602 -0.41124668034159645 0.9295917625721397
vertex 0.09554896212606967 -0.39009892303095345 0.9253038516163161
vertex 0.4632444883430744 -0.39009892303095345 1.2929993778333206
endloop
endfacet
facet normal 0.1949050434465294 0.961261695938319 -0.1949050434465295
outer loop
vertex 0.09554896212606967 -0.39009892303095345 0.9253038516163161
vertex 0.3612872887891444 -0.34875331965840356 1.3949565773872505
vertex 0.4632444883430744 -0.39009892303095345 1.2929993778333206
endloop
endfacet
facet normal 0.19490504344652948 0.961261695938319 -0.19490504344652956
outer loop
vertex 0.09554896212606967 -0.39009892303095345 0.9253038516163161
vertex -0.006408237427860288 -0.34875331965840356 1.027261051170246
vertex 0.3612872887891444 -0.34875331965840356 1.3949565773872505
endloop
endfacet
facet normal -0.19490504344652945 -0.961261695938319 0.19490504344652948
outer loop
vertex 0.09126105117024602 -0.41124668034159645 0.9295917625721397
vertex 0.4589565773872508 -0.41124668034159645 1.2972872887891445
vertex 0.3569993778333208 -0.36990107696904656 1.3992444883430744
endloop
endfacet
facet normal -0.19490504344652923 -0.9612616959383189 0.19490504344652937
outer loop
vertex 0.09126105117024602 -0.41124668034159645 0.9295917625721397
vertex 0.3569993778333208 -0.36990107696904656 1.3992444883430744
vertex -0.010696148383683933 -0.36990107696904656 1.0315489621260698
endloop
endfacet
facet normal -0.7071067811865486 -7.359432928386452e-15 0.7071067811865465
outer loop
vertex -0.36128728878914435 -0.41124668034159645 1.3949565773872505
vertex -0.45895657738725076 -0.34875331965840356 1.2972872887891445
vertex -0.46324448834307436 -0.36990107696904656 1.2929993778333206
endloop
endfacet
facet normal -0.7071067811865486 -7.014459509868337e-15 0.7071067811865465
outer loop
vertex -0.36128728878914435 -0.41124668034159645 1.3949565773872505
vertex -0.35699937783332075 -0.39009892303095345 1.3992444883430744
vertex -0.45895657738725076 -0.34875331965840356 1.2972872887891445
endloop
endfacet
facet normal 0.7071067811865468 -1.5770213417970994e-15 -0.7071067811865481
outer loop
vertex 0.006408237427860322 -0.41124668034159645 1.027261051170246
vertex -0.09554896212606964 -0.36990107696904656 0.9253038516163161
vertex -0.091261051170246 -0.34875331965840356 0.9295917625721397
endloop
endfacet
facet normal 0.707106781186549 4.97747361004708e-15 -0.707106781186546
outer loop
vertex 0.006408237427860322 -0.41124668034159645 1.027261051170246
vertex -0.091261051170246 -0.34875331965840356 0.9295917625721397
vertex 0.010696148383683969 -0.39009892303095345 1.0315489621260698
endloop
endfacet
facet normal -0.6797146636928656 0.2756373558170027 -0.679714663692866
outer loop
vertex -0.09554896212606964 -0.36990107696904656 0.9253038516163161
vertex -0.46324448834307436 -0.36990107696904656 1.2929993778333206
vertex -0.45895657738725076 -0.34875331965840356 1.2972872887891445
endloop
endfacet
facet normal -0.6797146636928667 0.27563735581699783 -0.6797146636928668
outer loop
vertex -0.09554896212606964 -0.36990107696904656 0.9253038516163161
vertex -0.45895657738725076 -0.34875331965840356 1.2972872887891445
vertex -0.091261051170246 -0.34875331965840356 0.9295917625721397
endloop
endfacet
facet normal 0.6797146636928656 -0.2756373558170027 0.6797146636928658
outer loop
vertex 0.006408237427860322 -0.41124668034159645 1.027261051170246
vertex -0.35699937783332075 -0.39009892303095345 1.3992444883430744
vertex -0.36128728878914435 -0.41124668034159645 1.3949565773872505
endloop
endfacet
facet normal 0.6797146636928652 -0.2756373558170044 0.6797146636928656
outer loop
vertex 0.006408237427860322 -0.41124668034159645 1.027261051170246
vertex 0.010696148383683969 -0.39009892303095345 1.0315489621260698
vertex -0.35699937783332075 -0.39009892303095345 1.3992444883430744
endloop
endfacet
facet normal 0.19490504344652937 0.961261695938319 0.19490504344652948
outer loop
vertex 0.010696148383683969 -0.39009892303095345 1.0315489621260698
vertex -0.45895657738725076 -0.34875331965840356 1.2972872887891445
vertex -0.35699937783332075 -0.39009892303095345 1.3992444883430744
endloop
endfacet
facet normal 0.1949050434465293 0.9612616959383189 0.1949050434465293
outer loop
vertex 0.010696148383683969 -0.39009892303095345 1.0315489621260698
vertex -0.091261051170246 -0.34875331965840356 0.9295917625721397
vertex -0.45895657738725076 -0.34875331965840356 1.2972872887891445
endloop
endfacet
facet normal -0.1949050434465294 -0.961261695938319 -0.1949050434465295
outer loop
vertex 0.006408237427860322 -0.41124668034159645 1.027261051170246
vertex -0.36128728878914435 -0.41124668034159645 1.3949565773872505
vertex -0.46324448834307436 -0.36990107696904656 1.2929993778333206
endloop
endfacet
facet normal -0.19490504344652945 -0.961261695938319 -0.19490504344652954
outer loop
vertex 0.006408237427860322 -0.41124668034159645 1.027261051170246
vertex -0.46324448834307436 -0.36990107696904656 1.2929993778333206
vertex -0.09554896212606964 -0.36990107696904656 0.9253038516163161
endloop
endfacet
facet normal -0.7071067811865478 0 -0.7071067811865472
outer loop
vertex -0.4589565773872508 -0.41124668034159645 0.5747127112108555
vertex -0.3612872887891445 -0.34875331965840356 0.4770434226127492
vertex -0.3569993778333209 -0.36990107696904656 0.4727555116569256
endloop
endfacet
facet normal -0.7071067811865477 -6.570922257487917e-17 -0.7071067811865474
outer loop
vertex -0.4589565773872508 -0.41124668034159645 0.5747127112108555
vertex -0.4632444883430744 -0.39009892303095345 0.5790006221666791
vertex -0.3612872887891445 -0.34875331965840356 0.4770434226127492
endloop
endfacet
facet normal 0.707106781186547 1.5770213417970998e-15 0.707106781186548
outer loop
vertex -0.09126105117024602 -0.41124668034159645 0.9424082374278603
vertex 0.010696148383683933 -0.36990107696904656 0.8404510378739304
vertex 0.006408237427860288 -0.34875331965840356 0.844738948829754
endloop
endfacet
facet normal 0.707106781186547 1.6427305643719788e-15 0.707106781186548
outer loop
vertex -0.09126105117024602 -0.41124668034159645 0.9424082374278603
vertex 0.006408237427860288 -0.34875331965840356 0.844738948829754
vertex -0.09554896212606967 -0.39009892303095345 0.9466961483836839
endloop
endfacet
facet normal 0.6797146636928666 0.27563735581699805 -0.6797146636928667
outer loop
vertex 0.010696148383683933 -0.36990107696904656 0.8404510378739304
vertex -0.3569993778333209 -0.36990107696904656 0.4727555116569256
vertex -0.3612872887891445 -0.34875331965840356 0.4770434226127492
endloop
endfacet
facet normal 0.6797146636928668 0.2756373558169978 -0.6797146636928667
outer loop
vertex 0.010696148383683933 -0.36990107696904656 0.8404510378739304
vertex -0.3612872887891445 -0.34875331965840356 0.4770434226127492
vertex 0.006408237427860288 -0.34875331965840356 0.844738948829754
endloop
endfacet
facet normal -0.679714663692867 -0.27563735581699583 0.6797146636928671
outer loop
vertex -0.09126105117024602 -0.41124668034159645 0.9424082374278603
vertex -0.4632444883430744 -0.39009892303095345 0.5790006221666791
vertex -0.4589565773872508 -0.41124668034159645 0.5747127112108555
endloop
endfacet
facet normal -0.6797146636928666 -0.27563735581699783 0.6797146636928667
outer loop
vertex -0.09126105117024602 -0.41124668034159645 0.9424082374278603
vertex -0.09554896212606967 -0.39009892303095345 0.9466961483836839
vertex -0.4632444883430744 -0.39009892303095345 0.5790006221666791
endloop
endfacet
facet normal -0.19490504344652948 0.961261695938319 0.19490504344652948
outer loop
vertex -0.09554896212606967 -0.39009892303095345 0.9466961483836839
vertex -0.3612872887891445 -0.34875331965840356 0.4770434226127492
vertex -0.4632444883430744 -0.39009892303095345 0.5790006221666791
endloop
endfacet
facet normal -0.19490504344652954 0.961261695938319 0.19490504344652954
outer loop
vertex -0.09554896212606967 -0.39009892303095345 0.9466961483836839
vertex 0.006408237427860288 -0.34875331965840356 0.844738948829754
vertex -0.3612872887891445 -0.34875331965840356 0.4770434226127492
endloop
endfacet
facet normal 0.19490504344652948 -0.961261695938319 -0.1949050434465295
outer loop
vertex -0.09126105117024602 -0.41124668034159645 0.9424082374278603
vertex -0.4589565773872508 -0.41124668034159645 0.5747127112108555
vertex -0.3569993778333209 -0.36990107696904656 0.4727555116569256
endloop
endfacet
facet normal 0.1949050434465295 -0.961261695938319 -0.19490504344652956
outer loop
vertex -0.09126105117024602 -0.41124668034159645 0.9424082374278603
vertex -0.3569993778333209 -0.36990107696904656 0.4727555116569256
vertex 0.010696148383683933 -0.36990107696904656 0.8404510378739304
endloop
endfacet
facet normal 0.7071067811865471 -5.256737805990334e-16 -0.7071067811865479
outer loop
vertex 0.36128728878914423 -0.41124668034159645 0.4770434226127491
vertex 0.45895657738725065 -0.34875331965840356 0.5747127112108554
vertex 0.46324448834307425 -0.36990107696904656 0.579000622166679
endloop
endfacet
facet normal 0.7071067811865471 -1.478457507934781e-16 -0.7071067811865479
outer loop
vertex 0.36128728878914423 -0.41124668034159645 0.4770434226127491
vertex 0.35699937783332064 -0.39009892303095345 0.47275551165692553
vertex 0.45895657738725065 -0.34875331965840356 0.5747127112108554
endloop
endfacet
facet normal -0.7071067811865468 -1.5770213417970994e-15 0.7071067811865481
outer loop
vertex -0.006408237427860328 -0.41124668034159645 0.8447389488297539
vertex 0.09554896212606966 -0.36990107696904656 0.9466961483836838
vertex 0.09126105117024601 -0.34875331965840356 0.9424082374278602
endloop
endfacet
facet normal -0.7071067811865468 -1.6098759530845388e-15 0.7071067811865481
outer loop
vertex -0.006408237427860328 -0.41124668034159645 0.8447389488297539
vertex 0.09126105117024601 -0.34875331965840356 0.9424082374278602
vertex -0.010696148383683976 -0.39009892303095345 0.8404510378739303
endloop
endfacet
facet normal 0.6797146636928674 0.27563735581699594 0.679714663692867
outer loop
vertex 0.09554896212606966 -0.36990107696904656 0.9466961483836838
vertex 0.46324448834307425 -0.36990107696904656 0.579000622166679
vertex 0.45895657738725065 -0.34875331965840356 0.5747127112108554
endloop
endfacet
facet normal 0.6797146636928668 0.27563735581699783 0.6797146636928666
outer loop
vertex 0.09554896212606966 -0.36990107696904656 0.9466961483836838
vertex 0.45895657738725065 -0.34875331965840356 0.5747127112108554
vertex 0.09126105117024601 -0.34875331965840356 0.9424082374278602
endloop
endfacet
facet normal -0.6797146636928674 -0.27563735581699594 -0.679714663692867
outer loop
vertex -0.006408237427860328 -0.41124668034159645 0.8447389488297539
vertex 0.35699937783332064 -0.39009892303095345 0.47275551165692553
vertex 0.36128728878914423 -0.41124668034159645 0.4770434226127491
endloop
endfacet
facet normal -0.6797146636928668 -0.27563735581699783 -0.6797146636928666
outer loop
vertex -0.006408237427860328 -0.41124668034159645 0.8447389488297539
vertex -0.010696148383683976 -0.39009892303095345 0.8404510378739303
vertex 0.35699937783332064 -0.39009892303095345 0.47275551165692553
endloop
endfacet
facet normal -0.19490504344652948 0.961261695938319 -0.19490504344652942
outer loop
vertex -0.010696148383683976 -0.39009892303095345 0.8404510378739303
vertex 0.45895657738725065 -0.34875331965840356 0.5747127112108554
vertex 0.35699937783332064 -0.39009892303095345 0.47275551165692553
endloop
endfacet
facet normal -0.1949050434465295 0.961261695938319 -0.1949050434465295
outer loop
vertex -0.010696148383683976 -0.39009892303095345 0.8404510378739303
vertex 0.09126105117024601 -0.34875331965840356 0.9424082374278602
vertex 0.45895657738725065 -0.34875331965840356 0.5747127112108554
endloop
endfacet
facet normal 0.1949050434465295 -0.961261695938319 0.19490504344652942
outer loop
vertex -0.006408237427860328 -0.41124668034159645 0.8447389488297539
vertex 0.36128728878914423 -0.41124668034159645 0.4770434226127491
vertex 0.46324448834307425 -0.36990107696904656 0.579000622166679
endloop
endfacet
facet normal 0.1949050434465295 -0.961261695938319 0.19490504344652945
outer loop
vertex -0.006408237427860328 -0.41124668034159645 0.8447389488297539
vertex 0.46324448834307425 -0.36990107696904656 0.579000622166679
vertex 0.09554896212606966 -0.36990107696904656 0.9466961483836838
endloop
endfacet
endsolid windmill
