solid church-kirigami-flat
facet normal 0 0 1
outer loop
vertex 53.60711453266001 39.613479550601255 1.6
vertex 31.066821093366976 34.442471055704615 1.6
vertex 47.972041172836754 36.38231196053854 1.6
endloop
endfacet
facet normal 0 0 -1
outer loop
vertex 53.60711453266001 39.613479550601255 0
vertex 47.972041172836754 36.38231196053854 0
vertex 31.066821093366976 34.442471055704615 0
endloop
endfacet
facet normal 0 0 1
outer loop
vertex 53.60711453266001 39.613479550601255 1.6
vertex 47.972041172836754 36.38231196053854 1.6
vertex 64.87726125230654 34.442471055704615 1.6
endloop
endfacet
facet normal 0 0 -1
outer loop
vertex 53.60711453266001 39.613479550601255 0
vertex 64.87726125230654 34.442471055704615 0
vertex 47.972041172836754 36.38231196053854 0
endloop
endfacet
facet normal 0 0 1
outer loop
vertex 53.60711453266001 39.613479550601255 1.6
vertex 64.87726125230654 34.442471055704615 1.6
vertex 64.87726125230654 42.19898379804957 1.6
endloop
endfacet
facet normal 0 0 -1
outer loop
vertex 53.60711453266001 39.613479550601255 0
vertex 64.87726125230654 42.19898379804957 0
vertex 64.87726125230654 34.442471055704615 0
endloop
endfacet
facet normal 0 0 1
outer loop
vertex 53.60711453266001 39.613479550601255 1.6
vertex 64.87726125230654 42.19898379804957 1.6
vertex 64.87726125230654 49.95549654039453 1.6
endloop
endfacet
facet normal 0 0 -1
outer loop
vertex 53.60711453266001 39.613479550601255 0
vertex 64.87726125230654 49.95549654039453 0
vertex 64.87726125230654 42.19898379804957 0
endloop
endfacet
facet normal 0 0 1
outer loop
vertex 53.60711453266001 39.613479550601255 1.6
vertex 64.87726125230654 49.95549654039453 1.6
vertex 47.972041172836754 42.19898379804957 1.6
endloop
endfacet
facet normal 0 0 -1
outer loop
vertex 53.60711453266001 39.613479550601255 0
vertex 47.972041172836754 42.19898379804957 0
vertex 64.87726125230654 49.95549654039453 0
endloop
endfacet
facet normal 0 0 1
outer loop
vertex 53.60711453266001 39.613479550601255 1.6
vertex 47.972041172836754 42.19898379804957 1.6
vertex 31.066821093366976 34.442471055704615 1.6
endloop
endfacet
facet normal 0 0 -1
outer loop
vertex 53.60711453266001 39.613479550601255 0
vertex 31.066821093366976 34.442471055704615 0
vertex 47.972041172836754 42.19898379804957 0
endloop
endfacet
facet normal 0.11399997123682307 -0.9934807529882014 0
outer loop
vertex 31.066821093366976 34.442471055704615 0
vertex 47.972041172836754 36.38231196053854 0
vertex 47.972041172836754 36.38231196053854 1.6
endloop
endfacet
facet normal 0.11399997123682307 -0.9934807529882014 0
outer loop
vertex 31.066821093366976 34.442471055704615 0
vertex 47.972041172836754 36.38231196053854 1.6
vertex 31.066821093366976 34.442471055704615 1.6
endloop
endfacet
facet normal -0.11399997123682301 -0.9934807529882014 0
outer loop
vertex 47.972041172836754 36.38231196053854 0
vertex 64.87726125230654 34.442471055704615 0
vertex 64.87726125230654 34.442471055704615 1.6
endloop
endfacet
facet normal -0.11399997123682301 -0.9934807529882014 0
outer loop
vertex 47.972041172836754 36.38231196053854 0
vertex 64.87726125230654 34.442471055704615 1.6
vertex 47.972041172836754 36.38231196053854 1.6
endloop
endfacet
facet normal 1 0 0
outer loop
vertex 64.87726125230654 34.442471055704615 0
vertex 64.87726125230654 42.19898379804957 0
vertex 64.87726125230654 42.19898379804957 1.6
endloop
endfacet
facet normal 1 0 0
outer loop
vertex 64.87726125230654 34.442471055704615 0
vertex 64.87726125230654 42.19898379804957 1.6
vertex 64.87726125230654 34.442471055704615 1.6
endloop
endfacet
facet normal 1 0 0
outer loop
vertex 64.87726125230654 42.19898379804957 0
vertex 64.87726125230654 49.95549654039453 0
vertex 64.87726125230654 49.95549654039453 1.6
endloop
endfacet
facet normal 1 0 0
outer loop
vertex 64.87726125230654 42.19898379804957 0
vertex 64.87726125230654 49.95549654039453 1.6
vertex 64.87726125230654 42.19898379804957 1.6
endloop
endfacet
facet normal -0.41702286779216946 0.9088959939060106 0
outer loop
vertex 64.87726125230654 49.95549654039453 0
vertex 47.972041172836754 42.19898379804957 0
vertex 47.972041172836754 42.19898379804957 1.6
endloop
endfacet
facet normal -0.41702286779216946 0.9088959939060106 0
outer loop
vertex 64.87726125230654 49.95549654039453 0
vertex 47.972041172836754 42.19898379804957 1.6
vertex 64.87726125230654 49.95549654039453 1.6
endloop
endfacet
facet normal -0.41702286779216935 0.9088959939060105 0
outer loop
vertex 47.972041172836754 42.19898379804957 0
vertex 31.066821093366976 34.442471055704615 0
vertex 31.066821093366976 34.442471055704615 1.6
endloop
endfacet
facet normal -0.41702286779216935 0.9088959939060105 0
outer loop
vertex 47.972041172836754 42.19898379804957 0
vertex 31.066821093366976 34.442471055704615 1.6
vertex 47.972041172836754 42.19898379804957 1.6
endloop
endfacet
facet normal 0 0 1
outer loop
vertex 47.507976307910134 44.78448804549789 1.6
vertex 31.066821093366976 34.442471055704615 1.6
vertex 47.972041172836754 42.19898379804957 1.6
endloop
endfacet
facet normal 0 0 -1
outer loop
vertex 47.507976307910134 44.78448804549789 0
vertex 47.972041172836754 42.19898379804957 0
vertex 31.066821093366976 34.442471055704615 0
endloop
endfacet
facet normal 0 0 1
outer loop
vertex 47.507976307910134 44.78448804549789 1.6
vertex 47.972041172836754 42.19898379804957 1.6
vertex 64.87726125230654 49.95549654039453 1.6
endloop
endfacet
facet normal 0 0 -1
outer loop
vertex 47.507976307910134 44.78448804549789 0
vertex 64.87726125230654 49.95549654039453 0
vertex 47.972041172836754 42.19898379804957 0
endloop
endfacet
facet normal 0 0 1
outer loop
vertex 47.507976307910134 44.78448804549789 1.6
vertex 64.87726125230654 49.95549654039453 1.6
vertex 55.72855391518171 49.95549654039453 1.6
endloop
endfacet
facet normal 0 0 -1
outer loop
vertex 47.507976307910134 44.78448804549789 0
vertex 55.72855391518171 49.95549654039453 0
vertex 64.87726125230654 49.95549654039453 0
endloop
endfacet
facet normal 0 0 1
outer loop
vertex 47.507976307910134 44.78448804549789 1.6
vertex 55.72855391518171 49.95549654039453 1.6
vertex 46.57984657805689 49.95549654039453 1.6
endloop
endfacet
facet normal 0 0 -1
outer loop
vertex 47.507976307910134 44.78448804549789 0
vertex 46.57984657805689 49.95549654039453 0
vertex 55.72855391518171 49.95549654039453 0
endloop
endfacet
facet normal 0 0 1
outer loop
vertex 47.507976307910134 44.78448804549789 1.6
vertex 46.57984657805689 49.95549654039453 1.6
vertex 38.823333835711935 42.19898379804957 1.6
endloop
endfacet
facet normal 0 0 -1
outer loop
vertex 47.507976307910134 44.78448804549789 0
vertex 38.823333835711935 42.19898379804957 0
vertex 46.57984657805689 49.95549654039453 0
endloop
endfacet
facet normal 0 0 1
outer loop
vertex 47.507976307910134 44.78448804549789 1.6
vertex 38.823333835711935 42.19898379804957 1.6
vertex 31.066821093366976 34.442471055704615 1.6
endloop
endfacet
facet normal 0 0 -1
outer loop
vertex 47.507976307910134 44.78448804549789 0
vertex 31.066821093366976 34.442471055704615 0
vertex 38.823333835711935 42.19898379804957 0
endloop
endfacet
facet normal 0.41702286779216935 -0.9088959939060105 0
outer loop
vertex 31.066821093366976 34.442471055704615 0
vertex 47.972041172836754 42.19898379804957 0
vertex 47.972041172836754 42.19898379804957 1.6
endloop
endfacet
facet normal 0.41702286779216935 -0.9088959939060105 0
outer loop
vertex 31.066821093366976 34.442471055704615 0
vertex 47.972041172836754 42.19898379804957 1.6
vertex 31.066821093366976 34.442471055704615 1.6
endloop
endfacet
facet normal 0.41702286779216946 -0.9088959939060106 0
outer loop
vertex 47.972041172836754 42.19898379804957 0
vertex 64.87726125230654 49.95549654039453 0
vertex 64.87726125230654 49.95549654039453 1.6
endloop
endfacet
facet normal 0.41702286779216946 -0.9088959939060106 0
outer loop
vertex 47.972041172836754 42.19898379804957 0
vertex 64.87726125230654 49.95549654039453 1.6
vertex 47.972041172836754 42.19898379804957 1.6
endloop
endfacet
facet normal 0 1 0
outer loop
vertex 64.87726125230654 49.95549654039453 0
vertex 55.72855391518171 49.95549654039453 0
vertex 55.72855391518171 49.95549654039453 1.6
endloop
endfacet
facet normal 0 1 0
outer loop
vertex 64.87726125230654 49.95549654039453 0
vertex 55.72855391518171 49.95549654039453 1.6
vertex 64.87726125230654 49.95549654039453 1.6
endloop
endfacet
facet normal 0 1 0
outer loop
vertex 55.72855391518171 49.95549654039453 0
vertex 46.57984657805689 49.95549654039453 0
vertex 46.57984657805689 49.95549654039453 1.6
endloop
endfacet
facet normal 0 1 0
outer loop
vertex 55.72855391518171 49.95549654039453 0
vertex 46.57984657805689 49.95549654039453 1.6
vertex 55.72855391518171 49.95549654039453 1.6
endloop
endfacet
facet normal -0.7071067811865479 0.7071067811865472 0
outer loop
vertex 46.57984657805689 49.95549654039453 0
vertex 38.823333835711935 42.19898379804957 0
vertex 38.823333835711935 42.19898379804957 1.6
endloop
endfacet
facet normal -0.7071067811865479 0.7071067811865472 0
outer loop
vertex 46.57984657805689 49.95549654039453 0
vertex 38.823333835711935 42.19898379804957 1.6
vertex 46.57984657805689 49.95549654039453 1.6
endloop
endfacet
facet normal -0.7071067811865472 0.7071067811865479 0
outer loop
vertex 38.823333835711935 42.19898379804957 0
vertex 31.066821093366976 34.442471055704615 0
vertex 31.066821093366976 34.442471055704615 1.6
endloop
endfacet
facet normal -0.7071067811865472 0.7071067811865479 0
outer loop
vertex 38.823333835711935 42.19898379804957 0
vertex 31.066821093366976 34.442471055704615 1.6
vertex 38.823333835711935 42.19898379804957 1.6
endloop
endfacet
facet normal 0 0 1
outer loop
vertex 38.22667900937771 46.242977620981556 1.6
vertex 31.066821093366976 34.442471055704615 1.6
vertex 38.823333835711935 42.19898379804957 1.6
endloop
endfacet
facet normal 0 0 -1
outer loop
vertex 38.22667900937771 46.242977620981556 0
vertex 38.823333835711935 42.19898379804957 0
vertex 31.066821093366976 34.442471055704615 0
endloop
endfacet
facet normal 0 0 1
outer loop
vertex 38.22667900937771 46.242977620981556 1.6
vertex 38.823333835711935 42.19898379804957 1.6
vertex 46.57984657805689 49.95549654039453 1.6
endloop
endfacet
facet normal 0 0 -1
outer loop
vertex 38.22667900937771 46.242977620981556 0
vertex 46.57984657805689 49.95549654039453 0
vertex 38.823333835711935 42.19898379804957 0
endloop
endfacet
facet normal 0 0 1
outer loop
vertex 38.22667900937771 46.242977620981556 1.6
vertex 46.57984657805689 49.95549654039453 1.6
vertex 41.80660796738308 52.14323090362004 1.6
endloop
endfacet
facet normal 0 0 -1
outer loop
vertex 38.22667900937771 46.242977620981556 0
vertex 41.80660796738308 52.14323090362004 0
vertex 46.57984657805689 49.95549654039453 0
endloop
endfacet
facet normal 0 0 1
outer loop
vertex 38.22667900937771 46.242977620981556 1.6
vertex 41.80660796738308 52.14323090362004 1.6
vertex 37.03336935670927 54.330965266845546 1.6
endloop
endfacet
facet normal 0 0 -1
outer loop
vertex 38.22667900937771 46.242977620981556 0
vertex 37.03336935670927 54.330965266845546 0
vertex 41.80660796738308 52.14323090362004 0
endloop
endfacet
facet normal 0 0 1
outer loop
vertex 38.22667900937771 46.242977620981556 1.6
vertex 37.03336935670927 54.330965266845546 1.6
vertex 35.29428319273952 44.01346177096466 1.6
endloop
endfacet
facet normal 0 0 -1
outer loop
vertex 38.22667900937771 46.242977620981556 0
vertex 35.29428319273952 44.01346177096466 0
vertex 37.03336935670927 54.330965266845546 0
endloop
endfacet
facet normal 0 0 1
outer loop
vertex 38.22667900937771 46.242977620981556 1.6
vertex 35.29428319273952 44.01346177096466 1.6
vertex 31.066821093366976 34.442471055704615 1.6
endloop
endfacet
facet normal 0 0 -1
outer loop
vertex 38.22667900937771 46.242977620981556 0
vertex 31.066821093366976 34.442471055704615 0
vertex 35.29428319273952 44.01346177096466 0
endloop
endfacet
facet normal 0.7071067811865472 -0.7071067811865479 0
outer loop
vertex 31.066821093366976 34.442471055704615 0
vertex 38.823333835711935 42.19898379804957 0
vertex 38.823333835711935 42.19898379804957 1.6
endloop
endfacet
facet normal 0.7071067811865472 -0.7071067811865479 0
outer loop
vertex 31.066821093366976 34.442471055704615 0
vertex 38.823333835711935 42.19898379804957 1.6
vertex 31.066821093366976 34.442471055704615 1.6
endloop
endfacet
facet normal 0.7071067811865479 -0.7071067811865472 0
outer loop
vertex 38.823333835711935 42.19898379804957 0
vertex 46.57984657805689 49.95549654039453 0
vertex 46.57984657805689 49.95549654039453 1.6
endloop
endfacet
facet normal 0.7071067811865479 -0.7071067811865472 0
outer loop
vertex 38.823333835711935 42.19898379804957 0
vertex 46.57984657805689 49.95549654039453 1.6
vertex 38.823333835711935 42.19898379804957 1.6
endloop
endfacet
facet normal 0.4166547104932158 0.9090648228942833 0
outer loop
vertex 46.57984657805689 49.95549654039453 0
vertex 41.80660796738308 52.14323090362004 0
vertex 41.80660796738308 52.14323090362004 1.6
endloop
endfacet
facet normal 0.4166547104932158 0.9090648228942833 0
outer loop
vertex 46.57984657805689 49.95549654039453 0
vertex 41.80660796738308 52.14323090362004 1.6
vertex 46.57984657805689 49.95549654039453 1.6
endloop
endfacet
facet normal 0.4166547104932158 0.9090648228942833 0
outer loop
vertex 41.80660796738308 52.14323090362004 0
vertex 37.03336935670927 54.330965266845546 0
vertex 37.03336935670927 54.330965266845546 1.6
endloop
endfacet
facet normal 0.4166547104932158 0.9090648228942833 0
outer loop
vertex 41.80660796738308 52.14323090362004 0
vertex 37.03336935670927 54.330965266845546 1.6
vertex 41.80660796738308 52.14323090362004 1.6
endloop
endfacet
facet normal -0.9860899998466525 0.16621225045834928 0
outer loop
vertex 37.03336935670927 54.330965266845546 0
vertex 35.29428319273952 44.01346177096466 0
vertex 35.29428319273952 44.01346177096466 1.6
endloop
endfacet
facet normal -0.9860899998466525 0.16621225045834928 0
outer loop
vertex 37.03336935670927 54.330965266845546 0
vertex 35.29428319273952 44.01346177096466 1.6
vertex 37.03336935670927 54.330965266845546 1.6
endloop
endfacet
facet normal -0.9147424313169381 0.4040374788907296 0
outer loop
vertex 35.29428319273952 44.01346177096466 0
vertex 31.066821093366976 34.442471055704615 0
vertex 31.066821093366976 34.442471055704615 1.6
endloop
endfacet
facet normal -0.9147424313169381 0.4040374788907296 0
outer loop
vertex 35.29428319273952 44.01346177096466 0
vertex 31.066821093366976 34.442471055704615 1.6
vertex 35.29428319273952 44.01346177096466 1.6
endloop
endfacet
facet normal 0 0 1
outer loop
vertex -58.77812302755666 44.78448804549793 1.6
vertex -46.57984657805689 49.95549654039456 1.6
vertex -55.72855391518171 49.95549654039456 1.6
endloop
endfacet
facet normal 0 0 -1
outer loop
vertex -58.77812302755666 44.78448804549793 0
vertex -55.72855391518171 49.95549654039456 0
vertex -46.57984657805689 49.95549654039456 0
endloop
endfacet
facet normal 0 0 1
outer loop
vertex -58.77812302755666 44.78448804549793 1.6
vertex -55.72855391518171 49.95549654039456 1.6
vertex -64.87726125230654 49.95549654039456 1.6
endloop
endfacet
facet normal 0 0 -1
outer loop
vertex -58.77812302755666 44.78448804549793 0
vertex -64.87726125230654 49.95549654039456 0
vertex -55.72855391518171 49.95549654039456 0
endloop
endfacet
facet normal 0 0 1
outer loop
vertex -58.77812302755666 44.78448804549793 1.6
vertex -64.87726125230654 49.95549654039456 1.6
vertex -64.87726125230654 42.19898379804961 1.6
endloop
endfacet
facet normal 0 0 -1
outer loop
vertex -58.77812302755666 44.78448804549793 0
vertex -64.87726125230654 42.19898379804961 0
vertex -64.87726125230654 49.95549654039456 0
endloop
endfacet
facet normal 0 0 1
outer loop
vertex -58.77812302755666 44.78448804549793 1.6
vertex -64.87726125230654 42.19898379804961 1.6
vertex -64.87726125230654 34.44247105570465 1.6
endloop
endfacet
facet normal 0 0 -1
outer loop
vertex -58.77812302755666 44.78448804549793 0
vertex -64.87726125230654 34.44247105570465 0
vertex -64.87726125230654 42.19898379804961 0
endloop
endfacet
facet normal 0 0 1
outer loop
vertex -58.77812302755666 44.78448804549793 1.6
vertex -64.87726125230654 34.44247105570465 1.6
vertex -55.72855391518171 42.19898379804961 1.6
endloop
endfacet
facet normal 0 0 -1
outer loop
vertex -58.77812302755666 44.78448804549793 0
vertex -55.72855391518171 42.19898379804961 0
vertex -64.87726125230654 34.44247105570465 0
endloop
endfacet
facet normal 0 0 1
outer loop
vertex -58.77812302755666 44.78448804549793 1.6
vertex -55.72855391518171 42.19898379804961 1.6
vertex -46.57984657805689 49.95549654039456 1.6
endloop
endfacet
facet normal 0 0 -1
outer loop
vertex -58.77812302755666 44.78448804549793 0
vertex -46.57984657805689 49.95549654039456 0
vertex -55.72855391518171 42.19898379804961 0
endloop
endfacet
facet normal 0 1 0
outer loop
vertex -46.57984657805689 49.95549654039456 0
vertex -55.72855391518171 49.95549654039456 0
vertex -55.72855391518171 49.95549654039456 1.6
endloop
endfacet
facet normal 0 1 0
outer loop
vertex -46.57984657805689 49.95549654039456 0
vertex -55.72855391518171 49.95549654039456 1.6
vertex -46.57984657805689 49.95549654039456 1.6
endloop
endfacet
facet normal 0 1 0
outer loop
vertex -55.72855391518171 49.95549654039456 0
vertex -64.87726125230654 49.95549654039456 0
vertex -64.87726125230654 49.95549654039456 1.6
endloop
endfacet
facet normal 0 1 0
outer loop
vertex -55.72855391518171 49.95549654039456 0
vertex -64.87726125230654 49.95549654039456 1.6
vertex -55.72855391518171 49.95549654039456 1.6
endloop
endfacet
facet normal -1 0 0
outer loop
vertex -64.87726125230654 49.95549654039456 0
vertex -64.87726125230654 42.19898379804961 0
vertex -64.87726125230654 42.19898379804961 1.6
endloop
endfacet
facet normal -1 0 0
outer loop
vertex -64.87726125230654 49.95549654039456 0
vertex -64.87726125230654 42.19898379804961 1.6
vertex -64.87726125230654 49.95549654039456 1.6
endloop
endfacet
facet normal -1 0 0
outer loop
vertex -64.87726125230654 42.19898379804961 0
vertex -64.87726125230654 34.44247105570465 0
vertex -64.87726125230654 34.44247105570465 1.6
endloop
endfacet
facet normal -1 0 0
outer loop
vertex -64.87726125230654 42.19898379804961 0
vertex -64.87726125230654 34.44247105570465 1.6
vertex -64.87726125230654 42.19898379804961 1.6
endloop
endfacet
facet normal 0.6466852516351602 -0.7627569634671122 0
outer loop
vertex -64.87726125230654 34.44247105570465 0
vertex -55.72855391518171 42.19898379804961 0
vertex -55.72855391518171 42.19898379804961 1.6
endloop
endfacet
facet normal 0.6466852516351602 -0.7627569634671122 0
outer loop
vertex -64.87726125230654 34.44247105570465 0
vertex -55.72855391518171 42.19898379804961 1.6
vertex -64.87726125230654 34.44247105570465 1.6
endloop
endfacet
facet normal 0.6466852516351599 -0.7627569634671124 0
outer loop
vertex -55.72855391518171 42.19898379804961 0
vertex -46.57984657805689 49.95549654039456 0
vertex -46.57984657805689 49.95549654039456 1.6
endloop
endfacet
facet normal 0.6466852516351599 -0.7627569634671124 0
outer loop
vertex -55.72855391518171 42.19898379804961 0
vertex -46.57984657805689 49.95549654039456 1.6
vertex -55.72855391518171 42.19898379804961 1.6
endloop
endfacet
facet normal 0 0 1
outer loop
vertex -49.49682572902424 46.2429776209816 1.6
vertex -37.03336935670927 54.33096526684558 1.6
vertex -41.80660796738308 52.14323090362007 1.6
endloop
endfacet
facet normal 0 0 -1
outer loop
vertex -49.49682572902424 46.2429776209816 0
vertex -41.80660796738308 52.14323090362007 0
vertex -37.03336935670927 54.33096526684558 0
endloop
endfacet
facet normal 0 0 1
outer loop
vertex -49.49682572902424 46.2429776209816 1.6
vertex -41.80660796738308 52.14323090362007 1.6
vertex -46.57984657805689 49.95549654039456 1.6
endloop
endfacet
facet normal 0 0 -1
outer loop
vertex -49.49682572902424 46.2429776209816 0
vertex -46.57984657805689 49.95549654039456 0
vertex -41.80660796738308 52.14323090362007 0
endloop
endfacet
facet normal 0 0 1
outer loop
vertex -49.49682572902424 46.2429776209816 1.6
vertex -46.57984657805689 49.95549654039456 1.6
vertex -55.72855391518171 42.19898379804961 1.6
endloop
endfacet
facet normal 0 0 -1
outer loop
vertex -49.49682572902424 46.2429776209816 0
vertex -55.72855391518171 42.19898379804961 0
vertex -46.57984657805689 49.95549654039456 0
endloop
endfacet
facet normal 0 0 1
outer loop
vertex -49.49682572902424 46.2429776209816 1.6
vertex -55.72855391518171 42.19898379804961 1.6
vertex -64.87726125230654 34.44247105570465 1.6
endloop
endfacet
facet normal 0 0 -1
outer loop
vertex -49.49682572902424 46.2429776209816 0
vertex -64.87726125230654 34.44247105570465 0
vertex -55.72855391518171 42.19898379804961 0
endloop
endfacet
facet normal 0 0 1
outer loop
vertex -49.49682572902424 46.2429776209816 1.6
vertex -64.87726125230654 34.44247105570465 1.6
vertex -50.955315304507906 44.38671816127511 1.6
endloop
endfacet
facet normal 0 0 -1
outer loop
vertex -49.49682572902424 46.2429776209816 0
vertex -50.955315304507906 44.38671816127511 0
vertex -64.87726125230654 34.44247105570465 0
endloop
endfacet
facet normal 0 0 1
outer loop
vertex -49.49682572902424 46.2429776209816 1.6
vertex -50.955315304507906 44.38671816127511 1.6
vertex -37.03336935670927 54.33096526684558 1.6
endloop
endfacet
facet normal 0 0 -1
outer loop
vertex -49.49682572902424 46.2429776209816 0
vertex -37.03336935670927 54.33096526684558 0
vertex -50.955315304507906 44.38671816127511 0
endloop
endfacet
facet normal -0.4166547104932158 0.9090648228942833 0
outer loop
vertex -37.03336935670927 54.33096526684558 0
vertex -41.80660796738308 52.14323090362007 0
vertex -41.80660796738308 52.14323090362007 1.6
endloop
endfacet
facet normal -0.4166547104932158 0.9090648228942833 0
outer loop
vertex -37.03336935670927 54.33096526684558 0
vertex -41.80660796738308 52.14323090362007 1.6
vertex -37.03336935670927 54.33096526684558 1.6
endloop
endfacet
facet normal -0.4166547104932158 0.9090648228942833 0
outer loop
vertex -41.80660796738308 52.14323090362007 0
vertex -46.57984657805689 49.95549654039456 0
vertex -46.57984657805689 49.95549654039456 1.6
endloop
endfacet
facet normal -0.4166547104932158 0.9090648228942833 0
outer loop
vertex -41.80660796738308 52.14323090362007 0
vertex -46.57984657805689 49.95549654039456 1.6
vertex -41.80660796738308 52.14323090362007 1.6
endloop
endfacet
facet normal -0.6466852516351599 0.7627569634671124 0
outer loop
vertex -46.57984657805689 49.95549654039456 0
vertex -55.72855391518171 42.19898379804961 0
vertex -55.72855391518171 42.19898379804961 1.6
endloop
endfacet
facet normal -0.6466852516351599 0.7627569634671124 0
outer loop
vertex -46.57984657805689 49.95549654039456 0
vertex -55.72855391518171 42.19898379804961 1.6
vertex -46.57984657805689 49.95549654039456 1.6
endloop
endfacet
facet normal -0.6466852516351602 0.7627569634671122 0
outer loop
vertex -55.72855391518171 42.19898379804961 0
vertex -64.87726125230654 34.44247105570465 0
vertex -64.87726125230654 34.44247105570465 1.6
endloop
endfacet
facet normal -0.6466852516351602 0.7627569634671122 0
outer loop
vertex -55.72855391518171 42.19898379804961 0
vertex -64.87726125230654 34.44247105570465 1.6
vertex -55.72855391518171 42.19898379804961 1.6
endloop
endfacet
facet normal 0.5812381937190967 -0.8137334712067347 0
outer loop
vertex -64.87726125230654 34.44247105570465 0
vertex -50.955315304507906 44.38671816127511 0
vertex -50.955315304507906 44.38671816127511 1.6
endloop
endfacet
facet normal 0.5812381937190967 -0.8137334712067347 0
outer loop
vertex -64.87726125230654 34.44247105570465 0
vertex -50.955315304507906 44.38671816127511 1.6
vertex -64.87726125230654 34.44247105570465 1.6
endloop
endfacet
facet normal 0.581238193719097 -0.8137334712067346 0
outer loop
vertex -50.955315304507906 44.38671816127511 0
vertex -37.03336935670927 54.33096526684558 0
vertex -37.03336935670927 54.33096526684558 1.6
endloop
endfacet
facet normal 0.581238193719097 -0.8137334712067346 0
outer loop
vertex -50.955315304507906 44.38671816127511 0
vertex -37.03336935670927 54.33096526684558 1.6
vertex -50.955315304507906 44.38671816127511 1.6
endloop
endfacet
facet normal 0 0 1
outer loop
vertex -44.32581723412759 41.07196912608496 1.6
vertex -37.03336935670927 54.33096526684558 1.6
vertex -50.955315304507906 44.38671816127511 1.6
endloop
endfacet
facet normal 0 0 -1
outer loop
vertex -44.32581723412759 41.07196912608496 0
vertex -50.955315304507906 44.38671816127511 0
vertex -37.03336935670927 54.33096526684558 0
endloop
endfacet
facet normal 0 0 1
outer loop
vertex -44.32581723412759 41.07196912608496 1.6
vertex -50.955315304507906 44.38671816127511 1.6
vertex -64.87726125230654 34.44247105570465 1.6
endloop
endfacet
facet normal 0 0 -1
outer loop
vertex -44.32581723412759 41.07196912608496 0
vertex -64.87726125230654 34.44247105570465 0
vertex -50.955315304507906 44.38671816127511 0
endloop
endfacet
facet normal 0 0 1
outer loop
vertex -44.32581723412759 41.07196912608496 1.6
vertex -64.87726125230654 34.44247105570465 1.6
vertex -47.972041172836754 36.86588941411879 1.6
endloop
endfacet
facet normal 0 0 -1
outer loop
vertex -44.32581723412759 41.07196912608496 0
vertex -47.972041172836754 36.86588941411879 0
vertex -64.87726125230654 34.44247105570465 0
endloop
endfacet
facet normal 0 0 1
outer loop
vertex -44.32581723412759 41.07196912608496 1.6
vertex -47.972041172836754 36.86588941411879 1.6
vertex -31.066821093366976 34.44247105570465 1.6
endloop
endfacet
facet normal 0 0 -1
outer loop
vertex -44.32581723412759 41.07196912608496 0
vertex -31.066821093366976 34.44247105570465 0
vertex -47.972041172836754 36.86588941411879 0
endloop
endfacet
facet normal 0 0 1
outer loop
vertex -44.32581723412759 41.07196912608496 1.6
vertex -31.066821093366976 34.44247105570465 1.6
vertex -36.37130902881468 43.690354020142145 1.6
endloop
endfacet
facet normal 0 0 -1
outer loop
vertex -44.32581723412759 41.07196912608496 0
vertex -36.37130902881468 43.690354020142145 0
vertex -31.066821093366976 34.44247105570465 0
endloop
endfacet
facet normal 0 0 1
outer loop
vertex -44.32581723412759 41.07196912608496 1.6
vertex -36.37130902881468 43.690354020142145 1.6
vertex -37.03336935670927 54.33096526684558 1.6
endloop
endfacet
facet normal 0 0 -1
outer loop
vertex -44.32581723412759 41.07196912608496 0
vertex -37.03336935670927 54.33096526684558 0
vertex -36.37130902881468 43.690354020142145 0
endloop
endfacet
facet normal -0.581238193719097 0.8137334712067346 0
outer loop
vertex -37.03336935670927 54.33096526684558 0
vertex -50.955315304507906 44.38671816127511 0
vertex -50.955315304507906 44.38671816127511 1.6
endloop
endfacet
facet normal -0.581238193719097 0.8137334712067346 0
outer loop
vertex -37.03336935670927 54.33096526684558 0
vertex -50.955315304507906 44.38671816127511 1.6
vertex -37.03336935670927 54.33096526684558 1.6
endloop
endfacet
facet normal -0.5812381937190967 0.8137334712067347 0
outer loop
vertex -50.955315304507906 44.38671816127511 0
vertex -64.87726125230654 34.44247105570465 0
vertex -64.87726125230654 34.44247105570465 1.6
endloop
endfacet
facet normal -0.5812381937190967 0.8137334712067347 0
outer loop
vertex -50.955315304507906 44.38671816127511 0
vertex -64.87726125230654 34.44247105570465 1.6
vertex -50.955315304507906 44.38671816127511 1.6
endloop
endfacet
facet normal 0.14190261141035962 -0.9898806235475673 0
outer loop
vertex -64.87726125230654 34.44247105570465 0
vertex -47.972041172836754 36.86588941411879 0
vertex -47.972041172836754 36.86588941411879 1.6
endloop
endfacet
facet normal 0.14190261141035962 -0.9898806235475673 0
outer loop
vertex -64.87726125230654 34.44247105570465 0
vertex -47.972041172836754 36.86588941411879 1.6
vertex -64.87726125230654 34.44247105570465 1.6
endloop
endfacet
facet normal -0.1419026114103597 -0.9898806235475673 0
outer loop
vertex -47.972041172836754 36.86588941411879 0
vertex -31.066821093366976 34.44247105570465 0
vertex -31.066821093366976 34.44247105570465 1.6
endloop
endfacet
facet normal -0.1419026114103597 -0.9898806235475673 0
outer loop
vertex -47.972041172836754 36.86588941411879 0
vertex -31.066821093366976 34.44247105570465 1.6
vertex -47.972041172836754 36.86588941411879 1.6
endloop
endfacet
facet normal 0.867434556324397 0.49755129433486195 0
outer loop
vertex -31.066821093366976 34.44247105570465 0
vertex -36.37130902881468 43.690354020142145 0
vertex -36.37130902881468 43.690354020142145 1.6
endloop
endfacet
facet normal 0.867434556324397 0.49755129433486195 0
outer loop
vertex -31.066821093366976 34.44247105570465 0
vertex -36.37130902881468 43.690354020142145 1.6
vertex -31.066821093366976 34.44247105570465 1.6
endloop
endfacet
facet normal 0.9980699292257967 0.06210005133019792 0
outer loop
vertex -36.37130902881468 43.690354020142145 0
vertex -37.03336935670927 54.33096526684558 0
vertex -37.03336935670927 54.33096526684558 1.6
endloop
endfacet
facet normal 0.9980699292257967 0.06210005133019792 0
outer loop
vertex -36.37130902881468 43.690354020142145 0
vertex -37.03336935670927 54.33096526684558 1.6
vertex -36.37130902881468 43.690354020142145 1.6
endloop
endfacet
facet normal 0 0 1
outer loop
vertex -19.862393813791986 50.9944659005313 1.6
vertex -5.602213639787465 65 1.6
vertex -13.744690369987245 58.49150095242967 1.6
endloop
endfacet
facet normal 0 0 -1
outer loop
vertex -19.862393813791986 50.9944659005313 0
vertex -13.744690369987245 58.49150095242967 0
vertex -5.602213639787465 65 0
endloop
endfacet
facet normal 0 0 1
outer loop
vertex -19.862393813791986 50.9944659005313 1.6
vertex -13.744690369987245 58.49150095242967 1.6
vertex -22.918146708221524 53.54092664588925 1.6
endloop
endfacet
facet normal 0 0 -1
outer loop
vertex -19.862393813791986 50.9944659005313 0
vertex -22.918146708221524 53.54092664588925 0
vertex -13.744690369987245 58.49150095242967 0
endloop
endfacet
facet normal 0 0 1
outer loop
vertex -19.862393813791986 50.9944659005313 1.6
vertex -22.918146708221524 53.54092664588925 1.6
vertex -26.133334227432165 43.625128323495794 1.6
endloop
endfacet
facet normal 0 0 -1
outer loop
vertex -19.862393813791986 50.9944659005313 0
vertex -26.133334227432165 43.625128323495794 0
vertex -22.918146708221524 53.54092664588925 0
endloop
endfacet
facet normal 0 0 1
outer loop
vertex -19.862393813791986 50.9944659005313 1.6
vertex -26.133334227432165 43.625128323495794 1.6
vertex -31.066821093366976 34.44247105570465 1.6
endloop
endfacet
facet normal 0 0 -1
outer loop
vertex -19.862393813791986 50.9944659005313 0
vertex -31.066821093366976 34.44247105570465 0
vertex -26.133334227432165 43.625128323495794 0
endloop
endfacet
facet normal 0 0 1
outer loop
vertex -19.862393813791986 50.9944659005313 1.6
vertex -31.066821093366976 34.44247105570465 1.6
vertex -18.33451736657722 49.72123552785233 1.6
endloop
endfacet
facet normal 0 0 -1
outer loop
vertex -19.862393813791986 50.9944659005313 0
vertex -18.33451736657722 49.72123552785233 0
vertex -31.066821093366976 34.44247105570465 0
endloop
endfacet
facet normal 0 0 1
outer loop
vertex -19.862393813791986 50.9944659005313 1.6
vertex -18.33451736657722 49.72123552785233 1.6
vertex -5.602213639787465 65 1.6
endloop
endfacet
facet normal 0 0 -1
outer loop
vertex -19.862393813791986 50.9944659005313 0
vertex -5.602213639787465 65 0
vertex -18.33451736657722 49.72123552785233 0
endloop
endfacet
facet normal -0.6243743044258886 0.781125295949816 0
outer loop
vertex -5.602213639787465 65 0
vertex -13.744690369987245 58.49150095242967 0
vertex -13.744690369987245 58.49150095242967 1.6
endloop
endfacet
facet normal -0.6243743044258886 0.781125295949816 0
outer loop
vertex -5.602213639787465 65 0
vertex -13.744690369987245 58.49150095242967 1.6
vertex -5.602213639787465 65 1.6
endloop
endfacet
facet normal -0.474919235074444 0.8800293859618014 0
outer loop
vertex -13.744690369987245 58.49150095242967 0
vertex -22.918146708221524 53.54092664588925 0
vertex -22.918146708221524 53.54092664588925 1.6
endloop
endfacet
facet normal -0.474919235074444 0.8800293859618014 0
outer loop
vertex -13.744690369987245 58.49150095242967 0
vertex -22.918146708221524 53.54092664588925 1.6
vertex -13.744690369987245 58.49150095242967 1.6
endloop
endfacet
facet normal -0.9512438482545398 0.3084398501456875 0
outer loop
vertex -22.918146708221524 53.54092664588925 0
vertex -26.133334227432165 43.625128323495794 0
vertex -26.133334227432165 43.625128323495794 1.6
endloop
endfacet
facet normal -0.9512438482545398 0.3084398501456875 0
outer loop
vertex -22.918146708221524 53.54092664588925 0
vertex -26.133334227432165 43.625128323495794 1.6
vertex -22.918146708221524 53.54092664588925 1.6
endloop
endfacet
facet normal -0.8809120509126832 0.47328000016566313 0
outer loop
vertex -26.133334227432165 43.625128323495794 0
vertex -31.066821093366976 34.44247105570465 0
vertex -31.066821093366976 34.44247105570465 1.6
endloop
endfacet
facet normal -0.8809120509126832 0.47328000016566313 0
outer loop
vertex -26.133334227432165 43.625128323495794 0
vertex -31.066821093366976 34.44247105570465 1.6
vertex -26.133334227432165 43.625128323495794 1.6
endloop
endfacet
facet normal 0.7682212795973753 -0.6401843996644806 0
outer loop
vertex -31.066821093366976 34.44247105570465 0
vertex -18.33451736657722 49.72123552785233 0
vertex -18.33451736657722 49.72123552785233 1.6
endloop
endfacet
facet normal 0.7682212795973753 -0.6401843996644806 0
outer loop
vertex -31.066821093366976 34.44247105570465 0
vertex -18.33451736657722 49.72123552785233 1.6
vertex -31.066821093366976 34.44247105570465 1.6
endloop
endfacet
facet normal 0.7682212795973753 -0.6401843996644808 0
outer loop
vertex -18.33451736657722 49.72123552785233 0
vertex -5.602213639787465 65 0
vertex -5.602213639787465 65 1.6
endloop
endfacet
facet normal 0.7682212795973753 -0.6401843996644808 0
outer loop
vertex -18.33451736657722 49.72123552785233 0
vertex -5.602213639787465 65 1.6
vertex -18.33451736657722 49.72123552785233 1.6
endloop
endfacet
facet normal 0 0 1
outer loop
vertex -12.223011577718147 44.62831403713644 1.6
vertex -31.066821093366976 34.44247105570465 1.6
vertex -15.533410546683488 37.42335822429826 1.6
endloop
endfacet
facet normal 0 0 -1
outer loop
vertex -12.223011577718147 44.62831403713644 0
vertex -15.533410546683488 37.42335822429826 0
vertex -31.066821093366976 34.44247105570465 0
endloop
endfacet
facet normal 0 0 1
outer loop
vertex -12.223011577718147 44.62831403713644 1.6
vertex -15.533410546683488 37.42335822429826 1.6
vertex 0 34.44247105570465 1.6
endloop
endfacet
facet normal 0 0 -1
outer loop
vertex -12.223011577718147 44.62831403713644 0
vertex 0 34.44247105570465 0
vertex -15.533410546683488 37.42335822429826 0
endloop
endfacet
facet normal 0 0 1
outer loop
vertex -12.223011577718147 44.62831403713644 1.6
vertex 0 34.44247105570465 1.6
vertex -5.733126985723512 49.1836984974502 1.6
endloop
endfacet
facet normal 0 0 -1
outer loop
vertex -12.223011577718147 44.62831403713644 0
vertex -5.733126985723512 49.1836984974502 0
vertex 0 34.44247105570465 0
endloop
endfacet
facet normal 0 0 1
outer loop
vertex -12.223011577718147 44.62831403713644 1.6
vertex -5.733126985723512 49.1836984974502 1.6
vertex -5.602213639787465 65 1.6
endloop
endfacet
facet normal 0 0 -1
outer loop
vertex -12.223011577718147 44.62831403713644 0
vertex -5.602213639787465 65 0
vertex -5.733126985723512 49.1836984974502 0
endloop
endfacet
facet normal 0 0 1
outer loop
vertex -12.223011577718147 44.62831403713644 1.6
vertex -5.602213639787465 65 1.6
vertex -18.33451736657722 49.72123552785233 1.6
endloop
endfacet
facet normal 0 0 -1
outer loop
vertex -12.223011577718147 44.62831403713644 0
vertex -18.33451736657722 49.72123552785233 0
vertex -5.602213639787465 65 0
endloop
endfacet
facet normal 0 0 1
outer loop
vertex -12.223011577718147 44.62831403713644 1.6
vertex -18.33451736657722 49.72123552785233 1.6
vertex -31.066821093366976 34.44247105570465 1.6
endloop
endfacet
facet normal 0 0 -1
outer loop
vertex -12.223011577718147 44.62831403713644 0
vertex -31.066821093366976 34.44247105570465 0
vertex -18.33451736657722 49.72123552785233 0
endloop
endfacet
facet normal 0.18846283766955804 -0.9820803219785732 0
outer loop
vertex -31.066821093366976 34.44247105570465 0
vertex -15.533410546683488 37.42335822429826 0
vertex -15.533410546683488 37.42335822429826 1.6
endloop
endfacet
facet normal 0.18846283766955804 -0.9820803219785732 0
outer loop
vertex -31.066821093366976 34.44247105570465 0
vertex -15.533410546683488 37.42335822429826 1.6
vertex -31.066821093366976 34.44247105570465 1.6
endloop
endfacet
facet normal -0.18846283766955804 -0.9820803219785732 0
outer loop
vertex -15.533410546683488 37.42335822429826 0
vertex 0 34.44247105570465 0
vertex 0 34.44247105570465 1.6
endloop
endfacet
facet normal -0.18846283766955804 -0.9820803219785732 0
outer loop
vertex -15.533410546683488 37.42335822429826 0
vertex 0 34.44247105570465 1.6
vertex -15.533410546683488 37.42335822429826 1.6
endloop
endfacet
facet normal 0.9319955426942502 0.36246973445799613 0
outer loop
vertex 0 34.44247105570465 0
vertex -5.733126985723512 49.1836984974502 0
vertex -5.733126985723512 49.1836984974502 1.6
endloop
endfacet
facet normal 0.9319955426942502 0.36246973445799613 0
outer loop
vertex 0 34.44247105570465 0
vertex -5.733126985723512 49.1836984974502 1.6
vertex 0 34.44247105570465 1.6
endloop
endfacet
facet normal 0.9999657464439267 -0.0082768314493314 0
outer loop
vertex -5.733126985723512 49.1836984974502 0
vertex -5.602213639787465 65 0
vertex -5.602213639787465 65 1.6
endloop
endfacet
facet normal 0.9999657464439267 -0.0082768314493314 0
outer loop
vertex -5.733126985723512 49.1836984974502 0
vertex -5.602213639787465 65 1.6
vertex -5.733126985723512 49.1836984974502 1.6
endloop
endfacet
facet normal -0.7682212795973753 0.6401843996644808 0
outer loop
vertex -5.602213639787465 65 0
vertex -18.33451736657722 49.72123552785233 0
vertex -18.33451736657722 49.72123552785233 1.6
endloop
endfacet
facet normal -0.7682212795973753 0.6401843996644808 0
outer loop
vertex -5.602213639787465 65 0
vertex -18.33451736657722 49.72123552785233 1.6
vertex -5.602213639787465 65 1.6
endloop
endfacet
facet normal -0.7682212795973753 0.6401843996644806 0
outer loop
vertex -18.33451736657722 49.72123552785233 0
vertex -31.066821093366976 34.44247105570465 0
vertex -31.066821093366976 34.44247105570465 1.6
endloop
endfacet
facet normal -0.7682212795973753 0.6401843996644806 0
outer loop
vertex -18.33451736657722 49.72123552785233 0
vertex -31.066821093366976 34.44247105570465 1.6
vertex -18.33451736657722 49.72123552785233 1.6
endloop
endfacet
facet normal 0 0 1
outer loop
vertex -53.60711453266001 -51.74100385923938 1.6
vertex -31.066821093366976 -65 1.6
vertex -47.972041172836754 -45.11150578885907 1.6
endloop
endfacet
facet normal 0 0 -1
outer loop
vertex -53.60711453266001 -51.74100385923938 0
vertex -47.972041172836754 -45.11150578885907 0
vertex -31.066821093366976 -65 0
endloop
endfacet
facet normal 0 0 1
outer loop
vertex -53.60711453266001 -51.74100385923938 1.6
vertex -47.972041172836754 -45.11150578885907 1.6
vertex -64.87726125230654 -25.223011577718136 1.6
endloop
endfacet
facet normal 0 0 -1
outer loop
vertex -53.60711453266001 -51.74100385923938 0
vertex -64.87726125230654 -25.223011577718136 0
vertex -47.972041172836754 -45.11150578885907 0
endloop
endfacet
facet normal 0 0 1
outer loop
vertex -53.60711453266001 -51.74100385923938 1.6
vertex -64.87726125230654 -25.223011577718136 1.6
vertex -64.87726125230654 -45.11150578885907 1.6
endloop
endfacet
facet normal 0 0 -1
outer loop
vertex -53.60711453266001 -51.74100385923938 0
vertex -64.87726125230654 -45.11150578885907 0
vertex -64.87726125230654 -25.223011577718136 0
endloop
endfacet
facet normal 0 0 1
outer loop
vertex -53.60711453266001 -51.74100385923938 1.6
vertex -64.87726125230654 -45.11150578885907 1.6
vertex -64.87726125230654 -65 1.6
endloop
endfacet
facet normal 0 0 -1
outer loop
vertex -53.60711453266001 -51.74100385923938 0
vertex -64.87726125230654 -65 0
vertex -64.87726125230654 -45.11150578885907 0
endloop
endfacet
facet normal 0 0 1
outer loop
vertex -53.60711453266001 -51.74100385923938 1.6
vertex -64.87726125230654 -65 1.6
vertex -47.972041172836754 -61.57880015863199 1.6
endloop
endfacet
facet normal 0 0 -1
outer loop
vertex -53.60711453266001 -51.74100385923938 0
vertex -47.972041172836754 -61.57880015863199 0
vertex -64.87726125230654 -65 0
endloop
endfacet
facet normal 0 0 1
outer loop
vertex -53.60711453266001 -51.74100385923938 1.6
vertex -47.972041172836754 -61.57880015863199 1.6
vertex -31.066821093366976 -65 1.6
endloop
endfacet
facet normal 0 0 -1
outer loop
vertex -53.60711453266001 -51.74100385923938 0
vertex -31.066821093366976 -65 0
vertex -47.972041172836754 -61.57880015863199 0
endloop
endfacet
facet normal 0.7619393177594594 0.6476484200955401 0
outer loop
vertex -31.066821093366976 -65 0
vertex -47.972041172836754 -45.11150578885907 0
vertex -47.972041172836754 -45.11150578885907 1.6
endloop
endfacet
facet normal 0.7619393177594594 0.6476484200955401 0
outer loop
vertex -31.066821093366976 -65 0
vertex -47.972041172836754 -45.11150578885907 1.6
vertex -31.066821093366976 -65 1.6
endloop
endfacet
facet normal 0.7619393177594596 0.6476484200955404 0
outer loop
vertex -47.972041172836754 -45.11150578885907 0
vertex -64.87726125230654 -25.223011577718136 0
vertex -64.87726125230654 -25.223011577718136 1.6
endloop
endfacet
facet normal 0.7619393177594596 0.6476484200955404 0
outer loop
vertex -47.972041172836754 -45.11150578885907 0
vertex -64.87726125230654 -25.223011577718136 1.6
vertex -47.972041172836754 -45.11150578885907 1.6
endloop
endfacet
facet normal -1 0 0
outer loop
vertex -64.87726125230654 -25.223011577718136 0
vertex -64.87726125230654 -45.11150578885907 0
vertex -64.87726125230654 -45.11150578885907 1.6
endloop
endfacet
facet normal -1 0 0
outer loop
vertex -64.87726125230654 -25.223011577718136 0
vertex -64.87726125230654 -45.11150578885907 1.6
vertex -64.87726125230654 -25.223011577718136 1.6
endloop
endfacet
facet normal -1 0 0
outer loop
vertex -64.87726125230654 -45.11150578885907 0
vertex -64.87726125230654 -65 0
vertex -64.87726125230654 -65 1.6
endloop
endfacet
facet normal -1 0 0
outer loop
vertex -64.87726125230654 -45.11150578885907 0
vertex -64.87726125230654 -65 1.6
vertex -64.87726125230654 -45.11150578885907 1.6
endloop
endfacet
facet normal 0.1983542330929373 -0.9801303985766957 0
outer loop
vertex -64.87726125230654 -65 0
vertex -47.972041172836754 -61.57880015863199 0
vertex -47.972041172836754 -61.57880015863199 1.6
endloop
endfacet
facet normal 0.1983542330929373 -0.9801303985766957 0
outer loop
vertex -64.87726125230654 -65 0
vertex -47.972041172836754 -61.57880015863199 1.6
vertex -64.87726125230654 -65 1.6
endloop
endfacet
facet normal -0.19835423309293737 -0.9801303985766957 0
outer loop
vertex -47.972041172836754 -61.57880015863199 0
vertex -31.066821093366976 -65 0
vertex -31.066821093366976 -65 1.6
endloop
endfacet
facet normal -0.19835423309293737 -0.9801303985766957 0
outer loop
vertex -47.972041172836754 -61.57880015863199 0
vertex -31.066821093366976 -65 1.6
vertex -47.972041172836754 -61.57880015863199 1.6
endloop
endfacet
facet normal 0 0 1
outer loop
vertex -42.33696781301348 -38.48200771847876 1.6
vertex -31.066821093366976 -65 1.6
vertex -31.066821093366958 -45.11150578885907 1.6
endloop
endfacet
facet normal 0 0 -1
outer loop
vertex -42.33696781301348 -38.48200771847876 0
vertex -31.066821093366958 -45.11150578885907 0
vertex -31.066821093366976 -65 0
endloop
endfacet
facet normal 0 0 1
outer loop
vertex -42.33696781301348 -38.48200771847876 1.6
vertex -31.066821093366958 -45.11150578885907 1.6
vertex -31.06682109336694 -25.223011577718136 1.6
endloop
endfacet
facet normal 0 0 -1
outer loop
vertex -42.33696781301348 -38.48200771847876 0
vertex -31.06682109336694 -25.223011577718136 0
vertex -31.066821093366958 -45.11150578885907 0
endloop
endfacet
facet normal 0 0 1
outer loop
vertex -42.33696781301348 -38.48200771847876 1.6
vertex -31.06682109336694 -25.223011577718136 1.6
vertex -47.97204117283674 -28.644211419086147 1.6
endloop
endfacet
facet normal 0 0 -1
outer loop
vertex -42.33696781301348 -38.48200771847876 0
vertex -47.97204117283674 -28.644211419086147 0
vertex -31.06682109336694 -25.223011577718136 0
endloop
endfacet
facet normal 0 0 1
outer loop
vertex -42.33696781301348 -38.48200771847876 1.6
vertex -47.97204117283674 -28.644211419086147 1.6
vertex -64.87726125230654 -25.223011577718136 1.6
endloop
endfacet
facet normal 0 0 -1
outer loop
vertex -42.33696781301348 -38.48200771847876 0
vertex -64.87726125230654 -25.223011577718136 0
vertex -47.97204117283674 -28.644211419086147 0
endloop
endfacet
facet normal 0 0 1
outer loop
vertex -42.33696781301348 -38.48200771847876 1.6
vertex -64.87726125230654 -25.223011577718136 1.6
vertex -47.972041172836754 -45.11150578885907 1.6
endloop
endfacet
facet normal 0 0 -1
outer loop
vertex -42.33696781301348 -38.48200771847876 0
vertex -47.972041172836754 -45.11150578885907 0
vertex -64.87726125230654 -25.223011577718136 0
endloop
endfacet
facet normal 0 0 1
outer loop
vertex -42.33696781301348 -38.48200771847876 1.6
vertex -47.972041172836754 -45.11150578885907 1.6
vertex -31.066821093366976 -65 1.6
endloop
endfacet
facet normal 0 0 -1
outer loop
vertex -42.33696781301348 -38.48200771847876 0
vertex -31.066821093366976 -65 0
vertex -47.972041172836754 -45.11150578885907 0
endloop
endfacet
facet normal 1 -8.931580342594208e-16 0
outer loop
vertex -31.066821093366976 -65 0
vertex -31.066821093366958 -45.11150578885907 0
vertex -31.066821093366958 -45.11150578885907 1.6
endloop
endfacet
facet normal 1 -8.931580342594208e-16 0
outer loop
vertex -31.066821093366976 -65 0
vertex -31.066821093366958 -45.11150578885907 1.6
vertex -31.066821093366976 -65 1.6
endloop
endfacet
facet normal 1 -8.931580342594206e-16 0
outer loop
vertex -31.066821093366958 -45.11150578885907 0
vertex -31.06682109336694 -25.223011577718136 0
vertex -31.06682109336694 -25.223011577718136 1.6
endloop
endfacet
facet normal 1 -8.931580342594206e-16 0
outer loop
vertex -31.066821093366958 -45.11150578885907 0
vertex -31.06682109336694 -25.223011577718136 1.6
vertex -31.066821093366958 -45.11150578885907 1.6
endloop
endfacet
facet normal -0.19835423309293734 0.9801303985766958 0
outer loop
vertex -31.06682109336694 -25.223011577718136 0
vertex -47.97204117283674 -28.644211419086147 0
vertex -47.97204117283674 -28.644211419086147 1.6
endloop
endfacet
facet normal -0.19835423309293734 0.9801303985766958 0
outer loop
vertex -31.06682109336694 -25.223011577718136 0
vertex -47.97204117283674 -28.644211419086147 1.6
vertex -31.06682109336694 -25.223011577718136 1.6
endloop
endfacet
facet normal 0.19835423309293734 0.9801303985766958 0
outer loop
vertex -47.97204117283674 -28.644211419086147 0
vertex -64.87726125230654 -25.223011577718136 0
vertex -64.87726125230654 -25.223011577718136 1.6
endloop
endfacet
facet normal 0.19835423309293734 0.9801303985766958 0
outer loop
vertex -47.97204117283674 -28.644211419086147 0
vertex -64.87726125230654 -25.223011577718136 1.6
vertex -47.97204117283674 -28.644211419086147 1.6
endloop
endfacet
facet normal -0.7619393177594596 -0.6476484200955404 0
outer loop
vertex -64.87726125230654 -25.223011577718136 0
vertex -47.972041172836754 -45.11150578885907 0
vertex -47.972041172836754 -45.11150578885907 1.6
endloop
endfacet
facet normal -0.7619393177594596 -0.6476484200955404 0
outer loop
vertex -64.87726125230654 -25.223011577718136 0
vertex -47.972041172836754 -45.11150578885907 1.6
vertex -64.87726125230654 -25.223011577718136 1.6
endloop
endfacet
facet normal -0.7619393177594594 -0.6476484200955401 0
outer loop
vertex -47.972041172836754 -45.11150578885907 0
vertex -31.066821093366976 -65 0
vertex -31.066821093366976 -65 1.6
endloop
endfacet
facet normal -0.7619393177594594 -0.6476484200955401 0
outer loop
vertex -47.972041172836754 -45.11150578885907 0
vertex -31.066821093366976 -65 1.6
vertex -47.972041172836754 -45.11150578885907 1.6
endloop
endfacet
facet normal 0 0 1
outer loop
vertex -23.111423408910586 -45.11150578885907 1.6
vertex -31.06682109336694 -25.223011577718136 1.6
vertex -31.066821093366958 -45.11150578885907 1.6
endloop
endfacet
facet normal 0 0 -1
outer loop
vertex -23.111423408910586 -45.11150578885907 0
vertex -31.066821093366958 -45.11150578885907 0
vertex -31.06682109336694 -25.223011577718136 0
endloop
endfacet
facet normal 0 0 1
outer loop
vertex -23.111423408910586 -45.11150578885907 1.6
vertex -31.066821093366958 -45.11150578885907 1.6
vertex -31.066821093366976 -65 1.6
endloop
endfacet
facet normal 0 0 -1
outer loop
vertex -23.111423408910586 -45.11150578885907 0
vertex -31.066821093366976 -65 0
vertex -31.066821093366958 -45.11150578885907 0
endloop
endfacet
facet normal 0 0 1
outer loop
vertex -23.111423408910586 -45.11150578885907 1.6
vertex -31.066821093366976 -65 1.6
vertex -21.042042029176056 -52.76577193943715 1.6
endloop
endfacet
facet normal 0 0 -1
outer loop
vertex -23.111423408910586 -45.11150578885907 0
vertex -21.042042029176056 -52.76577193943715 0
vertex -31.066821093366976 -65 0
endloop
endfacet
facet normal 0 0 1
outer loop
vertex -23.111423408910586 -45.11150578885907 1.6
vertex -21.042042029176056 -52.76577193943715 1.6
vertex -7.20062803999784 -45.11150578885907 1.6
endloop
endfacet
facet normal 0 0 -1
outer loop
vertex -23.111423408910586 -45.11150578885907 0
vertex -7.20062803999784 -45.11150578885907 0
vertex -21.042042029176056 -52.76577193943715 0
endloop
endfacet
facet normal 0 0 1
outer loop
vertex -23.111423408910586 -45.11150578885907 1.6
vertex -7.20062803999784 -45.11150578885907 1.6
vertex -21.04204202917604 -37.45723963828098 1.6
endloop
endfacet
facet normal 0 0 -1
outer loop
vertex -23.111423408910586 -45.11150578885907 0
vertex -21.04204202917604 -37.45723963828098 0
vertex -7.20062803999784 -45.11150578885907 0
endloop
endfacet
facet normal 0 0 1
outer loop
vertex -23.111423408910586 -45.11150578885907 1.6
vertex -21.04204202917604 -37.45723963828098 1.6
vertex -31.06682109336694 -25.223011577718136 1.6
endloop
endfacet
facet normal 0 0 -1
outer loop
vertex -23.111423408910586 -45.11150578885907 0
vertex -31.06682109336694 -25.223011577718136 0
vertex -21.04204202917604 -37.45723963828098 0
endloop
endfacet
facet normal -1 8.931580342594206e-16 0
outer loop
vertex -31.06682109336694 -25.223011577718136 0
vertex -31.066821093366958 -45.11150578885907 0
vertex -31.066821093366958 -45.11150578885907 1.6
endloop
endfacet
facet normal -1 8.931580342594206e-16 0
outer loop
vertex -31.06682109336694 -25.223011577718136 0
vertex -31.066821093366958 -45.11150578885907 1.6
vertex -31.06682109336694 -25.223011577718136 1.6
endloop
endfacet
facet normal -1 8.931580342594208e-16 0
outer loop
vertex -31.066821093366958 -45.11150578885907 0
vertex -31.066821093366976 -65 0
vertex -31.066821093366976 -65 1.6
endloop
endfacet
facet normal -1 8.931580342594208e-16 0
outer loop
vertex -31.066821093366958 -45.11150578885907 0
vertex -31.066821093366976 -65 1.6
vertex -31.066821093366958 -45.11150578885907 1.6
endloop
endfacet
facet normal 0.773493663659212 -0.6338040330252324 0
outer loop
vertex -31.066821093366976 -65 0
vertex -21.042042029176056 -52.76577193943715 0
vertex -21.042042029176056 -52.76577193943715 1.6
endloop
endfacet
facet normal 0.773493663659212 -0.6338040330252324 0
outer loop
vertex -31.066821093366976 -65 0
vertex -21.042042029176056 -52.76577193943715 1.6
vertex -31.066821093366976 -65 1.6
endloop
endfacet
facet normal 0.4839313390370913 -0.8751059702103329 0
outer loop
vertex -21.042042029176056 -52.76577193943715 0
vertex -7.20062803999784 -45.11150578885907 0
vertex -7.20062803999784 -45.11150578885907 1.6
endloop
endfacet
facet normal 0.4839313390370913 -0.8751059702103329 0
outer loop
vertex -21.042042029176056 -52.76577193943715 0
vertex -7.20062803999784 -45.11150578885907 1.6
vertex -21.042042029176056 -52.76577193943715 1.6
endloop
endfacet
facet normal 0.48393133903709196 0.8751059702103323 0
outer loop
vertex -7.20062803999784 -45.11150578885907 0
vertex -21.04204202917604 -37.45723963828098 0
vertex -21.04204202917604 -37.45723963828098 1.6
endloop
endfacet
facet normal 0.48393133903709196 0.8751059702103323 0
outer loop
vertex -7.20062803999784 -45.11150578885907 0
vertex -21.04204202917604 -37.45723963828098 1.6
vertex -7.20062803999784 -45.11150578885907 1.6
endloop
endfacet
facet normal 0.7734936636592126 0.6338040330252317 0
outer loop
vertex -21.04204202917604 -37.45723963828098 0
vertex -31.06682109336694 -25.223011577718136 0
vertex -31.06682109336694 -25.223011577718136 1.6
endloop
endfacet
facet normal 0.7734936636592126 0.6338040330252317 0
outer loop
vertex -21.04204202917604 -37.45723963828098 0
vertex -31.06682109336694 -25.223011577718136 1.6
vertex -21.04204202917604 -37.45723963828098 1.6
endloop
endfacet
facet normal 0 0 1
outer loop
vertex 53.60711453266001 -5.334517366577242 1.6
vertex 64.87726125230654 34.442471055704615 1.6
vertex 47.972041172836754 4.609729738993222 1.6
endloop
endfacet
facet normal 0 0 -1
outer loop
vertex 53.60711453266001 -5.334517366577242 0
vertex 47.972041172836754 4.609729738993222 0
vertex 64.87726125230654 34.442471055704615 0
endloop
endfacet
facet normal 0 0 1
outer loop
vertex 53.60711453266001 -5.334517366577242 1.6
vertex 47.972041172836754 4.609729738993222 1.6
vertex 31.066821093366976 -25.22301157771817 1.6
endloop
endfacet
facet normal 0 0 -1
outer loop
vertex 53.60711453266001 -5.334517366577242 0
vertex 31.066821093366976 -25.22301157771817 0
vertex 47.972041172836754 4.609729738993222 0
endloop
endfacet
facet normal 0 0 1
outer loop
vertex 53.60711453266001 -5.334517366577242 1.6
vertex 31.066821093366976 -25.22301157771817 1.6
vertex 47.972041172836754 -21.23954644022137 1.6
endloop
endfacet
facet normal 0 0 -1
outer loop
vertex 53.60711453266001 -5.334517366577242 0
vertex 47.972041172836754 -21.23954644022137 0
vertex 31.066821093366976 -25.22301157771817 0
endloop
endfacet
facet normal 0 0 1
outer loop
vertex 53.60711453266001 -5.334517366577242 1.6
vertex 47.972041172836754 -21.23954644022137 1.6
vertex 64.87726125230654 -25.22301157771817 1.6
endloop
endfacet
facet normal 0 0 -1
outer loop
vertex 53.60711453266001 -5.334517366577242 0
vertex 64.87726125230654 -25.22301157771817 0
vertex 47.972041172836754 -21.23954644022137 0
endloop
endfacet
facet normal 0 0 1
outer loop
vertex 53.60711453266001 -5.334517366577242 1.6
vertex 64.87726125230654 -25.22301157771817 1.6
vertex 64.87726125230654 4.609729738993222 1.6
endloop
endfacet
facet normal 0 0 -1
outer loop
vertex 53.60711453266001 -5.334517366577242 0
vertex 64.87726125230654 4.609729738993222 0
vertex 64.87726125230654 -25.22301157771817 0
endloop
endfacet
facet normal 0 0 1
outer loop
vertex 53.60711453266001 -5.334517366577242 1.6
vertex 64.87726125230654 4.609729738993222 1.6
vertex 64.87726125230654 34.442471055704615 1.6
endloop
endfacet
facet normal 0 0 -1
outer loop
vertex 53.60711453266001 -5.334517366577242 0
vertex 64.87726125230654 34.442471055704615 0
vertex 64.87726125230654 4.609729738993222 0
endloop
endfacet
facet normal -0.8700221858486125 0.4930125719808803 0
outer loop
vertex 64.87726125230654 34.442471055704615 0
vertex 47.972041172836754 4.609729738993222 0
vertex 47.972041172836754 4.609729738993222 1.6
endloop
endfacet
facet normal -0.8700221858486125 0.4930125719808803 0
outer loop
vertex 64.87726125230654 34.442471055704615 0
vertex 47.972041172836754 4.609729738993222 1.6
vertex 64.87726125230654 34.442471055704615 1.6
endloop
endfacet
facet normal -0.8700221858486125 0.49301257198088 0
outer loop
vertex 47.972041172836754 4.609729738993222 0
vertex 31.066821093366976 -25.22301157771817 0
vertex 31.066821093366976 -25.22301157771817 1.6
endloop
endfacet
facet normal -0.8700221858486125 0.49301257198088 0
outer loop
vertex 47.972041172836754 4.609729738993222 0
vertex 31.066821093366976 -25.22301157771817 1.6
vertex 47.972041172836754 4.609729738993222 1.6
endloop
endfacet
facet normal 0.22935390820904758 -0.9733430971601101 0
outer loop
vertex 31.066821093366976 -25.22301157771817 0
vertex 47.972041172836754 -21.23954644022137 0
vertex 47.972041172836754 -21.23954644022137 1.6
endloop
endfacet
facet normal 0.22935390820904758 -0.9733430971601101 0
outer loop
vertex 31.066821093366976 -25.22301157771817 0
vertex 47.972041172836754 -21.23954644022137 1.6
vertex 31.066821093366976 -25.22301157771817 1.6
endloop
endfacet
facet normal -0.22935390820904747 -0.9733430971601101 0
outer loop
vertex 47.972041172836754 -21.23954644022137 0
vertex 64.87726125230654 -25.22301157771817 0
vertex 64.87726125230654 -25.22301157771817 1.6
endloop
endfacet
facet normal -0.22935390820904747 -0.9733430971601101 0
outer loop
vertex 47.972041172836754 -21.23954644022137 0
vertex 64.87726125230654 -25.22301157771817 1.6
vertex 47.972041172836754 -21.23954644022137 1.6
endloop
endfacet
facet normal 1 0 0
outer loop
vertex 64.87726125230654 -25.22301157771817 0
vertex 64.87726125230654 4.609729738993222 0
vertex 64.87726125230654 4.609729738993222 1.6
endloop
endfacet
facet normal 1 0 0
outer loop
vertex 64.87726125230654 -25.22301157771817 0
vertex 64.87726125230654 4.609729738993222 1.6
vertex 64.87726125230654 -25.22301157771817 1.6
endloop
endfacet
facet normal 1 0 0
outer loop
vertex 64.87726125230654 4.609729738993222 0
vertex 64.87726125230654 34.442471055704615 0
vertex 64.87726125230654 34.442471055704615 1.6
endloop
endfacet
facet normal 1 0 0
outer loop
vertex 64.87726125230654 4.609729738993222 0
vertex 64.87726125230654 34.442471055704615 1.6
vertex 64.87726125230654 4.609729738993222 1.6
endloop
endfacet
facet normal 0 0 1
outer loop
vertex 42.336967813013494 14.553976844563687 1.6
vertex 64.87726125230654 34.442471055704615 1.6
vertex 47.972041172836754 30.459005918207815 1.6
endloop
endfacet
facet normal 0 0 -1
outer loop
vertex 42.336967813013494 14.553976844563687 0
vertex 47.972041172836754 30.459005918207815 0
vertex 64.87726125230654 34.442471055704615 0
endloop
endfacet
facet normal 0 0 1
outer loop
vertex 42.336967813013494 14.553976844563687 1.6
vertex 47.972041172836754 30.459005918207815 1.6
vertex 31.066821093366976 34.442471055704615 1.6
endloop
endfacet
facet normal 0 0 -1
outer loop
vertex 42.336967813013494 14.553976844563687 0
vertex 31.066821093366976 34.442471055704615 0
vertex 47.972041172836754 30.459005918207815 0
endloop
endfacet
facet normal 0 0 1
outer loop
vertex 42.336967813013494 14.553976844563687 1.6
vertex 31.066821093366976 34.442471055704615 1.6
vertex 35.050286230863776 4.609729738993222 1.6
endloop
endfacet
facet normal 0 0 -1
outer loop
vertex 42.336967813013494 14.553976844563687 0
vertex 35.050286230863776 4.609729738993222 0
vertex 31.066821093366976 34.442471055704615 0
endloop
endfacet
facet normal 0 0 1
outer loop
vertex 42.336967813013494 14.553976844563687 1.6
vertex 35.050286230863776 4.609729738993222 1.6
vertex 31.066821093366976 -25.22301157771817 1.6
endloop
endfacet
facet normal 0 0 -1
outer loop
vertex 42.336967813013494 14.553976844563687 0
vertex 31.066821093366976 -25.22301157771817 0
vertex 35.050286230863776 4.609729738993222 0
endloop
endfacet
facet normal 0 0 1
outer loop
vertex 42.336967813013494 14.553976844563687 1.6
vertex 31.066821093366976 -25.22301157771817 1.6
vertex 47.972041172836754 4.609729738993222 1.6
endloop
endfacet
facet normal 0 0 -1
outer loop
vertex 42.336967813013494 14.553976844563687 0
vertex 47.972041172836754 4.609729738993222 0
vertex 31.066821093366976 -25.22301157771817 0
endloop
endfacet
facet normal 0 0 1
outer loop
vertex 42.336967813013494 14.553976844563687 1.6
vertex 47.972041172836754 4.609729738993222 1.6
vertex 64.87726125230654 34.442471055704615 1.6
endloop
endfacet
facet normal 0 0 -1
outer loop
vertex 42.336967813013494 14.553976844563687 0
vertex 64.87726125230654 34.442471055704615 0
vertex 47.972041172836754 4.609729738993222 0
endloop
endfacet
facet normal -0.22935390820904747 0.9733430971601101 0
outer loop
vertex 64.87726125230654 34.442471055704615 0
vertex 47.972041172836754 30.459005918207815 0
vertex 47.972041172836754 30.459005918207815 1.6
endloop
endfacet
facet normal -0.22935390820904747 0.9733430971601101 0
outer loop
vertex 64.87726125230654 34.442471055704615 0
vertex 47.972041172836754 30.459005918207815 1.6
vertex 64.87726125230654 34.442471055704615 1.6
endloop
endfacet
facet normal 0.22935390820904758 0.9733430971601101 0
outer loop
vertex 47.972041172836754 30.459005918207815 0
vertex 31.066821093366976 34.442471055704615 0
vertex 31.066821093366976 34.442471055704615 1.6
endloop
endfacet
facet normal 0.22935390820904758 0.9733430971601101 0
outer loop
vertex 47.972041172836754 30.459005918207815 0
vertex 31.066821093366976 34.442471055704615 1.6
vertex 47.972041172836754 30.459005918207815 1.6
endloop
endfacet
facet normal -0.9912027840639213 -0.13235195829277055 0
outer loop
vertex 31.066821093366976 34.442471055704615 0
vertex 35.050286230863776 4.609729738993222 0
vertex 35.050286230863776 4.609729738993222 1.6
endloop
endfacet
facet normal -0.9912027840639213 -0.13235195829277055 0
outer loop
vertex 31.066821093366976 34.442471055704615 0
vertex 35.050286230863776 4.609729738993222 1.6
vertex 31.066821093366976 34.442471055704615 1.6
endloop
endfacet
facet normal -0.9912027840639213 0.13235195829277055 0
outer loop
vertex 35.050286230863776 4.609729738993222 0
vertex 31.066821093366976 -25.22301157771817 0
vertex 31.066821093366976 -25.22301157771817 1.6
endloop
endfacet
facet normal -0.9912027840639213 0.13235195829277055 0
outer loop
vertex 35.050286230863776 4.609729738993222 0
vertex 31.066821093366976 -25.22301157771817 1.6
vertex 35.050286230863776 4.609729738993222 1.6
endloop
endfacet
facet normal 0.8700221858486125 -0.49301257198088 0
outer loop
vertex 31.066821093366976 -25.22301157771817 0
vertex 47.972041172836754 4.609729738993222 0
vertex 47.972041172836754 4.609729738993222 1.6
endloop
endfacet
facet normal 0.8700221858486125 -0.49301257198088 0
outer loop
vertex 31.066821093366976 -25.22301157771817 0
vertex 47.972041172836754 4.609729738993222 1.6
vertex 31.066821093366976 -25.22301157771817 1.6
endloop
endfacet
facet normal 0.8700221858486125 -0.4930125719808803 0
outer loop
vertex 47.972041172836754 4.609729738993222 0
vertex 64.87726125230654 34.442471055704615 0
vertex 64.87726125230654 34.442471055704615 1.6
endloop
endfacet
facet normal 0.8700221858486125 -0.4930125719808803 0
outer loop
vertex 47.972041172836754 4.609729738993222 0
vertex 64.87726125230654 34.442471055704615 1.6
vertex 47.972041172836754 4.609729738993222 1.6
endloop
endfacet
facet normal 0 0 1
outer loop
vertex -53.607114532660006 -5.334517366577207 1.6
vertex -64.87726125230654 34.44247105570465 1.6
vertex -64.87726125230654 4.609729738993257 1.6
endloop
endfacet
facet normal 0 0 -1
outer loop
vertex -53.607114532660006 -5.334517366577207 0
vertex -64.87726125230654 4.609729738993257 0
vertex -64.87726125230654 34.44247105570465 0
endloop
endfacet
facet normal 0 0 1
outer loop
vertex -53.607114532660006 -5.334517366577207 1.6
vertex -64.87726125230654 4.609729738993257 1.6
vertex -64.87726125230654 -25.223011577718136 1.6
endloop
endfacet
facet normal 0 0 -1
outer loop
vertex -53.607114532660006 -5.334517366577207 0
vertex -64.87726125230654 -25.223011577718136 0
vertex -64.87726125230654 4.609729738993257 0
endloop
endfacet
facet normal 0 0 1
outer loop
vertex -53.607114532660006 -5.334517366577207 1.6
vertex -64.87726125230654 -25.223011577718136 1.6
vertex -47.97204117283674 -21.239546440221332 1.6
endloop
endfacet
facet normal 0 0 -1
outer loop
vertex -53.607114532660006 -5.334517366577207 0
vertex -47.97204117283674 -21.239546440221332 0
vertex -64.87726125230654 -25.223011577718136 0
endloop
endfacet
facet normal 0 0 1
outer loop
vertex -53.607114532660006 -5.334517366577207 1.6
vertex -47.97204117283674 -21.239546440221332 1.6
vertex -31.06682109336694 -25.223011577718136 1.6
endloop
endfacet
facet normal 0 0 -1
outer loop
vertex -53.607114532660006 -5.334517366577207 0
vertex -31.06682109336694 -25.223011577718136 0
vertex -47.97204117283674 -21.239546440221332 0
endloop
endfacet
facet normal 0 0 1
outer loop
vertex -53.607114532660006 -5.334517366577207 1.6
vertex -31.06682109336694 -25.223011577718136 1.6
vertex -47.97204117283674 4.609729738993257 1.6
endloop
endfacet
facet normal 0 0 -1
outer loop
vertex -53.607114532660006 -5.334517366577207 0
vertex -47.97204117283674 4.609729738993257 0
vertex -31.06682109336694 -25.223011577718136 0
endloop
endfacet
facet normal 0 0 1
outer loop
vertex -53.607114532660006 -5.334517366577207 1.6
vertex -47.97204117283674 4.609729738993257 1.6
vertex -64.87726125230654 34.44247105570465 1.6
endloop
endfacet
facet normal 0 0 -1
outer loop
vertex -53.607114532660006 -5.334517366577207 0
vertex -64.87726125230654 34.44247105570465 0
vertex -47.97204117283674 4.609729738993257 0
endloop
endfacet
facet normal -1 0 0
outer loop
vertex -64.87726125230654 34.44247105570465 0
vertex -64.87726125230654 4.609729738993257 0
vertex -64.87726125230654 4.609729738993257 1.6
endloop
endfacet
facet normal -1 0 0
outer loop
vertex -64.87726125230654 34.44247105570465 0
vertex -64.87726125230654 4.609729738993257 1.6
vertex -64.87726125230654 34.44247105570465 1.6
endloop
endfacet
facet normal -1 0 0
outer loop
vertex -64.87726125230654 4.609729738993257 0
vertex -64.87726125230654 -25.223011577718136 0
vertex -64.87726125230654 -25.223011577718136 1.6
endloop
endfacet
facet normal -1 0 0
outer loop
vertex -64.87726125230654 4.609729738993257 0
vertex -64.87726125230654 -25.223011577718136 1.6
vertex -64.87726125230654 4.609729738993257 1.6
endloop
endfacet
facet normal 0.22935390820904752 -0.9733430971601101 0
outer loop
vertex -64.87726125230654 -25.223011577718136 0
vertex -47.97204117283674 -21.239546440221332 0
vertex -47.97204117283674 -21.239546440221332 1.6
endloop
endfacet
facet normal 0.22935390820904752 -0.9733430971601101 0
outer loop
vertex -64.87726125230654 -25.223011577718136 0
vertex -47.97204117283674 -21.239546440221332 1.6
vertex -64.87726125230654 -25.223011577718136 1.6
endloop
endfacet
facet normal -0.22935390820904752 -0.9733430971601101 0
outer loop
vertex -47.97204117283674 -21.239546440221332 0
vertex -31.06682109336694 -25.223011577718136 0
vertex -31.06682109336694 -25.223011577718136 1.6
endloop
endfacet
facet normal -0.22935390820904752 -0.9733430971601101 0
outer loop
vertex -47.97204117283674 -21.239546440221332 0
vertex -31.06682109336694 -25.223011577718136 1.6
vertex -47.97204117283674 -21.239546440221332 1.6
endloop
endfacet
facet normal 0.8700221858486122 0.4930125719808806 0
outer loop
vertex -31.06682109336694 -25.223011577718136 0
vertex -47.97204117283674 4.609729738993257 0
vertex -47.97204117283674 4.609729738993257 1.6
endloop
endfacet
facet normal 0.8700221858486122 0.4930125719808806 0
outer loop
vertex -31.06682109336694 -25.223011577718136 0
vertex -47.97204117283674 4.609729738993257 1.6
vertex -31.06682109336694 -25.223011577718136 1.6
endloop
endfacet
facet normal 0.8700221858486122 0.4930125719808806 0
outer loop
vertex -47.97204117283674 4.609729738993257 0
vertex -64.87726125230654 34.44247105570465 0
vertex -64.87726125230654 34.44247105570465 1.6
endloop
endfacet
facet normal 0.8700221858486122 0.4930125719808806 0
outer loop
vertex -47.97204117283674 4.609729738993257 0
vertex -64.87726125230654 34.44247105570465 1.6
vertex -47.97204117283674 4.609729738993257 1.6
endloop
endfacet
facet normal 0 0 1
outer loop
vertex -42.33696781301348 14.55397684456372 1.6
vertex -64.87726125230654 34.44247105570465 1.6
vertex -47.97204117283674 4.609729738993257 1.6
endloop
endfacet
facet normal 0 0 -1
outer loop
vertex -42.33696781301348 14.55397684456372 0
vertex -47.97204117283674 4.609729738993257 0
vertex -64.87726125230654 34.44247105570465 0
endloop
endfacet
facet normal 0 0 1
outer loop
vertex -42.33696781301348 14.55397684456372 1.6
vertex -47.97204117283674 4.609729738993257 1.6
vertex -31.06682109336694 -25.223011577718136 1.6
endloop
endfacet
facet normal 0 0 -1
outer loop
vertex -42.33696781301348 14.55397684456372 0
vertex -31.06682109336694 -25.223011577718136 0
vertex -47.97204117283674 4.609729738993257 0
endloop
endfacet
facet normal 0 0 1
outer loop
vertex -42.33696781301348 14.55397684456372 1.6
vertex -31.06682109336694 -25.223011577718136 1.6
vertex -35.050286230863755 4.609729738993255 1.6
endloop
endfacet
facet normal 0 0 -1
outer loop
vertex -42.33696781301348 14.55397684456372 0
vertex -35.050286230863755 4.609729738993255 0
vertex -31.06682109336694 -25.223011577718136 0
endloop
endfacet
facet normal 0 0 1
outer loop
vertex -42.33696781301348 14.55397684456372 1.6
vertex -35.050286230863755 4.609729738993255 1.6
vertex -31.066821093366976 34.44247105570465 1.6
endloop
endfacet
facet normal 0 0 -1
outer loop
vertex -42.33696781301348 14.55397684456372 0
vertex -31.066821093366976 34.44247105570465 0
vertex -35.050286230863755 4.609729738993255 0
endloop
endfacet
facet normal 0 0 1
outer loop
vertex -42.33696781301348 14.55397684456372 1.6
vertex -31.066821093366976 34.44247105570465 1.6
vertex -47.972041172836754 30.45900591820785 1.6
endloop
endfacet
facet normal 0 0 -1
outer loop
vertex -42.33696781301348 14.55397684456372 0
vertex -47.972041172836754 30.45900591820785 0
vertex -31.066821093366976 34.44247105570465 0
endloop
endfacet
facet normal 0 0 1
outer loop
vertex -42.33696781301348 14.55397684456372 1.6
vertex -47.972041172836754 30.45900591820785 1.6
vertex -64.87726125230654 34.44247105570465 1.6
endloop
endfacet
facet normal 0 0 -1
outer loop
vertex -42.33696781301348 14.55397684456372 0
vertex -64.87726125230654 34.44247105570465 0
vertex -47.972041172836754 30.45900591820785 0
endloop
endfacet
facet normal -0.8700221858486122 -0.4930125719808806 0
outer loop
vertex -64.87726125230654 34.44247105570465 0
vertex -47.97204117283674 4.609729738993257 0
vertex -47.97204117283674 4.609729738993257 1.6
endloop
endfacet
facet normal -0.8700221858486122 -0.4930125719808806 0
outer loop
vertex -64.87726125230654 34.44247105570465 0
vertex -47.97204117283674 4.609729738993257 1.6
vertex -64.87726125230654 34.44247105570465 1.6
endloop
endfacet
facet normal -0.8700221858486122 -0.4930125719808806 0
outer loop
vertex -47.97204117283674 4.609729738993257 0
vertex -31.06682109336694 -25.223011577718136 0
vertex -31.06682109336694 -25.223011577718136 1.6
endloop
endfacet
facet normal -0.8700221858486122 -0.4930125719808806 0
outer loop
vertex -47.97204117283674 4.609729738993257 0
vertex -31.06682109336694 -25.223011577718136 1.6
vertex -47.97204117283674 4.609729738993257 1.6
endloop
endfacet
facet normal 0.9912027840639213 0.13235195829277105 0
outer loop
vertex -31.06682109336694 -25.223011577718136 0
vertex -35.050286230863755 4.609729738993255 0
vertex -35.050286230863755 4.609729738993255 1.6
endloop
endfacet
facet normal 0.9912027840639213 0.13235195829277105 0
outer loop
vertex -31.06682109336694 -25.223011577718136 0
vertex -35.050286230863755 4.609729738993255 1.6
vertex -31.06682109336694 -25.223011577718136 1.6
endloop
endfacet
facet normal 0.9912027840639215 -0.13235195829276988 0
outer loop
vertex -35.050286230863755 4.609729738993255 0
vertex -31.066821093366976 34.44247105570465 0
vertex -31.066821093366976 34.44247105570465 1.6
endloop
endfacet
facet normal 0.9912027840639215 -0.13235195829276988 0
outer loop
vertex -35.050286230863755 4.609729738993255 0
vertex -31.066821093366976 34.44247105570465 1.6
vertex -35.050286230863755 4.609729738993255 1.6
endloop
endfacet
facet normal -0.22935390820904758 0.9733430971601101 0
outer loop
vertex -31.066821093366976 34.44247105570465 0
vertex -47.972041172836754 30.45900591820785 0
vertex -47.972041172836754 30.45900591820785 1.6
endloop
endfacet
facet normal -0.22935390820904758 0.9733430971601101 0
outer loop
vertex -31.066821093366976 34.44247105570465 0
vertex -47.972041172836754 30.45900591820785 1.6
vertex -31.066821093366976 34.44247105570465 1.6
endloop
endfacet
facet normal 0.22935390820904747 0.9733430971601101 0
outer loop
vertex -47.972041172836754 30.45900591820785 0
vertex -64.87726125230654 34.44247105570465 0
vertex -64.87726125230654 34.44247105570465 1.6
endloop
endfacet
facet normal 0.22935390820904747 0.9733430971601101 0
outer loop
vertex -47.972041172836754 30.45900591820785 0
vertex -64.87726125230654 34.44247105570465 1.6
vertex -47.972041172836754 30.45900591820785 1.6
endloop
endfacet
facet normal 0 0 1
outer loop
vertex 10.355607031122325 14.553976844563707 1.6
vertex 31.066821093366976 34.442471055704615 1.6
vertex 15.533410546683484 30.688341067664528 1.6
endloop
endfacet
facet normal 0 0 -1
outer loop
vertex 10.355607031122325 14.553976844563707 0
vertex 15.533410546683484 30.688341067664528 0
vertex 31.066821093366976 34.442471055704615 0
endloop
endfacet
facet normal 0 0 1
outer loop
vertex 10.355607031122325 14.553976844563707 1.6
vertex 15.533410546683484 30.688341067664528 1.6
vertex 0 34.44247105570465 1.6
endloop
endfacet
facet normal 0 0 -1
outer loop
vertex 10.355607031122325 14.553976844563707 0
vertex 0 34.44247105570465 0
vertex 15.533410546683484 30.688341067664528 0
endloop
endfacet
facet normal 0 0 1
outer loop
vertex 10.355607031122325 14.553976844563707 1.6
vertex 0 34.44247105570465 1.6
vertex 3.754129988040102 4.609729738993257 1.6
endloop
endfacet
facet normal 0 0 -1
outer loop
vertex 10.355607031122325 14.553976844563707 0
vertex 3.754129988040102 4.609729738993257 0
vertex 0 34.44247105570465 0
endloop
endfacet
facet normal 0 0 1
outer loop
vertex 10.355607031122325 14.553976844563707 1.6
vertex 3.754129988040102 4.609729738993257 1.6
vertex 0 -25.223011577718136 1.6
endloop
endfacet
facet normal 0 0 -1
outer loop
vertex 10.355607031122325 14.553976844563707 0
vertex 0 -25.223011577718136 0
vertex 3.754129988040102 4.609729738993257 0
endloop
endfacet
facet normal 0 0 1
outer loop
vertex 10.355607031122325 14.553976844563707 1.6
vertex 0 -25.223011577718136 1.6
vertex 15.533410546683488 4.60972973899324 1.6
endloop
endfacet
facet normal 0 0 -1
outer loop
vertex 10.355607031122325 14.553976844563707 0
vertex 15.533410546683488 4.60972973899324 0
vertex 0 -25.223011577718136 0
endloop
endfacet
facet normal 0 0 1
outer loop
vertex 10.355607031122325 14.553976844563707 1.6
vertex 15.533410546683488 4.60972973899324 1.6
vertex 31.066821093366976 34.442471055704615 1.6
endloop
endfacet
facet normal 0 0 -1
outer loop
vertex 10.355607031122325 14.553976844563707 0
vertex 31.066821093366976 34.442471055704615 0
vertex 15.533410546683488 4.60972973899324 0
endloop
endfacet
facet normal -0.23491761327227093 0.9720152853605029 0
outer loop
vertex 31.066821093366976 34.442471055704615 0
vertex 15.533410546683484 30.688341067664528 0
vertex 15.533410546683484 30.688341067664528 1.6
endloop
endfacet
facet normal -0.23491761327227093 0.9720152853605029 0
outer loop
vertex 31.066821093366976 34.442471055704615 0
vertex 15.533410546683484 30.688341067664528 1.6
vertex 31.066821093366976 34.442471055704615 1.6
endloop
endfacet
facet normal 0.2349176132722731 0.9720152853605022 0
outer loop
vertex 15.533410546683484 30.688341067664528 0
vertex 0 34.44247105570465 0
vertex 0 34.44247105570465 1.6
endloop
endfacet
facet normal 0.2349176132722731 0.9720152853605022 0
outer loop
vertex 15.533410546683484 30.688341067664528 0
vertex 0 34.44247105570465 1.6
vertex 15.533410546683484 30.688341067664528 1.6
endloop
endfacet
facet normal -0.9921750531470789 -0.12485457105204868 0
outer loop
vertex 0 34.44247105570465 0
vertex 3.754129988040102 4.609729738993257 0
vertex 3.754129988040102 4.609729738993257 1.6
endloop
endfacet
facet normal -0.9921750531470789 -0.12485457105204868 0
outer loop
vertex 0 34.44247105570465 0
vertex 3.754129988040102 4.609729738993257 1.6
vertex 0 34.44247105570465 1.6
endloop
endfacet
facet normal -0.9921750531470789 0.12485457105204868 0
outer loop
vertex 3.754129988040102 4.609729738993257 0
vertex 0 -25.223011577718136 0
vertex 0 -25.223011577718136 1.6
endloop
endfacet
facet normal -0.9921750531470789 0.12485457105204868 0
outer loop
vertex 3.754129988040102 4.609729738993257 0
vertex 0 -25.223011577718136 1.6
vertex 3.754129988040102 4.609729738993257 1.6
endloop
endfacet
facet normal 0.8869685939836236 -0.4618297449133323 0
outer loop
vertex 0 -25.223011577718136 0
vertex 15.533410546683488 4.60972973899324 0
vertex 15.533410546683488 4.60972973899324 1.6
endloop
endfacet
facet normal 0.8869685939836236 -0.4618297449133323 0
outer loop
vertex 0 -25.223011577718136 0
vertex 15.533410546683488 4.60972973899324 1.6
vertex 0 -25.223011577718136 1.6
endloop
endfacet
facet normal 0.8869685939836236 -0.4618297449133323 0
outer loop
vertex 15.533410546683488 4.60972973899324 0
vertex 31.066821093366976 34.442471055704615 0
vertex 31.066821093366976 34.442471055704615 1.6
endloop
endfacet
facet normal 0.8869685939836236 -0.4618297449133323 0
outer loop
vertex 15.533410546683488 4.60972973899324 0
vertex 31.066821093366976 34.442471055704615 1.6
vertex 15.533410546683488 4.60972973899324 1.6
endloop
endfacet
facet normal 0 0 1
outer loop
vertex 20.71121406224465 -5.334517366577231 1.6
vertex 31.066821093366976 34.442471055704615 1.6
vertex 15.533410546683488 4.60972973899324 1.6
endloop
endfacet
facet normal 0 0 -1
outer loop
vertex 20.71121406224465 -5.334517366577231 0
vertex 15.533410546683488 4.60972973899324 0
vertex 31.066821093366976 34.442471055704615 0
endloop
endfacet
facet normal 0 0 1
outer loop
vertex 20.71121406224465 -5.334517366577231 1.6
vertex 15.533410546683488 4.60972973899324 1.6
vertex 0 -25.223011577718136 1.6
endloop
endfacet
facet normal 0 0 -1
outer loop
vertex 20.71121406224465 -5.334517366577231 0
vertex 0 -25.223011577718136 0
vertex 15.533410546683488 4.60972973899324 0
endloop
endfacet
facet normal 0 0 1
outer loop
vertex 20.71121406224465 -5.334517366577231 1.6
vertex 0 -25.223011577718136 1.6
vertex 15.533410546683491 -21.468881589678052 1.6
endloop
endfacet
facet normal 0 0 -1
outer loop
vertex 20.71121406224465 -5.334517366577231 0
vertex 15.533410546683491 -21.468881589678052 0
vertex 0 -25.223011577718136 0
endloop
endfacet
facet normal 0 0 1
outer loop
vertex 20.71121406224465 -5.334517366577231 1.6
vertex 15.533410546683491 -21.468881589678052 1.6
vertex 31.066821093366976 -25.22301157771817 1.6
endloop
endfacet
facet normal 0 0 -1
outer loop
vertex 20.71121406224465 -5.334517366577231 0
vertex 31.066821093366976 -25.22301157771817 0
vertex 15.533410546683491 -21.468881589678052 0
endloop
endfacet
facet normal 0 0 1
outer loop
vertex 20.71121406224465 -5.334517366577231 1.6
vertex 31.066821093366976 -25.22301157771817 1.6
vertex 27.312691105326873 4.609729738993222 1.6
endloop
endfacet
facet normal 0 0 -1
outer loop
vertex 20.71121406224465 -5.334517366577231 0
vertex 27.312691105326873 4.609729738993222 0
vertex 31.066821093366976 -25.22301157771817 0
endloop
endfacet
facet normal 0 0 1
outer loop
vertex 20.71121406224465 -5.334517366577231 1.6
vertex 27.312691105326873 4.609729738993222 1.6
vertex 31.066821093366976 34.442471055704615 1.6
endloop
endfacet
facet normal 0 0 -1
outer loop
vertex 20.71121406224465 -5.334517366577231 0
vertex 31.066821093366976 34.442471055704615 0
vertex 27.312691105326873 4.609729738993222 0
endloop
endfacet
facet normal -0.8869685939836236 0.4618297449133323 0
outer loop
vertex 31.066821093366976 34.442471055704615 0
vertex 15.533410546683488 4.60972973899324 0
vertex 15.533410546683488 4.60972973899324 1.6
endloop
endfacet
facet normal -0.8869685939836236 0.4618297449133323 0
outer loop
vertex 31.066821093366976 34.442471055704615 0
vertex 15.533410546683488 4.60972973899324 1.6
vertex 31.066821093366976 34.442471055704615 1.6
endloop
endfacet
facet normal -0.8869685939836236 0.4618297449133323 0
outer loop
vertex 15.533410546683488 4.60972973899324 0
vertex 0 -25.223011577718136 0
vertex 0 -25.223011577718136 1.6
endloop
endfacet
facet normal -0.8869685939836236 0.4618297449133323 0
outer loop
vertex 15.533410546683488 4.60972973899324 0
vertex 0 -25.223011577718136 1.6
vertex 15.533410546683488 4.60972973899324 1.6
endloop
endfacet
facet normal 0.23491761327227073 -0.9720152853605029 0
outer loop
vertex 0 -25.223011577718136 0
vertex 15.533410546683491 -21.468881589678052 0
vertex 15.533410546683491 -21.468881589678052 1.6
endloop
endfacet
facet normal 0.23491761327227073 -0.9720152853605029 0
outer loop
vertex 0 -25.223011577718136 0
vertex 15.533410546683491 -21.468881589678052 1.6
vertex 0 -25.223011577718136 1.6
endloop
endfacet
facet normal -0.23491761327227295 -0.9720152853605024 0
outer loop
vertex 15.533410546683491 -21.468881589678052 0
vertex 31.066821093366976 -25.22301157771817 0
vertex 31.066821093366976 -25.22301157771817 1.6
endloop
endfacet
facet normal -0.23491761327227295 -0.9720152853605024 0
outer loop
vertex 15.533410546683491 -21.468881589678052 0
vertex 31.066821093366976 -25.22301157771817 1.6
vertex 15.533410546683491 -21.468881589678052 1.6
endloop
endfacet
facet normal 0.9921750531470789 0.12485457105204868 0
outer loop
vertex 31.066821093366976 -25.22301157771817 0
vertex 27.312691105326873 4.609729738993222 0
vertex 27.312691105326873 4.609729738993222 1.6
endloop
endfacet
facet normal 0.9921750531470789 0.12485457105204868 0
outer loop
vertex 31.066821093366976 -25.22301157771817 0
vertex 27.312691105326873 4.609729738993222 1.6
vertex 31.066821093366976 -25.22301157771817 1.6
endloop
endfacet
facet normal 0.9921750531470789 -0.12485457105204868 0
outer loop
vertex 27.312691105326873 4.609729738993222 0
vertex 31.066821093366976 34.442471055704615 0
vertex 31.066821093366976 34.442471055704615 1.6
endloop
endfacet
facet normal 0.9921750531470789 -0.12485457105204868 0
outer loop
vertex 27.312691105326873 4.609729738993222 0
vertex 31.066821093366976 34.442471055704615 1.6
vertex 27.312691105326873 4.609729738993222 1.6
endloop
endfacet
facet normal 0 0 1
outer loop
vertex -20.71121406224464 14.55397684456372 1.6
vertex 0 34.44247105570465 1.6
vertex -15.533410546683488 30.68834106766455 1.6
endloop
endfacet
facet normal 0 0 -1
outer loop
vertex -20.71121406224464 14.55397684456372 0
vertex -15.533410546683488 30.68834106766455 0
vertex 0 34.44247105570465 0
endloop
endfacet
facet normal 0 0 1
outer loop
vertex -20.71121406224464 14.55397684456372 1.6
vertex -15.533410546683488 30.68834106766455 1.6
vertex -31.066821093366976 34.44247105570465 1.6
endloop
endfacet
facet normal 0 0 -1
outer loop
vertex -20.71121406224464 14.55397684456372 0
vertex -31.066821093366976 34.44247105570465 0
vertex -15.533410546683488 30.68834106766455 0
endloop
endfacet
facet normal 0 0 1
outer loop
vertex -20.71121406224464 14.55397684456372 1.6
vertex -31.066821093366976 34.44247105570465 1.6
vertex -27.312691105326856 4.60972973899326 1.6
endloop
endfacet
facet normal 0 0 -1
outer loop
vertex -20.71121406224464 14.55397684456372 0
vertex -27.312691105326856 4.60972973899326 0
vertex -31.066821093366976 34.44247105570465 0
endloop
endfacet
facet normal 0 0 1
outer loop
vertex -20.71121406224464 14.55397684456372 1.6
vertex -27.312691105326856 4.60972973899326 1.6
vertex -31.06682109336694 -25.223011577718136 1.6
endloop
endfacet
facet normal 0 0 -1
outer loop
vertex -20.71121406224464 14.55397684456372 0
vertex -31.06682109336694 -25.223011577718136 0
vertex -27.312691105326856 4.60972973899326 0
endloop
endfacet
facet normal 0 0 1
outer loop
vertex -20.71121406224464 14.55397684456372 1.6
vertex -31.06682109336694 -25.223011577718136 1.6
vertex -15.53341054668347 4.609729738993257 1.6
endloop
endfacet
facet normal 0 0 -1
outer loop
vertex -20.71121406224464 14.55397684456372 0
vertex -15.53341054668347 4.609729738993257 0
vertex -31.06682109336694 -25.223011577718136 0
endloop
endfacet
facet normal 0 0 1
outer loop
vertex -20.71121406224464 14.55397684456372 1.6
vertex -15.53341054668347 4.609729738993257 1.6
vertex 0 34.44247105570465 1.6
endloop
endfacet
facet normal 0 0 -1
outer loop
vertex -20.71121406224464 14.55397684456372 0
vertex 0 34.44247105570465 0
vertex -15.53341054668347 4.609729738993257 0
endloop
endfacet
facet normal -0.23491761327227184 0.9720152853605025 0
outer loop
vertex 0 34.44247105570465 0
vertex -15.533410546683488 30.68834106766455 0
vertex -15.533410546683488 30.68834106766455 1.6
endloop
endfacet
facet normal -0.23491761327227184 0.9720152853605025 0
outer loop
vertex 0 34.44247105570465 0
vertex -15.533410546683488 30.68834106766455 1.6
vertex 0 34.44247105570465 1.6
endloop
endfacet
facet normal 0.23491761327227184 0.9720152853605025 0
outer loop
vertex -15.533410546683488 30.68834106766455 0
vertex -31.066821093366976 34.44247105570465 0
vertex -31.066821093366976 34.44247105570465 1.6
endloop
endfacet
facet normal 0.23491761327227184 0.9720152853605025 0
outer loop
vertex -15.533410546683488 30.68834106766455 0
vertex -31.066821093366976 34.44247105570465 1.6
vertex -15.533410546683488 30.68834106766455 1.6
endloop
endfacet
facet normal -0.9921750531470789 -0.12485457105204927 0
outer loop
vertex -31.066821093366976 34.44247105570465 0
vertex -27.312691105326856 4.60972973899326 0
vertex -27.312691105326856 4.60972973899326 1.6
endloop
endfacet
facet normal -0.9921750531470789 -0.12485457105204927 0
outer loop
vertex -31.066821093366976 34.44247105570465 0
vertex -27.312691105326856 4.60972973899326 1.6
vertex -31.066821093366976 34.44247105570465 1.6
endloop
endfacet
facet normal -0.992175053147079 0.12485457105204811 0
outer loop
vertex -27.312691105326856 4.60972973899326 0
vertex -31.06682109336694 -25.223011577718136 0
vertex -31.06682109336694 -25.223011577718136 1.6
endloop
endfacet
facet normal -0.992175053147079 0.12485457105204811 0
outer loop
vertex -27.312691105326856 4.60972973899326 0
vertex -31.06682109336694 -25.223011577718136 1.6
vertex -27.312691105326856 4.60972973899326 1.6
endloop
endfacet
facet normal 0.886968593983624 -0.4618297449133317 0
outer loop
vertex -31.06682109336694 -25.223011577718136 0
vertex -15.53341054668347 4.609729738993257 0
vertex -15.53341054668347 4.609729738993257 1.6
endloop
endfacet
facet normal 0.886968593983624 -0.4618297449133317 0
outer loop
vertex -31.06682109336694 -25.223011577718136 0
vertex -15.53341054668347 4.609729738993257 1.6
vertex -31.06682109336694 -25.223011577718136 1.6
endloop
endfacet
facet normal 0.886968593983624 -0.4618297449133317 0
outer loop
vertex -15.53341054668347 4.609729738993257 0
vertex 0 34.44247105570465 0
vertex 0 34.44247105570465 1.6
endloop
endfacet
facet normal 0.886968593983624 -0.4618297449133317 0
outer loop
vertex -15.53341054668347 4.609729738993257 0
vertex 0 34.44247105570465 1.6
vertex -15.53341054668347 4.609729738993257 1.6
endloop
endfacet
facet normal 0 0 1
outer loop
vertex -10.355607031122313 -5.334517366577207 1.6
vertex 0 34.44247105570465 1.6
vertex -15.53341054668347 4.609729738993257 1.6
endloop
endfacet
facet normal 0 0 -1
outer loop
vertex -10.355607031122313 -5.334517366577207 0
vertex -15.53341054668347 4.609729738993257 0
vertex 0 34.44247105570465 0
endloop
endfacet
facet normal 0 0 1
outer loop
vertex -10.355607031122313 -5.334517366577207 1.6
vertex -15.53341054668347 4.609729738993257 1.6
vertex -31.06682109336694 -25.223011577718136 1.6
endloop
endfacet
facet normal 0 0 -1
outer loop
vertex -10.355607031122313 -5.334517366577207 0
vertex -31.06682109336694 -25.223011577718136 0
vertex -15.53341054668347 4.609729738993257 0
endloop
endfacet
facet normal 0 0 1
outer loop
vertex -10.355607031122313 -5.334517366577207 1.6
vertex -31.06682109336694 -25.223011577718136 1.6
vertex -15.53341054668347 -21.468881589678038 1.6
endloop
endfacet
facet normal 0 0 -1
outer loop
vertex -10.355607031122313 -5.334517366577207 0
vertex -15.53341054668347 -21.468881589678038 0
vertex -31.06682109336694 -25.223011577718136 0
endloop
endfacet
facet normal 0 0 1
outer loop
vertex -10.355607031122313 -5.334517366577207 1.6
vertex -15.53341054668347 -21.468881589678038 1.6
vertex 0 -25.223011577718136 1.6
endloop
endfacet
facet normal 0 0 -1
outer loop
vertex -10.355607031122313 -5.334517366577207 0
vertex 0 -25.223011577718136 0
vertex -15.53341054668347 -21.468881589678038 0
endloop
endfacet
facet normal 0 0 1
outer loop
vertex -10.355607031122313 -5.334517366577207 1.6
vertex 0 -25.223011577718136 1.6
vertex -3.7541299880400976 4.609729738993257 1.6
endloop
endfacet
facet normal 0 0 -1
outer loop
vertex -10.355607031122313 -5.334517366577207 0
vertex -3.7541299880400976 4.609729738993257 0
vertex 0 -25.223011577718136 0
endloop
endfacet
facet normal 0 0 1
outer loop
vertex -10.355607031122313 -5.334517366577207 1.6
vertex -3.7541299880400976 4.609729738993257 1.6
vertex 0 34.44247105570465 1.6
endloop
endfacet
facet normal 0 0 -1
outer loop
vertex -10.355607031122313 -5.334517366577207 0
vertex 0 34.44247105570465 0
vertex -3.7541299880400976 4.609729738993257 0
endloop
endfacet
facet normal -0.886968593983624 0.4618297449133317 0
outer loop
vertex 0 34.44247105570465 0
vertex -15.53341054668347 4.609729738993257 0
vertex -15.53341054668347 4.609729738993257 1.6
endloop
endfacet
facet normal -0.886968593983624 0.4618297449133317 0
outer loop
vertex 0 34.44247105570465 0
vertex -15.53341054668347 4.609729738993257 1.6
vertex 0 34.44247105570465 1.6
endloop
endfacet
facet normal -0.886968593983624 0.4618297449133317 0
outer loop
vertex -15.53341054668347 4.609729738993257 0
vertex -31.06682109336694 -25.223011577718136 0
vertex -31.06682109336694 -25.223011577718136 1.6
endloop
endfacet
facet normal -0.886968593983624 0.4618297449133317 0
outer loop
vertex -15.53341054668347 4.609729738993257 0
vertex -31.06682109336694 -25.223011577718136 1.6
vertex -15.53341054668347 4.609729738993257 1.6
endloop
endfacet
facet normal 0.23491761327227184 -0.9720152853605025 0
outer loop
vertex -31.06682109336694 -25.223011577718136 0
vertex -15.53341054668347 -21.468881589678038 0
vertex -15.53341054668347 -21.468881589678038 1.6
endloop
endfacet
facet normal 0.23491761327227184 -0.9720152853605025 0
outer loop
vertex -31.06682109336694 -25.223011577718136 0
vertex -15.53341054668347 -21.468881589678038 1.6
vertex -31.06682109336694 -25.223011577718136 1.6
endloop
endfacet
facet normal -0.23491761327227184 -0.9720152853605025 0
outer loop
vertex -15.53341054668347 -21.468881589678038 0
vertex 0 -25.223011577718136 0
vertex 0 -25.223011577718136 1.6
endloop
endfacet
facet normal -0.23491761327227184 -0.9720152853605025 0
outer loop
vertex -15.53341054668347 -21.468881589678038 0
vertex 0 -25.223011577718136 1.6
vertex -15.53341054668347 -21.468881589678038 1.6
endloop
endfacet
facet normal 0.992175053147079 0.12485457105204854 0
outer loop
vertex 0 -25.223011577718136 0
vertex -3.7541299880400976 4.609729738993257 0
vertex -3.7541299880400976 4.609729738993257 1.6
endloop
endfacet
facet normal 0.992175053147079 0.12485457105204854 0
outer loop
vertex 0 -25.223011577718136 0
vertex -3.7541299880400976 4.609729738993257 1.6
vertex 0 -25.223011577718136 1.6
endloop
endfacet
facet normal 0.992175053147079 -0.12485457105204854 0
outer loop
vertex -3.7541299880400976 4.609729738993257 0
vertex 0 34.44247105570465 0
vertex 0 34.44247105570465 1.6
endloop
endfacet
facet normal 0.992175053147079 -0.12485457105204854 0
outer loop
vertex -3.7541299880400976 4.609729738993257 0
vertex 0 34.44247105570465 1.6
vertex -3.7541299880400976 4.609729738993257 1.6
endloop
endfacet
endsolid church-kirigami-flat
