solid church
facet normal 0 -1 0
outer loop
vertex 0 0 0.58
vertex 0 0 0
vertex 1 0 0
endloop
endfacet
facet normal 0 -1 0
outer loop
vertex 0 0 0.58
vertex 1 0 0
vertex 1 0 0.58
endloop
endfacet
facet normal 0 -1 0
outer loop
vertex 0 0 0.58
vertex 1 0 0.58
vertex 0.65 0 0.776
endloop
endfacet
facet normal 0 -1 0
outer loop
vertex 0.65 0 0.776
vertex 0.65 0 1.35
vertex 0.5 0 1.8
endloop
endfacet
facet normal 0 -1 0
outer loop
vertex 0.65 0 0.776
vertex 0.5 0 1.8
vertex 0.35 0 1.35
endloop
endfacet
facet normal 0 -1 0
outer loop
vertex 0.65 0 0.776
vertex 0.35 0 1.35
vertex 0.35 0 0.776
endloop
endfacet
facet normal 0 -1 0
outer loop
vertex 0.65 0 0.776
vertex 0.35 0 0.776
vertex 0 0 0.58
endloop
endfacet
facet normal 0 1 0
outer loop
vertex 0 0.5 0.58
vertex 1 0.5 0
vertex 0 0.5 0
endloop
endfacet
facet normal 0 1 0
outer loop
vertex 0 0.5 0.58
vertex 1 0.5 0.58
vertex 1 0.5 0
endloop
endfacet
facet normal 0 1 0
outer loop
vertex 0 0.5 0.58
vertex 0.65 0.5 0.776
vertex 1 0.5 0.58
endloop
endfacet
facet normal 0 1 0
outer loop
vertex 0.65 0.5 0.776
vertex 0.5 0.5 1.8
vertex 0.65 0.5 1.35
endloop
endfacet
facet normal 0 1 0
outer loop
vertex 0.65 0.5 0.776
vertex 0.35 0.5 1.35
vertex 0.5 0.5 1.8
endloop
endfacet
facet normal 0 1 0
outer loop
vertex 0.65 0.5 0.776
vertex 0.35 0.5 0.776
vertex 0.35 0.5 1.35
endloop
endfacet
facet normal 0 1 0
outer loop
vertex 0.65 0.5 0.776
vertex 0 0.5 0.58
vertex 0.35 0.5 0.776
endloop
endfacet
facet normal 0 0 -1
outer loop
vertex 0 0 0
vertex 1 0.5 0
vertex 1 0 0
endloop
endfacet
facet normal 0 0 -1
outer loop
vertex 0 0 0
vertex 0 0.5 0
vertex 1 0.5 0
endloop
endfacet
facet normal 1 0 0
outer loop
vertex 1 0 0
vertex 1 0.5 0.58
vertex 1 0 0.58
endloop
endfacet
facet normal 1 0 0
outer loop
vertex 1 0 0
vertex 1 0.5 0
vertex 1 0.5 0.58
endloop
endfacet
facet normal 0.4886033689318433 0 0.8725060159497199
outer loop
vertex 1 0 0.58
vertex 0.65 0.5 0.776
vertex 0.65 0 0.776
endloop
endfacet
facet normal 0.4886033689318433 0 0.8725060159497199
outer loop
vertex 1 0 0.58
vertex 1 0.5 0.58
vertex 0.65 0.5 0.776
endloop
endfacet
facet normal 1 0 0
outer loop
vertex 0.65 0 0.776
vertex 0.65 0.5 1.35
vertex 0.65 0 1.35
endloop
endfacet
facet normal 1 0 0
outer loop
vertex 0.65 0 0.776
vertex 0.65 0.5 0.776
vertex 0.65 0.5 1.35
endloop
endfacet
facet normal 0.9486832980505138 0 0.316227766016838
outer loop
vertex 0.65 0 1.35
vertex 0.5 0.5 1.8
vertex 0.5 0 1.8
endloop
endfacet
facet normal 0.9486832980505138 0 0.316227766016838
outer loop
vertex 0.65 0 1.35
vertex 0.65 0.5 1.35
vertex 0.5 0.5 1.8
endloop
endfacet
facet normal -0.9486832980505138 0 0.316227766016838
outer loop
vertex 0.5 0 1.8
vertex 0.35 0.5 1.35
vertex 0.35 0 1.35
endloop
endfacet
facet normal -0.9486832980505138 0 0.316227766016838
outer loop
vertex 0.5 0 1.8
vertex 0.5 0.5 1.8
vertex 0.35 0.5 1.35
endloop
endfacet
facet normal -1 0 0
outer loop
vertex 0.35 0 1.35
vertex 0.35 0.5 0.776
vertex 0.35 0 0.776
endloop
endfacet
facet normal -1 0 0
outer loop
vertex 0.35 0 1.35
vertex 0.35 0.5 1.35
vertex 0.35 0.5 0.776
endloop
endfacet
facet normal -0.4886033689318433 0 0.8725060159497199
outer loop
vertex 0.35 0 0.776
vertex 0 0.5 0.58
vertex 0 0 0.58
endloop
endfacet
facet normal -0.4886033689318433 0 0.8725060159497199
outer loop
vertex 0.35 0 0.776
vertex 0.35 0.5 0.776
vertex 0 0.5 0.58
endloop
endfacet
facet normal -1 0 0
outer loop
vertex 0 0 0.58
vertex 0 0.5 0
vertex 0 0 0
endloop
endfacet
facet normal -1 0 0
outer loop
vertex 0 0 0.58
vertex 0 0.5 0.58
vertex 0 0.5 0
endloop
endfacet
endsolid church
