solid corner_saloon
facet normal 0 0 1
outer loop
vertex 0.9620410979566084 -0.3984904703339302 1.5
vertex 0.9933274098670312 0.4114496850438625 1.5
vertex 0.41806100837394133 1.009288556315741 1.5
endloop
endfacet
facet normal 0 0 1
outer loop
vertex 0.9620410979566084 -0.3984904703339302 1.5
vertex 0.41806100837394133 1.009288556315741 1.5
vertex -0.3879997764741377 0.9367143225615926 1.5
endloop
endfacet
facet normal 0 0 1
outer loop
vertex 0.9620410979566084 -0.3984904703339302 1.5
vertex -0.3879997764741377 0.9367143225615926 1.5
vertex -0.9394547570067598 0.3891349015881205 1.5
endloop
endfacet
facet normal 0 0 1
outer loop
vertex 0.9620410979566084 -0.3984904703339302 1.5
vertex -0.9394547570067598 0.3891349015881205 1.5
vertex -1.0113228109804333 -0.4189036242453768 1.5
endloop
endfacet
facet normal 0 0 1
outer loop
vertex 0.9620410979566084 -0.3984904703339302 1.5
vertex -1.0113228109804333 -0.4189036242453768 1.5
vertex -0.41009742709819835 -0.9900627703947829 1.5
endloop
endfacet
facet normal 0 0 1
outer loop
vertex -0.41009742709819835 -0.9900627703947829 1.5
vertex 0.3825979644771318 -0.9236731947770305 1.5
vertex 0.9620410979566084 -0.3984904703339302 1.5
endloop
endfacet
facet normal 0.7205792940206203 0.6933725412999454 0
outer loop
vertex 0.9933274098670312 0.4114496850438625 0.9199999999999999
vertex 0.41806100837394133 1.009288556315741 0.9199999999999999
vertex 0.41806100837394133 1.009288556315741 1.5
endloop
endfacet
facet normal 0.7205792940206203 0.6933725412999454 0
outer loop
vertex 0.9933274098670312 0.4114496850438625 0.9199999999999999
vertex 0.41806100837394133 1.009288556315741 1.5
vertex 0.9933274098670312 0.4114496850438625 1.5
endloop
endfacet
facet normal 0.7205792940206203 0.6933725412999455 0
outer loop
vertex 0.9933274098670312 0.4114496850438625 0
vertex 0.41806100837394133 1.009288556315741 0
vertex 0.41806100837394133 1.009288556315741 0.84
endloop
endfacet
facet normal 0.7205792940206203 0.6933725412999455 0
outer loop
vertex 0.9933274098670312 0.4114496850438625 0
vertex 0.41806100837394133 1.009288556315741 0.84
vertex 0.9933274098670312 0.4114496850438625 0.84
endloop
endfacet
facet normal -0.08967295368010368 0.9959712653376531 0
outer loop
vertex 0.41806100837394133 1.009288556315741 0.9199999999999999
vertex -0.3879997764741377 0.9367143225615926 0.9199999999999999
vertex -0.3879997764741377 0.9367143225615926 1.5
endloop
endfacet
facet normal -0.08967295368010368 0.9959712653376531 0
outer loop
vertex 0.41806100837394133 1.009288556315741 0.9199999999999999
vertex -0.3879997764741377 0.9367143225615926 1.5
vertex 0.41806100837394133 1.009288556315741 1.5
endloop
endfacet
facet normal -0.08967295368010367 0.9959712653376531 0
outer loop
vertex 0.41806100837394133 1.009288556315741 0
vertex -0.3879997764741377 0.9367143225615926 0
vertex -0.3879997764741377 0.9367143225615926 0.84
endloop
endfacet
facet normal -0.08967295368010367 0.9959712653376531 0
outer loop
vertex 0.41806100837394133 1.009288556315741 0
vertex -0.3879997764741377 0.9367143225615926 0.84
vertex 0.41806100837394133 1.009288556315741 0.84
endloop
endfacet
facet normal -0.7046089074185399 0.7095958621542628 0
outer loop
vertex -0.3879997764741377 0.9367143225615926 0.9199999999999999
vertex -0.9394547570067598 0.3891349015881205 0.9199999999999999
vertex -0.9394547570067598 0.3891349015881205 1.5
endloop
endfacet
facet normal -0.7046089074185399 0.7095958621542628 0
outer loop
vertex -0.3879997764741377 0.9367143225615926 0.9199999999999999
vertex -0.9394547570067598 0.3891349015881205 1.5
vertex -0.3879997764741377 0.9367143225615926 1.5
endloop
endfacet
facet normal -0.7046089074185398 0.7095958621542627 0
outer loop
vertex -0.3879997764741377 0.9367143225615926 0
vertex -0.9394547570067598 0.3891349015881205 0
vertex -0.9394547570067598 0.3891349015881205 0.84
endloop
endfacet
facet normal -0.7046089074185398 0.7095958621542627 0
outer loop
vertex -0.3879997764741377 0.9367143225615926 0
vertex -0.9394547570067598 0.3891349015881205 0.84
vertex -0.3879997764741377 0.9367143225615926 0.84
endloop
endfacet
facet normal -0.9960680290722763 0.08859165570227732 0
outer loop
vertex -0.9394547570067598 0.3891349015881205 0.9199999999999999
vertex -1.0113228109804333 -0.4189036242453768 0.9199999999999999
vertex -1.0113228109804333 -0.4189036242453768 1.5
endloop
endfacet
facet normal -0.9960680290722763 0.08859165570227732 0
outer loop
vertex -0.9394547570067598 0.3891349015881205 0.9199999999999999
vertex -1.0113228109804333 -0.4189036242453768 1.5
vertex -0.9394547570067598 0.3891349015881205 1.5
endloop
endfacet
facet normal -0.9960680290722764 0.08859165570227732 0
outer loop
vertex -0.9394547570067598 0.3891349015881205 0
vertex -1.0113228109804333 -0.4189036242453768 0
vertex -1.0113228109804333 -0.4189036242453768 0.84
endloop
endfacet
facet normal -0.9960680290722764 0.08859165570227732 0
outer loop
vertex -0.9394547570067598 0.3891349015881205 0
vertex -1.0113228109804333 -0.4189036242453768 0.84
vertex -0.9394547570067598 0.3891349015881205 0.84
endloop
endfacet
facet normal -0.688746312665258 -0.7250024253683645 0
outer loop
vertex -1.0113228109804333 -0.4189036242453768 0.9199999999999999
vertex -0.41009742709819835 -0.9900627703947829 0.9199999999999999
vertex -0.41009742709819835 -0.9900627703947829 1.5
endloop
endfacet
facet normal -0.688746312665258 -0.7250024253683645 0
outer loop
vertex -1.0113228109804333 -0.4189036242453768 0.9199999999999999
vertex -0.41009742709819835 -0.9900627703947829 1.5
vertex -1.0113228109804333 -0.4189036242453768 1.5
endloop
endfacet
facet normal -0.688746312665258 -0.7250024253683645 0
outer loop
vertex -1.0113228109804333 -0.4189036242453768 0
vertex -0.41009742709819835 -0.9900627703947829 0
vertex -0.41009742709819835 -0.9900627703947829 0.84
endloop
endfacet
facet normal -0.688746312665258 -0.7250024253683645 0
outer loop
vertex -1.0113228109804333 -0.4189036242453768 0
vertex -0.41009742709819835 -0.9900627703947829 0.84
vertex -1.0113228109804333 -0.4189036242453768 0.84
endloop
endfacet
facet normal 0.0834594907786052 -0.9965111707346667 0
outer loop
vertex -0.41009742709819835 -0.9900627703947829 0.9199999999999999
vertex 0.3825979644771318 -0.9236731947770305 0.9199999999999999
vertex 0.3825979644771318 -0.9236731947770305 1.5
endloop
endfacet
facet normal 0.0834594907786052 -0.9965111707346667 0
outer loop
vertex -0.41009742709819835 -0.9900627703947829 0.9199999999999999
vertex 0.3825979644771318 -0.9236731947770305 1.5
vertex -0.41009742709819835 -0.9900627703947829 1.5
endloop
endfacet
facet normal 0.0834594907786051 -0.9965111707346667 0
outer loop
vertex -0.41009742709819835 -0.9900627703947829 0
vertex -0.1881427174571059 -0.9714736892218122 0
vertex -0.1881427174571059 -0.9714736892218122 0.84
endloop
endfacet
facet normal 0.0834594907786051 -0.9965111707346667 0
outer loop
vertex -0.41009742709819835 -0.9900627703947829 0
vertex -0.1881427174571059 -0.9714736892218122 0.84
vertex -0.41009742709819835 -0.9900627703947829 0.84
endloop
endfacet
facet normal 0.08345949077860511 -0.9965111707346667 0
outer loop
vertex 0.1606432548360393 -0.9422622759500011 0
vertex 0.38259796447713174 -0.9236731947770305 0
vertex 0.38259796447713174 -0.9236731947770305 0.84
endloop
endfacet
facet normal 0.08345949077860511 -0.9965111707346667 0
outer loop
vertex 0.1606432548360393 -0.9422622759500011 0
vertex 0.38259796447713174 -0.9236731947770305 0.84
vertex 0.1606432548360393 -0.9422622759500011 0.84
endloop
endfacet
facet normal 0.08345949077860534 -0.9965111707346667 0
outer loop
vertex -0.1881427174571059 -0.9714736892218122 0.6
vertex 0.1606432548360393 -0.9422622759500011 0.6
vertex 0.1606432548360393 -0.9422622759500011 0.84
endloop
endfacet
facet normal 0.08345949077860534 -0.9965111707346667 0
outer loop
vertex -0.1881427174571059 -0.9714736892218122 0.6
vertex 0.1606432548360393 -0.9422622759500011 0.84
vertex -0.1881427174571059 -0.9714736892218122 0.84
endloop
endfacet
facet normal 0.08345949077860378 -0.9965111707346666 0
outer loop
vertex -0.0533845008892998 -0.9601874613667942 0
vertex 0.02588503826823324 -0.9535485038050191 0
vertex 0.02588503826823324 -0.9535485038050191 0.6
endloop
endfacet
facet normal 0.08345949077860378 -0.9965111707346666 0
outer loop
vertex -0.0533845008892998 -0.9601874613667942 0
vertex 0.02588503826823324 -0.9535485038050191 0.6
vertex -0.0533845008892998 -0.9601874613667942 0.6
endloop
endfacet
facet normal 0.6715632237436575 -0.7409472562301762 0
outer loop
vertex 0.3825979644771318 -0.9236731947770305 0.9199999999999999
vertex 0.9620410979566084 -0.3984904703339302 0.9199999999999999
vertex 0.9620410979566084 -0.3984904703339302 1.5
endloop
endfacet
facet normal 0.6715632237436575 -0.7409472562301762 0
outer loop
vertex 0.3825979644771318 -0.9236731947770305 0.9199999999999999
vertex 0.9620410979566084 -0.3984904703339302 1.5
vertex 0.3825979644771318 -0.9236731947770305 1.5
endloop
endfacet
facet normal 0.6715632237436575 -0.7409472562301761 0
outer loop
vertex 0.3825979644771318 -0.9236731947770305 0
vertex 0.9620410979566084 -0.3984904703339302 0
vertex 0.9620410979566084 -0.3984904703339302 0.84
endloop
endfacet
facet normal 0.6715632237436575 -0.7409472562301761 0
outer loop
vertex 0.3825979644771318 -0.9236731947770305 0
vertex 0.9620410979566084 -0.3984904703339302 0.84
vertex 0.3825979644771318 -0.9236731947770305 0.84
endloop
endfacet
facet normal 0.9992547753665374 -0.03859914386577664 0
outer loop
vertex 0.9620410979566084 -0.3984904703339302 0.9199999999999999
vertex 0.9933274098670312 0.4114496850438625 0.9199999999999999
vertex 0.9933274098670312 0.4114496850438625 1.5
endloop
endfacet
facet normal 0.9992547753665374 -0.03859914386577664 0
outer loop
vertex 0.9620410979566084 -0.3984904703339302 0.9199999999999999
vertex 0.9933274098670312 0.4114496850438625 1.5
vertex 0.9620410979566084 -0.3984904703339302 1.5
endloop
endfacet
facet normal 0.9992547753665374 -0.03859914386577664 0
outer loop
vertex 0.9620410979566084 -0.3984904703339302 0
vertex 0.9933274098670312 0.4114496850438625 0
vertex 0.9933274098670312 0.4114496850438625 0.84
endloop
endfacet
facet normal 0.9992547753665374 -0.03859914386577664 0
outer loop
vertex 0.9620410979566084 -0.3984904703339302 0
vertex 0.9933274098670312 0.4114496850438625 0.84
vertex 0.9620410979566084 -0.3984904703339302 0.84
endloop
endfacet
facet normal 0 0 -1
outer loop
vertex 0.9933274098670312 0.4114496850438625 0.84
vertex 0.41806100837394133 1.009288556315741 0.84
vertex 0.4879046428548012 1.196305081271916 0.84
endloop
endfacet
facet normal 0 0 -1
outer loop
vertex 0.9933274098670312 0.4114496850438625 0.84
vertex 0.4879046428548012 1.196305081271916 0.84
vertex 1.1761503142777245 0.4810538267343619 0.84
endloop
endfacet
facet normal 0 0 1
outer loop
vertex 0.9933274098670312 0.4114496850438625 0.9199999999999999
vertex 0.4879046428548012 1.196305081271916 0.9199999999999999
vertex 0.41806100837394133 1.009288556315741 0.9199999999999999
endloop
endfacet
facet normal 0 0 1
outer loop
vertex 0.9933274098670312 0.4114496850438625 0.9199999999999999
vertex 1.1761503142777245 0.4810538267343619 0.9199999999999999
vertex 0.4879046428548012 1.196305081271916 0.9199999999999999
endloop
endfacet
facet normal 0.7205792940206204 0.6933725412999453 0
outer loop
vertex 1.1761503142777245 0.4810538267343619 0.84
vertex 0.4879046428548012 1.196305081271916 0.84
vertex 0.4879046428548012 1.196305081271916 0.9199999999999999
endloop
endfacet
facet normal 0.7205792940206204 0.6933725412999453 0
outer loop
vertex 1.1761503142777245 0.4810538267343619 0.84
vertex 0.4879046428548012 1.196305081271916 0.9199999999999999
vertex 1.1761503142777245 0.4810538267343619 0.9199999999999999
endloop
endfacet
facet normal 0 0 -1
outer loop
vertex 0.41806100837394133 1.009288556315741 0.84
vertex -0.3879997764741377 0.9367143225615926 0.84
vertex -0.468777787807474 1.1101695246780585 0.84
endloop
endfacet
facet normal 0 0 -1
outer loop
vertex 0.41806100837394133 1.009288556315741 0.84
vertex -0.468777787807474 1.1101695246780585 0.84
vertex 0.4879046428548012 1.196305081271916 0.84
endloop
endfacet
facet normal 0 0 1
outer loop
vertex 0.41806100837394133 1.009288556315741 0.9199999999999999
vertex -0.468777787807474 1.1101695246780585 0.9199999999999999
vertex -0.3879997764741377 0.9367143225615926 0.9199999999999999
endloop
endfacet
facet normal 0 0 1
outer loop
vertex 0.41806100837394133 1.009288556315741 0.9199999999999999
vertex 0.4879046428548012 1.196305081271916 0.9199999999999999
vertex -0.468777787807474 1.1101695246780585 0.9199999999999999
endloop
endfacet
facet normal -0.08967295368010378 0.9959712653376531 0
outer loop
vertex 0.4879046428548012 1.196305081271916 0.84
vertex -0.468777787807474 1.1101695246780585 0.84
vertex -0.468777787807474 1.1101695246780585 0.9199999999999999
endloop
endfacet
facet normal -0.08967295368010378 0.9959712653376531 0
outer loop
vertex 0.4879046428548012 1.196305081271916 0.84
vertex -0.468777787807474 1.1101695246780585 0.9199999999999999
vertex 0.4879046428548012 1.196305081271916 0.9199999999999999
endloop
endfacet
facet normal 0 0 -1
outer loop
vertex -0.3879997764741377 0.9367143225615926 0.84
vertex -0.9394547570067598 0.3891349015881205 0.84
vertex -1.1129241195157804 0.47055017624394824 0.84
endloop
endfacet
facet normal 0 0 -1
outer loop
vertex -0.3879997764741377 0.9367143225615926 0.84
vertex -1.1129241195157804 0.47055017624394824 0.84
vertex -0.468777787807474 1.1101695246780585 0.84
endloop
endfacet
facet normal 0 0 1
outer loop
vertex -0.3879997764741377 0.9367143225615926 0.9199999999999999
vertex -1.1129241195157804 0.47055017624394824 0.9199999999999999
vertex -0.9394547570067598 0.3891349015881205 0.9199999999999999
endloop
endfacet
facet normal 0 0 1
outer loop
vertex -0.3879997764741377 0.9367143225615926 0.9199999999999999
vertex -0.468777787807474 1.1101695246780585 0.9199999999999999
vertex -1.1129241195157804 0.47055017624394824 0.9199999999999999
endloop
endfacet
facet normal -0.7046089074185399 0.7095958621542626 0
outer loop
vertex -0.468777787807474 1.1101695246780585 0.84
vertex -1.1129241195157804 0.47055017624394824 0.84
vertex -1.1129241195157804 0.47055017624394824 0.9199999999999999
endloop
endfacet
facet normal -0.7046089074185399 0.7095958621542626 0
outer loop
vertex -0.468777787807474 1.1101695246780585 0.84
vertex -1.1129241195157804 0.47055017624394824 0.9199999999999999
vertex -0.468777787807474 1.1101695246780585 0.9199999999999999
endloop
endfacet
facet normal 0 0 -1
outer loop
vertex -0.9394547570067598 0.3891349015881205 0.84
vertex -1.0113228109804333 -0.4189036242453768 0.84
vertex -1.1983155939443315 -0.48953705724745467 0.84
endloop
endfacet
facet normal 0 0 -1
outer loop
vertex -0.9394547570067598 0.3891349015881205 0.84
vertex -1.1983155939443315 -0.48953705724745467 0.84
vertex -1.1129241195157804 0.47055017624394824 0.84
endloop
endfacet
facet normal 0 0 1
outer loop
vertex -0.9394547570067598 0.3891349015881205 0.9199999999999999
vertex -1.1983155939443315 -0.48953705724745467 0.9199999999999999
vertex -1.0113228109804333 -0.4189036242453768 0.9199999999999999
endloop
endfacet
facet normal 0 0 1
outer loop
vertex -0.9394547570067598 0.3891349015881205 0.9199999999999999
vertex -1.1129241195157804 0.47055017624394824 0.9199999999999999
vertex -1.1983155939443315 -0.48953705724745467 0.9199999999999999
endloop
endfacet
facet normal -0.9960680290722764 0.08859165570227763 0
outer loop
vertex -1.1129241195157804 0.47055017624394824 0.84
vertex -1.1983155939443315 -0.48953705724745467 0.84
vertex -1.1983155939443315 -0.48953705724745467 0.9199999999999999
endloop
endfacet
facet normal -0.9960680290722764 0.08859165570227763 0
outer loop
vertex -1.1129241195157804 0.47055017624394824 0.84
vertex -1.1983155939443315 -0.48953705724745467 0.9199999999999999
vertex -1.1129241195157804 0.47055017624394824 0.9199999999999999
endloop
endfacet
facet normal 0 0 -1
outer loop
vertex -1.0113228109804333 -0.4189036242453768 0.84
vertex -0.41009742709819835 -0.9900627703947829 0.84
vertex -0.4755342097410883 -1.1761733991605765 0.84
endloop
endfacet
facet normal 0 0 -1
outer loop
vertex -1.0113228109804333 -0.4189036242453768 0.84
vertex -0.4755342097410883 -1.1761733991605765 0.84
vertex -1.1983155939443315 -0.48953705724745467 0.84
endloop
endfacet
facet normal 0 0 1
outer loop
vertex -1.0113228109804333 -0.4189036242453768 0.9199999999999999
vertex -0.4755342097410883 -1.1761733991605765 0.9199999999999999
vertex -0.41009742709819835 -0.9900627703947829 0.9199999999999999
endloop
endfacet
facet normal 0 0 1
outer loop
vertex -1.0113228109804333 -0.4189036242453768 0.9199999999999999
vertex -1.1983155939443315 -0.48953705724745467 0.9199999999999999
vertex -0.4755342097410883 -1.1761733991605765 0.9199999999999999
endloop
endfacet
facet normal -0.688746312665258 -0.7250024253683645 0
outer loop
vertex -1.1983155939443315 -0.48953705724745467 0.84
vertex -0.4755342097410883 -1.1761733991605765 0.84
vertex -0.4755342097410883 -1.1761733991605765 0.9199999999999999
endloop
endfacet
facet normal -0.688746312665258 -0.7250024253683645 0
outer loop
vertex -1.1983155939443315 -0.48953705724745467 0.84
vertex -0.4755342097410883 -1.1761733991605765 0.9199999999999999
vertex -1.1983155939443315 -0.48953705724745467 0.9199999999999999
endloop
endfacet
facet normal 0 0 -1
outer loop
vertex -0.41009742709819835 -0.9900627703947829 0.84
vertex 0.3825979644771318 -0.9236731947770305 0.84
vertex 0.45833541998124955 -1.0979602430624162 0.84
endloop
endfacet
facet normal 0 0 -1
outer loop
vertex -0.41009742709819835 -0.9900627703947829 0.84
vertex 0.45833541998124955 -1.0979602430624162 0.84
vertex -0.4755342097410883 -1.1761733991605765 0.84
endloop
endfacet
facet normal 0 0 1
outer loop
vertex -0.41009742709819835 -0.9900627703947829 0.9199999999999999
vertex 0.45833541998124955 -1.0979602430624162 0.9199999999999999
vertex 0.3825979644771318 -0.9236731947770305 0.9199999999999999
endloop
endfacet
facet normal 0 0 1
outer loop
vertex -0.41009742709819835 -0.9900627703947829 0.9199999999999999
vertex -0.4755342097410883 -1.1761733991605765 0.9199999999999999
vertex 0.45833541998124955 -1.0979602430624162 0.9199999999999999
endloop
endfacet
facet normal 0.08345949077860519 -0.9965111707346667 0
outer loop
vertex -0.4755342097410883 -1.1761733991605765 0.84
vertex 0.45833541998124955 -1.0979602430624162 0.84
vertex 0.45833541998124955 -1.0979602430624162 0.9199999999999999
endloop
endfacet
facet normal 0.08345949077860519 -0.9965111707346667 0
outer loop
vertex -0.4755342097410883 -1.1761733991605765 0.84
vertex 0.45833541998124955 -1.0979602430624162 0.9199999999999999
vertex -0.4755342097410883 -1.1761733991605765 0.9199999999999999
endloop
endfacet
facet normal 0 0 -1
outer loop
vertex 0.3825979644771318 -0.9236731947770305 0.84
vertex 0.9620410979566084 -0.3984904703339302 0.84
vertex 1.138986348304501 -0.48104705818265836 0.84
endloop
endfacet
facet normal 0 0 -1
outer loop
vertex 0.3825979644771318 -0.9236731947770305 0.84
vertex 1.138986348304501 -0.48104705818265836 0.84
vertex 0.45833541998124955 -1.0979602430624162 0.84
endloop
endfacet
facet normal 0 0 1
outer loop
vertex 0.3825979644771318 -0.9236731947770305 0.9199999999999999
vertex 1.138986348304501 -0.48104705818265836 0.9199999999999999
vertex 0.9620410979566084 -0.3984904703339302 0.9199999999999999
endloop
endfacet
facet normal 0 0 1
outer loop
vertex 0.3825979644771318 -0.9236731947770305 0.9199999999999999
vertex 0.45833541998124955 -1.0979602430624162 0.9199999999999999
vertex 1.138986348304501 -0.48104705818265836 0.9199999999999999
endloop
endfacet
facet normal 0.6715632237436575 -0.7409472562301761 0
outer loop
vertex 0.45833541998124955 -1.0979602430624162 0.84
vertex 1.138986348304501 -0.48104705818265836 0.84
vertex 1.138986348304501 -0.48104705818265836 0.9199999999999999
endloop
endfacet
facet normal 0.6715632237436575 -0.7409472562301761 0
outer loop
vertex 0.45833541998124955 -1.0979602430624162 0.84
vertex 1.138986348304501 -0.48104705818265836 0.9199999999999999
vertex 0.45833541998124955 -1.0979602430624162 0.9199999999999999
endloop
endfacet
facet normal 0 0 -1
outer loop
vertex 0.9620410979566084 -0.3984904703339302 0.84
vertex 0.9933274098670312 0.4114496850438625 0.84
vertex 1.1761503142777245 0.4810538267343619 0.84
endloop
endfacet
facet normal 0 0 -1
outer loop
vertex 0.9620410979566084 -0.3984904703339302 0.84
vertex 1.1761503142777245 0.4810538267343619 0.84
vertex 1.138986348304501 -0.48104705818265836 0.84
endloop
endfacet
facet normal 0 0 1
outer loop
vertex 0.9620410979566084 -0.3984904703339302 0.9199999999999999
vertex 1.1761503142777245 0.4810538267343619 0.9199999999999999
vertex 0.9933274098670312 0.4114496850438625 0.9199999999999999
endloop
endfacet
facet normal 0 0 1
outer loop
vertex 0.9620410979566084 -0.3984904703339302 0.9199999999999999
vertex 1.138986348304501 -0.48104705818265836 0.9199999999999999
vertex 1.1761503142777245 0.4810538267343619 0.9199999999999999
endloop
endfacet
facet normal 0.9992547753665374 -0.03859914386577661 0
outer loop
vertex 1.138986348304501 -0.48104705818265836 0.84
vertex 1.1761503142777245 0.4810538267343619 0.84
vertex 1.1761503142777245 0.4810538267343619 0.9199999999999999
endloop
endfacet
facet normal 0.9992547753665374 -0.03859914386577661 0
outer loop
vertex 1.138986348304501 -0.48104705818265836 0.84
vertex 1.1761503142777245 0.4810538267343619 0.9199999999999999
vertex 1.138986348304501 -0.48104705818265836 0.9199999999999999
endloop
endfacet
endsolid corner_saloon
