solid house
 facet normal 0.000000 -1.000000 0.000000
  outer loop
   vertex 0.000000 0.000000 0.000000
   vertex 1.000000 0.000000 0.000000
   vertex 1.000000 0.000000 0.750000
  endloop
 endfacet
 facet normal 0.000000 -1.000000 0.000000
  outer loop
   vertex 0.000000 0.000000 0.000000
   vertex 1.000000 0.000000 0.750000
   vertex 0.500000 0.000000 1.300000
  endloop
 endfacet
 facet normal 0.000000 -1.000000 0.000000
  outer loop
   vertex 0.000000 0.000000 0.000000
   vertex 0.500000 0.000000 1.300000
   vertex 0.000000 0.000000 0.750000
  endloop
 endfacet
 facet normal 0.000000 1.000000 0.000000
  outer loop
   vertex 0.000000 1.100000 0.000000
   vertex 1.000000 1.100000 0.750000
   vertex 1.000000 1.100000 0.000000
  endloop
 endfacet
 facet normal 0.000000 1.000000 0.000000
  outer loop
   vertex 0.000000 1.100000 0.000000
   vertex 0.500000 1.100000 1.300000
   vertex 1.000000 1.100000 0.750000
  endloop
 endfacet
 facet normal 0.000000 1.000000 0.000000
  outer loop
   vertex 0.000000 1.100000 0.000000
   vertex 0.000000 1.100000 0.750000
   vertex 0.500000 1.100000 1.300000
  endloop
 endfacet
 facet normal 0.000000 0.000000 -1.000000
  outer loop
   vertex 0.000000 0.000000 0.000000
   vertex 1.000000 1.100000 0.000000
   vertex 1.000000 0.000000 0.000000
  endloop
 endfacet
 facet normal 0.000000 0.000000 -1.000000
  outer loop
   vertex 0.000000 0.000000 0.000000
   vertex 0.000000 1.100000 0.000000
   vertex 1.000000 1.100000 0.000000
  endloop
 endfacet
 facet normal 1.000000 0.000000 0.000000
  outer loop
   vertex 1.000000 0.000000 0.000000
   vertex 1.000000 1.100000 0.750000
   vertex 1.000000 0.000000 0.750000
  endloop
 endfacet
 facet normal 1.000000 0.000000 0.000000
  outer loop
   vertex 1.000000 0.000000 0.000000
   vertex 1.000000 1.100000 0.000000
   vertex 1.000000 1.100000 0.750000
  endloop
 endfacet
 facet normal 0.739940 0.000000 0.672673
  outer loop
   vertex 1.000000 0.000000 0.750000
   vertex 0.500000 1.100000 1.300000
   vertex 0.500000 0.000000 1.300000
  endloop
 endfacet
 facet normal 0.739940 0.000000 0.672673
  outer loop
   vertex 1.000000 0.000000 0.750000
   vertex 1.000000 1.100000 0.750000
   vertex 0.500000 1.100000 1.300000
  endloop
 endfacet
 facet normal -0.739940 0.000000 0.672673
  outer loop
   vertex 0.500000 0.000000 1.300000
   vertex 0.000000 1.100000 0.750000
   vertex 0.000000 0.000000 0.750000
  endloop
 endfacet
 facet normal -0.739940 0.000000 0.672673
  outer loop
   vertex 0.500000 0.000000 1.300000
   vertex 0.500000 1.100000 1.300000
   vertex 0.000000 1.100000 0.750000
  endloop
 endfacet
 facet normal -1.000000 0.000000 0.000000
  outer loop
   vertex 0.000000 0.000000 0.750000
   vertex 0.000000 1.100000 0.000000
   vertex 0.000000 0.000000 0.000000
  endloop
 endfacet
 facet normal -1.000000 0.000000 0.000000
  outer loop
   vertex 0.000000 0.000000 0.750000
   vertex 0.000000 1.100000 0.750000
   vertex 0.000000 1.100000 0.000000
  endloop
 endfacet
endsolid house
