solid house-kirigami
facet normal 0 -1 0
outer loop
vertex -21.17948717948718 -31.215384615384618 2.153846153846155
vertex 24.05128205128205 -31.215384615384618 2.153846153846155
vertex 24.05128205128205 -31.215384615384618 36.07692307692308
endloop
endfacet
facet normal 0 1 0
outer loop
vertex -21.17948717948718 -29.615384615384617 2.153846153846155
vertex 24.05128205128205 -29.615384615384617 36.07692307692308
vertex 24.05128205128205 -29.615384615384617 2.153846153846155
endloop
endfacet
facet normal 0 0 -1
outer loop
vertex -21.17948717948718 -29.615384615384617 2.153846153846155
vertex 24.05128205128205 -29.615384615384617 2.153846153846155
vertex 24.05128205128205 -31.215384615384618 2.153846153846155
endloop
endfacet
facet normal 0 0 -1
outer loop
vertex -21.17948717948718 -29.615384615384617 2.153846153846155
vertex 24.05128205128205 -31.215384615384618 2.153846153846155
vertex -21.17948717948718 -31.215384615384618 2.153846153846155
endloop
endfacet
facet normal 1 0 0
outer loop
vertex 24.05128205128205 -29.615384615384617 2.153846153846155
vertex 24.05128205128205 -29.615384615384617 36.07692307692308
vertex 24.05128205128205 -31.215384615384618 36.07692307692308
endloop
endfacet
facet normal 1 0 0
outer loop
vertex 24.05128205128205 -29.615384615384617 2.153846153846155
vertex 24.05128205128205 -31.215384615384618 36.07692307692308
vertex 24.05128205128205 -31.215384615384618 2.153846153846155
endloop
endfacet
facet normal -0.6 0 0.7999999999999998
outer loop
vertex 24.05128205128205 -29.615384615384617 36.07692307692308
vertex -21.17948717948718 -29.615384615384617 2.153846153846155
vertex -21.17948717948718 -31.215384615384618 2.153846153846155
endloop
endfacet
facet normal -0.6 0 0.7999999999999998
outer loop
vertex 24.05128205128205 -29.615384615384617 36.07692307692308
vertex -21.17948717948718 -31.215384615384618 2.153846153846155
vertex 24.05128205128205 -31.215384615384618 36.07692307692308
endloop
endfacet
facet normal 0 -1 0
outer loop
vertex -22.615384615384613 -31.215384615384618 5.887179487179488
vertex 22.615384615384613 -31.215384615384618 39.810256410256414
vertex 0 -31.215384615384618 64.68717948717949
endloop
endfacet
facet normal 0 1 0
outer loop
vertex -22.615384615384613 -29.615384615384617 5.887179487179488
vertex 0 -29.615384615384617 64.68717948717949
vertex 22.615384615384613 -29.615384615384617 39.810256410256414
endloop
endfacet
facet normal 0.6 0 -0.7999999999999998
outer loop
vertex -22.615384615384613 -29.615384615384617 5.887179487179488
vertex 22.615384615384613 -29.615384615384617 39.810256410256414
vertex 22.615384615384613 -31.215384615384618 39.810256410256414
endloop
endfacet
facet normal 0.6 0 -0.7999999999999998
outer loop
vertex -22.615384615384613 -29.615384615384617 5.887179487179488
vertex 22.615384615384613 -31.215384615384618 39.810256410256414
vertex -22.615384615384613 -31.215384615384618 5.887179487179488
endloop
endfacet
facet normal 0.7399400733959438 0 0.6726727939963124
outer loop
vertex 22.615384615384613 -29.615384615384617 39.810256410256414
vertex 0 -29.615384615384617 64.68717948717949
vertex 0 -31.215384615384618 64.68717948717949
endloop
endfacet
facet normal 0.7399400733959438 0 0.6726727939963124
outer loop
vertex 22.615384615384613 -29.615384615384617 39.810256410256414
vertex 0 -31.215384615384618 64.68717948717949
vertex 22.615384615384613 -31.215384615384618 39.810256410256414
endloop
endfacet
facet normal -0.9333456062030595 0 0.358979079308869
outer loop
vertex 0 -29.615384615384617 64.68717948717949
vertex -22.615384615384613 -29.615384615384617 5.887179487179488
vertex -22.615384615384613 -31.215384615384618 5.887179487179488
endloop
endfacet
facet normal -0.9333456062030595 0 0.358979079308869
outer loop
vertex 0 -29.615384615384617 64.68717948717949
vertex -22.615384615384613 -31.215384615384618 5.887179487179488
vertex 0 -31.215384615384618 64.68717948717949
endloop
endfacet
facet normal 0 -1 0
outer loop
vertex -25.48717948717949 -31.215384615384618 5.887179487179488
vertex -2.8717948717948723 -31.215384615384618 64.68717948717949
vertex -25.48717948717949 -31.215384615384618 39.810256410256414
endloop
endfacet
facet normal 0 1 0
outer loop
vertex -25.48717948717949 -29.615384615384617 5.887179487179488
vertex -25.48717948717949 -29.615384615384617 39.810256410256414
vertex -2.8717948717948723 -29.615384615384617 64.68717948717949
endloop
endfacet
facet normal 0.9333456062030595 0 -0.3589790793088691
outer loop
vertex -25.48717948717949 -29.615384615384617 5.887179487179488
vertex -2.8717948717948723 -29.615384615384617 64.68717948717949
vertex -2.8717948717948723 -31.215384615384618 64.68717948717949
endloop
endfacet
facet normal 0.9333456062030595 0 -0.3589790793088691
outer loop
vertex -25.48717948717949 -29.615384615384617 5.887179487179488
vertex -2.8717948717948723 -31.215384615384618 64.68717948717949
vertex -25.48717948717949 -31.215384615384618 5.887179487179488
endloop
endfacet
facet normal -0.7399400733959437 0 0.6726727939963125
outer loop
vertex -2.8717948717948723 -29.615384615384617 64.68717948717949
vertex -25.48717948717949 -29.615384615384617 39.810256410256414
vertex -25.48717948717949 -31.215384615384618 39.810256410256414
endloop
endfacet
facet normal -0.7399400733959437 0 0.6726727939963125
outer loop
vertex -2.8717948717948723 -29.615384615384617 64.68717948717949
vertex -25.48717948717949 -31.215384615384618 39.810256410256414
vertex -2.8717948717948723 -31.215384615384618 64.68717948717949
endloop
endfacet
facet normal -1 0 0
outer loop
vertex -25.48717948717949 -29.615384615384617 39.810256410256414
vertex -25.48717948717949 -29.615384615384617 5.887179487179488
vertex -25.48717948717949 -31.215384615384618 5.887179487179488
endloop
endfacet
facet normal -1 0 0
outer loop
vertex -25.48717948717949 -29.615384615384617 39.810256410256414
vertex -25.48717948717949 -31.215384615384618 5.887179487179488
vertex -25.48717948717949 -31.215384615384618 39.810256410256414
endloop
endfacet
facet normal 0 1 0
outer loop
vertex -21.17948717948718 31.215384615384618 2.153846153846155
vertex 24.05128205128205 31.215384615384618 36.07692307692308
vertex 24.05128205128205 31.215384615384618 2.153846153846155
endloop
endfacet
facet normal 0 -1 0
outer loop
vertex -21.17948717948718 29.615384615384617 2.153846153846155
vertex 24.05128205128205 29.615384615384617 2.153846153846155
vertex 24.05128205128205 29.615384615384617 36.07692307692308
endloop
endfacet
facet normal -0.6 0 0.7999999999999998
outer loop
vertex -21.17948717948718 29.615384615384617 2.153846153846155
vertex 24.05128205128205 29.615384615384617 36.07692307692308
vertex 24.05128205128205 31.215384615384618 36.07692307692308
endloop
endfacet
facet normal -0.6 0 0.7999999999999998
outer loop
vertex -21.17948717948718 29.615384615384617 2.153846153846155
vertex 24.05128205128205 31.215384615384618 36.07692307692308
vertex -21.17948717948718 31.215384615384618 2.153846153846155
endloop
endfacet
facet normal 1 0 0
outer loop
vertex 24.05128205128205 29.615384615384617 36.07692307692308
vertex 24.05128205128205 29.615384615384617 2.153846153846155
vertex 24.05128205128205 31.215384615384618 2.153846153846155
endloop
endfacet
facet normal 1 0 0
outer loop
vertex 24.05128205128205 29.615384615384617 36.07692307692308
vertex 24.05128205128205 31.215384615384618 2.153846153846155
vertex 24.05128205128205 31.215384615384618 36.07692307692308
endloop
endfacet
facet normal 0 0 -1
outer loop
vertex 24.05128205128205 29.615384615384617 2.153846153846155
vertex -21.17948717948718 29.615384615384617 2.153846153846155
vertex -21.17948717948718 31.215384615384618 2.153846153846155
endloop
endfacet
facet normal 0 0 -1
outer loop
vertex 24.05128205128205 29.615384615384617 2.153846153846155
vertex -21.17948717948718 31.215384615384618 2.153846153846155
vertex 24.05128205128205 31.215384615384618 2.153846153846155
endloop
endfacet
facet normal 0 1 0
outer loop
vertex -22.615384615384613 31.215384615384618 5.887179487179488
vertex 0 31.215384615384618 64.68717948717949
vertex 22.615384615384613 31.215384615384618 39.810256410256414
endloop
endfacet
facet normal 0 -1 0
outer loop
vertex -22.615384615384613 29.615384615384617 5.887179487179488
vertex 22.615384615384613 29.615384615384617 39.810256410256414
vertex 0 29.615384615384617 64.68717948717949
endloop
endfacet
facet normal -0.9333456062030595 0 0.358979079308869
outer loop
vertex -22.615384615384613 29.615384615384617 5.887179487179488
vertex 0 29.615384615384617 64.68717948717949
vertex 0 31.215384615384618 64.68717948717949
endloop
endfacet
facet normal -0.9333456062030595 0 0.358979079308869
outer loop
vertex -22.615384615384613 29.615384615384617 5.887179487179488
vertex 0 31.215384615384618 64.68717948717949
vertex -22.615384615384613 31.215384615384618 5.887179487179488
endloop
endfacet
facet normal 0.7399400733959438 0 0.6726727939963124
outer loop
vertex 0 29.615384615384617 64.68717948717949
vertex 22.615384615384613 29.615384615384617 39.810256410256414
vertex 22.615384615384613 31.215384615384618 39.810256410256414
endloop
endfacet
facet normal 0.7399400733959438 0 0.6726727939963124
outer loop
vertex 0 29.615384615384617 64.68717948717949
vertex 22.615384615384613 31.215384615384618 39.810256410256414
vertex 0 31.215384615384618 64.68717948717949
endloop
endfacet
facet normal 0.6 0 -0.7999999999999998
outer loop
vertex 22.615384615384613 29.615384615384617 39.810256410256414
vertex -22.615384615384613 29.615384615384617 5.887179487179488
vertex -22.615384615384613 31.215384615384618 5.887179487179488
endloop
endfacet
facet normal 0.6 0 -0.7999999999999998
outer loop
vertex 22.615384615384613 29.615384615384617 39.810256410256414
vertex -22.615384615384613 31.215384615384618 5.887179487179488
vertex 22.615384615384613 31.215384615384618 39.810256410256414
endloop
endfacet
facet normal 0 1 0
outer loop
vertex -25.48717948717949 31.215384615384618 5.887179487179488
vertex -25.48717948717949 31.215384615384618 39.810256410256414
vertex -2.8717948717948723 31.215384615384618 64.68717948717949
endloop
endfacet
facet normal 0 -1 0
outer loop
vertex -25.48717948717949 29.615384615384617 5.887179487179488
vertex -2.8717948717948723 29.615384615384617 64.68717948717949
vertex -25.48717948717949 29.615384615384617 39.810256410256414
endloop
endfacet
facet normal -1 0 0
outer loop
vertex -25.48717948717949 29.615384615384617 5.887179487179488
vertex -25.48717948717949 29.615384615384617 39.810256410256414
vertex -25.48717948717949 31.215384615384618 39.810256410256414
endloop
endfacet
facet normal -1 0 0
outer loop
vertex -25.48717948717949 29.615384615384617 5.887179487179488
vertex -25.48717948717949 31.215384615384618 39.810256410256414
vertex -25.48717948717949 31.215384615384618 5.887179487179488
endloop
endfacet
facet normal -0.7399400733959437 0 0.6726727939963125
outer loop
vertex -25.48717948717949 29.615384615384617 39.810256410256414
vertex -2.8717948717948723 29.615384615384617 64.68717948717949
vertex -2.8717948717948723 31.215384615384618 64.68717948717949
endloop
endfacet
facet normal -0.7399400733959437 0 0.6726727939963125
outer loop
vertex -25.48717948717949 29.615384615384617 39.810256410256414
vertex -2.8717948717948723 31.215384615384618 64.68717948717949
vertex -25.48717948717949 31.215384615384618 39.810256410256414
endloop
endfacet
facet normal 0.9333456062030595 0 -0.3589790793088691
outer loop
vertex -2.8717948717948723 29.615384615384617 64.68717948717949
vertex -25.48717948717949 29.615384615384617 5.887179487179488
vertex -25.48717948717949 31.215384615384618 5.887179487179488
endloop
endfacet
facet normal 0.9333456062030595 0 -0.3589790793088691
outer loop
vertex -2.8717948717948723 29.615384615384617 64.68717948717949
vertex -25.48717948717949 31.215384615384618 5.887179487179488
vertex -2.8717948717948723 31.215384615384618 64.68717948717949
endloop
endfacet
facet normal 0 0 -1
outer loop
vertex -21.17948717948718 -26.45641025641026 -1.6
vertex 24.05128205128205 23.2974358974359 -1.6
vertex 24.05128205128205 -26.45641025641026 -1.6
endloop
endfacet
facet normal 0 0 1
outer loop
vertex -21.17948717948718 -26.45641025641026 0
vertex 24.05128205128205 -26.45641025641026 0
vertex 24.05128205128205 23.2974358974359 0
endloop
endfacet
facet normal -0.7399400733959437 0.6726727939963124 0
outer loop
vertex -21.17948717948718 -26.45641025641026 0
vertex 24.05128205128205 23.2974358974359 0
vertex 24.05128205128205 23.2974358974359 -1.6
endloop
endfacet
facet normal -0.7399400733959437 0.6726727939963124 0
outer loop
vertex -21.17948717948718 -26.45641025641026 0
vertex 24.05128205128205 23.2974358974359 -1.6
vertex -21.17948717948718 -26.45641025641026 -1.6
endloop
endfacet
facet normal 1 0 0
outer loop
vertex 24.05128205128205 23.2974358974359 0
vertex 24.05128205128205 -26.45641025641026 0
vertex 24.05128205128205 -26.45641025641026 -1.6
endloop
endfacet
facet normal 1 0 0
outer loop
vertex 24.05128205128205 23.2974358974359 0
vertex 24.05128205128205 -26.45641025641026 -1.6
vertex 24.05128205128205 23.2974358974359 -1.6
endloop
endfacet
facet normal 0 -1 0
outer loop
vertex 24.05128205128205 -26.45641025641026 0
vertex -21.17948717948718 -26.45641025641026 0
vertex -21.17948717948718 -26.45641025641026 -1.6
endloop
endfacet
facet normal 0 -1 0
outer loop
vertex 24.05128205128205 -26.45641025641026 0
vertex -21.17948717948718 -26.45641025641026 -1.6
vertex 24.05128205128205 -26.45641025641026 -1.6
endloop
endfacet
facet normal 0 0 -1
outer loop
vertex -24.05128205128205 -23.2974358974359 -1.6
vertex -24.05128205128205 26.45641025641026 -1.6
vertex 21.17948717948718 26.45641025641026 -1.6
endloop
endfacet
facet normal 0 0 1
outer loop
vertex -24.05128205128205 -23.2974358974359 0
vertex 21.17948717948718 26.45641025641026 0
vertex -24.05128205128205 26.45641025641026 0
endloop
endfacet
facet normal -1 0 0
outer loop
vertex -24.05128205128205 -23.2974358974359 0
vertex -24.05128205128205 26.45641025641026 0
vertex -24.05128205128205 26.45641025641026 -1.6
endloop
endfacet
facet normal -1 0 0
outer loop
vertex -24.05128205128205 -23.2974358974359 0
vertex -24.05128205128205 26.45641025641026 -1.6
vertex -24.05128205128205 -23.2974358974359 -1.6
endloop
endfacet
facet normal 0 1 0
outer loop
vertex -24.05128205128205 26.45641025641026 0
vertex 21.17948717948718 26.45641025641026 0
vertex 21.17948717948718 26.45641025641026 -1.6
endloop
endfacet
facet normal 0 1 0
outer loop
vertex -24.05128205128205 26.45641025641026 0
vertex 21.17948717948718 26.45641025641026 -1.6
vertex -24.05128205128205 26.45641025641026 -1.6
endloop
endfacet
facet normal 0.7399400733959437 -0.6726727939963124 0
outer loop
vertex 21.17948717948718 26.45641025641026 0
vertex -24.05128205128205 -23.2974358974359 0
vertex -24.05128205128205 -23.2974358974359 -1.6
endloop
endfacet
facet normal 0.7399400733959437 -0.6726727939963124 0
outer loop
vertex 21.17948717948718 26.45641025641026 0
vertex -24.05128205128205 -23.2974358974359 -1.6
vertex 21.17948717948718 26.45641025641026 -1.6
endloop
endfacet
facet normal 1 0 0
outer loop
vertex 28.523076923076925 -26.45641025641026 4.30769230769231
vertex 28.523076923076925 23.2974358974359 38.23076923076923
vertex 28.523076923076925 -26.45641025641026 38.23076923076923
endloop
endfacet
facet normal -1 0 0
outer loop
vertex 26.923076923076923 -26.45641025641026 4.30769230769231
vertex 26.923076923076923 -26.45641025641026 38.23076923076923
vertex 26.923076923076923 23.2974358974359 38.23076923076923
endloop
endfacet
facet normal 0 0.5633368246415098 -0.8262273428075477
outer loop
vertex 26.923076923076923 -26.45641025641026 4.30769230769231
vertex 26.923076923076923 23.2974358974359 38.23076923076923
vertex 28.523076923076925 23.2974358974359 38.23076923076923
endloop
endfacet
facet normal 0 0.5633368246415098 -0.8262273428075477
outer loop
vertex 26.923076923076923 -26.45641025641026 4.30769230769231
vertex 28.523076923076925 23.2974358974359 38.23076923076923
vertex 28.523076923076925 -26.45641025641026 4.30769230769231
endloop
endfacet
facet normal 0 0 1
outer loop
vertex 26.923076923076923 23.2974358974359 38.23076923076923
vertex 26.923076923076923 -26.45641025641026 38.23076923076923
vertex 28.523076923076925 -26.45641025641026 38.23076923076923
endloop
endfacet
facet normal 0 0 1
outer loop
vertex 26.923076923076923 23.2974358974359 38.23076923076923
vertex 28.523076923076925 -26.45641025641026 38.23076923076923
vertex 28.523076923076925 23.2974358974359 38.23076923076923
endloop
endfacet
facet normal 0 -1 0
outer loop
vertex 26.923076923076923 -26.45641025641026 38.23076923076923
vertex 26.923076923076923 -26.45641025641026 4.30769230769231
vertex 28.523076923076925 -26.45641025641026 4.30769230769231
endloop
endfacet
facet normal 0 -1 0
outer loop
vertex 26.923076923076923 -26.45641025641026 38.23076923076923
vertex 28.523076923076925 -26.45641025641026 4.30769230769231
vertex 28.523076923076925 -26.45641025641026 38.23076923076923
endloop
endfacet
facet normal 1 0 0
outer loop
vertex 28.523076923076925 -23.2974358974359 2.153846153846155
vertex 28.523076923076925 26.45641025641026 2.153846153846155
vertex 28.523076923076925 26.45641025641026 36.07692307692308
endloop
endfacet
facet normal -1 0 0
outer loop
vertex 26.923076923076923 -23.2974358974359 2.153846153846155
vertex 26.923076923076923 26.45641025641026 36.07692307692308
vertex 26.923076923076923 26.45641025641026 2.153846153846155
endloop
endfacet
facet normal 0 0 -1
outer loop
vertex 26.923076923076923 -23.2974358974359 2.153846153846155
vertex 26.923076923076923 26.45641025641026 2.153846153846155
vertex 28.523076923076925 26.45641025641026 2.153846153846155
endloop
endfacet
facet normal 0 0 -1
outer loop
vertex 26.923076923076923 -23.2974358974359 2.153846153846155
vertex 28.523076923076925 26.45641025641026 2.153846153846155
vertex 28.523076923076925 -23.2974358974359 2.153846153846155
endloop
endfacet
facet normal 0 1 0
outer loop
vertex 26.923076923076923 26.45641025641026 2.153846153846155
vertex 26.923076923076923 26.45641025641026 36.07692307692308
vertex 28.523076923076925 26.45641025641026 36.07692307692308
endloop
endfacet
facet normal 0 1 0
outer loop
vertex 26.923076923076923 26.45641025641026 2.153846153846155
vertex 28.523076923076925 26.45641025641026 36.07692307692308
vertex 28.523076923076925 26.45641025641026 2.153846153846155
endloop
endfacet
facet normal 0 -0.5633368246415099 0.8262273428075477
outer loop
vertex 26.923076923076923 26.45641025641026 36.07692307692308
vertex 26.923076923076923 -23.2974358974359 2.153846153846155
vertex 28.523076923076925 -23.2974358974359 2.153846153846155
endloop
endfacet
facet normal 0 -0.5633368246415099 0.8262273428075477
outer loop
vertex 26.923076923076923 26.45641025641026 36.07692307692308
vertex 28.523076923076925 -23.2974358974359 2.153846153846155
vertex 28.523076923076925 26.45641025641026 36.07692307692308
endloop
endfacet
facet normal 0.7399400733959438 0 0.6726727939963125
outer loop
vertex 25.23518616871556 -26.45641025641026 44.61986621398385
vertex 2.619801553330946 23.2974358974359 69.49678929090692
vertex 2.619801553330946 -26.45641025641026 69.49678929090692
endloop
endfacet
facet normal -0.7399400733959436 0 -0.6726727939963126
outer loop
vertex 24.05128205128205 -26.45641025641026 43.54358974358975
vertex 1.4358974358974361 -26.45641025641026 68.42051282051281
vertex 1.4358974358974361 23.2974358974359 68.42051282051281
endloop
endfacet
facet normal 0.5573551077648812 0.559888540072901 -0.6130906185413647
outer loop
vertex 24.05128205128205 -26.45641025641026 43.54358974358975
vertex 1.4358974358974361 23.2974358974359 68.42051282051281
vertex 2.619801553330946 23.2974358974359 69.49678929090692
endloop
endfacet
facet normal 0.5573551077648786 0.559888540072901 -0.6130906185413671
outer loop
vertex 24.05128205128205 -26.45641025641026 43.54358974358975
vertex 2.619801553330946 23.2974358974359 69.49678929090692
vertex 25.23518616871556 -26.45641025641026 44.61986621398385
endloop
endfacet
facet normal -0.6726727939963144 0 0.7399400733959419
outer loop
vertex 1.4358974358974361 23.2974358974359 68.42051282051281
vertex 1.4358974358974361 -26.45641025641026 68.42051282051281
vertex 2.619801553330946 -26.45641025641026 69.49678929090692
endloop
endfacet
facet normal -0.6726727939963144 0 0.7399400733959419
outer loop
vertex 1.4358974358974361 23.2974358974359 68.42051282051281
vertex 2.619801553330946 -26.45641025641026 69.49678929090692
vertex 2.619801553330946 23.2974358974359 69.49678929090692
endloop
endfacet
facet normal 0 -1 0
outer loop
vertex 1.4358974358974361 -26.45641025641026 68.42051282051281
vertex 24.05128205128205 -26.45641025641026 43.54358974358975
vertex 25.23518616871556 -26.45641025641026 44.61986621398385
endloop
endfacet
facet normal 0 -1 0
outer loop
vertex 1.4358974358974361 -26.45641025641026 68.42051282051281
vertex 25.23518616871556 -26.45641025641026 44.61986621398385
vertex 2.619801553330946 -26.45641025641026 69.49678929090692
endloop
endfacet
facet normal 0.7399400733959436 0 0.6726727939963124
outer loop
vertex 26.671083604613 -23.2974358974359 43.04037903449667
vertex 26.671083604613 26.45641025641026 43.04037903449667
vertex 4.055698989228382 26.45641025641026 67.91730211141974
endloop
endfacet
facet normal -0.7399400733959437 0 -0.6726727939963126
outer loop
vertex 25.48717948717949 -23.2974358974359 41.96410256410257
vertex 2.8717948717948723 26.45641025641026 66.84102564102564
vertex 25.48717948717949 26.45641025641026 41.96410256410257
endloop
endfacet
facet normal 0.672672793996312 0 -0.7399400733959441
outer loop
vertex 25.48717948717949 -23.2974358974359 41.96410256410257
vertex 25.48717948717949 26.45641025641026 41.96410256410257
vertex 26.671083604613 26.45641025641026 43.04037903449667
endloop
endfacet
facet normal 0.672672793996312 0 -0.7399400733959441
outer loop
vertex 25.48717948717949 -23.2974358974359 41.96410256410257
vertex 26.671083604613 26.45641025641026 43.04037903449667
vertex 26.671083604613 -23.2974358974359 43.04037903449667
endloop
endfacet
facet normal 0 1 0
outer loop
vertex 25.48717948717949 26.45641025641026 41.96410256410257
vertex 2.8717948717948723 26.45641025641026 66.84102564102564
vertex 4.055698989228382 26.45641025641026 67.91730211141974
endloop
endfacet
facet normal 0 1 0
outer loop
vertex 25.48717948717949 26.45641025641026 41.96410256410257
vertex 4.055698989228382 26.45641025641026 67.91730211141974
vertex 26.671083604613 26.45641025641026 43.04037903449667
endloop
endfacet
facet normal -0.5573551077648786 -0.559888540072901 0.613090618541367
outer loop
vertex 2.8717948717948723 26.45641025641026 66.84102564102564
vertex 25.48717948717949 -23.2974358974359 41.96410256410257
vertex 26.671083604613 -23.2974358974359 43.04037903449667
endloop
endfacet
facet normal -0.5573551077648805 -0.5598885400729011 0.6130906185413653
outer loop
vertex 2.8717948717948723 26.45641025641026 66.84102564102564
vertex 26.671083604613 -23.2974358974359 43.04037903449667
vertex 4.055698989228382 26.45641025641026 67.91730211141974
endloop
endfacet
facet normal -0.7399400733959436 0 0.6726727939963124
outer loop
vertex -4.055698989228382 -26.45641025641026 67.91730211141974
vertex -26.671083604613 23.2974358974359 43.04037903449667
vertex -26.671083604613 -26.45641025641026 43.04037903449667
endloop
endfacet
facet normal 0.7399400733959437 0 -0.6726727939963126
outer loop
vertex -2.8717948717948723 -26.45641025641026 66.84102564102564
vertex -25.48717948717949 -26.45641025641026 41.96410256410257
vertex -25.48717948717949 23.2974358974359 41.96410256410257
endloop
endfacet
facet normal 0.5573551077648786 0.559888540072901 0.613090618541367
outer loop
vertex -2.8717948717948723 -26.45641025641026 66.84102564102564
vertex -25.48717948717949 23.2974358974359 41.96410256410257
vertex -26.671083604613 23.2974358974359 43.04037903449667
endloop
endfacet
facet normal 0.5573551077648805 0.5598885400729011 0.6130906185413653
outer loop
vertex -2.8717948717948723 -26.45641025641026 66.84102564102564
vertex -26.671083604613 23.2974358974359 43.04037903449667
vertex -4.055698989228382 -26.45641025641026 67.91730211141974
endloop
endfacet
facet normal -0.672672793996312 0 -0.7399400733959441
outer loop
vertex -25.48717948717949 23.2974358974359 41.96410256410257
vertex -25.48717948717949 -26.45641025641026 41.96410256410257
vertex -26.671083604613 -26.45641025641026 43.04037903449667
endloop
endfacet
facet normal -0.672672793996312 0 -0.7399400733959441
outer loop
vertex -25.48717948717949 23.2974358974359 41.96410256410257
vertex -26.671083604613 -26.45641025641026 43.04037903449667
vertex -26.671083604613 23.2974358974359 43.04037903449667
endloop
endfacet
facet normal 0 -1 0
outer loop
vertex -25.48717948717949 -26.45641025641026 41.96410256410257
vertex -2.8717948717948723 -26.45641025641026 66.84102564102564
vertex -4.055698989228382 -26.45641025641026 67.91730211141974
endloop
endfacet
facet normal 0 -1 0
outer loop
vertex -25.48717948717949 -26.45641025641026 41.96410256410257
vertex -4.055698989228382 -26.45641025641026 67.91730211141974
vertex -26.671083604613 -26.45641025641026 43.04037903449667
endloop
endfacet
facet normal -0.7399400733959438 0 0.6726727939963125
outer loop
vertex -2.619801553330946 -23.2974358974359 69.49678929090692
vertex -2.619801553330946 26.45641025641026 69.49678929090692
vertex -25.23518616871556 26.45641025641026 44.61986621398385
endloop
endfacet
facet normal 0.7399400733959436 0 -0.6726727939963126
outer loop
vertex -1.4358974358974361 -23.2974358974359 68.42051282051281
vertex -24.05128205128205 26.45641025641026 43.54358974358975
vertex -1.4358974358974361 26.45641025641026 68.42051282051281
endloop
endfacet
facet normal 0.6726727939963144 0 0.7399400733959419
outer loop
vertex -1.4358974358974361 -23.2974358974359 68.42051282051281
vertex -1.4358974358974361 26.45641025641026 68.42051282051281
vertex -2.619801553330946 26.45641025641026 69.49678929090692
endloop
endfacet
facet normal 0.6726727939963144 0 0.7399400733959419
outer loop
vertex -1.4358974358974361 -23.2974358974359 68.42051282051281
vertex -2.619801553330946 26.45641025641026 69.49678929090692
vertex -2.619801553330946 -23.2974358974359 69.49678929090692
endloop
endfacet
facet normal 0 1 0
outer loop
vertex -1.4358974358974361 26.45641025641026 68.42051282051281
vertex -24.05128205128205 26.45641025641026 43.54358974358975
vertex -25.23518616871556 26.45641025641026 44.61986621398385
endloop
endfacet
facet normal 0 1 0
outer loop
vertex -1.4358974358974361 26.45641025641026 68.42051282051281
vertex -25.23518616871556 26.45641025641026 44.61986621398385
vertex -2.619801553330946 26.45641025641026 69.49678929090692
endloop
endfacet
facet normal -0.5573551077648812 -0.559888540072901 -0.6130906185413647
outer loop
vertex -24.05128205128205 26.45641025641026 43.54358974358975
vertex -1.4358974358974361 -23.2974358974359 68.42051282051281
vertex -2.619801553330946 -23.2974358974359 69.49678929090692
endloop
endfacet
facet normal -0.5573551077648786 -0.559888540072901 -0.6130906185413671
outer loop
vertex -24.05128205128205 26.45641025641026 43.54358974358975
vertex -2.619801553330946 -23.2974358974359 69.49678929090692
vertex -25.23518616871556 26.45641025641026 44.61986621398385
endloop
endfacet
facet normal -1 0 0
outer loop
vertex -28.523076923076925 -26.45641025641026 36.07692307692308
vertex -28.523076923076925 23.2974358974359 2.153846153846155
vertex -28.523076923076925 -26.45641025641026 2.153846153846155
endloop
endfacet
facet normal 1 0 0
outer loop
vertex -26.923076923076923 -26.45641025641026 36.07692307692308
vertex -26.923076923076923 -26.45641025641026 2.153846153846155
vertex -26.923076923076923 23.2974358974359 2.153846153846155
endloop
endfacet
facet normal 0 0.5633368246415099 0.8262273428075477
outer loop
vertex -26.923076923076923 -26.45641025641026 36.07692307692308
vertex -26.923076923076923 23.2974358974359 2.153846153846155
vertex -28.523076923076925 23.2974358974359 2.153846153846155
endloop
endfacet
facet normal 0 0.5633368246415099 0.8262273428075477
outer loop
vertex -26.923076923076923 -26.45641025641026 36.07692307692308
vertex -28.523076923076925 23.2974358974359 2.153846153846155
vertex -28.523076923076925 -26.45641025641026 36.07692307692308
endloop
endfacet
facet normal 0 0 -1
outer loop
vertex -26.923076923076923 23.2974358974359 2.153846153846155
vertex -26.923076923076923 -26.45641025641026 2.153846153846155
vertex -28.523076923076925 -26.45641025641026 2.153846153846155
endloop
endfacet
facet normal 0 0 -1
outer loop
vertex -26.923076923076923 23.2974358974359 2.153846153846155
vertex -28.523076923076925 -26.45641025641026 2.153846153846155
vertex -28.523076923076925 23.2974358974359 2.153846153846155
endloop
endfacet
facet normal 0 -1 0
outer loop
vertex -26.923076923076923 -26.45641025641026 2.153846153846155
vertex -26.923076923076923 -26.45641025641026 36.07692307692308
vertex -28.523076923076925 -26.45641025641026 36.07692307692308
endloop
endfacet
facet normal 0 -1 0
outer loop
vertex -26.923076923076923 -26.45641025641026 2.153846153846155
vertex -28.523076923076925 -26.45641025641026 36.07692307692308
vertex -28.523076923076925 -26.45641025641026 2.153846153846155
endloop
endfacet
facet normal -1 0 0
outer loop
vertex -28.523076923076925 -23.2974358974359 38.23076923076923
vertex -28.523076923076925 26.45641025641026 38.23076923076923
vertex -28.523076923076925 26.45641025641026 4.30769230769231
endloop
endfacet
facet normal 1 0 0
outer loop
vertex -26.923076923076923 -23.2974358974359 38.23076923076923
vertex -26.923076923076923 26.45641025641026 4.30769230769231
vertex -26.923076923076923 26.45641025641026 38.23076923076923
endloop
endfacet
facet normal 0 0 1
outer loop
vertex -26.923076923076923 -23.2974358974359 38.23076923076923
vertex -26.923076923076923 26.45641025641026 38.23076923076923
vertex -28.523076923076925 26.45641025641026 38.23076923076923
endloop
endfacet
facet normal 0 0 1
outer loop
vertex -26.923076923076923 -23.2974358974359 38.23076923076923
vertex -28.523076923076925 26.45641025641026 38.23076923076923
vertex -28.523076923076925 -23.2974358974359 38.23076923076923
endloop
endfacet
facet normal 0 1 0
outer loop
vertex -26.923076923076923 26.45641025641026 38.23076923076923
vertex -26.923076923076923 26.45641025641026 4.30769230769231
vertex -28.523076923076925 26.45641025641026 4.30769230769231
endloop
endfacet
facet normal 0 1 0
outer loop
vertex -26.923076923076923 26.45641025641026 38.23076923076923
vertex -28.523076923076925 26.45641025641026 4.30769230769231
vertex -28.523076923076925 26.45641025641026 38.23076923076923
endloop
endfacet
facet normal 0 -0.5633368246415098 -0.8262273428075477
outer loop
vertex -26.923076923076923 26.45641025641026 4.30769230769231
vertex -26.923076923076923 -23.2974358974359 38.23076923076923
vertex -28.523076923076925 -23.2974358974359 38.23076923076923
endloop
endfacet
facet normal 0 -0.5633368246415098 -0.8262273428075477
outer loop
vertex -26.923076923076923 26.45641025641026 4.30769230769231
vertex -28.523076923076925 -23.2974358974359 38.23076923076923
vertex -28.523076923076925 26.45641025641026 4.30769230769231
endloop
endfacet
facet normal 0 0.5633368246415099 0.8262273428075477
outer loop
vertex -7.489641025641025 -29.615384615384617 4.641538461538463
vertex 13.678358974358975 -22.807794871794872 0
vertex -7.489641025641025 -22.807794871794872 0
endloop
endfacet
facet normal 0 -0.5633368246415099 -0.8262273428075477
outer loop
vertex -7.489641025641025 -29.615384615384617 4.641538461538463
vertex -7.489641025641025 -22.807794871794872 0
vertex 13.678358974358975 -29.615384615384617 4.641538461538463
endloop
endfacet
facet normal 0 0.5633368246415099 0.8262273428075477
outer loop
vertex -7.489641025641025 -30.011364412849083 4.245558664073997
vertex 13.678358974358975 -30.011364412849083 4.245558664073997
vertex -7.489641025641025 -23.20377466925934 -0.39597979746446654
endloop
endfacet
facet normal 0 -0.5633368246415099 -0.8262273428075477
outer loop
vertex -7.489641025641025 -30.011364412849083 4.245558664073997
vertex -7.489641025641025 -23.20377466925934 -0.39597979746446654
vertex 13.678358974358975 -23.20377466925934 -0.39597979746446654
endloop
endfacet
facet normal 0 0.7071067811865475 -0.7071067811865475
outer loop
vertex -7.489641025641025 -29.615384615384617 4.641538461538463
vertex 13.678358974358975 -29.615384615384617 4.641538461538463
vertex 13.678358974358975 -30.011364412849083 4.245558664073997
endloop
endfacet
facet normal 0 0.7071067811865475 -0.7071067811865475
outer loop
vertex -7.489641025641025 -29.615384615384617 4.641538461538463
vertex 13.678358974358975 -30.011364412849083 4.245558664073997
vertex -7.489641025641025 -30.011364412849083 4.245558664073997
endloop
endfacet
facet normal -0.3572186587010748 -0.6604524320024134 0.6604524320024134
outer loop
vertex 13.678358974358975 -29.615384615384617 4.641538461538463
vertex -7.489641025641025 -22.807794871794872 0
vertex -7.489641025641025 -23.20377466925934 -0.39597979746446654
endloop
endfacet
facet normal -0.35721865870107483 -0.6604524320024133 0.6604524320024133
outer loop
vertex 13.678358974358975 -29.615384615384617 4.641538461538463
vertex -7.489641025641025 -23.20377466925934 -0.39597979746446654
vertex 13.678358974358975 -30.011364412849083 4.245558664073997
endloop
endfacet
facet normal 0 0.7071067811865475 -0.7071067811865475
outer loop
vertex -7.489641025641025 -22.807794871794872 0
vertex 13.678358974358975 -22.807794871794872 0
vertex 13.678358974358975 -23.20377466925934 -0.39597979746446654
endloop
endfacet
facet normal 0 0.7071067811865475 -0.7071067811865475
outer loop
vertex -7.489641025641025 -22.807794871794872 0
vertex 13.678358974358975 -23.20377466925934 -0.39597979746446654
vertex -7.489641025641025 -23.20377466925934 -0.39597979746446654
endloop
endfacet
facet normal 0.3572186587010748 -0.6604524320024128 0.660452432002414
outer loop
vertex 13.678358974358975 -22.807794871794872 0
vertex -7.489641025641025 -29.615384615384617 4.641538461538463
vertex -7.489641025641025 -30.011364412849083 4.245558664073997
endloop
endfacet
facet normal 0.35721865870107483 -0.6604524320024133 0.6604524320024133
outer loop
vertex 13.678358974358975 -22.807794871794872 0
vertex -7.489641025641025 -30.011364412849083 4.245558664073997
vertex 13.678358974358975 -23.20377466925934 -0.39597979746446654
endloop
endfacet
facet normal 0 1 0
outer loop
vertex 13.678358974358975 -30.135384615384616 25.809538461538462
vertex -10.583999999999998 -30.135384615384616 17.978871794871797
vertex 10.584000000000001 -30.135384615384616 33.8548717948718
endloop
endfacet
facet normal 0 -1 0
outer loop
vertex 13.678358974358975 -30.135384615384616 25.809538461538462
vertex 10.584000000000001 -30.135384615384616 33.8548717948718
vertex -7.489641025641025 -30.135384615384616 9.933538461538461
endloop
endfacet
facet normal 0 1 0
outer loop
vertex 13.678358974358975 -30.695384615384615 25.809538461538462
vertex -7.489641025641025 -30.695384615384615 9.933538461538461
vertex 10.584000000000001 -30.695384615384615 33.8548717948718
endloop
endfacet
facet normal 0 -1 0
outer loop
vertex 13.678358974358975 -30.695384615384615 25.809538461538462
vertex 10.584000000000001 -30.695384615384615 33.8548717948718
vertex -10.583999999999998 -30.695384615384615 17.978871794871797
endloop
endfacet
facet normal -0.6000000000000001 0 0.7999999999999999
outer loop
vertex 13.678358974358975 -30.135384615384616 25.809538461538462
vertex -7.489641025641025 -30.135384615384616 9.933538461538461
vertex -7.489641025641025 -30.695384615384615 9.933538461538461
endloop
endfacet
facet normal -0.6000000000000001 0 0.7999999999999999
outer loop
vertex 13.678358974358975 -30.135384615384616 25.809538461538462
vertex -7.489641025641025 -30.695384615384615 9.933538461538461
vertex 13.678358974358975 -30.695384615384615 25.809538461538462
endloop
endfacet
facet normal 0.797871419113861 0 -0.6028276690408576
outer loop
vertex -7.489641025641025 -30.135384615384616 9.933538461538461
vertex 10.584000000000001 -30.135384615384616 33.8548717948718
vertex 10.584000000000001 -30.695384615384615 33.8548717948718
endloop
endfacet
facet normal 0.797871419113861 0 -0.6028276690408576
outer loop
vertex -7.489641025641025 -30.135384615384616 9.933538461538461
vertex 10.584000000000001 -30.695384615384615 33.8548717948718
vertex -7.489641025641025 -30.695384615384615 9.933538461538461
endloop
endfacet
facet normal -0.6000000000000001 0 0.7999999999999999
outer loop
vertex 10.584000000000001 -30.135384615384616 33.8548717948718
vertex -10.583999999999998 -30.135384615384616 17.978871794871797
vertex -10.583999999999998 -30.695384615384615 17.978871794871797
endloop
endfacet
facet normal -0.6000000000000001 0 0.7999999999999999
outer loop
vertex 10.584000000000001 -30.135384615384616 33.8548717948718
vertex -10.583999999999998 -30.695384615384615 17.978871794871797
vertex 10.584000000000001 -30.695384615384615 33.8548717948718
endloop
endfacet
facet normal 0.3071484102468208 0 -0.9516616279344517
outer loop
vertex -10.583999999999998 -30.135384615384616 17.978871794871797
vertex 13.678358974358975 -30.135384615384616 25.809538461538462
vertex 13.678358974358975 -30.695384615384615 25.809538461538462
endloop
endfacet
facet normal 0.3071484102468208 0 -0.9516616279344517
outer loop
vertex -10.583999999999998 -30.135384615384616 17.978871794871797
vertex 13.678358974358975 -30.695384615384615 25.809538461538462
vertex -10.583999999999998 -30.695384615384615 17.978871794871797
endloop
endfacet
facet normal 0 1 0
outer loop
vertex -3.528 -30.135384615384616 49.37807179487179
vertex -20.30071794871795 -30.135384615384616 21.859671794871797
vertex -9.716717948717948 -30.135384615384616 49.3780717948718
endloop
endfacet
facet normal 0 -1 0
outer loop
vertex -3.528 -30.135384615384616 49.37807179487179
vertex -9.716717948717948 -30.135384615384616 49.3780717948718
vertex -14.112 -30.135384615384616 21.859671794871794
endloop
endfacet
facet normal 0 1 0
outer loop
vertex -3.528 -30.695384615384615 49.37807179487179
vertex -14.112 -30.695384615384615 21.859671794871794
vertex -9.716717948717948 -30.695384615384615 49.3780717948718
endloop
endfacet
facet normal 0 -1 0
outer loop
vertex -3.528 -30.695384615384615 49.37807179487179
vertex -9.716717948717948 -30.695384615384615 49.3780717948718
vertex -20.30071794871795 -30.695384615384615 21.859671794871797
endloop
endfacet
facet normal -0.9333456062030595 0 0.3589790793088691
outer loop
vertex -3.528 -30.135384615384616 49.37807179487179
vertex -14.112 -30.135384615384616 21.859671794871794
vertex -14.112 -30.695384615384615 21.859671794871794
endloop
endfacet
facet normal -0.9333456062030595 0 0.3589790793088691
outer loop
vertex -3.528 -30.135384615384616 49.37807179487179
vertex -14.112 -30.695384615384615 21.859671794871794
vertex -3.528 -30.695384615384615 49.37807179487179
endloop
endfacet
facet normal 0.9874834886690841 0 -0.1577224131375592
outer loop
vertex -14.112 -30.135384615384616 21.859671794871794
vertex -9.716717948717948 -30.135384615384616 49.3780717948718
vertex -9.716717948717948 -30.695384615384615 49.3780717948718
endloop
endfacet
facet normal 0.9874834886690841 0 -0.1577224131375592
outer loop
vertex -14.112 -30.135384615384616 21.859671794871794
vertex -9.716717948717948 -30.695384615384615 49.3780717948718
vertex -14.112 -30.695384615384615 21.859671794871794
endloop
endfacet
facet normal -0.9333456062030594 0 0.358979079308869
outer loop
vertex -9.716717948717948 -30.135384615384616 49.3780717948718
vertex -20.30071794871795 -30.135384615384616 21.859671794871797
vertex -20.30071794871795 -30.695384615384615 21.859671794871797
endloop
endfacet
facet normal -0.9333456062030594 0 0.358979079308869
outer loop
vertex -9.716717948717948 -30.135384615384616 49.3780717948718
vertex -20.30071794871795 -30.695384615384615 21.859671794871797
vertex -9.716717948717948 -30.695384615384615 49.3780717948718
endloop
endfacet
facet normal 0.8538898716605263 0 -0.5204537319258743
outer loop
vertex -20.30071794871795 -30.135384615384616 21.859671794871797
vertex -3.528 -30.135384615384616 49.37807179487179
vertex -3.528 -30.695384615384615 49.37807179487179
endloop
endfacet
facet normal 0.8538898716605263 0 -0.5204537319258743
outer loop
vertex -20.30071794871795 -30.135384615384616 21.859671794871797
vertex -3.528 -30.695384615384615 49.37807179487179
vertex -20.30071794871795 -30.695384615384615 21.859671794871797
endloop
endfacet
facet normal 0 -1 0
outer loop
vertex -7.489641025641025 30.135384615384616 9.933538461538463
vertex 10.583999999999998 30.135384615384616 33.8548717948718
vertex -10.584000000000001 30.135384615384616 17.978871794871797
endloop
endfacet
facet normal 0 1 0
outer loop
vertex -7.489641025641025 30.135384615384616 9.933538461538463
vertex -10.584000000000001 30.135384615384616 17.978871794871797
vertex 13.678358974358975 30.135384615384616 25.809538461538462
endloop
endfacet
facet normal 0 -1 0
outer loop
vertex -7.489641025641025 30.695384615384615 9.933538461538463
vertex 13.678358974358975 30.695384615384615 25.809538461538462
vertex -10.584000000000001 30.695384615384615 17.978871794871797
endloop
endfacet
facet normal 0 1 0
outer loop
vertex -7.489641025641025 30.695384615384615 9.933538461538463
vertex -10.584000000000001 30.695384615384615 17.978871794871797
vertex 10.583999999999998 30.695384615384615 33.8548717948718
endloop
endfacet
facet normal -0.6 0 0.7999999999999999
outer loop
vertex -7.489641025641025 30.135384615384616 9.933538461538463
vertex 13.678358974358975 30.135384615384616 25.809538461538462
vertex 13.678358974358975 30.695384615384615 25.809538461538462
endloop
endfacet
facet normal -0.6 0 0.7999999999999999
outer loop
vertex -7.489641025641025 30.135384615384616 9.933538461538463
vertex 13.678358974358975 30.695384615384615 25.809538461538462
vertex -7.489641025641025 30.695384615384615 9.933538461538463
endloop
endfacet
facet normal 0.3071484102468208 0 -0.9516616279344517
outer loop
vertex 13.678358974358975 30.135384615384616 25.809538461538462
vertex -10.584000000000001 30.135384615384616 17.978871794871797
vertex -10.584000000000001 30.695384615384615 17.978871794871797
endloop
endfacet
facet normal 0.3071484102468208 0 -0.9516616279344517
outer loop
vertex 13.678358974358975 30.135384615384616 25.809538461538462
vertex -10.584000000000001 30.695384615384615 17.978871794871797
vertex 13.678358974358975 30.695384615384615 25.809538461538462
endloop
endfacet
facet normal -0.6000000000000001 0 0.7999999999999999
outer loop
vertex -10.584000000000001 30.135384615384616 17.978871794871797
vertex 10.583999999999998 30.135384615384616 33.8548717948718
vertex 10.583999999999998 30.695384615384615 33.8548717948718
endloop
endfacet
facet normal -0.6000000000000001 0 0.7999999999999999
outer loop
vertex -10.584000000000001 30.135384615384616 17.978871794871797
vertex 10.583999999999998 30.695384615384615 33.8548717948718
vertex -10.584000000000001 30.695384615384615 17.978871794871797
endloop
endfacet
facet normal 0.797871419113861 0 -0.6028276690408575
outer loop
vertex 10.583999999999998 30.135384615384616 33.8548717948718
vertex -7.489641025641025 30.135384615384616 9.933538461538463
vertex -7.489641025641025 30.695384615384615 9.933538461538463
endloop
endfacet
facet normal 0.797871419113861 0 -0.6028276690408575
outer loop
vertex 10.583999999999998 30.135384615384616 33.8548717948718
vertex -7.489641025641025 30.695384615384615 9.933538461538463
vertex 10.583999999999998 30.695384615384615 33.8548717948718
endloop
endfacet
facet normal 0 -0.56333682464151 0.8262273428075477
outer loop
vertex 13.678358974358975 29.615384615384617 4.641538461538463
vertex -13.678358974358975 22.807794871794872 0
vertex 7.489641025641025 22.807794871794872 0
endloop
endfacet
facet normal 0 0.5633368246415099 -0.8262273428075477
outer loop
vertex 13.678358974358975 29.615384615384617 4.641538461538463
vertex 7.489641025641025 22.807794871794872 0
vertex -7.489641025641025 29.615384615384617 4.641538461538463
endloop
endfacet
facet normal 0 -0.5633368246415099 0.8262273428075477
outer loop
vertex 13.678358974358975 30.011364412849083 4.245558664073997
vertex -7.489641025641025 30.011364412849083 4.245558664073997
vertex 7.489641025641025 23.20377466925934 -0.39597979746446654
endloop
endfacet
facet normal 0 0.56333682464151 -0.8262273428075477
outer loop
vertex 13.678358974358975 30.011364412849083 4.245558664073997
vertex 7.489641025641025 23.20377466925934 -0.39597979746446654
vertex -13.678358974358975 23.20377466925934 -0.39597979746446654
endloop
endfacet
facet normal 0 -0.7071067811865475 -0.7071067811865475
outer loop
vertex 13.678358974358975 29.615384615384617 4.641538461538463
vertex -7.489641025641025 29.615384615384617 4.641538461538463
vertex -7.489641025641025 30.011364412849083 4.245558664073997
endloop
endfacet
facet normal 0 -0.7071067811865475 -0.7071067811865475
outer loop
vertex 13.678358974358975 29.615384615384617 4.641538461538463
vertex -7.489641025641025 30.011364412849083 4.245558664073997
vertex 13.678358974358975 30.011364412849083 4.245558664073997
endloop
endfacet
facet normal 0.4754646282591135 0.6220664704331931 0.6220664704331945
outer loop
vertex -7.489641025641025 29.615384615384617 4.641538461538463
vertex 7.489641025641025 22.807794871794872 0
vertex 7.489641025641025 23.20377466925934 -0.39597979746446654
endloop
endfacet
facet normal 0.4754646282591135 0.6220664704331937 0.6220664704331937
outer loop
vertex -7.489641025641025 29.615384615384617 4.641538461538463
vertex 7.489641025641025 23.20377466925934 -0.39597979746446654
vertex -7.489641025641025 30.011364412849083 4.245558664073997
endloop
endfacet
facet normal 0 -0.7071067811865475 -0.7071067811865475
outer loop
vertex 7.489641025641025 22.807794871794872 0
vertex -13.678358974358975 22.807794871794872 0
vertex -13.678358974358975 23.20377466925934 -0.39597979746446654
endloop
endfacet
facet normal 0 -0.7071067811865475 -0.7071067811865475
outer loop
vertex 7.489641025641025 22.807794871794872 0
vertex -13.678358974358975 23.20377466925934 -0.39597979746446654
vertex 7.489641025641025 23.20377466925934 -0.39597979746446654
endloop
endfacet
facet normal -0.28376808526140085 0.6780397015614484 0.6780397015614502
outer loop
vertex -13.678358974358975 22.807794871794872 0
vertex 13.678358974358975 29.615384615384617 4.641538461538463
vertex 13.678358974358975 30.011364412849083 4.245558664073997
endloop
endfacet
facet normal -0.28376808526140124 0.6780397015614492 0.6780397015614492
outer loop
vertex -13.678358974358975 22.807794871794872 0
vertex 13.678358974358975 30.011364412849083 4.245558664073997
vertex -13.678358974358975 23.20377466925934 -0.39597979746446654
endloop
endfacet
facet normal 0 -1 0
outer loop
vertex -14.112 30.135384615384616 21.859671794871797
vertex -9.71671794871795 30.135384615384616 49.37807179487179
vertex -20.300717948717953 30.135384615384616 21.859671794871794
endloop
endfacet
facet normal 0 1 0
outer loop
vertex -14.112 30.135384615384616 21.859671794871797
vertex -20.300717948717953 30.135384615384616 21.859671794871794
vertex -3.5279999999999987 30.135384615384616 49.3780717948718
endloop
endfacet
facet normal 0 -1 0
outer loop
vertex -14.112 30.695384615384615 21.859671794871797
vertex -3.5279999999999987 30.695384615384615 49.3780717948718
vertex -20.300717948717953 30.695384615384615 21.859671794871794
endloop
endfacet
facet normal 0 1 0
outer loop
vertex -14.112 30.695384615384615 21.859671794871797
vertex -20.300717948717953 30.695384615384615 21.859671794871794
vertex -9.71671794871795 30.695384615384615 49.37807179487179
endloop
endfacet
facet normal -0.9333456062030594 0 0.358979079308869
outer loop
vertex -14.112 30.135384615384616 21.859671794871797
vertex -3.5279999999999987 30.135384615384616 49.3780717948718
vertex -3.5279999999999987 30.695384615384615 49.3780717948718
endloop
endfacet
facet normal -0.9333456062030594 0 0.358979079308869
outer loop
vertex -14.112 30.135384615384616 21.859671794871797
vertex -3.5279999999999987 30.695384615384615 49.3780717948718
vertex -14.112 30.695384615384615 21.859671794871797
endloop
endfacet
facet normal 0.8538898716605264 0 -0.5204537319258743
outer loop
vertex -3.5279999999999987 30.135384615384616 49.3780717948718
vertex -20.300717948717953 30.135384615384616 21.859671794871794
vertex -20.300717948717953 30.695384615384615 21.859671794871794
endloop
endfacet
facet normal 0.8538898716605264 0 -0.5204537319258743
outer loop
vertex -3.5279999999999987 30.135384615384616 49.3780717948718
vertex -20.300717948717953 30.695384615384615 21.859671794871794
vertex -3.5279999999999987 30.695384615384615 49.3780717948718
endloop
endfacet
facet normal -0.9333456062030595 0 0.3589790793088692
outer loop
vertex -20.300717948717953 30.135384615384616 21.859671794871794
vertex -9.71671794871795 30.135384615384616 49.37807179487179
vertex -9.71671794871795 30.695384615384615 49.37807179487179
endloop
endfacet
facet normal -0.9333456062030595 0 0.3589790793088692
outer loop
vertex -20.300717948717953 30.135384615384616 21.859671794871794
vertex -9.71671794871795 30.695384615384615 49.37807179487179
vertex -20.300717948717953 30.695384615384615 21.859671794871794
endloop
endfacet
facet normal 0.9874834886690841 0 -0.1577224131375592
outer loop
vertex -9.71671794871795 30.135384615384616 49.37807179487179
vertex -14.112 30.135384615384616 21.859671794871797
vertex -14.112 30.695384615384615 21.859671794871797
endloop
endfacet
facet normal 0.9874834886690841 0 -0.1577224131375592
outer loop
vertex -9.71671794871795 30.135384615384616 49.37807179487179
vertex -14.112 30.695384615384615 21.859671794871797
vertex -9.71671794871795 30.695384615384615 49.37807179487179
endloop
endfacet
facet normal 0 0 1
outer loop
vertex -7.489641025641025 -15.046194871794873 -0.52
vertex 7.489641025641025 15.046194871794873 -0.52
vertex -13.678358974358975 -8.238605128205132 -0.52
endloop
endfacet
facet normal 0 0 -1
outer loop
vertex -7.489641025641025 -15.046194871794873 -0.52
vertex -13.678358974358975 -8.238605128205132 -0.52
vertex 13.678358974358975 8.238605128205132 -0.52
endloop
endfacet
facet normal 0 0 1
outer loop
vertex -7.489641025641025 -15.046194871794873 -1.08
vertex 13.678358974358975 8.238605128205132 -1.08
vertex -13.678358974358975 -8.238605128205132 -1.08
endloop
endfacet
facet normal 0 0 -1
outer loop
vertex -7.489641025641025 -15.046194871794873 -1.08
vertex -13.678358974358975 -8.238605128205132 -1.08
vertex 7.489641025641025 15.046194871794873 -1.08
endloop
endfacet
facet normal -0.7399400733959438 0.6726727939963124 0
outer loop
vertex -7.489641025641025 -15.046194871794873 -0.52
vertex 13.678358974358975 8.238605128205132 -0.52
vertex 13.678358974358975 8.238605128205132 -1.08
endloop
endfacet
facet normal -0.7399400733959438 0.6726727939963124 0
outer loop
vertex -7.489641025641025 -15.046194871794873 -0.52
vertex 13.678358974358975 8.238605128205132 -1.08
vertex -7.489641025641025 -15.046194871794873 -1.08
endloop
endfacet
facet normal 0.515949672939288 -0.8566188971729739 0
outer loop
vertex 13.678358974358975 8.238605128205132 -0.52
vertex -13.678358974358975 -8.238605128205132 -0.52
vertex -13.678358974358975 -8.238605128205132 -1.08
endloop
endfacet
facet normal 0.515949672939288 -0.8566188971729739 0
outer loop
vertex 13.678358974358975 8.238605128205132 -0.52
vertex -13.678358974358975 -8.238605128205132 -1.08
vertex 13.678358974358975 8.238605128205132 -1.08
endloop
endfacet
facet normal -0.7399400733959438 0.6726727939963124 0
outer loop
vertex -13.678358974358975 -8.238605128205132 -0.52
vertex 7.489641025641025 15.046194871794873 -0.52
vertex 7.489641025641025 15.046194871794873 -1.08
endloop
endfacet
facet normal -0.7399400733959438 0.6726727939963124 0
outer loop
vertex -13.678358974358975 -8.238605128205132 -0.52
vertex 7.489641025641025 15.046194871794873 -1.08
vertex -13.678358974358975 -8.238605128205132 -1.08
endloop
endfacet
facet normal 0.8952220122603852 -0.4456204088284856 0
outer loop
vertex 7.489641025641025 15.046194871794873 -0.52
vertex -7.489641025641025 -15.046194871794873 -0.52
vertex -7.489641025641025 -15.046194871794873 -1.08
endloop
endfacet
facet normal 0.8952220122603852 -0.4456204088284856 0
outer loop
vertex 7.489641025641025 15.046194871794873 -0.52
vertex -7.489641025641025 -15.046194871794873 -1.08
vertex 7.489641025641025 15.046194871794873 -1.08
endloop
endfacet
facet normal -0.6000000000000002 0 0.7999999999999998
outer loop
vertex 20.734358974358976 8.23860512820513 0
vertex 26.923076923076923 -8.23860512820513 4.641538461538463
vertex 26.923076923076923 15.046194871794874 4.641538461538463
endloop
endfacet
facet normal 0.6000000000000002 0 -0.7999999999999998
outer loop
vertex 20.734358974358976 8.23860512820513 0
vertex 26.923076923076923 15.046194871794874 4.641538461538463
vertex 20.734358974358976 -15.046194871794874 0
endloop
endfacet
facet normal -0.6000000000000002 0 0.7999999999999998
outer loop
vertex 21.130338771823443 8.23860512820513 -0.39597979746446654
vertex 21.130338771823443 -15.046194871794874 -0.39597979746446654
vertex 27.31905672054139 15.046194871794874 4.245558664073997
endloop
endfacet
facet normal 0.6000000000000002 0 -0.7999999999999998
outer loop
vertex 21.130338771823443 8.23860512820513 -0.39597979746446654
vertex 27.31905672054139 15.046194871794874 4.245558664073997
vertex 27.31905672054139 -8.23860512820513 4.245558664073997
endloop
endfacet
facet normal 0.7071067811865475 0 0.7071067811865475
outer loop
vertex 20.734358974358976 8.23860512820513 0
vertex 20.734358974358976 -15.046194871794874 0
vertex 21.130338771823443 -15.046194871794874 -0.39597979746446654
endloop
endfacet
facet normal 0.7071067811865475 0 0.7071067811865475
outer loop
vertex 20.734358974358976 8.23860512820513 0
vertex 21.130338771823443 -15.046194871794874 -0.39597979746446654
vertex 21.130338771823443 8.23860512820513 -0.39597979746446654
endloop
endfacet
facet normal -0.6852646179031832 0.2466268576209974 -0.685264617903184
outer loop
vertex 20.734358974358976 -15.046194871794874 0
vertex 26.923076923076923 15.046194871794874 4.641538461538463
vertex 27.31905672054139 15.046194871794874 4.245558664073997
endloop
endfacet
facet normal -0.6852646179031836 0.24662685762099715 -0.6852646179031836
outer loop
vertex 20.734358974358976 -15.046194871794874 0
vertex 27.31905672054139 15.046194871794874 4.245558664073997
vertex 21.130338771823443 -15.046194871794874 -0.39597979746446654
endloop
endfacet
facet normal 0.7071067811865475 0 0.7071067811865475
outer loop
vertex 26.923076923076923 15.046194871794874 4.641538461538463
vertex 26.923076923076923 -8.23860512820513 4.641538461538463
vertex 27.31905672054139 -8.23860512820513 4.245558664073997
endloop
endfacet
facet normal 0.7071067811865475 0 0.7071067811865475
outer loop
vertex 26.923076923076923 15.046194871794874 4.641538461538463
vertex 27.31905672054139 -8.23860512820513 4.245558664073997
vertex 27.31905672054139 15.046194871794874 4.245558664073997
endloop
endfacet
facet normal -0.6412330127175446 -0.4214741353895427 -0.6412330127175446
outer loop
vertex 26.923076923076923 -8.23860512820513 4.641538461538463
vertex 20.734358974358976 8.23860512820513 0
vertex 21.130338771823443 8.23860512820513 -0.39597979746446654
endloop
endfacet
facet normal -0.6412330127175446 -0.4214741353895426 -0.6412330127175446
outer loop
vertex 26.923076923076923 -8.23860512820513 4.641538461538463
vertex 21.130338771823443 8.23860512820513 -0.39597979746446654
vertex 27.31905672054139 -8.23860512820513 4.245558664073997
endloop
endfacet
facet normal -1 0 0
outer loop
vertex 27.443076923076923 -15.046194871794873 14.575076923076926
vertex 27.443076923076923 15.046194871794873 25.809538461538462
vertex 27.443076923076923 -8.238605128205132 9.933538461538461
endloop
endfacet
facet normal 1 0 0
outer loop
vertex 27.443076923076923 -15.046194871794873 14.575076923076926
vertex 27.443076923076923 -8.238605128205132 9.933538461538461
vertex 27.443076923076923 8.238605128205132 30.451076923076926
endloop
endfacet
facet normal -1 0 0
outer loop
vertex 28.00307692307692 -15.046194871794873 14.575076923076926
vertex 28.00307692307692 8.238605128205132 30.451076923076926
vertex 28.00307692307692 -8.238605128205132 9.933538461538461
endloop
endfacet
facet normal 1 0 0
outer loop
vertex 28.00307692307692 -15.046194871794873 14.575076923076926
vertex 28.00307692307692 -8.238605128205132 9.933538461538461
vertex 28.00307692307692 15.046194871794873 25.809538461538462
endloop
endfacet
facet normal 0 0.5633368246415097 -0.8262273428075476
outer loop
vertex 27.443076923076923 -15.046194871794873 14.575076923076926
vertex 27.443076923076923 8.238605128205132 30.451076923076926
vertex 28.00307692307692 8.238605128205132 30.451076923076926
endloop
endfacet
facet normal 0 0.5633368246415097 -0.8262273428075476
outer loop
vertex 27.443076923076923 -15.046194871794873 14.575076923076926
vertex 28.00307692307692 8.238605128205132 30.451076923076926
vertex 28.00307692307692 -15.046194871794873 14.575076923076926
endloop
endfacet
facet normal 0 -0.7796962603991796 0.6261579205915506
outer loop
vertex 27.443076923076923 8.238605128205132 30.451076923076926
vertex 27.443076923076923 -8.238605128205132 9.933538461538461
vertex 28.00307692307692 -8.238605128205132 9.933538461538461
endloop
endfacet
facet normal 0 -0.7796962603991796 0.6261579205915506
outer loop
vertex 27.443076923076923 8.238605128205132 30.451076923076926
vertex 28.00307692307692 -8.238605128205132 9.933538461538461
vertex 28.00307692307692 8.238605128205132 30.451076923076926
endloop
endfacet
facet normal 0 0.5633368246415098 -0.8262273428075476
outer loop
vertex 27.443076923076923 -8.238605128205132 9.933538461538461
vertex 27.443076923076923 15.046194871794873 25.809538461538462
vertex 28.00307692307692 15.046194871794873 25.809538461538462
endloop
endfacet
facet normal 0 0.5633368246415098 -0.8262273428075476
outer loop
vertex 27.443076923076923 -8.238605128205132 9.933538461538461
vertex 28.00307692307692 15.046194871794873 25.809538461538462
vertex 28.00307692307692 -8.238605128205132 9.933538461538461
endloop
endfacet
facet normal 0 -0.34975332850090485 0.936841827205926
outer loop
vertex 27.443076923076923 15.046194871794873 25.809538461538462
vertex 27.443076923076923 -15.046194871794873 14.575076923076926
vertex 28.00307692307692 -15.046194871794873 14.575076923076926
endloop
endfacet
facet normal 0 -0.34975332850090485 0.936841827205926
outer loop
vertex 27.443076923076923 15.046194871794873 25.809538461538462
vertex 28.00307692307692 -15.046194871794873 14.575076923076926
vertex 28.00307692307692 15.046194871794873 25.809538461538462
endloop
endfacet
facet normal -0.9333456062030596 0 -0.35897907930886885
outer loop
vertex 26.923076923076923 8.23860512820513 35.74307692307693
vertex 23.82871794871795 -8.23860512820513 43.78841025641026
vertex 23.82871794871795 15.046194871794874 43.78841025641026
endloop
endfacet
facet normal 0.9333456062030596 0 0.35897907930886885
outer loop
vertex 26.923076923076923 8.23860512820513 35.74307692307693
vertex 23.82871794871795 15.046194871794874 43.78841025641026
vertex 26.923076923076923 -15.046194871794874 35.74307692307693
endloop
endfacet
facet normal -0.9333456062030596 0 -0.35897907930886885
outer loop
vertex 27.445401155243577 8.23860512820513 35.94501106207159
vertex 27.445401155243577 -15.046194871794874 35.94501106207159
vertex 24.351042180884605 15.046194871794874 43.990344395404925
endloop
endfacet
facet normal 0.9333456062030596 0 0.35897907930886885
outer loop
vertex 27.445401155243577 8.23860512820513 35.94501106207159
vertex 24.351042180884605 15.046194871794874 43.990344395404925
vertex 24.351042180884605 -8.23860512820513 43.990344395404925
endloop
endfacet
facet normal -0.3605966767761888 0 0.9327218431547365
outer loop
vertex 26.923076923076923 8.23860512820513 35.74307692307693
vertex 26.923076923076923 -15.046194871794874 35.74307692307693
vertex 27.445401155243577 -15.046194871794874 35.94501106207159
endloop
endfacet
facet normal -0.3605966767761888 0 0.9327218431547365
outer loop
vertex 26.923076923076923 8.23860512820513 35.74307692307693
vertex 27.445401155243577 -15.046194871794874 35.94501106207159
vertex 27.445401155243577 8.23860512820513 35.94501106207159
endloop
endfacet
facet normal 0.346655169762922 0.2753722580443687 -0.8966606452700961
outer loop
vertex 26.923076923076923 -15.046194871794874 35.74307692307693
vertex 23.82871794871795 15.046194871794874 43.78841025641026
vertex 24.351042180884605 15.046194871794874 43.990344395404925
endloop
endfacet
facet normal 0.3466551697629212 0.2753722580443687 -0.8966606452700966
outer loop
vertex 26.923076923076923 -15.046194871794874 35.74307692307693
vertex 24.351042180884605 15.046194871794874 43.990344395404925
vertex 27.445401155243577 -15.046194871794874 35.94501106207159
endloop
endfacet
facet normal -0.3605966767761888 0 0.9327218431547365
outer loop
vertex 23.82871794871795 15.046194871794874 43.78841025641026
vertex 23.82871794871795 -8.23860512820513 43.78841025641026
vertex 24.351042180884605 -8.23860512820513 43.990344395404925
endloop
endfacet
facet normal -0.3605966767761888 0 0.9327218431547365
outer loop
vertex 23.82871794871795 15.046194871794874 43.78841025641026
vertex 24.351042180884605 -8.23860512820513 43.990344395404925
vertex 24.351042180884605 15.046194871794874 43.990344395404925
endloop
endfacet
facet normal 0.3195159051833032 -0.46354081572497446 -0.8264620369332882
outer loop
vertex 23.82871794871795 -8.23860512820513 43.78841025641026
vertex 26.923076923076923 8.23860512820513 35.74307692307693
vertex 27.445401155243577 8.23860512820513 35.94501106207159
endloop
endfacet
facet normal 0.31951590518330214 -0.46354081572497463 -0.8264620369332883
outer loop
vertex 23.82871794871795 -8.23860512820513 43.78841025641026
vertex 27.445401155243577 8.23860512820513 35.94501106207159
vertex 24.351042180884605 -8.23860512820513 43.990344395404925
endloop
endfacet
facet normal -0.7399400733959433 2.9851308605402223e-16 -0.6726727939963131
outer loop
vertex 17.591127812524867 -15.046194871794873 51.42279498108321
vertex 10.101486786883841 15.046194871794873 59.66140010928834
vertex 20.685486786883843 -8.238605128205132 48.01900010928834
endloop
endfacet
facet normal 0.7399400733959433 -2.65344965381353e-16 0.672672793996313
outer loop
vertex 17.591127812524867 -15.046194871794873 51.42279498108321
vertex 20.685486786883843 -8.238605128205132 48.01900010928834
vertex 7.007127812524865 8.238605128205132 63.0651949810832
endloop
endfacet
facet normal -0.7399400733959434 3.3168120672669137e-16 -0.672672793996313
outer loop
vertex 18.005494253626594 -15.046194871794873 51.79949174572114
vertex 7.4214942536265935 8.238605128205132 63.441891745721136
vertex 21.09985322798557 -8.238605128205132 48.395696873926276
endloop
endfacet
facet normal 0.7399400733959433 -3.150971463903568e-16 0.6726727939963131
outer loop
vertex 18.005494253626594 -15.046194871794873 51.79949174572114
vertex 21.09985322798557 -8.238605128205132 48.395696873926276
vertex 10.51585322798557 15.046194871794873 60.03809687392627
endloop
endfacet
facet normal 0.5573551077648792 0.5598885400729003 -0.6130906185413671
outer loop
vertex 17.591127812524867 -15.046194871794873 51.42279498108321
vertex 7.007127812524865 8.238605128205132 63.0651949810832
vertex 7.4214942536265935 8.238605128205132 63.441891745721136
endloop
endfacet
facet normal 0.5573551077648795 0.5598885400729009 -0.6130906185413664
outer loop
vertex 17.591127812524867 -15.046194871794873 51.42279498108321
vertex 7.4214942536265935 8.238605128205132 63.441891745721136
vertex 18.005494253626594 -15.046194871794873 51.79949174572114
endloop
endfacet
facet normal -0.4234940874553491 -0.7769443962972502 0.4658434962008833
outer loop
vertex 7.007127812524865 8.238605128205132 63.0651949810832
vertex 20.685486786883843 -8.238605128205132 48.01900010928834
vertex 21.09985322798557 -8.238605128205132 48.395696873926276
endloop
endfacet
facet normal -0.4234940874553476 -0.7769443962972509 0.46584349620088356
outer loop
vertex 7.007127812524865 8.238605128205132 63.0651949810832
vertex 21.09985322798557 -8.238605128205132 48.395696873926276
vertex 7.4214942536265935 8.238605128205132 63.441891745721136
endloop
endfacet
facet normal 0.5573551077648804 0.5598885400728998 -0.6130906185413666
outer loop
vertex 20.685486786883843 -8.238605128205132 48.01900010928834
vertex 10.101486786883841 15.046194871794873 59.66140010928834
vertex 10.51585322798557 15.046194871794873 60.03809687392627
endloop
endfacet
facet normal 0.5573551077648795 0.5598885400729009 -0.6130906185413664
outer loop
vertex 20.685486786883843 -8.238605128205132 48.01900010928834
vertex 10.51585322798557 15.046194871794873 60.03809687392627
vertex 21.09985322798557 -8.238605128205132 48.395696873926276
endloop
endfacet
facet normal -0.6308743669346654 -0.34700799450441794 0.6939618036281299
outer loop
vertex 10.101486786883841 15.046194871794873 59.66140010928834
vertex 17.591127812524867 -15.046194871794873 51.42279498108321
vertex 18.005494253626594 -15.046194871794873 51.79949174572114
endloop
endfacet
facet normal -0.6308743669346636 -0.34700799450441727 0.6939618036281318
outer loop
vertex 10.101486786883841 15.046194871794873 59.66140010928834
vertex 18.005494253626594 -15.046194871794873 51.79949174572114
vertex 10.51585322798557 15.046194871794873 60.03809687392627
endloop
endfacet
facet normal 0 0 -1
outer loop
vertex 3.0943589743589746 8.23860512820513 66.59620512820511
vertex -3.0943589743589746 -8.23860512820513 66.59620512820511
vertex -3.0943589743589746 15.046194871794874 66.59620512820511
endloop
endfacet
facet normal 0 0 1
outer loop
vertex 3.0943589743589746 8.23860512820513 66.59620512820511
vertex -3.0943589743589746 15.046194871794874 66.59620512820511
vertex 3.0943589743589746 -15.046194871794874 66.59620512820511
endloop
endfacet
facet normal 0 0 -1
outer loop
vertex 3.0943589743589746 8.23860512820513 67.15620512820512
vertex 3.0943589743589746 -15.046194871794874 67.15620512820512
vertex -3.0943589743589746 15.046194871794874 67.15620512820512
endloop
endfacet
facet normal 0 0 1
outer loop
vertex 3.0943589743589746 8.23860512820513 67.15620512820512
vertex -3.0943589743589746 15.046194871794874 67.15620512820512
vertex -3.0943589743589746 -8.23860512820513 67.15620512820512
endloop
endfacet
facet normal -1 0 0
outer loop
vertex 3.0943589743589746 8.23860512820513 66.59620512820511
vertex 3.0943589743589746 -15.046194871794874 66.59620512820511
vertex 3.0943589743589746 -15.046194871794874 67.15620512820512
endloop
endfacet
facet normal -1 0 0
outer loop
vertex 3.0943589743589746 8.23860512820513 66.59620512820511
vertex 3.0943589743589746 -15.046194871794874 67.15620512820512
vertex 3.0943589743589746 8.23860512820513 67.15620512820512
endloop
endfacet
facet normal 0.9795005702783071 0.20144138806231285 0
outer loop
vertex 3.0943589743589746 -15.046194871794874 66.59620512820511
vertex -3.0943589743589746 15.046194871794874 66.59620512820511
vertex -3.0943589743589746 15.046194871794874 67.15620512820512
endloop
endfacet
facet normal 0.9795005702783071 0.20144138806231285 0
outer loop
vertex 3.0943589743589746 -15.046194871794874 66.59620512820511
vertex -3.0943589743589746 15.046194871794874 67.15620512820512
vertex 3.0943589743589746 -15.046194871794874 67.15620512820512
endloop
endfacet
facet normal -1 0 0
outer loop
vertex -3.0943589743589746 15.046194871794874 66.59620512820511
vertex -3.0943589743589746 -8.23860512820513 66.59620512820511
vertex -3.0943589743589746 -8.23860512820513 67.15620512820512
endloop
endfacet
facet normal -1 0 0
outer loop
vertex -3.0943589743589746 15.046194871794874 66.59620512820511
vertex -3.0943589743589746 -8.23860512820513 67.15620512820512
vertex -3.0943589743589746 15.046194871794874 67.15620512820512
endloop
endfacet
facet normal 0.9361466696976161 -0.3516097450499098 0
outer loop
vertex -3.0943589743589746 -8.23860512820513 66.59620512820511
vertex 3.0943589743589746 8.23860512820513 66.59620512820511
vertex 3.0943589743589746 8.23860512820513 67.15620512820512
endloop
endfacet
facet normal 0.9361466696976161 -0.3516097450499098 0
outer loop
vertex -3.0943589743589746 -8.23860512820513 66.59620512820511
vertex 3.0943589743589746 8.23860512820513 67.15620512820512
vertex -3.0943589743589746 -8.23860512820513 67.15620512820512
endloop
endfacet
facet normal 0.7399400733959431 -3.316812067266913e-16 -0.6726727939963131
outer loop
vertex -10.101486786883841 -15.046194871794873 59.66140010928834
vertex -17.591127812524867 15.046194871794873 51.42279498108321
vertex -7.007127812524865 -8.238605128205132 63.0651949810832
endloop
endfacet
facet normal -0.7399400733959433 3.3168120672669127e-16 0.672672793996313
outer loop
vertex -10.101486786883841 -15.046194871794873 59.66140010928834
vertex -7.007127812524865 -8.238605128205132 63.0651949810832
vertex -20.685486786883843 8.238605128205132 48.01900010928834
endloop
endfacet
facet normal 0.7399400733959433 -3.648493273993604e-16 -0.672672793996313
outer loop
vertex -10.51585322798557 -15.046194871794873 60.03809687392627
vertex -21.09985322798557 8.238605128205132 48.395696873926276
vertex -7.4214942536265935 -8.238605128205132 63.441891745721136
endloop
endfacet
facet normal -0.7399400733959431 3.482652670630259e-16 0.6726727939963131
outer loop
vertex -10.51585322798557 -15.046194871794873 60.03809687392627
vertex -7.4214942536265935 -8.238605128205132 63.441891745721136
vertex -18.005494253626594 15.046194871794873 51.79949174572114
endloop
endfacet
facet normal 0.5573551077648788 0.5598885400729009 0.613090618541367
outer loop
vertex -10.101486786883841 -15.046194871794873 59.66140010928834
vertex -20.685486786883843 8.238605128205132 48.01900010928834
vertex -21.09985322798557 8.238605128205132 48.395696873926276
endloop
endfacet
facet normal 0.5573551077648781 0.5598885400729009 0.6130906185413676
outer loop
vertex -10.101486786883841 -15.046194871794873 59.66140010928834
vertex -21.09985322798557 8.238605128205132 48.395696873926276
vertex -10.51585322798557 -15.046194871794873 60.03809687392627
endloop
endfacet
facet normal -0.4234940874553465 -0.776944396297251 -0.46584349620088444
outer loop
vertex -20.685486786883843 8.238605128205132 48.01900010928834
vertex -7.007127812524865 -8.238605128205132 63.0651949810832
vertex -7.4214942536265935 -8.238605128205132 63.441891745721136
endloop
endfacet
facet normal -0.42349408745534867 -0.776944396297251 -0.4658434962008827
outer loop
vertex -20.685486786883843 8.238605128205132 48.01900010928834
vertex -7.4214942536265935 -8.238605128205132 63.441891745721136
vertex -21.09985322798557 8.238605128205132 48.395696873926276
endloop
endfacet
facet normal 0.5573551077648791 0.5598885400729021 0.6130906185413656
outer loop
vertex -7.007127812524865 -8.238605128205132 63.0651949810832
vertex -17.591127812524867 15.046194871794873 51.42279498108321
vertex -18.005494253626594 15.046194871794873 51.79949174572114
endloop
endfacet
facet normal 0.5573551077648781 0.5598885400729009 0.6130906185413675
outer loop
vertex -7.007127812524865 -8.238605128205132 63.0651949810832
vertex -18.005494253626594 15.046194871794873 51.79949174572114
vertex -7.4214942536265935 -8.238605128205132 63.441891745721136
endloop
endfacet
facet normal -0.6308743669346633 -0.34700799450441716 -0.6939618036281322
outer loop
vertex -17.591127812524867 15.046194871794873 51.42279498108321
vertex -10.101486786883841 -15.046194871794873 59.66140010928834
vertex -10.51585322798557 -15.046194871794873 60.03809687392627
endloop
endfacet
facet normal -0.6308743669346651 -0.34700799450441727 -0.6939618036281304
outer loop
vertex -17.591127812524867 15.046194871794873 51.42279498108321
vertex -10.51585322798557 -15.046194871794873 60.03809687392627
vertex -18.005494253626594 15.046194871794873 51.79949174572114
endloop
endfacet
facet normal 0.9333456062030596 0 -0.35897907930886885
outer loop
vertex -23.82871794871795 8.23860512820513 43.78841025641026
vertex -26.923076923076923 -8.23860512820513 35.74307692307693
vertex -26.923076923076923 15.046194871794874 35.74307692307693
endloop
endfacet
facet normal -0.9333456062030596 0 0.35897907930886885
outer loop
vertex -23.82871794871795 8.23860512820513 43.78841025641026
vertex -26.923076923076923 15.046194871794874 35.74307692307693
vertex -23.82871794871795 -15.046194871794874 43.78841025641026
endloop
endfacet
facet normal 0.9333456062030596 0 -0.35897907930886885
outer loop
vertex -24.351042180884605 8.23860512820513 43.990344395404925
vertex -24.351042180884605 -15.046194871794874 43.990344395404925
vertex -27.445401155243577 15.046194871794874 35.94501106207159
endloop
endfacet
facet normal -0.9333456062030596 0 0.35897907930886885
outer loop
vertex -24.351042180884605 8.23860512820513 43.990344395404925
vertex -27.445401155243577 15.046194871794874 35.94501106207159
vertex -27.445401155243577 -8.23860512820513 35.94501106207159
endloop
endfacet
facet normal -0.3605966767761888 0 -0.9327218431547365
outer loop
vertex -23.82871794871795 8.23860512820513 43.78841025641026
vertex -23.82871794871795 -15.046194871794874 43.78841025641026
vertex -24.351042180884605 -15.046194871794874 43.990344395404925
endloop
endfacet
facet normal -0.3605966767761888 0 -0.9327218431547365
outer loop
vertex -23.82871794871795 8.23860512820513 43.78841025641026
vertex -24.351042180884605 -15.046194871794874 43.990344395404925
vertex -24.351042180884605 8.23860512820513 43.990344395404925
endloop
endfacet
facet normal 0.3466551697629206 0.27537225804436866 0.8966606452700967
outer loop
vertex -23.82871794871795 -15.046194871794874 43.78841025641026
vertex -26.923076923076923 15.046194871794874 35.74307692307693
vertex -27.445401155243577 15.046194871794874 35.94501106207159
endloop
endfacet
facet normal 0.3466551697629212 0.2753722580443687 0.8966606452700966
outer loop
vertex -23.82871794871795 -15.046194871794874 43.78841025641026
vertex -27.445401155243577 15.046194871794874 35.94501106207159
vertex -24.351042180884605 -15.046194871794874 43.990344395404925
endloop
endfacet
facet normal -0.3605966767761888 0 -0.9327218431547365
outer loop
vertex -26.923076923076923 15.046194871794874 35.74307692307693
vertex -26.923076923076923 -8.23860512820513 35.74307692307693
vertex -27.445401155243577 -8.23860512820513 35.94501106207159
endloop
endfacet
facet normal -0.3605966767761888 0 -0.9327218431547365
outer loop
vertex -26.923076923076923 15.046194871794874 35.74307692307693
vertex -27.445401155243577 -8.23860512820513 35.94501106207159
vertex -27.445401155243577 15.046194871794874 35.94501106207159
endloop
endfacet
facet normal 0.31951590518330314 -0.46354081572497474 0.8264620369332881
outer loop
vertex -26.923076923076923 -8.23860512820513 35.74307692307693
vertex -23.82871794871795 8.23860512820513 43.78841025641026
vertex -24.351042180884605 8.23860512820513 43.990344395404925
endloop
endfacet
facet normal 0.31951590518330214 -0.46354081572497463 0.8264620369332883
outer loop
vertex -26.923076923076923 -8.23860512820513 35.74307692307693
vertex -24.351042180884605 8.23860512820513 43.990344395404925
vertex -27.445401155243577 -8.23860512820513 35.94501106207159
endloop
endfacet
facet normal 1 0 0
outer loop
vertex -27.443076923076923 -15.046194871794873 25.809538461538462
vertex -27.443076923076923 15.046194871794873 14.575076923076926
vertex -27.443076923076923 -8.238605128205132 30.451076923076926
endloop
endfacet
facet normal -1 0 0
outer loop
vertex -27.443076923076923 -15.046194871794873 25.809538461538462
vertex -27.443076923076923 -8.238605128205132 30.451076923076926
vertex -27.443076923076923 8.238605128205132 9.933538461538461
endloop
endfacet
facet normal 1 0 0
outer loop
vertex -28.00307692307692 -15.046194871794873 25.809538461538462
vertex -28.00307692307692 8.238605128205132 9.933538461538461
vertex -28.00307692307692 -8.238605128205132 30.451076923076926
endloop
endfacet
facet normal -1 0 0
outer loop
vertex -28.00307692307692 -15.046194871794873 25.809538461538462
vertex -28.00307692307692 -8.238605128205132 30.451076923076926
vertex -28.00307692307692 15.046194871794873 14.575076923076926
endloop
endfacet
facet normal 0 0.5633368246415098 0.8262273428075476
outer loop
vertex -27.443076923076923 -15.046194871794873 25.809538461538462
vertex -27.443076923076923 8.238605128205132 9.933538461538461
vertex -28.00307692307692 8.238605128205132 9.933538461538461
endloop
endfacet
facet normal 0 0.5633368246415098 0.8262273428075476
outer loop
vertex -27.443076923076923 -15.046194871794873 25.809538461538462
vertex -28.00307692307692 8.238605128205132 9.933538461538461
vertex -28.00307692307692 -15.046194871794873 25.809538461538462
endloop
endfacet
facet normal 0 -0.7796962603991796 -0.6261579205915506
outer loop
vertex -27.443076923076923 8.238605128205132 9.933538461538461
vertex -27.443076923076923 -8.238605128205132 30.451076923076926
vertex -28.00307692307692 -8.238605128205132 30.451076923076926
endloop
endfacet
facet normal 0 -0.7796962603991796 -0.6261579205915506
outer loop
vertex -27.443076923076923 8.238605128205132 9.933538461538461
vertex -28.00307692307692 -8.238605128205132 30.451076923076926
vertex -28.00307692307692 8.238605128205132 9.933538461538461
endloop
endfacet
facet normal 0 0.5633368246415097 0.8262273428075476
outer loop
vertex -27.443076923076923 -8.238605128205132 30.451076923076926
vertex -27.443076923076923 15.046194871794873 14.575076923076926
vertex -28.00307692307692 15.046194871794873 14.575076923076926
endloop
endfacet
facet normal 0 0.5633368246415097 0.8262273428075476
outer loop
vertex -27.443076923076923 -8.238605128205132 30.451076923076926
vertex -28.00307692307692 15.046194871794873 14.575076923076926
vertex -28.00307692307692 -8.238605128205132 30.451076923076926
endloop
endfacet
facet normal 0 -0.34975332850090485 -0.936841827205926
outer loop
vertex -27.443076923076923 15.046194871794873 14.575076923076926
vertex -27.443076923076923 -15.046194871794873 25.809538461538462
vertex -28.00307692307692 -15.046194871794873 25.809538461538462
endloop
endfacet
facet normal 0 -0.34975332850090485 -0.936841827205926
outer loop
vertex -27.443076923076923 15.046194871794873 14.575076923076926
vertex -28.00307692307692 -15.046194871794873 25.809538461538462
vertex -28.00307692307692 15.046194871794873 14.575076923076926
endloop
endfacet
endsolid house-kirigami
