solid house-kirigami
facet normal 0 -1 0
outer loop
vertex 8.974358974358974 -31.215384615384618 13.461538461538462
vertex -26.923076923076923 -31.215384615384618 0
vertex 0 -31.215384615384618 4.307692307692308
endloop
endfacet
facet normal 0 1 0
outer loop
vertex 8.974358974358974 -29.615384615384617 13.461538461538462
vertex 0 -29.615384615384617 4.307692307692308
vertex -26.923076923076923 -29.615384615384617 0
endloop
endfacet
facet normal 0 -1 0
outer loop
vertex 8.974358974358974 -31.215384615384618 13.461538461538462
vertex 0 -31.215384615384618 4.307692307692308
vertex 26.923076923076923 -31.215384615384618 0
endloop
endfacet
facet normal 0 1 0
outer loop
vertex 8.974358974358974 -29.615384615384617 13.461538461538462
vertex 26.923076923076923 -29.615384615384617 0
vertex 0 -29.615384615384617 4.307692307692308
endloop
endfacet
facet normal 0 -1 0
outer loop
vertex 8.974358974358974 -31.215384615384618 13.461538461538462
vertex 26.923076923076923 -31.215384615384618 0
vertex 22.615384615384613 -31.215384615384618 20.192307692307693
endloop
endfacet
facet normal 0 1 0
outer loop
vertex 8.974358974358974 -29.615384615384617 13.461538461538462
vertex 22.615384615384613 -29.615384615384617 20.192307692307693
vertex 26.923076923076923 -29.615384615384617 0
endloop
endfacet
facet normal 0 -1 0
outer loop
vertex 8.974358974358974 -31.215384615384618 13.461538461538462
vertex 22.615384615384613 -31.215384615384618 20.192307692307693
vertex 26.923076923076923 -31.215384615384618 40.38461538461539
endloop
endfacet
facet normal 0 1 0
outer loop
vertex 8.974358974358974 -29.615384615384617 13.461538461538462
vertex 26.923076923076923 -29.615384615384617 40.38461538461539
vertex 22.615384615384613 -29.615384615384617 20.192307692307693
endloop
endfacet
facet normal 0 -1 0
outer loop
vertex 8.974358974358974 -31.215384615384618 13.461538461538462
vertex 26.923076923076923 -31.215384615384618 40.38461538461539
vertex 0 -31.215384615384618 20.192307692307693
endloop
endfacet
facet normal 0 1 0
outer loop
vertex 8.974358974358974 -29.615384615384617 13.461538461538462
vertex 0 -29.615384615384617 20.192307692307693
vertex 26.923076923076923 -29.615384615384617 40.38461538461539
endloop
endfacet
facet normal 0 -1 0
outer loop
vertex 8.974358974358974 -31.215384615384618 13.461538461538462
vertex 0 -31.215384615384618 20.192307692307693
vertex -26.923076923076923 -31.215384615384618 0
endloop
endfacet
facet normal 0 1 0
outer loop
vertex 8.974358974358974 -29.615384615384617 13.461538461538462
vertex -26.923076923076923 -29.615384615384617 0
vertex 0 -29.615384615384617 20.192307692307693
endloop
endfacet
facet normal 0.15799050110667287 0 -0.9874406319167053
outer loop
vertex -26.923076923076923 -29.615384615384617 0
vertex 0 -29.615384615384617 4.307692307692308
vertex 0 -31.215384615384618 4.307692307692308
endloop
endfacet
facet normal 0.15799050110667287 0 -0.9874406319167053
outer loop
vertex -26.923076923076923 -29.615384615384617 0
vertex 0 -31.215384615384618 4.307692307692308
vertex -26.923076923076923 -31.215384615384618 0
endloop
endfacet
facet normal -0.15799050110667287 0 -0.9874406319167053
outer loop
vertex 0 -29.615384615384617 4.307692307692308
vertex 26.923076923076923 -29.615384615384617 0
vertex 26.923076923076923 -31.215384615384618 0
endloop
endfacet
facet normal -0.15799050110667287 0 -0.9874406319167053
outer loop
vertex 0 -29.615384615384617 4.307692307692308
vertex 26.923076923076923 -31.215384615384618 0
vertex 0 -31.215384615384618 4.307692307692308
endloop
endfacet
facet normal 0.9779928364243075 0 0.20863847177051906
outer loop
vertex 26.923076923076923 -29.615384615384617 0
vertex 22.615384615384613 -29.615384615384617 20.192307692307693
vertex 22.615384615384613 -31.215384615384618 20.192307692307693
endloop
endfacet
facet normal 0.9779928364243075 0 0.20863847177051906
outer loop
vertex 26.923076923076923 -29.615384615384617 0
vertex 22.615384615384613 -31.215384615384618 20.192307692307693
vertex 26.923076923076923 -31.215384615384618 0
endloop
endfacet
facet normal 0.9779928364243075 0 -0.20863847177051906
outer loop
vertex 22.615384615384613 -29.615384615384617 20.192307692307693
vertex 26.923076923076923 -29.615384615384617 40.38461538461539
vertex 26.923076923076923 -31.215384615384618 40.38461538461539
endloop
endfacet
facet normal 0.9779928364243075 0 -0.20863847177051906
outer loop
vertex 22.615384615384613 -29.615384615384617 20.192307692307693
vertex 26.923076923076923 -31.215384615384618 40.38461538461539
vertex 22.615384615384613 -31.215384615384618 20.192307692307693
endloop
endfacet
facet normal -0.6 0 0.7999999999999999
outer loop
vertex 26.923076923076923 -29.615384615384617 40.38461538461539
vertex 0 -29.615384615384617 20.192307692307693
vertex 0 -31.215384615384618 20.192307692307693
endloop
endfacet
facet normal -0.6 0 0.7999999999999999
outer loop
vertex 26.923076923076923 -29.615384615384617 40.38461538461539
vertex 0 -31.215384615384618 20.192307692307693
vertex 26.923076923076923 -31.215384615384618 40.38461538461539
endloop
endfacet
facet normal -0.6 0 0.7999999999999999
outer loop
vertex 0 -29.615384615384617 20.192307692307693
vertex -26.923076923076923 -29.615384615384617 0
vertex -26.923076923076923 -31.215384615384618 0
endloop
endfacet
facet normal -0.6 0 0.7999999999999999
outer loop
vertex 0 -29.615384615384617 20.192307692307693
vertex -26.923076923076923 -31.215384615384618 0
vertex 0 -31.215384615384618 20.192307692307693
endloop
endfacet
facet normal 0 -1 0
outer loop
vertex 0 -31.215384615384618 36.794871794871796
vertex -26.923076923076923 -31.215384615384618 0
vertex 0 -31.215384615384618 20.192307692307693
endloop
endfacet
facet normal 0 1 0
outer loop
vertex 0 -29.615384615384617 36.794871794871796
vertex 0 -29.615384615384617 20.192307692307693
vertex -26.923076923076923 -29.615384615384617 0
endloop
endfacet
facet normal 0 -1 0
outer loop
vertex 0 -31.215384615384618 36.794871794871796
vertex 0 -31.215384615384618 20.192307692307693
vertex 26.923076923076923 -31.215384615384618 40.38461538461539
endloop
endfacet
facet normal 0 1 0
outer loop
vertex 0 -29.615384615384617 36.794871794871796
vertex 26.923076923076923 -29.615384615384617 40.38461538461539
vertex 0 -29.615384615384617 20.192307692307693
endloop
endfacet
facet normal 0 -1 0
outer loop
vertex 0 -31.215384615384618 36.794871794871796
vertex 26.923076923076923 -31.215384615384618 40.38461538461539
vertex 9.97866459584342 -31.215384615384618 52.02605872349402
endloop
endfacet
facet normal 0 1 0
outer loop
vertex 0 -29.615384615384617 36.794871794871796
vertex 9.97866459584342 -29.615384615384617 52.02605872349402
vertex 26.923076923076923 -29.615384615384617 40.38461538461539
endloop
endfacet
facet normal 0 -1 0
outer loop
vertex 0 -31.215384615384618 36.794871794871796
vertex 9.97866459584342 -31.215384615384618 52.02605872349402
vertex 0 -31.215384615384618 70
endloop
endfacet
facet normal 0 1 0
outer loop
vertex 0 -29.615384615384617 36.794871794871796
vertex 0 -29.615384615384617 70
vertex 9.97866459584342 -29.615384615384617 52.02605872349402
endloop
endfacet
facet normal 0 -1 0
outer loop
vertex 0 -31.215384615384618 36.794871794871796
vertex 0 -31.215384615384618 70
vertex -13.461538461538462 -31.215384615384618 35
endloop
endfacet
facet normal 0 1 0
outer loop
vertex 0 -29.615384615384617 36.794871794871796
vertex -13.461538461538462 -29.615384615384617 35
vertex 0 -29.615384615384617 70
endloop
endfacet
facet normal 0 -1 0
outer loop
vertex 0 -31.215384615384618 36.794871794871796
vertex -13.461538461538462 -31.215384615384618 35
vertex -26.923076923076923 -31.215384615384618 0
endloop
endfacet
facet normal 0 1 0
outer loop
vertex 0 -29.615384615384617 36.794871794871796
vertex -26.923076923076923 -29.615384615384617 0
vertex -13.461538461538462 -29.615384615384617 35
endloop
endfacet
facet normal 0.6 0 -0.7999999999999999
outer loop
vertex -26.923076923076923 -29.615384615384617 0
vertex 0 -29.615384615384617 20.192307692307693
vertex 0 -31.215384615384618 20.192307692307693
endloop
endfacet
facet normal 0.6 0 -0.7999999999999999
outer loop
vertex -26.923076923076923 -29.615384615384617 0
vertex 0 -31.215384615384618 20.192307692307693
vertex -26.923076923076923 -31.215384615384618 0
endloop
endfacet
facet normal 0.6 0 -0.7999999999999999
outer loop
vertex 0 -29.615384615384617 20.192307692307693
vertex 26.923076923076923 -29.615384615384617 40.38461538461539
vertex 26.923076923076923 -31.215384615384618 40.38461538461539
endloop
endfacet
facet normal 0.6 0 -0.7999999999999999
outer loop
vertex 0 -29.615384615384617 20.192307692307693
vertex 26.923076923076923 -31.215384615384618 40.38461538461539
vertex 0 -31.215384615384618 20.192307692307693
endloop
endfacet
facet normal 0.5662698312590687 0 0.8242199210197638
outer loop
vertex 26.923076923076923 -29.615384615384617 40.38461538461539
vertex 9.97866459584342 -29.615384615384617 52.02605872349402
vertex 9.97866459584342 -31.215384615384618 52.02605872349402
endloop
endfacet
facet normal 0.5662698312590687 0 0.8242199210197638
outer loop
vertex 26.923076923076923 -29.615384615384617 40.38461538461539
vertex 9.97866459584342 -31.215384615384618 52.02605872349402
vertex 26.923076923076923 -31.215384615384618 40.38461538461539
endloop
endfacet
facet normal 0.8742988646189525 0 0.48538798432389196
outer loop
vertex 9.97866459584342 -29.615384615384617 52.02605872349402
vertex 0 -29.615384615384617 70
vertex 0 -31.215384615384618 70
endloop
endfacet
facet normal 0.8742988646189525 0 0.48538798432389196
outer loop
vertex 9.97866459584342 -29.615384615384617 52.02605872349402
vertex 0 -31.215384615384618 70
vertex 9.97866459584342 -31.215384615384618 52.02605872349402
endloop
endfacet
facet normal -0.9333456062030595 0 0.3589790793088691
outer loop
vertex 0 -29.615384615384617 70
vertex -13.461538461538462 -29.615384615384617 35
vertex -13.461538461538462 -31.215384615384618 35
endloop
endfacet
facet normal -0.9333456062030595 0 0.3589790793088691
outer loop
vertex 0 -29.615384615384617 70
vertex -13.461538461538462 -31.215384615384618 35
vertex 0 -31.215384615384618 70
endloop
endfacet
facet normal -0.9333456062030595 0 0.3589790793088691
outer loop
vertex -13.461538461538462 -29.615384615384617 35
vertex -26.923076923076923 -29.615384615384617 0
vertex -26.923076923076923 -31.215384615384618 0
endloop
endfacet
facet normal -0.9333456062030595 0 0.3589790793088691
outer loop
vertex -13.461538461538462 -29.615384615384617 35
vertex -26.923076923076923 -31.215384615384618 0
vertex -13.461538461538462 -31.215384615384618 35
endloop
endfacet
facet normal 0 -1 0
outer loop
vertex -17.94871794871795 -31.215384615384618 36.794871794871796
vertex -26.923076923076923 -31.215384615384618 0
vertex -13.461538461538462 -31.215384615384618 35
endloop
endfacet
facet normal 0 1 0
outer loop
vertex -17.94871794871795 -29.615384615384617 36.794871794871796
vertex -13.461538461538462 -29.615384615384617 35
vertex -26.923076923076923 -29.615384615384617 0
endloop
endfacet
facet normal 0 -1 0
outer loop
vertex -17.94871794871795 -31.215384615384618 36.794871794871796
vertex -13.461538461538462 -31.215384615384618 35
vertex 0 -31.215384615384618 70
endloop
endfacet
facet normal 0 1 0
outer loop
vertex -17.94871794871795 -29.615384615384617 36.794871794871796
vertex 0 -29.615384615384617 70
vertex -13.461538461538462 -29.615384615384617 35
endloop
endfacet
facet normal 0 -1 0
outer loop
vertex -17.94871794871795 -31.215384615384618 36.794871794871796
vertex 0 -31.215384615384618 70
vertex -11.804949560387474 -31.215384615384618 53.686317782170434
endloop
endfacet
facet normal 0 1 0
outer loop
vertex -17.94871794871795 -29.615384615384617 36.794871794871796
vertex -11.804949560387474 -29.615384615384617 53.686317782170434
vertex 0 -29.615384615384617 70
endloop
endfacet
facet normal 0 -1 0
outer loop
vertex -17.94871794871795 -31.215384615384618 36.794871794871796
vertex -11.804949560387474 -31.215384615384618 53.686317782170434
vertex -26.923076923076923 -31.215384615384618 40.38461538461539
endloop
endfacet
facet normal 0 1 0
outer loop
vertex -17.94871794871795 -29.615384615384617 36.794871794871796
vertex -26.923076923076923 -29.615384615384617 40.38461538461539
vertex -11.804949560387474 -29.615384615384617 53.686317782170434
endloop
endfacet
facet normal 0 -1 0
outer loop
vertex -17.94871794871795 -31.215384615384618 36.794871794871796
vertex -26.923076923076923 -31.215384615384618 40.38461538461539
vertex -24.684261969390068 -31.215384615384618 20.192307692307693
endloop
endfacet
facet normal 0 1 0
outer loop
vertex -17.94871794871795 -29.615384615384617 36.794871794871796
vertex -24.684261969390068 -29.615384615384617 20.192307692307693
vertex -26.923076923076923 -29.615384615384617 40.38461538461539
endloop
endfacet
facet normal 0 -1 0
outer loop
vertex -17.94871794871795 -31.215384615384618 36.794871794871796
vertex -24.684261969390068 -31.215384615384618 20.192307692307693
vertex -26.923076923076923 -31.215384615384618 0
endloop
endfacet
facet normal 0 1 0
outer loop
vertex -17.94871794871795 -29.615384615384617 36.794871794871796
vertex -26.923076923076923 -29.615384615384617 0
vertex -24.684261969390068 -29.615384615384617 20.192307692307693
endloop
endfacet
facet normal 0.9333456062030595 0 -0.3589790793088691
outer loop
vertex -26.923076923076923 -29.615384615384617 0
vertex -13.461538461538462 -29.615384615384617 35
vertex -13.461538461538462 -31.215384615384618 35
endloop
endfacet
facet normal 0.9333456062030595 0 -0.3589790793088691
outer loop
vertex -26.923076923076923 -29.615384615384617 0
vertex -13.461538461538462 -31.215384615384618 35
vertex -26.923076923076923 -31.215384615384618 0
endloop
endfacet
facet normal 0.9333456062030595 0 -0.3589790793088691
outer loop
vertex -13.461538461538462 -29.615384615384617 35
vertex 0 -29.615384615384617 70
vertex 0 -31.215384615384618 70
endloop
endfacet
facet normal 0.9333456062030595 0 -0.3589790793088691
outer loop
vertex -13.461538461538462 -29.615384615384617 35
vertex 0 -31.215384615384618 70
vertex -13.461538461538462 -31.215384615384618 35
endloop
endfacet
facet normal -0.8101403896370654 0 0.586235915889417
outer loop
vertex 0 -29.615384615384617 70
vertex -11.804949560387474 -29.615384615384617 53.686317782170434
vertex -11.804949560387474 -31.215384615384618 53.686317782170434
endloop
endfacet
facet normal -0.8101403896370654 0 0.586235915889417
outer loop
vertex 0 -29.615384615384617 70
vertex -11.804949560387474 -31.215384615384618 53.686317782170434
vertex 0 -31.215384615384618 70
endloop
endfacet
facet normal -0.6605649306699101 0 0.7507689207532879
outer loop
vertex -11.804949560387474 -29.615384615384617 53.686317782170434
vertex -26.923076923076923 -29.615384615384617 40.38461538461539
vertex -26.923076923076923 -31.215384615384618 40.38461538461539
endloop
endfacet
facet normal -0.6605649306699101 0 0.7507689207532879
outer loop
vertex -11.804949560387474 -29.615384615384617 53.686317782170434
vertex -26.923076923076923 -31.215384615384618 40.38461538461539
vertex -11.804949560387474 -31.215384615384618 53.686317782170434
endloop
endfacet
facet normal -0.9939095030505299 0 -0.11019936363631608
outer loop
vertex -26.923076923076923 -29.615384615384617 40.38461538461539
vertex -24.684261969390068 -29.615384615384617 20.192307692307693
vertex -24.684261969390068 -31.215384615384618 20.192307692307693
endloop
endfacet
facet normal -0.9939095030505299 0 -0.11019936363631608
outer loop
vertex -26.923076923076923 -29.615384615384617 40.38461538461539
vertex -24.684261969390068 -31.215384615384618 20.192307692307693
vertex -26.923076923076923 -31.215384615384618 40.38461538461539
endloop
endfacet
facet normal -0.9939095030505299 0 0.11019936363631608
outer loop
vertex -24.684261969390068 -29.615384615384617 20.192307692307693
vertex -26.923076923076923 -29.615384615384617 0
vertex -26.923076923076923 -31.215384615384618 0
endloop
endfacet
facet normal -0.9939095030505299 0 0.11019936363631608
outer loop
vertex -24.684261969390068 -29.615384615384617 20.192307692307693
vertex -26.923076923076923 -31.215384615384618 0
vertex -24.684261969390068 -31.215384615384618 20.192307692307693
endloop
endfacet
facet normal 0 1 0
outer loop
vertex 8.974358974358974 31.215384615384618 13.461538461538462
vertex -26.923076923076923 31.215384615384618 0
vertex 0 31.215384615384618 20.192307692307693
endloop
endfacet
facet normal 0 -1 0
outer loop
vertex 8.974358974358974 29.615384615384617 13.461538461538462
vertex 0 29.615384615384617 20.192307692307693
vertex -26.923076923076923 29.615384615384617 0
endloop
endfacet
facet normal 0 1 0
outer loop
vertex 8.974358974358974 31.215384615384618 13.461538461538462
vertex 0 31.215384615384618 20.192307692307693
vertex 26.923076923076923 31.215384615384618 40.38461538461539
endloop
endfacet
facet normal 0 -1 0
outer loop
vertex 8.974358974358974 29.615384615384617 13.461538461538462
vertex 26.923076923076923 29.615384615384617 40.38461538461539
vertex 0 29.615384615384617 20.192307692307693
endloop
endfacet
facet normal 0 1 0
outer loop
vertex 8.974358974358974 31.215384615384618 13.461538461538462
vertex 26.923076923076923 31.215384615384618 40.38461538461539
vertex 22.615384615384613 31.215384615384618 20.192307692307693
endloop
endfacet
facet normal 0 -1 0
outer loop
vertex 8.974358974358974 29.615384615384617 13.461538461538462
vertex 22.615384615384613 29.615384615384617 20.192307692307693
vertex 26.923076923076923 29.615384615384617 40.38461538461539
endloop
endfacet
facet normal 0 1 0
outer loop
vertex 8.974358974358974 31.215384615384618 13.461538461538462
vertex 22.615384615384613 31.215384615384618 20.192307692307693
vertex 26.923076923076923 31.215384615384618 0
endloop
endfacet
facet normal 0 -1 0
outer loop
vertex 8.974358974358974 29.615384615384617 13.461538461538462
vertex 26.923076923076923 29.615384615384617 0
vertex 22.615384615384613 29.615384615384617 20.192307692307693
endloop
endfacet
facet normal 0 1 0
outer loop
vertex 8.974358974358974 31.215384615384618 13.461538461538462
vertex 26.923076923076923 31.215384615384618 0
vertex 0 31.215384615384618 4.307692307692308
endloop
endfacet
facet normal 0 -1 0
outer loop
vertex 8.974358974358974 29.615384615384617 13.461538461538462
vertex 0 29.615384615384617 4.307692307692308
vertex 26.923076923076923 29.615384615384617 0
endloop
endfacet
facet normal 0 1 0
outer loop
vertex 8.974358974358974 31.215384615384618 13.461538461538462
vertex 0 31.215384615384618 4.307692307692308
vertex -26.923076923076923 31.215384615384618 0
endloop
endfacet
facet normal 0 -1 0
outer loop
vertex 8.974358974358974 29.615384615384617 13.461538461538462
vertex -26.923076923076923 29.615384615384617 0
vertex 0 29.615384615384617 4.307692307692308
endloop
endfacet
facet normal -0.6 0 0.7999999999999999
outer loop
vertex -26.923076923076923 29.615384615384617 0
vertex 0 29.615384615384617 20.192307692307693
vertex 0 31.215384615384618 20.192307692307693
endloop
endfacet
facet normal -0.6 0 0.7999999999999999
outer loop
vertex -26.923076923076923 29.615384615384617 0
vertex 0 31.215384615384618 20.192307692307693
vertex -26.923076923076923 31.215384615384618 0
endloop
endfacet
facet normal -0.6 0 0.7999999999999999
outer loop
vertex 0 29.615384615384617 20.192307692307693
vertex 26.923076923076923 29.615384615384617 40.38461538461539
vertex 26.923076923076923 31.215384615384618 40.38461538461539
endloop
endfacet
facet normal -0.6 0 0.7999999999999999
outer loop
vertex 0 29.615384615384617 20.192307692307693
vertex 26.923076923076923 31.215384615384618 40.38461538461539
vertex 0 31.215384615384618 20.192307692307693
endloop
endfacet
facet normal 0.9779928364243075 0 -0.20863847177051906
outer loop
vertex 26.923076923076923 29.615384615384617 40.38461538461539
vertex 22.615384615384613 29.615384615384617 20.192307692307693
vertex 22.615384615384613 31.215384615384618 20.192307692307693
endloop
endfacet
facet normal 0.9779928364243075 0 -0.20863847177051906
outer loop
vertex 26.923076923076923 29.615384615384617 40.38461538461539
vertex 22.615384615384613 31.215384615384618 20.192307692307693
vertex 26.923076923076923 31.215384615384618 40.38461538461539
endloop
endfacet
facet normal 0.9779928364243075 0 0.20863847177051906
outer loop
vertex 22.615384615384613 29.615384615384617 20.192307692307693
vertex 26.923076923076923 29.615384615384617 0
vertex 26.923076923076923 31.215384615384618 0
endloop
endfacet
facet normal 0.9779928364243075 0 0.20863847177051906
outer loop
vertex 22.615384615384613 29.615384615384617 20.192307692307693
vertex 26.923076923076923 31.215384615384618 0
vertex 22.615384615384613 31.215384615384618 20.192307692307693
endloop
endfacet
facet normal -0.15799050110667287 0 -0.9874406319167053
outer loop
vertex 26.923076923076923 29.615384615384617 0
vertex 0 29.615384615384617 4.307692307692308
vertex 0 31.215384615384618 4.307692307692308
endloop
endfacet
facet normal -0.15799050110667287 0 -0.9874406319167053
outer loop
vertex 26.923076923076923 29.615384615384617 0
vertex 0 31.215384615384618 4.307692307692308
vertex 26.923076923076923 31.215384615384618 0
endloop
endfacet
facet normal 0.15799050110667287 0 -0.9874406319167053
outer loop
vertex 0 29.615384615384617 4.307692307692308
vertex -26.923076923076923 29.615384615384617 0
vertex -26.923076923076923 31.215384615384618 0
endloop
endfacet
facet normal 0.15799050110667287 0 -0.9874406319167053
outer loop
vertex 0 29.615384615384617 4.307692307692308
vertex -26.923076923076923 31.215384615384618 0
vertex 0 31.215384615384618 4.307692307692308
endloop
endfacet
facet normal 0 1 0
outer loop
vertex 0 31.215384615384618 36.794871794871796
vertex -26.923076923076923 31.215384615384618 0
vertex -13.461538461538462 31.215384615384618 35
endloop
endfacet
facet normal 0 -1 0
outer loop
vertex 0 29.615384615384617 36.794871794871796
vertex -13.461538461538462 29.615384615384617 35
vertex -26.923076923076923 29.615384615384617 0
endloop
endfacet
facet normal 0 1 0
outer loop
vertex 0 31.215384615384618 36.794871794871796
vertex -13.461538461538462 31.215384615384618 35
vertex 0 31.215384615384618 70
endloop
endfacet
facet normal 0 -1 0
outer loop
vertex 0 29.615384615384617 36.794871794871796
vertex 0 29.615384615384617 70
vertex -13.461538461538462 29.615384615384617 35
endloop
endfacet
facet normal 0 1 0
outer loop
vertex 0 31.215384615384618 36.794871794871796
vertex 0 31.215384615384618 70
vertex 9.97866459584342 31.215384615384618 52.02605872349402
endloop
endfacet
facet normal 0 -1 0
outer loop
vertex 0 29.615384615384617 36.794871794871796
vertex 9.97866459584342 29.615384615384617 52.02605872349402
vertex 0 29.615384615384617 70
endloop
endfacet
facet normal 0 1 0
outer loop
vertex 0 31.215384615384618 36.794871794871796
vertex 9.97866459584342 31.215384615384618 52.02605872349402
vertex 26.923076923076923 31.215384615384618 40.38461538461539
endloop
endfacet
facet normal 0 -1 0
outer loop
vertex 0 29.615384615384617 36.794871794871796
vertex 26.923076923076923 29.615384615384617 40.38461538461539
vertex 9.97866459584342 29.615384615384617 52.02605872349402
endloop
endfacet
facet normal 0 1 0
outer loop
vertex 0 31.215384615384618 36.794871794871796
vertex 26.923076923076923 31.215384615384618 40.38461538461539
vertex 0 31.215384615384618 20.192307692307693
endloop
endfacet
facet normal 0 -1 0
outer loop
vertex 0 29.615384615384617 36.794871794871796
vertex 0 29.615384615384617 20.192307692307693
vertex 26.923076923076923 29.615384615384617 40.38461538461539
endloop
endfacet
facet normal 0 1 0
outer loop
vertex 0 31.215384615384618 36.794871794871796
vertex 0 31.215384615384618 20.192307692307693
vertex -26.923076923076923 31.215384615384618 0
endloop
endfacet
facet normal 0 -1 0
outer loop
vertex 0 29.615384615384617 36.794871794871796
vertex -26.923076923076923 29.615384615384617 0
vertex 0 29.615384615384617 20.192307692307693
endloop
endfacet
facet normal -0.9333456062030595 0 0.3589790793088691
outer loop
vertex -26.923076923076923 29.615384615384617 0
vertex -13.461538461538462 29.615384615384617 35
vertex -13.461538461538462 31.215384615384618 35
endloop
endfacet
facet normal -0.9333456062030595 0 0.3589790793088691
outer loop
vertex -26.923076923076923 29.615384615384617 0
vertex -13.461538461538462 31.215384615384618 35
vertex -26.923076923076923 31.215384615384618 0
endloop
endfacet
facet normal -0.9333456062030595 0 0.3589790793088691
outer loop
vertex -13.461538461538462 29.615384615384617 35
vertex 0 29.615384615384617 70
vertex 0 31.215384615384618 70
endloop
endfacet
facet normal -0.9333456062030595 0 0.3589790793088691
outer loop
vertex -13.461538461538462 29.615384615384617 35
vertex 0 31.215384615384618 70
vertex -13.461538461538462 31.215384615384618 35
endloop
endfacet
facet normal 0.8742988646189525 0 0.48538798432389196
outer loop
vertex 0 29.615384615384617 70
vertex 9.97866459584342 29.615384615384617 52.02605872349402
vertex 9.97866459584342 31.215384615384618 52.02605872349402
endloop
endfacet
facet normal 0.8742988646189525 0 0.48538798432389196
outer loop
vertex 0 29.615384615384617 70
vertex 9.97866459584342 31.215384615384618 52.02605872349402
vertex 0 31.215384615384618 70
endloop
endfacet
facet normal 0.5662698312590687 0 0.8242199210197638
outer loop
vertex 9.97866459584342 29.615384615384617 52.02605872349402
vertex 26.923076923076923 29.615384615384617 40.38461538461539
vertex 26.923076923076923 31.215384615384618 40.38461538461539
endloop
endfacet
facet normal 0.5662698312590687 0 0.8242199210197638
outer loop
vertex 9.97866459584342 29.615384615384617 52.02605872349402
vertex 26.923076923076923 31.215384615384618 40.38461538461539
vertex 9.97866459584342 31.215384615384618 52.02605872349402
endloop
endfacet
facet normal 0.6 0 -0.7999999999999999
outer loop
vertex 26.923076923076923 29.615384615384617 40.38461538461539
vertex 0 29.615384615384617 20.192307692307693
vertex 0 31.215384615384618 20.192307692307693
endloop
endfacet
facet normal 0.6 0 -0.7999999999999999
outer loop
vertex 26.923076923076923 29.615384615384617 40.38461538461539
vertex 0 31.215384615384618 20.192307692307693
vertex 26.923076923076923 31.215384615384618 40.38461538461539
endloop
endfacet
facet normal 0.6 0 -0.7999999999999999
outer loop
vertex 0 29.615384615384617 20.192307692307693
vertex -26.923076923076923 29.615384615384617 0
vertex -26.923076923076923 31.215384615384618 0
endloop
endfacet
facet normal 0.6 0 -0.7999999999999999
outer loop
vertex 0 29.615384615384617 20.192307692307693
vertex -26.923076923076923 31.215384615384618 0
vertex 0 31.215384615384618 20.192307692307693
endloop
endfacet
facet normal 0 1 0
outer loop
vertex -17.94871794871795 31.215384615384618 36.794871794871796
vertex -26.923076923076923 31.215384615384618 0
vertex -24.684261969390068 31.215384615384618 20.192307692307693
endloop
endfacet
facet normal 0 -1 0
outer loop
vertex -17.94871794871795 29.615384615384617 36.794871794871796
vertex -24.684261969390068 29.615384615384617 20.192307692307693
vertex -26.923076923076923 29.615384615384617 0
endloop
endfacet
facet normal 0 1 0
outer loop
vertex -17.94871794871795 31.215384615384618 36.794871794871796
vertex -24.684261969390068 31.215384615384618 20.192307692307693
vertex -26.923076923076923 31.215384615384618 40.38461538461539
endloop
endfacet
facet normal 0 -1 0
outer loop
vertex -17.94871794871795 29.615384615384617 36.794871794871796
vertex -26.923076923076923 29.615384615384617 40.38461538461539
vertex -24.684261969390068 29.615384615384617 20.192307692307693
endloop
endfacet
facet normal 0 1 0
outer loop
vertex -17.94871794871795 31.215384615384618 36.794871794871796
vertex -26.923076923076923 31.215384615384618 40.38461538461539
vertex -11.804949560387474 31.215384615384618 53.686317782170434
endloop
endfacet
facet normal 0 -1 0
outer loop
vertex -17.94871794871795 29.615384615384617 36.794871794871796
vertex -11.804949560387474 29.615384615384617 53.686317782170434
vertex -26.923076923076923 29.615384615384617 40.38461538461539
endloop
endfacet
facet normal 0 1 0
outer loop
vertex -17.94871794871795 31.215384615384618 36.794871794871796
vertex -11.804949560387474 31.215384615384618 53.686317782170434
vertex 0 31.215384615384618 70
endloop
endfacet
facet normal 0 -1 0
outer loop
vertex -17.94871794871795 29.615384615384617 36.794871794871796
vertex 0 29.615384615384617 70
vertex -11.804949560387474 29.615384615384617 53.686317782170434
endloop
endfacet
facet normal 0 1 0
outer loop
vertex -17.94871794871795 31.215384615384618 36.794871794871796
vertex 0 31.215384615384618 70
vertex -13.461538461538462 31.215384615384618 35
endloop
endfacet
facet normal 0 -1 0
outer loop
vertex -17.94871794871795 29.615384615384617 36.794871794871796
vertex -13.461538461538462 29.615384615384617 35
vertex 0 29.615384615384617 70
endloop
endfacet
facet normal 0 1 0
outer loop
vertex -17.94871794871795 31.215384615384618 36.794871794871796
vertex -13.461538461538462 31.215384615384618 35
vertex -26.923076923076923 31.215384615384618 0
endloop
endfacet
facet normal 0 -1 0
outer loop
vertex -17.94871794871795 29.615384615384617 36.794871794871796
vertex -26.923076923076923 29.615384615384617 0
vertex -13.461538461538462 29.615384615384617 35
endloop
endfacet
facet normal -0.9939095030505299 0 0.11019936363631608
outer loop
vertex -26.923076923076923 29.615384615384617 0
vertex -24.684261969390068 29.615384615384617 20.192307692307693
vertex -24.684261969390068 31.215384615384618 20.192307692307693
endloop
endfacet
facet normal -0.9939095030505299 0 0.11019936363631608
outer loop
vertex -26.923076923076923 29.615384615384617 0
vertex -24.684261969390068 31.215384615384618 20.192307692307693
vertex -26.923076923076923 31.215384615384618 0
endloop
endfacet
facet normal -0.9939095030505299 0 -0.11019936363631608
outer loop
vertex -24.684261969390068 29.615384615384617 20.192307692307693
vertex -26.923076923076923 29.615384615384617 40.38461538461539
vertex -26.923076923076923 31.215384615384618 40.38461538461539
endloop
endfacet
facet normal -0.9939095030505299 0 -0.11019936363631608
outer loop
vertex -24.684261969390068 29.615384615384617 20.192307692307693
vertex -26.923076923076923 31.215384615384618 40.38461538461539
vertex -24.684261969390068 31.215384615384618 20.192307692307693
endloop
endfacet
facet normal -0.6605649306699101 0 0.7507689207532879
outer loop
vertex -26.923076923076923 29.615384615384617 40.38461538461539
vertex -11.804949560387474 29.615384615384617 53.686317782170434
vertex -11.804949560387474 31.215384615384618 53.686317782170434
endloop
endfacet
facet normal -0.6605649306699101 0 0.7507689207532879
outer loop
vertex -26.923076923076923 29.615384615384617 40.38461538461539
vertex -11.804949560387474 31.215384615384618 53.686317782170434
vertex -26.923076923076923 31.215384615384618 40.38461538461539
endloop
endfacet
facet normal -0.8101403896370654 0 0.586235915889417
outer loop
vertex -11.804949560387474 29.615384615384617 53.686317782170434
vertex 0 29.615384615384617 70
vertex 0 31.215384615384618 70
endloop
endfacet
facet normal -0.8101403896370654 0 0.586235915889417
outer loop
vertex -11.804949560387474 29.615384615384617 53.686317782170434
vertex 0 31.215384615384618 70
vertex -11.804949560387474 31.215384615384618 53.686317782170434
endloop
endfacet
facet normal 0.9333456062030595 0 -0.3589790793088691
outer loop
vertex 0 29.615384615384617 70
vertex -13.461538461538462 29.615384615384617 35
vertex -13.461538461538462 31.215384615384618 35
endloop
endfacet
facet normal 0.9333456062030595 0 -0.3589790793088691
outer loop
vertex 0 29.615384615384617 70
vertex -13.461538461538462 31.215384615384618 35
vertex 0 31.215384615384618 70
endloop
endfacet
facet normal 0.9333456062030595 0 -0.3589790793088691
outer loop
vertex -13.461538461538462 29.615384615384617 35
vertex -26.923076923076923 29.615384615384617 0
vertex -26.923076923076923 31.215384615384618 0
endloop
endfacet
facet normal 0.9333456062030595 0 -0.3589790793088691
outer loop
vertex -13.461538461538462 29.615384615384617 35
vertex -26.923076923076923 31.215384615384618 0
vertex -13.461538461538462 31.215384615384618 35
endloop
endfacet
facet normal 0 0 -1
outer loop
vertex 8.974358974358974 -9.871794871794872 -1.6
vertex -26.923076923076923 -29.615384615384617 -1.6
vertex 0 0 -1.6
endloop
endfacet
facet normal 0 0 1
outer loop
vertex 8.974358974358974 -9.871794871794872 0
vertex 0 0 0
vertex -26.923076923076923 -29.615384615384617 0
endloop
endfacet
facet normal 0 0 -1
outer loop
vertex 8.974358974358974 -9.871794871794872 -1.6
vertex 0 0 -1.6
vertex 26.923076923076923 29.615384615384617 -1.6
endloop
endfacet
facet normal 0 0 1
outer loop
vertex 8.974358974358974 -9.871794871794872 0
vertex 26.923076923076923 29.615384615384617 0
vertex 0 0 0
endloop
endfacet
facet normal 0 0 -1
outer loop
vertex 8.974358974358974 -9.871794871794872 -1.6
vertex 26.923076923076923 29.615384615384617 -1.6
vertex 21.63845922845902 0 -1.6
endloop
endfacet
facet normal 0 0 1
outer loop
vertex 8.974358974358974 -9.871794871794872 0
vertex 21.63845922845902 0 0
vertex 26.923076923076923 29.615384615384617 0
endloop
endfacet
facet normal 0 0 -1
outer loop
vertex 8.974358974358974 -9.871794871794872 -1.6
vertex 21.63845922845902 0 -1.6
vertex 26.923076923076923 -29.615384615384617 -1.6
endloop
endfacet
facet normal 0 0 1
outer loop
vertex 8.974358974358974 -9.871794871794872 0
vertex 26.923076923076923 -29.615384615384617 0
vertex 21.63845922845902 0 0
endloop
endfacet
facet normal 0 0 -1
outer loop
vertex 8.974358974358974 -9.871794871794872 -1.6
vertex 26.923076923076923 -29.615384615384617 -1.6
vertex 0 -24.330766920766713 -1.6
endloop
endfacet
facet normal 0 0 1
outer loop
vertex 8.974358974358974 -9.871794871794872 0
vertex 0 -24.330766920766713 0
vertex 26.923076923076923 -29.615384615384617 0
endloop
endfacet
facet normal 0 0 -1
outer loop
vertex 8.974358974358974 -9.871794871794872 -1.6
vertex 0 -24.330766920766713 -1.6
vertex -26.923076923076923 -29.615384615384617 -1.6
endloop
endfacet
facet normal 0 0 1
outer loop
vertex 8.974358974358974 -9.871794871794872 0
vertex -26.923076923076923 -29.615384615384617 0
vertex 0 -24.330766920766713 0
endloop
endfacet
facet normal -0.7399400733959436 0.6726727939963124 0
outer loop
vertex -26.923076923076923 -29.615384615384617 0
vertex 0 0 0
vertex 0 0 -1.6
endloop
endfacet
facet normal -0.7399400733959436 0.6726727939963124 0
outer loop
vertex -26.923076923076923 -29.615384615384617 0
vertex 0 0 -1.6
vertex -26.923076923076923 -29.615384615384617 -1.6
endloop
endfacet
facet normal -0.7399400733959436 0.6726727939963124 0
outer loop
vertex 0 0 0
vertex 26.923076923076923 29.615384615384617 0
vertex 26.923076923076923 29.615384615384617 -1.6
endloop
endfacet
facet normal -0.7399400733959436 0.6726727939963124 0
outer loop
vertex 0 0 0
vertex 26.923076923076923 29.615384615384617 -1.6
vertex 0 0 -1.6
endloop
endfacet
facet normal 0.9844496793832511 -0.17566681178359858 0
outer loop
vertex 26.923076923076923 29.615384615384617 0
vertex 21.63845922845902 0 0
vertex 21.63845922845902 0 -1.6
endloop
endfacet
facet normal 0.9844496793832511 -0.17566681178359858 0
outer loop
vertex 26.923076923076923 29.615384615384617 0
vertex 21.63845922845902 0 -1.6
vertex 26.923076923076923 29.615384615384617 -1.6
endloop
endfacet
facet normal 0.9844496793832511 0.17566681178359858 0
outer loop
vertex 21.63845922845902 0 0
vertex 26.923076923076923 -29.615384615384617 0
vertex 26.923076923076923 -29.615384615384617 -1.6
endloop
endfacet
facet normal 0.9844496793832511 0.17566681178359858 0
outer loop
vertex 21.63845922845902 0 0
vertex 26.923076923076923 -29.615384615384617 -1.6
vertex 21.63845922845902 0 -1.6
endloop
endfacet
facet normal -0.19261040896212647 -0.9812753081370398 0
outer loop
vertex 26.923076923076923 -29.615384615384617 0
vertex 0 -24.330766920766713 0
vertex 0 -24.330766920766713 -1.6
endloop
endfacet
facet normal -0.19261040896212647 -0.9812753081370398 0
outer loop
vertex 26.923076923076923 -29.615384615384617 0
vertex 0 -24.330766920766713 -1.6
vertex 26.923076923076923 -29.615384615384617 -1.6
endloop
endfacet
facet normal 0.19261040896212647 -0.9812753081370398 0
outer loop
vertex 0 -24.330766920766713 0
vertex -26.923076923076923 -29.615384615384617 0
vertex -26.923076923076923 -29.615384615384617 -1.6
endloop
endfacet
facet normal 0.19261040896212647 -0.9812753081370398 0
outer loop
vertex 0 -24.330766920766713 0
vertex -26.923076923076923 -29.615384615384617 -1.6
vertex 0 -24.330766920766713 -1.6
endloop
endfacet
facet normal 0 0 -1
outer loop
vertex -8.974358974358974 9.871794871794872 -1.6
vertex -26.923076923076923 -29.615384615384617 -1.6
vertex -21.63845922845902 0 -1.6
endloop
endfacet
facet normal 0 0 1
outer loop
vertex -8.974358974358974 9.871794871794872 0
vertex -21.63845922845902 0 0
vertex -26.923076923076923 -29.615384615384617 0
endloop
endfacet
facet normal 0 0 -1
outer loop
vertex -8.974358974358974 9.871794871794872 -1.6
vertex -21.63845922845902 0 -1.6
vertex -26.923076923076923 29.615384615384617 -1.6
endloop
endfacet
facet normal 0 0 1
outer loop
vertex -8.974358974358974 9.871794871794872 0
vertex -26.923076923076923 29.615384615384617 0
vertex -21.63845922845902 0 0
endloop
endfacet
facet normal 0 0 -1
outer loop
vertex -8.974358974358974 9.871794871794872 -1.6
vertex -26.923076923076923 29.615384615384617 -1.6
vertex 0 24.330766920766713 -1.6
endloop
endfacet
facet normal 0 0 1
outer loop
vertex -8.974358974358974 9.871794871794872 0
vertex 0 24.330766920766713 0
vertex -26.923076923076923 29.615384615384617 0
endloop
endfacet
facet normal 0 0 -1
outer loop
vertex -8.974358974358974 9.871794871794872 -1.6
vertex 0 24.330766920766713 -1.6
vertex 26.923076923076923 29.615384615384617 -1.6
endloop
endfacet
facet normal 0 0 1
outer loop
vertex -8.974358974358974 9.871794871794872 0
vertex 26.923076923076923 29.615384615384617 0
vertex 0 24.330766920766713 0
endloop
endfacet
facet normal 0 0 -1
outer loop
vertex -8.974358974358974 9.871794871794872 -1.6
vertex 26.923076923076923 29.615384615384617 -1.6
vertex 0 0 -1.6
endloop
endfacet
facet normal 0 0 1
outer loop
vertex -8.974358974358974 9.871794871794872 0
vertex 0 0 0
vertex 26.923076923076923 29.615384615384617 0
endloop
endfacet
facet normal 0 0 -1
outer loop
vertex -8.974358974358974 9.871794871794872 -1.6
vertex 0 0 -1.6
vertex -26.923076923076923 -29.615384615384617 -1.6
endloop
endfacet
facet normal 0 0 1
outer loop
vertex -8.974358974358974 9.871794871794872 0
vertex -26.923076923076923 -29.615384615384617 0
vertex 0 0 0
endloop
endfacet
facet normal -0.9844496793832511 0.17566681178359858 0
outer loop
vertex -26.923076923076923 -29.615384615384617 0
vertex -21.63845922845902 0 0
vertex -21.63845922845902 0 -1.6
endloop
endfacet
facet normal -0.9844496793832511 0.17566681178359858 0
outer loop
vertex -26.923076923076923 -29.615384615384617 0
vertex -21.63845922845902 0 -1.6
vertex -26.923076923076923 -29.615384615384617 -1.6
endloop
endfacet
facet normal -0.9844496793832511 -0.17566681178359858 0
outer loop
vertex -21.63845922845902 0 0
vertex -26.923076923076923 29.615384615384617 0
vertex -26.923076923076923 29.615384615384617 -1.6
endloop
endfacet
facet normal -0.9844496793832511 -0.17566681178359858 0
outer loop
vertex -21.63845922845902 0 0
vertex -26.923076923076923 29.615384615384617 -1.6
vertex -21.63845922845902 0 -1.6
endloop
endfacet
facet normal 0.19261040896212647 0.9812753081370398 0
outer loop
vertex -26.923076923076923 29.615384615384617 0
vertex 0 24.330766920766713 0
vertex 0 24.330766920766713 -1.6
endloop
endfacet
facet normal 0.19261040896212647 0.9812753081370398 0
outer loop
vertex -26.923076923076923 29.615384615384617 0
vertex 0 24.330766920766713 -1.6
vertex -26.923076923076923 29.615384615384617 -1.6
endloop
endfacet
facet normal -0.19261040896212647 0.9812753081370398 0
outer loop
vertex 0 24.330766920766713 0
vertex 26.923076923076923 29.615384615384617 0
vertex 26.923076923076923 29.615384615384617 -1.6
endloop
endfacet
facet normal -0.19261040896212647 0.9812753081370398 0
outer loop
vertex 0 24.330766920766713 0
vertex 26.923076923076923 29.615384615384617 -1.6
vertex 0 24.330766920766713 -1.6
endloop
endfacet
facet normal 0.7399400733959436 -0.6726727939963124 0
outer loop
vertex 26.923076923076923 29.615384615384617 0
vertex 0 0 0
vertex 0 0 -1.6
endloop
endfacet
facet normal 0.7399400733959436 -0.6726727939963124 0
outer loop
vertex 26.923076923076923 29.615384615384617 0
vertex 0 0 -1.6
vertex 26.923076923076923 29.615384615384617 -1.6
endloop
endfacet
facet normal 0.7399400733959436 -0.6726727939963124 0
outer loop
vertex 0 0 0
vertex -26.923076923076923 -29.615384615384617 0
vertex -26.923076923076923 -29.615384615384617 -1.6
endloop
endfacet
facet normal 0.7399400733959436 -0.6726727939963124 0
outer loop
vertex 0 0 0
vertex -26.923076923076923 -29.615384615384617 -1.6
vertex 0 0 -1.6
endloop
endfacet
facet normal 1 0 0
outer loop
vertex 28.523076923076925 -9.871794871794872 26.923076923076923
vertex 28.523076923076925 -29.615384615384617 0
vertex 28.523076923076925 0 20.192307692307693
endloop
endfacet
facet normal -1 0 0
outer loop
vertex 26.923076923076923 -9.871794871794872 26.923076923076923
vertex 26.923076923076923 0 20.192307692307693
vertex 26.923076923076923 -29.615384615384617 0
endloop
endfacet
facet normal 1 0 0
outer loop
vertex 28.523076923076925 -9.871794871794872 26.923076923076923
vertex 28.523076923076925 0 20.192307692307693
vertex 28.523076923076925 29.615384615384617 40.38461538461539
endloop
endfacet
facet normal -1 0 0
outer loop
vertex 26.923076923076923 -9.871794871794872 26.923076923076923
vertex 26.923076923076923 29.615384615384617 40.38461538461539
vertex 26.923076923076923 0 20.192307692307693
endloop
endfacet
facet normal 1 0 0
outer loop
vertex 28.523076923076925 -9.871794871794872 26.923076923076923
vertex 28.523076923076925 29.615384615384617 40.38461538461539
vertex 28.523076923076925 0 35.916269377213595
endloop
endfacet
facet normal -1 0 0
outer loop
vertex 26.923076923076923 -9.871794871794872 26.923076923076923
vertex 26.923076923076923 0 35.916269377213595
vertex 26.923076923076923 29.615384615384617 40.38461538461539
endloop
endfacet
facet normal 1 0 0
outer loop
vertex 28.523076923076925 -9.871794871794872 26.923076923076923
vertex 28.523076923076925 0 35.916269377213595
vertex 28.523076923076925 -29.615384615384617 40.38461538461539
endloop
endfacet
facet normal -1 0 0
outer loop
vertex 26.923076923076923 -9.871794871794872 26.923076923076923
vertex 26.923076923076923 -29.615384615384617 40.38461538461539
vertex 26.923076923076923 0 35.916269377213595
endloop
endfacet
facet normal 1 0 0
outer loop
vertex 28.523076923076925 -9.871794871794872 26.923076923076923
vertex 28.523076923076925 -29.615384615384617 40.38461538461539
vertex 28.523076923076925 -25.14703860798282 20.192307692307693
endloop
endfacet
facet normal -1 0 0
outer loop
vertex 26.923076923076923 -9.871794871794872 26.923076923076923
vertex 26.923076923076923 -25.14703860798282 20.192307692307693
vertex 26.923076923076923 -29.615384615384617 40.38461538461539
endloop
endfacet
facet normal 1 0 0
outer loop
vertex 28.523076923076925 -9.871794871794872 26.923076923076923
vertex 28.523076923076925 -25.14703860798282 20.192307692307693
vertex 28.523076923076925 -29.615384615384617 0
endloop
endfacet
facet normal -1 0 0
outer loop
vertex 26.923076923076923 -9.871794871794872 26.923076923076923
vertex 26.923076923076923 -29.615384615384617 0
vertex 26.923076923076923 -25.14703860798282 20.192307692307693
endloop
endfacet
facet normal 0 0.5633368246415097 -0.8262273428075477
outer loop
vertex 26.923076923076923 -29.615384615384617 0
vertex 26.923076923076923 0 20.192307692307693
vertex 28.523076923076925 0 20.192307692307693
endloop
endfacet
facet normal 0 0.5633368246415097 -0.8262273428075477
outer loop
vertex 26.923076923076923 -29.615384615384617 0
vertex 28.523076923076925 0 20.192307692307693
vertex 28.523076923076925 -29.615384615384617 0
endloop
endfacet
facet normal 0 0.5633368246415097 -0.8262273428075477
outer loop
vertex 26.923076923076923 0 20.192307692307693
vertex 26.923076923076923 29.615384615384617 40.38461538461539
vertex 28.523076923076925 29.615384615384617 40.38461538461539
endloop
endfacet
facet normal 0 0.5633368246415097 -0.8262273428075477
outer loop
vertex 26.923076923076923 0 20.192307692307693
vertex 28.523076923076925 29.615384615384617 40.38461538461539
vertex 28.523076923076925 0 20.192307692307693
endloop
endfacet
facet normal 0 -0.14919064362744672 0.9888084505373264
outer loop
vertex 26.923076923076923 29.615384615384617 40.38461538461539
vertex 26.923076923076923 0 35.916269377213595
vertex 28.523076923076925 0 35.916269377213595
endloop
endfacet
facet normal 0 -0.14919064362744672 0.9888084505373264
outer loop
vertex 26.923076923076923 29.615384615384617 40.38461538461539
vertex 28.523076923076925 0 35.916269377213595
vertex 28.523076923076925 29.615384615384617 40.38461538461539
endloop
endfacet
facet normal 0 0.14919064362744672 0.9888084505373264
outer loop
vertex 26.923076923076923 0 35.916269377213595
vertex 26.923076923076923 -29.615384615384617 40.38461538461539
vertex 28.523076923076925 -29.615384615384617 40.38461538461539
endloop
endfacet
facet normal 0 0.14919064362744672 0.9888084505373264
outer loop
vertex 26.923076923076923 0 35.916269377213595
vertex 28.523076923076925 -29.615384615384617 40.38461538461539
vertex 28.523076923076925 0 35.916269377213595
endloop
endfacet
facet normal 0 -0.9763795232056492 -0.2160625526663726
outer loop
vertex 26.923076923076923 -29.615384615384617 40.38461538461539
vertex 26.923076923076923 -25.14703860798282 20.192307692307693
vertex 28.523076923076925 -25.14703860798282 20.192307692307693
endloop
endfacet
facet normal 0 -0.9763795232056492 -0.2160625526663726
outer loop
vertex 26.923076923076923 -29.615384615384617 40.38461538461539
vertex 28.523076923076925 -25.14703860798282 20.192307692307693
vertex 28.523076923076925 -29.615384615384617 40.38461538461539
endloop
endfacet
facet normal 0 -0.9763795232056492 0.2160625526663726
outer loop
vertex 26.923076923076923 -25.14703860798282 20.192307692307693
vertex 26.923076923076923 -29.615384615384617 0
vertex 28.523076923076925 -29.615384615384617 0
endloop
endfacet
facet normal 0 -0.9763795232056492 0.2160625526663726
outer loop
vertex 26.923076923076923 -25.14703860798282 20.192307692307693
vertex 28.523076923076925 -29.615384615384617 0
vertex 28.523076923076925 -25.14703860798282 20.192307692307693
endloop
endfacet
facet normal 1 0 0
outer loop
vertex 28.523076923076925 9.871794871794872 13.461538461538462
vertex 28.523076923076925 -29.615384615384617 0
vertex 28.523076923076925 0 4.468346007401793
endloop
endfacet
facet normal -1 0 0
outer loop
vertex 26.923076923076923 9.871794871794872 13.461538461538462
vertex 26.923076923076923 0 4.468346007401793
vertex 26.923076923076923 -29.615384615384617 0
endloop
endfacet
facet normal 1 0 0
outer loop
vertex 28.523076923076925 9.871794871794872 13.461538461538462
vertex 28.523076923076925 0 4.468346007401793
vertex 28.523076923076925 29.615384615384617 0
endloop
endfacet
facet normal -1 0 0
outer loop
vertex 26.923076923076923 9.871794871794872 13.461538461538462
vertex 26.923076923076923 29.615384615384617 0
vertex 26.923076923076923 0 4.468346007401793
endloop
endfacet
facet normal 1 0 0
outer loop
vertex 28.523076923076925 9.871794871794872 13.461538461538462
vertex 28.523076923076925 29.615384615384617 0
vertex 28.523076923076925 25.14703860798282 20.192307692307693
endloop
endfacet
facet normal -1 0 0
outer loop
vertex 26.923076923076923 9.871794871794872 13.461538461538462
vertex 26.923076923076923 25.14703860798282 20.192307692307693
vertex 26.923076923076923 29.615384615384617 0
endloop
endfacet
facet normal 1 0 0
outer loop
vertex 28.523076923076925 9.871794871794872 13.461538461538462
vertex 28.523076923076925 25.14703860798282 20.192307692307693
vertex 28.523076923076925 29.615384615384617 40.38461538461539
endloop
endfacet
facet normal -1 0 0
outer loop
vertex 26.923076923076923 9.871794871794872 13.461538461538462
vertex 26.923076923076923 29.615384615384617 40.38461538461539
vertex 26.923076923076923 25.14703860798282 20.192307692307693
endloop
endfacet
facet normal 1 0 0
outer loop
vertex 28.523076923076925 9.871794871794872 13.461538461538462
vertex 28.523076923076925 29.615384615384617 40.38461538461539
vertex 28.523076923076925 0 20.192307692307693
endloop
endfacet
facet normal -1 0 0
outer loop
vertex 26.923076923076923 9.871794871794872 13.461538461538462
vertex 26.923076923076923 0 20.192307692307693
vertex 26.923076923076923 29.615384615384617 40.38461538461539
endloop
endfacet
facet normal 1 0 0
outer loop
vertex 28.523076923076925 9.871794871794872 13.461538461538462
vertex 28.523076923076925 0 20.192307692307693
vertex 28.523076923076925 -29.615384615384617 0
endloop
endfacet
facet normal -1 0 0
outer loop
vertex 26.923076923076923 9.871794871794872 13.461538461538462
vertex 26.923076923076923 -29.615384615384617 0
vertex 26.923076923076923 0 20.192307692307693
endloop
endfacet
facet normal 0 0.14919064362744677 -0.9888084505373264
outer loop
vertex 26.923076923076923 -29.615384615384617 0
vertex 26.923076923076923 0 4.468346007401793
vertex 28.523076923076925 0 4.468346007401793
endloop
endfacet
facet normal 0 0.14919064362744677 -0.9888084505373264
outer loop
vertex 26.923076923076923 -29.615384615384617 0
vertex 28.523076923076925 0 4.468346007401793
vertex 28.523076923076925 -29.615384615384617 0
endloop
endfacet
facet normal 0 -0.14919064362744677 -0.9888084505373264
outer loop
vertex 26.923076923076923 0 4.468346007401793
vertex 26.923076923076923 29.615384615384617 0
vertex 28.523076923076925 29.615384615384617 0
endloop
endfacet
facet normal 0 -0.14919064362744677 -0.9888084505373264
outer loop
vertex 26.923076923076923 0 4.468346007401793
vertex 28.523076923076925 29.615384615384617 0
vertex 28.523076923076925 0 4.468346007401793
endloop
endfacet
facet normal 0 0.9763795232056492 0.2160625526663726
outer loop
vertex 26.923076923076923 29.615384615384617 0
vertex 26.923076923076923 25.14703860798282 20.192307692307693
vertex 28.523076923076925 25.14703860798282 20.192307692307693
endloop
endfacet
facet normal 0 0.9763795232056492 0.2160625526663726
outer loop
vertex 26.923076923076923 29.615384615384617 0
vertex 28.523076923076925 25.14703860798282 20.192307692307693
vertex 28.523076923076925 29.615384615384617 0
endloop
endfacet
facet normal 0 0.9763795232056492 -0.2160625526663726
outer loop
vertex 26.923076923076923 25.14703860798282 20.192307692307693
vertex 26.923076923076923 29.615384615384617 40.38461538461539
vertex 28.523076923076925 29.615384615384617 40.38461538461539
endloop
endfacet
facet normal 0 0.9763795232056492 -0.2160625526663726
outer loop
vertex 26.923076923076923 25.14703860798282 20.192307692307693
vertex 28.523076923076925 29.615384615384617 40.38461538461539
vertex 28.523076923076925 25.14703860798282 20.192307692307693
endloop
endfacet
facet normal 0 -0.5633368246415097 0.8262273428075477
outer loop
vertex 26.923076923076923 29.615384615384617 40.38461538461539
vertex 26.923076923076923 0 20.192307692307693
vertex 28.523076923076925 0 20.192307692307693
endloop
endfacet
facet normal 0 -0.5633368246415097 0.8262273428075477
outer loop
vertex 26.923076923076923 29.615384615384617 40.38461538461539
vertex 28.523076923076925 0 20.192307692307693
vertex 28.523076923076925 29.615384615384617 40.38461538461539
endloop
endfacet
facet normal 0 -0.5633368246415097 0.8262273428075477
outer loop
vertex 26.923076923076923 0 20.192307692307693
vertex 26.923076923076923 -29.615384615384617 0
vertex 28.523076923076925 -29.615384615384617 0
endloop
endfacet
facet normal 0 -0.5633368246415097 0.8262273428075477
outer loop
vertex 26.923076923076923 0 20.192307692307693
vertex 28.523076923076925 -29.615384615384617 0
vertex 28.523076923076925 0 20.192307692307693
endloop
endfacet
facet normal 0.7399400733959438 1.0790075979071811e-16 0.6726727939963124
outer loop
vertex 10.158263091792485 -9.871794871794872 61.20448159859923
vertex 28.106981040510433 -29.615384615384617 41.460891855009486
vertex 14.645442578971972 0 56.26858416270179
endloop
endfacet
facet normal -0.7399400733959438 -1.0790075979071811e-16 -0.6726727939963124
outer loop
vertex 8.974358974358974 -9.871794871794872 60.12820512820513
vertex 13.461538461538462 0 55.19230769230769
vertex 26.923076923076923 -29.615384615384617 40.38461538461539
endloop
endfacet
facet normal 0.7399400733959438 0 0.6726727939963123
outer loop
vertex 10.158263091792485 -9.871794871794872 61.20448159859923
vertex 14.645442578971972 0 56.26858416270179
vertex 1.1839041174335099 29.615384615384617 71.0762764703941
endloop
endfacet
facet normal -0.7399400733959438 -8.991729982559842e-17 -0.6726727939963124
outer loop
vertex 8.974358974358974 -9.871794871794872 60.12820512820513
vertex 0 29.615384615384617 70
vertex 13.461538461538462 0 55.19230769230769
endloop
endfacet
facet normal 0.7399400733959444 3.234660022790129e-16 0.6726727939963117
outer loop
vertex 10.158263091792485 -9.871794871794872 61.20448159859923
vertex 1.1839041174335099 29.615384615384617 71.0762764703941
vertex 4.172625709712753 0 67.78868271888695
endloop
endfacet
facet normal -0.7399400733959438 -2.264262015953092e-16 -0.6726727939963122
outer loop
vertex 8.974358974358974 -9.871794871794872 60.12820512820513
vertex 2.988721592279243 0 66.71240624849284
vertex 0 29.615384615384617 70
endloop
endfacet
facet normal 0.7399400733959441 -2.3115561077228994e-16 0.672672793996312
outer loop
vertex 10.158263091792485 -9.871794871794872 61.20448159859923
vertex 4.172625709712753 0 67.78868271888695
vertex 1.1839041174335099 -29.615384615384617 71.0762764703941
endloop
endfacet
facet normal -0.7399400733959437 1.6180892754060302e-16 -0.6726727939963123
outer loop
vertex 8.974358974358974 -9.871794871794872 60.12820512820513
vertex 0 -29.615384615384617 70
vertex 2.988721592279243 0 66.71240624849284
endloop
endfacet
facet normal 0.7399400733959438 0 0.6726727939963123
outer loop
vertex 10.158263091792485 -9.871794871794872 61.20448159859923
vertex 1.1839041174335099 -29.615384615384617 71.0762764703941
vertex 14.645442578971972 -25.172330549642773 56.26858416270179
endloop
endfacet
facet normal -0.7399400733959437 1.0578819520347288e-16 -0.6726727939963125
outer loop
vertex 8.974358974358974 -9.871794871794872 60.12820512820513
vertex 13.461538461538462 -25.172330549642773 55.19230769230769
vertex 0 -29.615384615384617 70
endloop
endfacet
facet normal 0.7399400733959435 -1.5415504269896236e-16 0.6726727939963125
outer loop
vertex 10.158263091792485 -9.871794871794872 61.20448159859923
vertex 14.645442578971972 -25.172330549642773 56.26858416270179
vertex 28.106981040510433 -29.615384615384617 41.460891855009486
endloop
endfacet
facet normal -0.7399400733959435 1.5415504269896236e-16 -0.6726727939963125
outer loop
vertex 8.974358974358974 -9.871794871794872 60.12820512820513
vertex 26.923076923076923 -29.615384615384617 40.38461538461539
vertex 13.461538461538462 -25.172330549642773 55.19230769230769
endloop
endfacet
facet normal 0.557355107764879 0.5598885400729008 -0.6130906185413668
outer loop
vertex 26.923076923076923 -29.615384615384617 40.38461538461539
vertex 13.461538461538462 0 55.19230769230769
vertex 14.645442578971972 0 56.26858416270179
endloop
endfacet
facet normal 0.5573551077648785 0.559888540072901 -0.6130906185413671
outer loop
vertex 26.923076923076923 -29.615384615384617 40.38461538461539
vertex 14.645442578971972 0 56.26858416270179
vertex 28.106981040510433 -29.615384615384617 41.460891855009486
endloop
endfacet
facet normal 0.5573551077648806 0.5598885400729009 -0.6130906185413653
outer loop
vertex 13.461538461538462 0 55.19230769230769
vertex 0 29.615384615384617 70
vertex 1.1839041174335099 29.615384615384617 71.0762764703941
endloop
endfacet
facet normal 0.5573551077648785 0.5598885400729011 -0.6130906185413671
outer loop
vertex 13.461538461538462 0 55.19230769230769
vertex 1.1839041174335099 29.615384615384617 71.0762764703941
vertex 14.645442578971972 0 56.26858416270179
endloop
endfacet
facet normal -0.6652281199201195 -0.14836482774996282 0.7317509319121275
outer loop
vertex 0 29.615384615384617 70
vertex 2.988721592279243 0 66.71240624849284
vertex 4.172625709712753 0 67.78868271888695
endloop
endfacet
facet normal -0.6652281199201195 -0.14836482774996282 0.7317509319121274
outer loop
vertex 0 29.615384615384617 70
vertex 4.172625709712753 0 67.78868271888695
vertex 1.1839041174335099 29.615384615384617 71.0762764703941
endloop
endfacet
facet normal -0.6652281199201197 0.14836482774996282 0.7317509319121273
outer loop
vertex 2.988721592279243 0 66.71240624849284
vertex 0 -29.615384615384617 70
vertex 1.1839041174335099 -29.615384615384617 71.0762764703941
endloop
endfacet
facet normal -0.6652281199201195 0.14836482774996285 0.7317509319121273
outer loop
vertex 2.988721592279243 0 66.71240624849284
vertex 1.1839041174335099 -29.615384615384617 71.0762764703941
vertex 4.172625709712753 0 67.78868271888695
endloop
endfacet
facet normal 0.14579624121579318 -0.9762289884369523 -0.16037586533737258
outer loop
vertex 0 -29.615384615384617 70
vertex 13.461538461538462 -25.172330549642773 55.19230769230769
vertex 14.645442578971972 -25.172330549642773 56.26858416270179
endloop
endfacet
facet normal 0.14579624121579365 -0.9762289884369523 -0.16037586533737214
outer loop
vertex 0 -29.615384615384617 70
vertex 14.645442578971972 -25.172330549642773 56.26858416270179
vertex 1.1839041174335099 -29.615384615384617 71.0762764703941
endloop
endfacet
facet normal -0.14579624121579318 -0.9762289884369523 0.16037586533737258
outer loop
vertex 13.461538461538462 -25.172330549642773 55.19230769230769
vertex 26.923076923076923 -29.615384615384617 40.38461538461539
vertex 28.106981040510433 -29.615384615384617 41.460891855009486
endloop
endfacet
facet normal -0.14579624121579313 -0.9762289884369523 0.16037586533737264
outer loop
vertex 13.461538461538462 -25.172330549642773 55.19230769230769
vertex 28.106981040510433 -29.615384615384617 41.460891855009486
vertex 14.645442578971972 -25.172330549642773 56.26858416270179
endloop
endfacet
facet normal 0.7399400733959436 3.2346600227901355e-17 0.6726727939963126
outer loop
vertex 19.13262206615146 9.871794871794872 51.332686726804354
vertex 28.106981040510433 -29.615384615384617 41.460891855009486
vertex 25.11825944823119 0 44.74848560651665
endloop
endfacet
facet normal -0.7399400733959436 -3.2346600227901355e-17 -0.6726727939963126
outer loop
vertex 17.94871794871795 9.871794871794872 50.256410256410255
vertex 23.93435533079768 0 43.672209136122554
vertex 26.923076923076923 -29.615384615384617 40.38461538461539
endloop
endfacet
facet normal 0.7399400733959437 -2.3115561077229023e-17 0.6726727939963126
outer loop
vertex 19.13262206615146 9.871794871794872 51.332686726804354
vertex 25.11825944823119 0 44.74848560651665
vertex 28.106981040510433 29.615384615384617 41.460891855009486
endloop
endfacet
facet normal -0.7399400733959437 2.3115561077229023e-17 -0.6726727939963126
outer loop
vertex 17.94871794871795 9.871794871794872 50.256410256410255
vertex 26.923076923076923 29.615384615384617 40.38461538461539
vertex 23.93435533079768 0 43.672209136122554
endloop
endfacet
facet normal 0.7399400733959437 -1.0578819520347288e-16 0.6726727939963125
outer loop
vertex 19.13262206615146 9.871794871794872 51.332686726804354
vertex 28.106981040510433 29.615384615384617 41.460891855009486
vertex 14.645442578971972 25.172330549642773 56.26858416270179
endloop
endfacet
facet normal -0.7399400733959437 1.0578819520347288e-16 -0.6726727939963125
outer loop
vertex 17.94871794871795 9.871794871794872 50.256410256410255
vertex 13.461538461538462 25.172330549642773 55.19230769230769
vertex 26.923076923076923 29.615384615384617 40.38461538461539
endloop
endfacet
facet normal 0.7399400733959438 0 0.6726727939963124
outer loop
vertex 19.13262206615146 9.871794871794872 51.332686726804354
vertex 14.645442578971972 25.172330549642773 56.26858416270179
vertex 1.1839041174335099 29.615384615384617 71.0762764703941
endloop
endfacet
facet normal -0.7399400733959435 1.5415504269896236e-16 -0.6726727939963125
outer loop
vertex 17.94871794871795 9.871794871794872 50.256410256410255
vertex 0 29.615384615384617 70
vertex 13.461538461538462 25.172330549642773 55.19230769230769
endloop
endfacet
facet normal 0.7399400733959438 0 0.6726727939963123
outer loop
vertex 19.13262206615146 9.871794871794872 51.332686726804354
vertex 1.1839041174335099 29.615384615384617 71.0762764703941
vertex 14.645442578971972 0 56.26858416270179
endloop
endfacet
facet normal -0.7399400733959438 -1.0790075979071811e-16 -0.6726727939963124
outer loop
vertex 17.94871794871795 9.871794871794872 50.256410256410255
vertex 13.461538461538462 0 55.19230769230769
vertex 0 29.615384615384617 70
endloop
endfacet
facet normal 0.7399400733959438 8.991729982559842e-17 0.6726727939963124
outer loop
vertex 19.13262206615146 9.871794871794872 51.332686726804354
vertex 14.645442578971972 0 56.26858416270179
vertex 28.106981040510433 -29.615384615384617 41.460891855009486
endloop
endfacet
facet normal -0.7399400733959438 -8.991729982559842e-17 -0.6726727939963124
outer loop
vertex 17.94871794871795 9.871794871794872 50.256410256410255
vertex 26.923076923076923 -29.615384615384617 40.38461538461539
vertex 13.461538461538462 0 55.19230769230769
endloop
endfacet
facet normal 0.6652281199201171 0.14836482774996299 -0.7317509319121295
outer loop
vertex 26.923076923076923 -29.615384615384617 40.38461538461539
vertex 23.93435533079768 0 43.672209136122554
vertex 25.11825944823119 0 44.74848560651665
endloop
endfacet
facet normal 0.6652281199201171 0.14836482774996304 -0.7317509319121297
outer loop
vertex 26.923076923076923 -29.615384615384617 40.38461538461539
vertex 25.11825944823119 0 44.74848560651665
vertex 28.106981040510433 -29.615384615384617 41.460891855009486
endloop
endfacet
facet normal 0.6652281199201172 -0.14836482774996304 -0.7317509319121295
outer loop
vertex 23.93435533079768 0 43.672209136122554
vertex 26.923076923076923 29.615384615384617 40.38461538461539
vertex 28.106981040510433 29.615384615384617 41.460891855009486
endloop
endfacet
facet normal 0.6652281199201171 -0.14836482774996304 -0.7317509319121297
outer loop
vertex 23.93435533079768 0 43.672209136122554
vertex 28.106981040510433 29.615384615384617 41.460891855009486
vertex 25.11825944823119 0 44.74848560651665
endloop
endfacet
facet normal -0.14579624121579296 0.9762289884369523 0.16037586533737277
outer loop
vertex 26.923076923076923 29.615384615384617 40.38461538461539
vertex 13.461538461538462 25.172330549642773 55.19230769230769
vertex 14.645442578971972 25.172330549642773 56.26858416270179
endloop
endfacet
facet normal -0.14579624121579313 0.9762289884369523 0.16037586533737264
outer loop
vertex 26.923076923076923 29.615384615384617 40.38461538461539
vertex 14.645442578971972 25.172330549642773 56.26858416270179
vertex 28.106981040510433 29.615384615384617 41.460891855009486
endloop
endfacet
facet normal 0.14579624121579346 0.9762289884369523 -0.16037586533737236
outer loop
vertex 13.461538461538462 25.172330549642773 55.19230769230769
vertex 0 29.615384615384617 70
vertex 1.1839041174335099 29.615384615384617 71.0762764703941
endloop
endfacet
facet normal 0.1457962412157931 0.9762289884369523 -0.1603758653373726
outer loop
vertex 13.461538461538462 25.172330549642773 55.19230769230769
vertex 1.1839041174335099 29.615384615384617 71.0762764703941
vertex 14.645442578971972 25.172330549642773 56.26858416270179
endloop
endfacet
facet normal -0.5573551077648783 -0.5598885400729011 0.6130906185413671
outer loop
vertex 0 29.615384615384617 70
vertex 13.461538461538462 0 55.19230769230769
vertex 14.645442578971972 0 56.26858416270179
endloop
endfacet
facet normal -0.5573551077648805 -0.5598885400729011 0.6130906185413652
outer loop
vertex 0 29.615384615384617 70
vertex 14.645442578971972 0 56.26858416270179
vertex 1.1839041174335099 29.615384615384617 71.0762764703941
endloop
endfacet
facet normal -0.5573551077648783 -0.5598885400729011 0.6130906185413671
outer loop
vertex 13.461538461538462 0 55.19230769230769
vertex 26.923076923076923 -29.615384615384617 40.38461538461539
vertex 28.106981040510433 -29.615384615384617 41.460891855009486
endloop
endfacet
facet normal -0.5573551077648785 -0.559888540072901 0.6130906185413671
outer loop
vertex 13.461538461538462 0 55.19230769230769
vertex 28.106981040510433 -29.615384615384617 41.460891855009486
vertex 14.645442578971972 0 56.26858416270179
endloop
endfacet
facet normal -0.7399400733959438 0 0.6726727939963123
outer loop
vertex -19.13262206615146 -9.871794871794872 51.332686726804354
vertex -1.1839041174335099 -29.615384615384617 71.0762764703941
vertex -14.645442578971972 0 56.26858416270179
endloop
endfacet
facet normal 0.7399400733959438 1.0790075979071811e-16 -0.6726727939963124
outer loop
vertex -17.94871794871795 -9.871794871794872 50.256410256410255
vertex -13.461538461538462 0 55.19230769230769
vertex 0 -29.615384615384617 70
endloop
endfacet
facet normal -0.7399400733959438 -8.991729982559842e-17 0.6726727939963124
outer loop
vertex -19.13262206615146 -9.871794871794872 51.332686726804354
vertex -14.645442578971972 0 56.26858416270179
vertex -28.106981040510433 29.615384615384617 41.460891855009486
endloop
endfacet
facet normal 0.7399400733959438 8.991729982559842e-17 -0.6726727939963124
outer loop
vertex -17.94871794871795 -9.871794871794872 50.256410256410255
vertex -26.923076923076923 29.615384615384617 40.38461538461539
vertex -13.461538461538462 0 55.19230769230769
endloop
endfacet
facet normal -0.7399400733959436 -3.2346600227901355e-17 0.6726727939963126
outer loop
vertex -19.13262206615146 -9.871794871794872 51.332686726804354
vertex -28.106981040510433 29.615384615384617 41.460891855009486
vertex -25.11825944823119 0 44.74848560651665
endloop
endfacet
facet normal 0.7399400733959436 3.2346600227901355e-17 -0.6726727939963126
outer loop
vertex -17.94871794871795 -9.871794871794872 50.256410256410255
vertex -23.93435533079768 0 43.672209136122554
vertex -26.923076923076923 29.615384615384617 40.38461538461539
endloop
endfacet
facet normal -0.7399400733959437 2.3115561077229023e-17 0.6726727939963126
outer loop
vertex -19.13262206615146 -9.871794871794872 51.332686726804354
vertex -25.11825944823119 0 44.74848560651665
vertex -28.106981040510433 -29.615384615384617 41.460891855009486
endloop
endfacet
facet normal 0.7399400733959437 -2.3115561077229023e-17 -0.6726727939963126
outer loop
vertex -17.94871794871795 -9.871794871794872 50.256410256410255
vertex -26.923076923076923 -29.615384615384617 40.38461538461539
vertex -23.93435533079768 0 43.672209136122554
endloop
endfacet
facet normal -0.7399400733959437 1.0578819520347288e-16 0.6726727939963125
outer loop
vertex -19.13262206615146 -9.871794871794872 51.332686726804354
vertex -28.106981040510433 -29.615384615384617 41.460891855009486
vertex -14.645442578971972 -25.172330549642773 56.26858416270179
endloop
endfacet
facet normal 0.7399400733959437 -1.0578819520347288e-16 -0.6726727939963125
outer loop
vertex -17.94871794871795 -9.871794871794872 50.256410256410255
vertex -13.461538461538462 -25.172330549642773 55.19230769230769
vertex -26.923076923076923 -29.615384615384617 40.38461538461539
endloop
endfacet
facet normal -0.7399400733959438 0 0.6726727939963124
outer loop
vertex -19.13262206615146 -9.871794871794872 51.332686726804354
vertex -14.645442578971972 -25.172330549642773 56.26858416270179
vertex -1.1839041174335099 -29.615384615384617 71.0762764703941
endloop
endfacet
facet normal 0.7399400733959435 -1.5415504269896236e-16 -0.6726727939963125
outer loop
vertex -17.94871794871795 -9.871794871794872 50.256410256410255
vertex 0 -29.615384615384617 70
vertex -13.461538461538462 -25.172330549642773 55.19230769230769
endloop
endfacet
facet normal 0.5573551077648783 0.5598885400729011 0.6130906185413671
outer loop
vertex 0 -29.615384615384617 70
vertex -13.461538461538462 0 55.19230769230769
vertex -14.645442578971972 0 56.26858416270179
endloop
endfacet
facet normal 0.5573551077648805 0.5598885400729011 0.6130906185413652
outer loop
vertex 0 -29.615384615384617 70
vertex -14.645442578971972 0 56.26858416270179
vertex -1.1839041174335099 -29.615384615384617 71.0762764703941
endloop
endfacet
facet normal 0.5573551077648783 0.5598885400729011 0.6130906185413671
outer loop
vertex -13.461538461538462 0 55.19230769230769
vertex -26.923076923076923 29.615384615384617 40.38461538461539
vertex -28.106981040510433 29.615384615384617 41.460891855009486
endloop
endfacet
facet normal 0.5573551077648785 0.559888540072901 0.6130906185413671
outer loop
vertex -13.461538461538462 0 55.19230769230769
vertex -28.106981040510433 29.615384615384617 41.460891855009486
vertex -14.645442578971972 0 56.26858416270179
endloop
endfacet
facet normal -0.6652281199201171 -0.14836482774996299 -0.7317509319121295
outer loop
vertex -26.923076923076923 29.615384615384617 40.38461538461539
vertex -23.93435533079768 0 43.672209136122554
vertex -25.11825944823119 0 44.74848560651665
endloop
endfacet
facet normal -0.6652281199201171 -0.14836482774996304 -0.7317509319121297
outer loop
vertex -26.923076923076923 29.615384615384617 40.38461538461539
vertex -25.11825944823119 0 44.74848560651665
vertex -28.106981040510433 29.615384615384617 41.460891855009486
endloop
endfacet
facet normal -0.6652281199201172 0.14836482774996304 -0.7317509319121295
outer loop
vertex -23.93435533079768 0 43.672209136122554
vertex -26.923076923076923 -29.615384615384617 40.38461538461539
vertex -28.106981040510433 -29.615384615384617 41.460891855009486
endloop
endfacet
facet normal -0.6652281199201171 0.14836482774996304 -0.7317509319121297
outer loop
vertex -23.93435533079768 0 43.672209136122554
vertex -28.106981040510433 -29.615384615384617 41.460891855009486
vertex -25.11825944823119 0 44.74848560651665
endloop
endfacet
facet normal 0.14579624121579296 -0.9762289884369523 0.16037586533737277
outer loop
vertex -26.923076923076923 -29.615384615384617 40.38461538461539
vertex -13.461538461538462 -25.172330549642773 55.19230769230769
vertex -14.645442578971972 -25.172330549642773 56.26858416270179
endloop
endfacet
facet normal 0.14579624121579313 -0.9762289884369523 0.16037586533737264
outer loop
vertex -26.923076923076923 -29.615384615384617 40.38461538461539
vertex -14.645442578971972 -25.172330549642773 56.26858416270179
vertex -28.106981040510433 -29.615384615384617 41.460891855009486
endloop
endfacet
facet normal -0.14579624121579346 -0.9762289884369523 -0.16037586533737236
outer loop
vertex -13.461538461538462 -25.172330549642773 55.19230769230769
vertex 0 -29.615384615384617 70
vertex -1.1839041174335099 -29.615384615384617 71.0762764703941
endloop
endfacet
facet normal -0.1457962412157931 -0.9762289884369523 -0.1603758653373726
outer loop
vertex -13.461538461538462 -25.172330549642773 55.19230769230769
vertex -1.1839041174335099 -29.615384615384617 71.0762764703941
vertex -14.645442578971972 -25.172330549642773 56.26858416270179
endloop
endfacet
facet normal -0.7399400733959444 -3.234660022790129e-16 0.6726727939963117
outer loop
vertex -10.158263091792485 9.871794871794872 61.20448159859923
vertex -1.1839041174335099 -29.615384615384617 71.0762764703941
vertex -4.172625709712753 0 67.78868271888695
endloop
endfacet
facet normal 0.7399400733959438 2.264262015953092e-16 -0.6726727939963122
outer loop
vertex -8.974358974358974 9.871794871794872 60.12820512820513
vertex -2.988721592279243 0 66.71240624849284
vertex 0 -29.615384615384617 70
endloop
endfacet
facet normal -0.7399400733959441 2.3115561077228994e-16 0.672672793996312
outer loop
vertex -10.158263091792485 9.871794871794872 61.20448159859923
vertex -4.172625709712753 0 67.78868271888695
vertex -1.1839041174335099 29.615384615384617 71.0762764703941
endloop
endfacet
facet normal 0.7399400733959437 -1.6180892754060302e-16 -0.6726727939963123
outer loop
vertex -8.974358974358974 9.871794871794872 60.12820512820513
vertex 0 29.615384615384617 70
vertex -2.988721592279243 0 66.71240624849284
endloop
endfacet
facet normal -0.7399400733959438 0 0.6726727939963123
outer loop
vertex -10.158263091792485 9.871794871794872 61.20448159859923
vertex -1.1839041174335099 29.615384615384617 71.0762764703941
vertex -14.645442578971972 25.172330549642773 56.26858416270179
endloop
endfacet
facet normal 0.7399400733959437 -1.0578819520347288e-16 -0.6726727939963125
outer loop
vertex -8.974358974358974 9.871794871794872 60.12820512820513
vertex -13.461538461538462 25.172330549642773 55.19230769230769
vertex 0 29.615384615384617 70
endloop
endfacet
facet normal -0.7399400733959435 1.5415504269896236e-16 0.6726727939963125
outer loop
vertex -10.158263091792485 9.871794871794872 61.20448159859923
vertex -14.645442578971972 25.172330549642773 56.26858416270179
vertex -28.106981040510433 29.615384615384617 41.460891855009486
endloop
endfacet
facet normal 0.7399400733959435 -1.5415504269896236e-16 -0.6726727939963125
outer loop
vertex -8.974358974358974 9.871794871794872 60.12820512820513
vertex -26.923076923076923 29.615384615384617 40.38461538461539
vertex -13.461538461538462 25.172330549642773 55.19230769230769
endloop
endfacet
facet normal -0.7399400733959438 -1.0790075979071811e-16 0.6726727939963124
outer loop
vertex -10.158263091792485 9.871794871794872 61.20448159859923
vertex -28.106981040510433 29.615384615384617 41.460891855009486
vertex -14.645442578971972 0 56.26858416270179
endloop
endfacet
facet normal 0.7399400733959438 1.0790075979071811e-16 -0.6726727939963124
outer loop
vertex -8.974358974358974 9.871794871794872 60.12820512820513
vertex -13.461538461538462 0 55.19230769230769
vertex -26.923076923076923 29.615384615384617 40.38461538461539
endloop
endfacet
facet normal -0.7399400733959438 0 0.6726727939963123
outer loop
vertex -10.158263091792485 9.871794871794872 61.20448159859923
vertex -14.645442578971972 0 56.26858416270179
vertex -1.1839041174335099 -29.615384615384617 71.0762764703941
endloop
endfacet
facet normal 0.7399400733959438 8.991729982559842e-17 -0.6726727939963124
outer loop
vertex -8.974358974358974 9.871794871794872 60.12820512820513
vertex 0 -29.615384615384617 70
vertex -13.461538461538462 0 55.19230769230769
endloop
endfacet
facet normal 0.6652281199201195 0.14836482774996282 0.7317509319121275
outer loop
vertex 0 -29.615384615384617 70
vertex -2.988721592279243 0 66.71240624849284
vertex -4.172625709712753 0 67.78868271888695
endloop
endfacet
facet normal 0.6652281199201195 0.14836482774996282 0.7317509319121274
outer loop
vertex 0 -29.615384615384617 70
vertex -4.172625709712753 0 67.78868271888695
vertex -1.1839041174335099 -29.615384615384617 71.0762764703941
endloop
endfacet
facet normal 0.6652281199201197 -0.14836482774996282 0.7317509319121273
outer loop
vertex -2.988721592279243 0 66.71240624849284
vertex 0 29.615384615384617 70
vertex -1.1839041174335099 29.615384615384617 71.0762764703941
endloop
endfacet
facet normal 0.6652281199201195 -0.14836482774996285 0.7317509319121273
outer loop
vertex -2.988721592279243 0 66.71240624849284
vertex -1.1839041174335099 29.615384615384617 71.0762764703941
vertex -4.172625709712753 0 67.78868271888695
endloop
endfacet
facet normal -0.14579624121579318 0.9762289884369523 -0.16037586533737258
outer loop
vertex 0 29.615384615384617 70
vertex -13.461538461538462 25.172330549642773 55.19230769230769
vertex -14.645442578971972 25.172330549642773 56.26858416270179
endloop
endfacet
facet normal -0.14579624121579365 0.9762289884369523 -0.16037586533737214
outer loop
vertex 0 29.615384615384617 70
vertex -14.645442578971972 25.172330549642773 56.26858416270179
vertex -1.1839041174335099 29.615384615384617 71.0762764703941
endloop
endfacet
facet normal 0.14579624121579318 0.9762289884369523 0.16037586533737258
outer loop
vertex -13.461538461538462 25.172330549642773 55.19230769230769
vertex -26.923076923076923 29.615384615384617 40.38461538461539
vertex -28.106981040510433 29.615384615384617 41.460891855009486
endloop
endfacet
facet normal 0.14579624121579313 0.9762289884369523 0.16037586533737264
outer loop
vertex -13.461538461538462 25.172330549642773 55.19230769230769
vertex -28.106981040510433 29.615384615384617 41.460891855009486
vertex -14.645442578971972 25.172330549642773 56.26858416270179
endloop
endfacet
facet normal -0.557355107764879 -0.5598885400729008 -0.6130906185413668
outer loop
vertex -26.923076923076923 29.615384615384617 40.38461538461539
vertex -13.461538461538462 0 55.19230769230769
vertex -14.645442578971972 0 56.26858416270179
endloop
endfacet
facet normal -0.5573551077648785 -0.559888540072901 -0.6130906185413671
outer loop
vertex -26.923076923076923 29.615384615384617 40.38461538461539
vertex -14.645442578971972 0 56.26858416270179
vertex -28.106981040510433 29.615384615384617 41.460891855009486
endloop
endfacet
facet normal -0.5573551077648806 -0.5598885400729009 -0.6130906185413653
outer loop
vertex -13.461538461538462 0 55.19230769230769
vertex 0 -29.615384615384617 70
vertex -1.1839041174335099 -29.615384615384617 71.0762764703941
endloop
endfacet
facet normal -0.5573551077648785 -0.5598885400729011 -0.6130906185413671
outer loop
vertex -13.461538461538462 0 55.19230769230769
vertex -1.1839041174335099 -29.615384615384617 71.0762764703941
vertex -14.645442578971972 0 56.26858416270179
endloop
endfacet
facet normal -1 0 0
outer loop
vertex -28.523076923076925 -9.871794871794872 13.461538461538462
vertex -28.523076923076925 -29.615384615384617 40.38461538461539
vertex -28.523076923076925 0 20.192307692307693
endloop
endfacet
facet normal 1 0 0
outer loop
vertex -26.923076923076923 -9.871794871794872 13.461538461538462
vertex -26.923076923076923 0 20.192307692307693
vertex -26.923076923076923 -29.615384615384617 40.38461538461539
endloop
endfacet
facet normal -1 0 0
outer loop
vertex -28.523076923076925 -9.871794871794872 13.461538461538462
vertex -28.523076923076925 0 20.192307692307693
vertex -28.523076923076925 29.615384615384617 0
endloop
endfacet
facet normal 1 0 0
outer loop
vertex -26.923076923076923 -9.871794871794872 13.461538461538462
vertex -26.923076923076923 29.615384615384617 0
vertex -26.923076923076923 0 20.192307692307693
endloop
endfacet
facet normal -1 0 0
outer loop
vertex -28.523076923076925 -9.871794871794872 13.461538461538462
vertex -28.523076923076925 29.615384615384617 0
vertex -28.523076923076925 0 4.468346007401793
endloop
endfacet
facet normal 1 0 0
outer loop
vertex -26.923076923076923 -9.871794871794872 13.461538461538462
vertex -26.923076923076923 0 4.468346007401793
vertex -26.923076923076923 29.615384615384617 0
endloop
endfacet
facet normal -1 0 0
outer loop
vertex -28.523076923076925 -9.871794871794872 13.461538461538462
vertex -28.523076923076925 0 4.468346007401793
vertex -28.523076923076925 -29.615384615384617 0
endloop
endfacet
facet normal 1 0 0
outer loop
vertex -26.923076923076923 -9.871794871794872 13.461538461538462
vertex -26.923076923076923 -29.615384615384617 0
vertex -26.923076923076923 0 4.468346007401793
endloop
endfacet
facet normal -1 0 0
outer loop
vertex -28.523076923076925 -9.871794871794872 13.461538461538462
vertex -28.523076923076925 -29.615384615384617 0
vertex -28.523076923076925 -25.14703860798282 20.192307692307693
endloop
endfacet
facet normal 1 0 0
outer loop
vertex -26.923076923076923 -9.871794871794872 13.461538461538462
vertex -26.923076923076923 -25.14703860798282 20.192307692307693
vertex -26.923076923076923 -29.615384615384617 0
endloop
endfacet
facet normal -1 0 0
outer loop
vertex -28.523076923076925 -9.871794871794872 13.461538461538462
vertex -28.523076923076925 -25.14703860798282 20.192307692307693
vertex -28.523076923076925 -29.615384615384617 40.38461538461539
endloop
endfacet
facet normal 1 0 0
outer loop
vertex -26.923076923076923 -9.871794871794872 13.461538461538462
vertex -26.923076923076923 -29.615384615384617 40.38461538461539
vertex -26.923076923076923 -25.14703860798282 20.192307692307693
endloop
endfacet
facet normal 0 0.5633368246415097 0.8262273428075477
outer loop
vertex -26.923076923076923 -29.615384615384617 40.38461538461539
vertex -26.923076923076923 0 20.192307692307693
vertex -28.523076923076925 0 20.192307692307693
endloop
endfacet
facet normal 0 0.5633368246415097 0.8262273428075477
outer loop
vertex -26.923076923076923 -29.615384615384617 40.38461538461539
vertex -28.523076923076925 0 20.192307692307693
vertex -28.523076923076925 -29.615384615384617 40.38461538461539
endloop
endfacet
facet normal 0 0.5633368246415097 0.8262273428075477
outer loop
vertex -26.923076923076923 0 20.192307692307693
vertex -26.923076923076923 29.615384615384617 0
vertex -28.523076923076925 29.615384615384617 0
endloop
endfacet
facet normal 0 0.5633368246415097 0.8262273428075477
outer loop
vertex -26.923076923076923 0 20.192307692307693
vertex -28.523076923076925 29.615384615384617 0
vertex -28.523076923076925 0 20.192307692307693
endloop
endfacet
facet normal 0 -0.14919064362744677 -0.9888084505373264
outer loop
vertex -26.923076923076923 29.615384615384617 0
vertex -26.923076923076923 0 4.468346007401793
vertex -28.523076923076925 0 4.468346007401793
endloop
endfacet
facet normal 0 -0.14919064362744677 -0.9888084505373264
outer loop
vertex -26.923076923076923 29.615384615384617 0
vertex -28.523076923076925 0 4.468346007401793
vertex -28.523076923076925 29.615384615384617 0
endloop
endfacet
facet normal 0 0.14919064362744677 -0.9888084505373264
outer loop
vertex -26.923076923076923 0 4.468346007401793
vertex -26.923076923076923 -29.615384615384617 0
vertex -28.523076923076925 -29.615384615384617 0
endloop
endfacet
facet normal 0 0.14919064362744677 -0.9888084505373264
outer loop
vertex -26.923076923076923 0 4.468346007401793
vertex -28.523076923076925 -29.615384615384617 0
vertex -28.523076923076925 0 4.468346007401793
endloop
endfacet
facet normal 0 -0.9763795232056492 0.2160625526663726
outer loop
vertex -26.923076923076923 -29.615384615384617 0
vertex -26.923076923076923 -25.14703860798282 20.192307692307693
vertex -28.523076923076925 -25.14703860798282 20.192307692307693
endloop
endfacet
facet normal 0 -0.9763795232056492 0.2160625526663726
outer loop
vertex -26.923076923076923 -29.615384615384617 0
vertex -28.523076923076925 -25.14703860798282 20.192307692307693
vertex -28.523076923076925 -29.615384615384617 0
endloop
endfacet
facet normal 0 -0.9763795232056492 -0.2160625526663726
outer loop
vertex -26.923076923076923 -25.14703860798282 20.192307692307693
vertex -26.923076923076923 -29.615384615384617 40.38461538461539
vertex -28.523076923076925 -29.615384615384617 40.38461538461539
endloop
endfacet
facet normal 0 -0.9763795232056492 -0.2160625526663726
outer loop
vertex -26.923076923076923 -25.14703860798282 20.192307692307693
vertex -28.523076923076925 -29.615384615384617 40.38461538461539
vertex -28.523076923076925 -25.14703860798282 20.192307692307693
endloop
endfacet
facet normal -1 0 0
outer loop
vertex -28.523076923076925 9.871794871794872 26.923076923076923
vertex -28.523076923076925 -29.615384615384617 40.38461538461539
vertex -28.523076923076925 0 35.916269377213595
endloop
endfacet
facet normal 1 0 0
outer loop
vertex -26.923076923076923 9.871794871794872 26.923076923076923
vertex -26.923076923076923 0 35.916269377213595
vertex -26.923076923076923 -29.615384615384617 40.38461538461539
endloop
endfacet
facet normal -1 0 0
outer loop
vertex -28.523076923076925 9.871794871794872 26.923076923076923
vertex -28.523076923076925 0 35.916269377213595
vertex -28.523076923076925 29.615384615384617 40.38461538461539
endloop
endfacet
facet normal 1 0 0
outer loop
vertex -26.923076923076923 9.871794871794872 26.923076923076923
vertex -26.923076923076923 29.615384615384617 40.38461538461539
vertex -26.923076923076923 0 35.916269377213595
endloop
endfacet
facet normal -1 0 0
outer loop
vertex -28.523076923076925 9.871794871794872 26.923076923076923
vertex -28.523076923076925 29.615384615384617 40.38461538461539
vertex -28.523076923076925 25.14703860798282 20.192307692307693
endloop
endfacet
facet normal 1 0 0
outer loop
vertex -26.923076923076923 9.871794871794872 26.923076923076923
vertex -26.923076923076923 25.14703860798282 20.192307692307693
vertex -26.923076923076923 29.615384615384617 40.38461538461539
endloop
endfacet
facet normal -1 0 0
outer loop
vertex -28.523076923076925 9.871794871794872 26.923076923076923
vertex -28.523076923076925 25.14703860798282 20.192307692307693
vertex -28.523076923076925 29.615384615384617 0
endloop
endfacet
facet normal 1 0 0
outer loop
vertex -26.923076923076923 9.871794871794872 26.923076923076923
vertex -26.923076923076923 29.615384615384617 0
vertex -26.923076923076923 25.14703860798282 20.192307692307693
endloop
endfacet
facet normal -1 0 0
outer loop
vertex -28.523076923076925 9.871794871794872 26.923076923076923
vertex -28.523076923076925 29.615384615384617 0
vertex -28.523076923076925 0 20.192307692307693
endloop
endfacet
facet normal 1 0 0
outer loop
vertex -26.923076923076923 9.871794871794872 26.923076923076923
vertex -26.923076923076923 0 20.192307692307693
vertex -26.923076923076923 29.615384615384617 0
endloop
endfacet
facet normal -1 0 0
outer loop
vertex -28.523076923076925 9.871794871794872 26.923076923076923
vertex -28.523076923076925 0 20.192307692307693
vertex -28.523076923076925 -29.615384615384617 40.38461538461539
endloop
endfacet
facet normal 1 0 0
outer loop
vertex -26.923076923076923 9.871794871794872 26.923076923076923
vertex -26.923076923076923 -29.615384615384617 40.38461538461539
vertex -26.923076923076923 0 20.192307692307693
endloop
endfacet
facet normal 0 0.14919064362744672 0.9888084505373264
outer loop
vertex -26.923076923076923 -29.615384615384617 40.38461538461539
vertex -26.923076923076923 0 35.916269377213595
vertex -28.523076923076925 0 35.916269377213595
endloop
endfacet
facet normal 0 0.14919064362744672 0.9888084505373264
outer loop
vertex -26.923076923076923 -29.615384615384617 40.38461538461539
vertex -28.523076923076925 0 35.916269377213595
vertex -28.523076923076925 -29.615384615384617 40.38461538461539
endloop
endfacet
facet normal 0 -0.14919064362744672 0.9888084505373264
outer loop
vertex -26.923076923076923 0 35.916269377213595
vertex -26.923076923076923 29.615384615384617 40.38461538461539
vertex -28.523076923076925 29.615384615384617 40.38461538461539
endloop
endfacet
facet normal 0 -0.14919064362744672 0.9888084505373264
outer loop
vertex -26.923076923076923 0 35.916269377213595
vertex -28.523076923076925 29.615384615384617 40.38461538461539
vertex -28.523076923076925 0 35.916269377213595
endloop
endfacet
facet normal 0 0.9763795232056492 -0.2160625526663726
outer loop
vertex -26.923076923076923 29.615384615384617 40.38461538461539
vertex -26.923076923076923 25.14703860798282 20.192307692307693
vertex -28.523076923076925 25.14703860798282 20.192307692307693
endloop
endfacet
facet normal 0 0.9763795232056492 -0.2160625526663726
outer loop
vertex -26.923076923076923 29.615384615384617 40.38461538461539
vertex -28.523076923076925 25.14703860798282 20.192307692307693
vertex -28.523076923076925 29.615384615384617 40.38461538461539
endloop
endfacet
facet normal 0 0.9763795232056492 0.2160625526663726
outer loop
vertex -26.923076923076923 25.14703860798282 20.192307692307693
vertex -26.923076923076923 29.615384615384617 0
vertex -28.523076923076925 29.615384615384617 0
endloop
endfacet
facet normal 0 0.9763795232056492 0.2160625526663726
outer loop
vertex -26.923076923076923 25.14703860798282 20.192307692307693
vertex -28.523076923076925 29.615384615384617 0
vertex -28.523076923076925 25.14703860798282 20.192307692307693
endloop
endfacet
facet normal 0 -0.5633368246415097 -0.8262273428075477
outer loop
vertex -26.923076923076923 29.615384615384617 0
vertex -26.923076923076923 0 20.192307692307693
vertex -28.523076923076925 0 20.192307692307693
endloop
endfacet
facet normal 0 -0.5633368246415097 -0.8262273428075477
outer loop
vertex -26.923076923076923 29.615384615384617 0
vertex -28.523076923076925 0 20.192307692307693
vertex -28.523076923076925 29.615384615384617 0
endloop
endfacet
facet normal 0 -0.5633368246415097 -0.8262273428075477
outer loop
vertex -26.923076923076923 0 20.192307692307693
vertex -26.923076923076923 -29.615384615384617 40.38461538461539
vertex -28.523076923076925 -29.615384615384617 40.38461538461539
endloop
endfacet
facet normal 0 -0.5633368246415097 -0.8262273428075477
outer loop
vertex -26.923076923076923 0 20.192307692307693
vertex -28.523076923076925 -29.615384615384617 40.38461538461539
vertex -28.523076923076925 0 20.192307692307693
endloop
endfacet
endsolid house-kirigami
