solid house-kirigami-flat
facet normal 0 0 1
outer loop
vertex -61.52168696277599 19.239418987145303 1.6
vertex -34.12997179463691 19.239418987145303 1.6
vertex -34.12997179463691 39.783205363249614 1.6
endloop
endfacet
facet normal 0 0 -1
outer loop
vertex -61.52168696277599 19.239418987145303 0
vertex -34.12997179463691 39.783205363249614 0
vertex -34.12997179463691 19.239418987145303 0
endloop
endfacet
facet normal 0 -1 0
outer loop
vertex -61.52168696277599 19.239418987145303 0
vertex -34.12997179463691 19.239418987145303 0
vertex -34.12997179463691 19.239418987145303 1.6
endloop
endfacet
facet normal 0 -1 0
outer loop
vertex -61.52168696277599 19.239418987145303 0
vertex -34.12997179463691 19.239418987145303 1.6
vertex -61.52168696277599 19.239418987145303 1.6
endloop
endfacet
facet normal 1 0 0
outer loop
vertex -34.12997179463691 19.239418987145303 0
vertex -34.12997179463691 39.783205363249614 0
vertex -34.12997179463691 39.783205363249614 1.6
endloop
endfacet
facet normal 1 0 0
outer loop
vertex -34.12997179463691 19.239418987145303 0
vertex -34.12997179463691 39.783205363249614 1.6
vertex -34.12997179463691 19.239418987145303 1.6
endloop
endfacet
facet normal -0.6000000000000001 0.8 0
outer loop
vertex -34.12997179463691 39.783205363249614 0
vertex -61.52168696277599 19.239418987145303 0
vertex -61.52168696277599 19.239418987145303 1.6
endloop
endfacet
facet normal -0.6000000000000001 0.8 0
outer loop
vertex -34.12997179463691 39.783205363249614 0
vertex -61.52168696277599 19.239418987145303 1.6
vertex -34.12997179463691 39.783205363249614 1.6
endloop
endfacet
facet normal 0 0 1
outer loop
vertex -62.39126522208199 21.50032246134091 1.6
vertex -34.99955005394291 42.04410883744522 1.6
vertex -48.69540763801245 57.109552179921735 1.6
endloop
endfacet
facet normal 0 0 -1
outer loop
vertex -62.39126522208199 21.50032246134091 0
vertex -48.69540763801245 57.109552179921735 0
vertex -34.99955005394291 42.04410883744522 0
endloop
endfacet
facet normal 0.6000000000000001 -0.8 0
outer loop
vertex -62.39126522208199 21.50032246134091 0
vertex -34.99955005394291 42.04410883744522 0
vertex -34.99955005394291 42.04410883744522 1.6
endloop
endfacet
facet normal 0.6000000000000001 -0.8 0
outer loop
vertex -62.39126522208199 21.50032246134091 0
vertex -34.99955005394291 42.04410883744522 1.6
vertex -62.39126522208199 21.50032246134091 1.6
endloop
endfacet
facet normal 0.7399400733959441 0.6726727939963119 0
outer loop
vertex -34.99955005394291 42.04410883744522 0
vertex -48.69540763801245 57.109552179921735 0
vertex -48.69540763801245 57.109552179921735 1.6
endloop
endfacet
facet normal 0.7399400733959441 0.6726727939963119 0
outer loop
vertex -34.99955005394291 42.04410883744522 0
vertex -48.69540763801245 57.109552179921735 1.6
vertex -34.99955005394291 42.04410883744522 1.6
endloop
endfacet
facet normal -0.9333456062030597 0.3589790793088691 0
outer loop
vertex -48.69540763801245 57.109552179921735 0
vertex -62.39126522208199 21.50032246134091 0
vertex -62.39126522208199 21.50032246134091 1.6
endloop
endfacet
facet normal -0.9333456062030597 0.3589790793088691 0
outer loop
vertex -48.69540763801245 57.109552179921735 0
vertex -62.39126522208199 21.50032246134091 1.6
vertex -48.69540763801245 57.109552179921735 1.6
endloop
endfacet
facet normal 0 0 1
outer loop
vertex -64.130421740694 21.50032246134091 1.6
vertex -50.434564156624454 57.109552179921735 1.6
vertex -64.130421740694 42.04410883744522 1.6
endloop
endfacet
facet normal 0 0 -1
outer loop
vertex -64.130421740694 21.50032246134091 0
vertex -64.130421740694 42.04410883744522 0
vertex -50.434564156624454 57.109552179921735 0
endloop
endfacet
facet normal 0.9333456062030595 -0.35897907930886913 0
outer loop
vertex -64.130421740694 21.50032246134091 0
vertex -50.434564156624454 57.109552179921735 0
vertex -50.434564156624454 57.109552179921735 1.6
endloop
endfacet
facet normal 0.9333456062030595 -0.35897907930886913 0
outer loop
vertex -64.130421740694 21.50032246134091 0
vertex -50.434564156624454 57.109552179921735 1.6
vertex -64.130421740694 21.50032246134091 1.6
endloop
endfacet
facet normal -0.7399400733959439 0.6726727939963122 0
outer loop
vertex -50.434564156624454 57.109552179921735 0
vertex -64.130421740694 42.04410883744522 0
vertex -64.130421740694 42.04410883744522 1.6
endloop
endfacet
facet normal -0.7399400733959439 0.6726727939963122 0
outer loop
vertex -50.434564156624454 57.109552179921735 0
vertex -64.130421740694 42.04410883744522 1.6
vertex -50.434564156624454 57.109552179921735 1.6
endloop
endfacet
facet normal -1 0 0
outer loop
vertex -64.130421740694 42.04410883744522 0
vertex -64.130421740694 21.50032246134091 0
vertex -64.130421740694 21.50032246134091 1.6
endloop
endfacet
facet normal -1 0 0
outer loop
vertex -64.130421740694 42.04410883744522 0
vertex -64.130421740694 21.50032246134091 1.6
vertex -64.130421740694 42.04410883744522 1.6
endloop
endfacet
facet normal 0 0 1
outer loop
vertex -61.52168696277599 -19.239418987145303 1.6
vertex -34.12997179463691 -39.783205363249614 1.6
vertex -34.12997179463691 -19.239418987145303 1.6
endloop
endfacet
facet normal 0 0 -1
outer loop
vertex -61.52168696277599 -19.239418987145303 0
vertex -34.12997179463691 -19.239418987145303 0
vertex -34.12997179463691 -39.783205363249614 0
endloop
endfacet
facet normal -0.6000000000000001 -0.8 0
outer loop
vertex -61.52168696277599 -19.239418987145303 0
vertex -34.12997179463691 -39.783205363249614 0
vertex -34.12997179463691 -39.783205363249614 1.6
endloop
endfacet
facet normal -0.6000000000000001 -0.8 0
outer loop
vertex -61.52168696277599 -19.239418987145303 0
vertex -34.12997179463691 -39.783205363249614 1.6
vertex -61.52168696277599 -19.239418987145303 1.6
endloop
endfacet
facet normal 1 0 0
outer loop
vertex -34.12997179463691 -39.783205363249614 0
vertex -34.12997179463691 -19.239418987145303 0
vertex -34.12997179463691 -19.239418987145303 1.6
endloop
endfacet
facet normal 1 0 0
outer loop
vertex -34.12997179463691 -39.783205363249614 0
vertex -34.12997179463691 -19.239418987145303 1.6
vertex -34.12997179463691 -39.783205363249614 1.6
endloop
endfacet
facet normal 0 1 0
outer loop
vertex -34.12997179463691 -19.239418987145303 0
vertex -61.52168696277599 -19.239418987145303 0
vertex -61.52168696277599 -19.239418987145303 1.6
endloop
endfacet
facet normal 0 1 0
outer loop
vertex -34.12997179463691 -19.239418987145303 0
vertex -61.52168696277599 -19.239418987145303 1.6
vertex -34.12997179463691 -19.239418987145303 1.6
endloop
endfacet
facet normal 0 0 1
outer loop
vertex -62.39126522208199 -21.50032246134091 1.6
vertex -48.69540763801245 -57.109552179921735 1.6
vertex -34.99955005394291 -42.04410883744522 1.6
endloop
endfacet
facet normal 0 0 -1
outer loop
vertex -62.39126522208199 -21.50032246134091 0
vertex -34.99955005394291 -42.04410883744522 0
vertex -48.69540763801245 -57.109552179921735 0
endloop
endfacet
facet normal -0.9333456062030597 -0.3589790793088691 0
outer loop
vertex -62.39126522208199 -21.50032246134091 0
vertex -48.69540763801245 -57.109552179921735 0
vertex -48.69540763801245 -57.109552179921735 1.6
endloop
endfacet
facet normal -0.9333456062030597 -0.3589790793088691 0
outer loop
vertex -62.39126522208199 -21.50032246134091 0
vertex -48.69540763801245 -57.109552179921735 1.6
vertex -62.39126522208199 -21.50032246134091 1.6
endloop
endfacet
facet normal 0.7399400733959441 -0.6726727939963119 0
outer loop
vertex -48.69540763801245 -57.109552179921735 0
vertex -34.99955005394291 -42.04410883744522 0
vertex -34.99955005394291 -42.04410883744522 1.6
endloop
endfacet
facet normal 0.7399400733959441 -0.6726727939963119 0
outer loop
vertex -48.69540763801245 -57.109552179921735 0
vertex -34.99955005394291 -42.04410883744522 1.6
vertex -48.69540763801245 -57.109552179921735 1.6
endloop
endfacet
facet normal 0.6000000000000001 0.8 0
outer loop
vertex -34.99955005394291 -42.04410883744522 0
vertex -62.39126522208199 -21.50032246134091 0
vertex -62.39126522208199 -21.50032246134091 1.6
endloop
endfacet
facet normal 0.6000000000000001 0.8 0
outer loop
vertex -34.99955005394291 -42.04410883744522 0
vertex -62.39126522208199 -21.50032246134091 1.6
vertex -34.99955005394291 -42.04410883744522 1.6
endloop
endfacet
facet normal 0 0 1
outer loop
vertex -64.13042174069399 -21.50032246134091 1.6
vertex -64.13042174069398 -42.04410883744522 1.6
vertex -50.434564156624454 -57.109552179921735 1.6
endloop
endfacet
facet normal 0 0 -1
outer loop
vertex -64.13042174069399 -21.50032246134091 0
vertex -50.434564156624454 -57.109552179921735 0
vertex -64.13042174069398 -42.04410883744522 0
endloop
endfacet
facet normal -1 -6.917349341079347e-16 0
outer loop
vertex -64.13042174069399 -21.50032246134091 0
vertex -64.13042174069398 -42.04410883744522 0
vertex -64.13042174069398 -42.04410883744522 1.6
endloop
endfacet
facet normal -1 -6.917349341079347e-16 0
outer loop
vertex -64.13042174069399 -21.50032246134091 0
vertex -64.13042174069398 -42.04410883744522 1.6
vertex -64.13042174069399 -21.50032246134091 1.6
endloop
endfacet
facet normal -0.7399400733959447 -0.6726727939963115 0
outer loop
vertex -64.13042174069398 -42.04410883744522 0
vertex -50.434564156624454 -57.109552179921735 0
vertex -50.434564156624454 -57.109552179921735 1.6
endloop
endfacet
facet normal -0.7399400733959447 -0.6726727939963115 0
outer loop
vertex -64.13042174069398 -42.04410883744522 0
vertex -50.434564156624454 -57.109552179921735 1.6
vertex -64.13042174069398 -42.04410883744522 1.6
endloop
endfacet
facet normal 0.9333456062030597 0.35897907930886885 0
outer loop
vertex -50.434564156624454 -57.109552179921735 0
vertex -64.13042174069399 -21.50032246134091 0
vertex -64.13042174069399 -21.50032246134091 1.6
endloop
endfacet
facet normal 0.9333456062030597 0.35897907930886885 0
outer loop
vertex -50.434564156624454 -57.109552179921735 0
vertex -64.13042174069399 -21.50032246134091 1.6
vertex -50.434564156624454 -57.109552179921735 1.6
endloop
endfacet
facet normal 0 0 1
outer loop
vertex -61.52168696277599 16.021979427713095 1.6
vertex -34.12997179463691 -14.108907257239888 1.6
vertex -34.12997179463691 16.021979427713095 1.6
endloop
endfacet
facet normal 0 0 -1
outer loop
vertex -61.52168696277599 16.021979427713095 0
vertex -34.12997179463691 16.021979427713095 0
vertex -34.12997179463691 -14.108907257239888 0
endloop
endfacet
facet normal -0.7399400733959436 -0.6726727939963124 0
outer loop
vertex -61.52168696277599 16.021979427713095 0
vertex -34.12997179463691 -14.108907257239888 0
vertex -34.12997179463691 -14.108907257239888 1.6
endloop
endfacet
facet normal -0.7399400733959436 -0.6726727939963124 0
outer loop
vertex -61.52168696277599 16.021979427713095 0
vertex -34.12997179463691 -14.108907257239888 1.6
vertex -61.52168696277599 16.021979427713095 1.6
endloop
endfacet
facet normal 1 0 0
outer loop
vertex -34.12997179463691 -14.108907257239888 0
vertex -34.12997179463691 16.021979427713095 0
vertex -34.12997179463691 16.021979427713095 1.6
endloop
endfacet
facet normal 1 0 0
outer loop
vertex -34.12997179463691 -14.108907257239888 0
vertex -34.12997179463691 16.021979427713095 1.6
vertex -34.12997179463691 -14.108907257239888 1.6
endloop
endfacet
facet normal 0 1 0
outer loop
vertex -34.12997179463691 16.021979427713095 0
vertex -61.52168696277599 16.021979427713095 0
vertex -61.52168696277599 16.021979427713095 1.6
endloop
endfacet
facet normal 0 1 0
outer loop
vertex -34.12997179463691 16.021979427713095 0
vertex -61.52168696277599 16.021979427713095 1.6
vertex -34.12997179463691 16.021979427713095 1.6
endloop
endfacet
facet normal 0 0 1
outer loop
vertex -63.260843481387994 14.108907257239888 1.6
vertex -63.260843481387994 -16.021979427713095 1.6
vertex -35.869128313248915 -16.021979427713095 1.6
endloop
endfacet
facet normal 0 0 -1
outer loop
vertex -63.260843481387994 14.108907257239888 0
vertex -35.869128313248915 -16.021979427713095 0
vertex -63.260843481387994 -16.021979427713095 0
endloop
endfacet
facet normal -1 0 0
outer loop
vertex -63.260843481387994 14.108907257239888 0
vertex -63.260843481387994 -16.021979427713095 0
vertex -63.260843481387994 -16.021979427713095 1.6
endloop
endfacet
facet normal -1 0 0
outer loop
vertex -63.260843481387994 14.108907257239888 0
vertex -63.260843481387994 -16.021979427713095 1.6
vertex -63.260843481387994 14.108907257239888 1.6
endloop
endfacet
facet normal 0 -1 0
outer loop
vertex -63.260843481387994 -16.021979427713095 0
vertex -35.869128313248915 -16.021979427713095 0
vertex -35.869128313248915 -16.021979427713095 1.6
endloop
endfacet
facet normal 0 -1 0
outer loop
vertex -63.260843481387994 -16.021979427713095 0
vertex -35.869128313248915 -16.021979427713095 1.6
vertex -63.260843481387994 -16.021979427713095 1.6
endloop
endfacet
facet normal 0.7399400733959436 0.6726727939963124 0
outer loop
vertex -35.869128313248915 -16.021979427713095 0
vertex -63.260843481387994 14.108907257239888 0
vertex -63.260843481387994 14.108907257239888 1.6
endloop
endfacet
facet normal 0.7399400733959436 0.6726727939963124 0
outer loop
vertex -35.869128313248915 -16.021979427713095 0
vertex -63.260843481387994 14.108907257239888 1.6
vertex -35.869128313248915 -16.021979427713095 1.6
endloop
endfacet
facet normal 0 0 1
outer loop
vertex -29.782080498106893 16.021979427713095 1.6
vertex -9.238294122002582 -14.108907257239888 1.6
vertex -9.238294122002582 16.021979427713095 1.6
endloop
endfacet
facet normal 0 0 -1
outer loop
vertex -29.782080498106893 16.021979427713095 0
vertex -9.238294122002582 16.021979427713095 0
vertex -9.238294122002582 -14.108907257239888 0
endloop
endfacet
facet normal -0.8262273428075476 -0.5633368246415099 0
outer loop
vertex -29.782080498106893 16.021979427713095 0
vertex -9.238294122002582 -14.108907257239888 0
vertex -9.238294122002582 -14.108907257239888 1.6
endloop
endfacet
facet normal -0.8262273428075476 -0.5633368246415099 0
outer loop
vertex -29.782080498106893 16.021979427713095 0
vertex -9.238294122002582 -14.108907257239888 1.6
vertex -29.782080498106893 16.021979427713095 1.6
endloop
endfacet
facet normal 1 0 0
outer loop
vertex -9.238294122002582 -14.108907257239888 0
vertex -9.238294122002582 16.021979427713095 0
vertex -9.238294122002582 16.021979427713095 1.6
endloop
endfacet
facet normal 1 0 0
outer loop
vertex -9.238294122002582 -14.108907257239888 0
vertex -9.238294122002582 16.021979427713095 1.6
vertex -9.238294122002582 -14.108907257239888 1.6
endloop
endfacet
facet normal 0 1 0
outer loop
vertex -9.238294122002582 16.021979427713095 0
vertex -29.782080498106893 16.021979427713095 0
vertex -29.782080498106893 16.021979427713095 1.6
endloop
endfacet
facet normal 0 1 0
outer loop
vertex -9.238294122002582 16.021979427713095 0
vertex -29.782080498106893 16.021979427713095 1.6
vertex -9.238294122002582 16.021979427713095 1.6
endloop
endfacet
facet normal 0 0 1
outer loop
vertex -31.086447887065898 14.108907257239888 1.6
vertex -31.086447887065898 -16.021979427713095 1.6
vertex -10.542661510961585 -16.021979427713095 1.6
endloop
endfacet
facet normal 0 0 -1
outer loop
vertex -31.086447887065898 14.108907257239888 0
vertex -10.542661510961585 -16.021979427713095 0
vertex -31.086447887065898 -16.021979427713095 0
endloop
endfacet
facet normal -1 0 0
outer loop
vertex -31.086447887065898 14.108907257239888 0
vertex -31.086447887065898 -16.021979427713095 0
vertex -31.086447887065898 -16.021979427713095 1.6
endloop
endfacet
facet normal -1 0 0
outer loop
vertex -31.086447887065898 14.108907257239888 0
vertex -31.086447887065898 -16.021979427713095 1.6
vertex -31.086447887065898 14.108907257239888 1.6
endloop
endfacet
facet normal 0 -1 0
outer loop
vertex -31.086447887065898 -16.021979427713095 0
vertex -10.542661510961585 -16.021979427713095 0
vertex -10.542661510961585 -16.021979427713095 1.6
endloop
endfacet
facet normal 0 -1 0
outer loop
vertex -31.086447887065898 -16.021979427713095 0
vertex -10.542661510961585 -16.021979427713095 1.6
vertex -31.086447887065898 -16.021979427713095 1.6
endloop
endfacet
facet normal 0.8262273428075476 0.5633368246415099 0
outer loop
vertex -10.542661510961585 -16.021979427713095 0
vertex -31.086447887065898 14.108907257239888 0
vertex -31.086447887065898 14.108907257239888 1.6
endloop
endfacet
facet normal 0.8262273428075476 0.5633368246415099 0
outer loop
vertex -10.542661510961585 -16.021979427713095 0
vertex -31.086447887065898 14.108907257239888 1.6
vertex -10.542661510961585 -16.021979427713095 1.6
endloop
endfacet
facet normal 0 0 1
outer loop
vertex -5.3484846962402575 16.02197942771309 1.6
vertex 15.011871343585888 -14.108907257239911 1.6
vertex 15.011871343585863 16.02197942771309 1.6
endloop
endfacet
facet normal 0 0 -1
outer loop
vertex -5.3484846962402575 16.02197942771309 0
vertex 15.011871343585863 16.02197942771309 0
vertex 15.011871343585888 -14.108907257239911 0
endloop
endfacet
facet normal -0.8285679348701803 -0.5598885400729011 0
outer loop
vertex -5.3484846962402575 16.02197942771309 0
vertex 15.011871343585888 -14.108907257239911 0
vertex 15.011871343585888 -14.108907257239911 1.6
endloop
endfacet
facet normal -0.8285679348701803 -0.5598885400729011 0
outer loop
vertex -5.3484846962402575 16.02197942771309 0
vertex 15.011871343585888 -14.108907257239911 1.6
vertex -5.3484846962402575 16.02197942771309 1.6
endloop
endfacet
facet normal 1 8.253655463787854e-16 0
outer loop
vertex 15.011871343585888 -14.108907257239911 0
vertex 15.011871343585863 16.02197942771309 0
vertex 15.011871343585863 16.02197942771309 1.6
endloop
endfacet
facet normal 1 8.253655463787854e-16 0
outer loop
vertex 15.011871343585888 -14.108907257239911 0
vertex 15.011871343585863 16.02197942771309 1.6
vertex 15.011871343585888 -14.108907257239911 1.6
endloop
endfacet
facet normal 0 1 0
outer loop
vertex 15.011871343585863 16.02197942771309 0
vertex -5.3484846962402575 16.02197942771309 0
vertex -5.3484846962402575 16.02197942771309 1.6
endloop
endfacet
facet normal 0 1 0
outer loop
vertex 15.011871343585863 16.02197942771309 0
vertex -5.3484846962402575 16.02197942771309 1.6
vertex 15.011871343585863 16.02197942771309 1.6
endloop
endfacet
facet normal 0 0 1
outer loop
vertex -6.641205714641918 14.108907257239885 1.6
vertex -6.641205714641918 -16.021979427713095 1.6
vertex 13.71915032518423 -16.02197942771312 1.6
endloop
endfacet
facet normal 0 0 -1
outer loop
vertex -6.641205714641918 14.108907257239885 0
vertex 13.71915032518423 -16.02197942771312 0
vertex -6.641205714641918 -16.021979427713095 0
endloop
endfacet
facet normal -1 0 0
outer loop
vertex -6.641205714641918 14.108907257239885 0
vertex -6.641205714641918 -16.021979427713095 0
vertex -6.641205714641918 -16.021979427713095 1.6
endloop
endfacet
facet normal -1 0 0
outer loop
vertex -6.641205714641918 14.108907257239885 0
vertex -6.641205714641918 -16.021979427713095 1.6
vertex -6.641205714641918 14.108907257239885 1.6
endloop
endfacet
facet normal -1.2214420859320029e-15 -1 0
outer loop
vertex -6.641205714641918 -16.021979427713095 0
vertex 13.71915032518423 -16.02197942771312 0
vertex 13.71915032518423 -16.02197942771312 1.6
endloop
endfacet
facet normal -1.2214420859320029e-15 -1 0
outer loop
vertex -6.641205714641918 -16.021979427713095 0
vertex 13.71915032518423 -16.02197942771312 1.6
vertex -6.641205714641918 -16.021979427713095 1.6
endloop
endfacet
facet normal 0.8285679348701803 0.5598885400729012 0
outer loop
vertex 13.71915032518423 -16.02197942771312 0
vertex -6.641205714641918 14.108907257239885 0
vertex -6.641205714641918 14.108907257239885 1.6
endloop
endfacet
facet normal 0.8285679348701803 0.5598885400729012 0
outer loop
vertex 13.71915032518423 -16.02197942771312 0
vertex -6.641205714641918 14.108907257239885 1.6
vertex 13.71915032518423 -16.02197942771312 1.6
endloop
endfacet
facet normal 0 0 1
outer loop
vertex 18.890034398790846 16.02197942771309 1.6
vertex 39.25039043861702 -14.108907257239911 1.6
vertex 39.25039043861702 16.02197942771309 1.6
endloop
endfacet
facet normal 0 0 -1
outer loop
vertex 18.890034398790846 16.02197942771309 0
vertex 39.25039043861702 16.02197942771309 0
vertex 39.25039043861702 -14.108907257239911 0
endloop
endfacet
facet normal -0.82856793487018 -0.5598885400729016 0
outer loop
vertex 18.890034398790846 16.02197942771309 0
vertex 39.25039043861702 -14.108907257239911 0
vertex 39.25039043861702 -14.108907257239911 1.6
endloop
endfacet
facet normal -0.82856793487018 -0.5598885400729016 0
outer loop
vertex 18.890034398790846 16.02197942771309 0
vertex 39.25039043861702 -14.108907257239911 1.6
vertex 18.890034398790846 16.02197942771309 1.6
endloop
endfacet
facet normal 1 0 0
outer loop
vertex 39.25039043861702 -14.108907257239911 0
vertex 39.25039043861702 16.02197942771309 0
vertex 39.25039043861702 16.02197942771309 1.6
endloop
endfacet
facet normal 1 0 0
outer loop
vertex 39.25039043861702 -14.108907257239911 0
vertex 39.25039043861702 16.02197942771309 1.6
vertex 39.25039043861702 -14.108907257239911 1.6
endloop
endfacet
facet normal 0 1 0
outer loop
vertex 39.25039043861702 16.02197942771309 0
vertex 18.890034398790846 16.02197942771309 0
vertex 18.890034398790846 16.02197942771309 1.6
endloop
endfacet
facet normal 0 1 0
outer loop
vertex 39.25039043861702 16.02197942771309 0
vertex 18.890034398790846 16.02197942771309 1.6
vertex 39.25039043861702 16.02197942771309 1.6
endloop
endfacet
facet normal 0 0 1
outer loop
vertex 17.59731338038918 14.108907257239883 1.6
vertex 17.597313380389206 -16.02197942771312 1.6
vertex 37.95766942021535 -16.02197942771312 1.6
endloop
endfacet
facet normal 0 0 -1
outer loop
vertex 17.59731338038918 14.108907257239883 0
vertex 37.95766942021535 -16.02197942771312 0
vertex 17.597313380389206 -16.02197942771312 0
endloop
endfacet
facet normal -1 -8.253655463787854e-16 0
outer loop
vertex 17.59731338038918 14.108907257239883 0
vertex 17.597313380389206 -16.02197942771312 0
vertex 17.597313380389206 -16.02197942771312 1.6
endloop
endfacet
facet normal -1 -8.253655463787854e-16 0
outer loop
vertex 17.59731338038918 14.108907257239883 0
vertex 17.597313380389206 -16.02197942771312 1.6
vertex 17.59731338038918 14.108907257239883 1.6
endloop
endfacet
facet normal 0 -1 0
outer loop
vertex 17.597313380389206 -16.02197942771312 0
vertex 37.95766942021535 -16.02197942771312 0
vertex 37.95766942021535 -16.02197942771312 1.6
endloop
endfacet
facet normal 0 -1 0
outer loop
vertex 17.597313380389206 -16.02197942771312 0
vertex 37.95766942021535 -16.02197942771312 1.6
vertex 17.597313380389206 -16.02197942771312 1.6
endloop
endfacet
facet normal 0.82856793487018 0.5598885400729016 0
outer loop
vertex 37.95766942021535 -16.02197942771312 0
vertex 17.59731338038918 14.108907257239883 0
vertex 17.59731338038918 14.108907257239883 1.6
endloop
endfacet
facet normal 0.82856793487018 0.5598885400729016 0
outer loop
vertex 37.95766942021535 -16.02197942771312 0
vertex 17.59731338038918 14.108907257239883 1.6
vertex 37.95766942021535 -16.02197942771312 1.6
endloop
endfacet
facet normal 0 0 1
outer loop
vertex 43.151846234936684 16.02197942771309 1.6
vertex 63.695632611041 -14.108907257239911 1.6
vertex 63.695632611041 16.02197942771309 1.6
endloop
endfacet
facet normal 0 0 -1
outer loop
vertex 43.151846234936684 16.02197942771309 0
vertex 63.695632611041 16.02197942771309 0
vertex 63.695632611041 -14.108907257239911 0
endloop
endfacet
facet normal -0.8262273428075476 -0.5633368246415095 0
outer loop
vertex 43.151846234936684 16.02197942771309 0
vertex 63.695632611041 -14.108907257239911 0
vertex 63.695632611041 -14.108907257239911 1.6
endloop
endfacet
facet normal -0.8262273428075476 -0.5633368246415095 0
outer loop
vertex 43.151846234936684 16.02197942771309 0
vertex 63.695632611041 -14.108907257239911 1.6
vertex 43.151846234936684 16.02197942771309 1.6
endloop
endfacet
facet normal 1 0 0
outer loop
vertex 63.695632611041 -14.108907257239911 0
vertex 63.695632611041 16.02197942771309 0
vertex 63.695632611041 16.02197942771309 1.6
endloop
endfacet
facet normal 1 0 0
outer loop
vertex 63.695632611041 -14.108907257239911 0
vertex 63.695632611041 16.02197942771309 1.6
vertex 63.695632611041 -14.108907257239911 1.6
endloop
endfacet
facet normal 0 1 0
outer loop
vertex 63.695632611041 16.02197942771309 0
vertex 43.151846234936684 16.02197942771309 0
vertex 43.151846234936684 16.02197942771309 1.6
endloop
endfacet
facet normal 0 1 0
outer loop
vertex 63.695632611041 16.02197942771309 0
vertex 43.151846234936684 16.02197942771309 1.6
vertex 63.695632611041 16.02197942771309 1.6
endloop
endfacet
facet normal 0 0 1
outer loop
vertex 41.847478845977676 14.108907257239883 1.6
vertex 41.847478845977676 -16.02197942771312 1.6
vertex 62.39126522208199 -16.02197942771312 1.6
endloop
endfacet
facet normal 0 0 -1
outer loop
vertex 41.847478845977676 14.108907257239883 0
vertex 62.39126522208199 -16.02197942771312 0
vertex 41.847478845977676 -16.02197942771312 0
endloop
endfacet
facet normal -1 0 0
outer loop
vertex 41.847478845977676 14.108907257239883 0
vertex 41.847478845977676 -16.02197942771312 0
vertex 41.847478845977676 -16.02197942771312 1.6
endloop
endfacet
facet normal -1 0 0
outer loop
vertex 41.847478845977676 14.108907257239883 0
vertex 41.847478845977676 -16.02197942771312 1.6
vertex 41.847478845977676 14.108907257239883 1.6
endloop
endfacet
facet normal 0 -1 0
outer loop
vertex 41.847478845977676 -16.02197942771312 0
vertex 62.39126522208199 -16.02197942771312 0
vertex 62.39126522208199 -16.02197942771312 1.6
endloop
endfacet
facet normal 0 -1 0
outer loop
vertex 41.847478845977676 -16.02197942771312 0
vertex 62.39126522208199 -16.02197942771312 1.6
vertex 41.847478845977676 -16.02197942771312 1.6
endloop
endfacet
facet normal 0.8262273428075476 0.5633368246415095 0
outer loop
vertex 62.39126522208199 -16.02197942771312 0
vertex 41.847478845977676 14.108907257239883 0
vertex 41.847478845977676 14.108907257239883 1.6
endloop
endfacet
facet normal 0.8262273428075476 0.5633368246415095 0
outer loop
vertex 62.39126522208199 -16.02197942771312 0
vertex 41.847478845977676 14.108907257239883 1.6
vertex 62.39126522208199 -16.02197942771312 1.6
endloop
endfacet
facet normal 0 0 -1
outer loop
vertex -53.23112783855256 20.745963321392953 0
vertex -40.41180513986347 13.812381070816542 0
vertex -53.23112783855256 13.812381070816542 0
endloop
endfacet
facet normal 0 0 1
outer loop
vertex -53.23112783855256 20.745963321392953 0
vertex -53.23112783855256 13.812381070816542 0
vertex -40.41180513986347 20.745963321392953 0
endloop
endfacet
facet normal 0 0 -1
outer loop
vertex -53.23112783855256 20.745963321392953 0.5599999999999999
vertex -40.41180513986347 20.745963321392953 0.5599999999999999
vertex -53.23112783855256 13.812381070816542 0.5599999999999999
endloop
endfacet
facet normal 0 0 1
outer loop
vertex -53.23112783855256 20.745963321392953 0.5599999999999999
vertex -53.23112783855256 13.812381070816542 0.5599999999999999
vertex -40.41180513986347 13.812381070816542 0.5599999999999999
endloop
endfacet
facet normal 0 -1 0
outer loop
vertex -53.23112783855256 20.745963321392953 0
vertex -40.41180513986347 20.745963321392953 0
vertex -40.41180513986347 20.745963321392953 0.5599999999999999
endloop
endfacet
facet normal 0 -1 0
outer loop
vertex -53.23112783855256 20.745963321392953 0
vertex -40.41180513986347 20.745963321392953 0.5599999999999999
vertex -53.23112783855256 20.745963321392953 0.5599999999999999
endloop
endfacet
facet normal -0.4757410251031168 0.8795854006484166 0
outer loop
vertex -40.41180513986347 20.745963321392953 0
vertex -53.23112783855256 13.812381070816542 0
vertex -53.23112783855256 13.812381070816542 0.5599999999999999
endloop
endfacet
facet normal -0.4757410251031168 0.8795854006484166 0
outer loop
vertex -40.41180513986347 20.745963321392953 0
vertex -53.23112783855256 13.812381070816542 0.5599999999999999
vertex -40.41180513986347 20.745963321392953 0.5599999999999999
endloop
endfacet
facet normal 0 -1 0
outer loop
vertex -53.23112783855256 13.812381070816542 0
vertex -40.41180513986347 13.812381070816542 0
vertex -40.41180513986347 13.812381070816542 0.5599999999999999
endloop
endfacet
facet normal 0 -1 0
outer loop
vertex -53.23112783855256 13.812381070816542 0
vertex -40.41180513986347 13.812381070816542 0.5599999999999999
vertex -53.23112783855256 13.812381070816542 0.5599999999999999
endloop
endfacet
facet normal 0.4757410251031168 0.8795854006484166 0
outer loop
vertex -40.41180513986347 13.812381070816542 0
vertex -53.23112783855256 20.745963321392953 0
vertex -53.23112783855256 20.745963321392953 0.5599999999999999
endloop
endfacet
facet normal 0.4757410251031168 0.8795854006484166 0
outer loop
vertex -40.41180513986347 13.812381070816542 0
vertex -53.23112783855256 20.745963321392953 0.5599999999999999
vertex -40.41180513986347 13.812381070816542 0.5599999999999999
endloop
endfacet
facet normal 0 0 -1
outer loop
vertex -40.41180513986347 33.56528602008204 0.52
vertex -55.105068987356994 28.823040982956762 0.52
vertex -42.28574628866791 38.43753300697358 0.52
endloop
endfacet
facet normal 0 0 1
outer loop
vertex -40.41180513986347 33.56528602008204 0.52
vertex -42.28574628866791 38.43753300697358 0.52
vertex -53.23112783855256 23.950793996065222 0.52
endloop
endfacet
facet normal 0 0 -1
outer loop
vertex -40.41180513986347 33.56528602008204 1.08
vertex -53.23112783855256 23.950793996065222 1.08
vertex -42.28574628866791 38.43753300697358 1.08
endloop
endfacet
facet normal 0 0 1
outer loop
vertex -40.41180513986347 33.56528602008204 1.08
vertex -42.28574628866791 38.43753300697358 1.08
vertex -55.105068987356994 28.823040982956762 1.08
endloop
endfacet
facet normal -0.6 0.8 0
outer loop
vertex -40.41180513986347 33.56528602008204 0.52
vertex -53.23112783855256 23.950793996065222 0.52
vertex -53.23112783855256 23.950793996065222 1.08
endloop
endfacet
facet normal -0.6 0.8 0
outer loop
vertex -40.41180513986347 33.56528602008204 0.52
vertex -53.23112783855256 23.950793996065222 1.08
vertex -40.41180513986347 33.56528602008204 1.08
endloop
endfacet
facet normal 0.7978714191138612 -0.6028276690408573 0
outer loop
vertex -53.23112783855256 23.950793996065222 0.52
vertex -42.28574628866791 38.43753300697358 0.52
vertex -42.28574628866791 38.43753300697358 1.08
endloop
endfacet
facet normal 0.7978714191138612 -0.6028276690408573 0
outer loop
vertex -53.23112783855256 23.950793996065222 0.52
vertex -42.28574628866791 38.43753300697358 1.08
vertex -53.23112783855256 23.950793996065222 1.08
endloop
endfacet
facet normal -0.6000000000000002 0.7999999999999998 0
outer loop
vertex -42.28574628866791 38.43753300697358 0.52
vertex -55.105068987356994 28.823040982956762 0.52
vertex -55.105068987356994 28.823040982956762 1.08
endloop
endfacet
facet normal -0.6000000000000002 0.7999999999999998 0
outer loop
vertex -42.28574628866791 38.43753300697358 0.52
vertex -55.105068987356994 28.823040982956762 1.08
vertex -42.28574628866791 38.43753300697358 1.08
endloop
endfacet
facet normal 0.30714841024682044 -0.9516616279344516 0
outer loop
vertex -55.105068987356994 28.823040982956762 0.52
vertex -40.41180513986347 33.56528602008204 0.52
vertex -40.41180513986347 33.56528602008204 1.08
endloop
endfacet
facet normal 0.30714841024682044 -0.9516616279344516 0
outer loop
vertex -55.105068987356994 28.823040982956762 0.52
vertex -40.41180513986347 33.56528602008204 1.08
vertex -55.105068987356994 28.823040982956762 1.08
endloop
endfacet
facet normal 0 0 -1
outer loop
vertex -50.8319614211273 47.83836965267892 0.52
vertex -60.98950506808072 31.173250144383093 0.52
vertex -54.57984371873617 47.83836965267892 0.52
endloop
endfacet
facet normal 0 0 1
outer loop
vertex -50.8319614211273 47.83836965267892 0.52
vertex -54.57984371873617 47.83836965267892 0.52
vertex -57.24162277047185 31.173250144383097 0.52
endloop
endfacet
facet normal 0 0 -1
outer loop
vertex -50.8319614211273 47.83836965267892 1.08
vertex -57.24162277047185 31.173250144383097 1.08
vertex -54.57984371873617 47.83836965267892 1.08
endloop
endfacet
facet normal 0 0 1
outer loop
vertex -50.8319614211273 47.83836965267892 1.08
vertex -54.57984371873617 47.83836965267892 1.08
vertex -60.98950506808072 31.173250144383093 1.08
endloop
endfacet
facet normal -0.9333456062030595 0.358979079308869 0
outer loop
vertex -50.8319614211273 47.83836965267892 0.52
vertex -57.24162277047185 31.173250144383097 0.52
vertex -57.24162277047185 31.173250144383097 1.08
endloop
endfacet
facet normal -0.9333456062030595 0.358979079308869 0
outer loop
vertex -50.8319614211273 47.83836965267892 0.52
vertex -57.24162277047185 31.173250144383097 1.08
vertex -50.8319614211273 47.83836965267892 1.08
endloop
endfacet
facet normal 0.9874834886690839 -0.15772241313755933 0
outer loop
vertex -57.24162277047185 31.173250144383097 0.52
vertex -54.57984371873617 47.83836965267892 0.52
vertex -54.57984371873617 47.83836965267892 1.08
endloop
endfacet
facet normal 0.9874834886690839 -0.15772241313755933 0
outer loop
vertex -57.24162277047185 31.173250144383097 0.52
vertex -54.57984371873617 47.83836965267892 1.08
vertex -57.24162277047185 31.173250144383097 1.08
endloop
endfacet
facet normal -0.9333456062030597 0.3589790793088689 0
outer loop
vertex -54.57984371873617 47.83836965267892 0.52
vertex -60.98950506808072 31.173250144383093 0.52
vertex -60.98950506808072 31.173250144383093 1.08
endloop
endfacet
facet normal -0.9333456062030597 0.3589790793088689 0
outer loop
vertex -54.57984371873617 47.83836965267892 0.52
vertex -60.98950506808072 31.173250144383093 1.08
vertex -54.57984371873617 47.83836965267892 1.08
endloop
endfacet
facet normal 0.8538898716605267 -0.520453731925874 0
outer loop
vertex -60.98950506808072 31.173250144383093 0.52
vertex -50.8319614211273 47.83836965267892 0.52
vertex -50.8319614211273 47.83836965267892 1.08
endloop
endfacet
facet normal 0.8538898716605267 -0.520453731925874 0
outer loop
vertex -60.98950506808072 31.173250144383093 0.52
vertex -50.8319614211273 47.83836965267892 1.08
vertex -60.98950506808072 31.173250144383093 1.08
endloop
endfacet
facet normal 0 0 -1
outer loop
vertex -53.23112783855256 -23.950793996065226 0.52
vertex -42.28574628866791 -38.43753300697358 0.52
vertex -55.105068987356994 -28.82304098295676 0.52
endloop
endfacet
facet normal 0 0 1
outer loop
vertex -53.23112783855256 -23.950793996065226 0.52
vertex -55.105068987356994 -28.82304098295676 0.52
vertex -40.41180513986347 -33.56528602008204 0.52
endloop
endfacet
facet normal 0 0 -1
outer loop
vertex -53.23112783855256 -23.950793996065226 1.08
vertex -40.41180513986347 -33.56528602008204 1.08
vertex -55.105068987356994 -28.82304098295676 1.08
endloop
endfacet
facet normal 0 0 1
outer loop
vertex -53.23112783855256 -23.950793996065226 1.08
vertex -55.105068987356994 -28.82304098295676 1.08
vertex -42.28574628866791 -38.43753300697358 1.08
endloop
endfacet
facet normal -0.5999999999999999 -0.8000000000000002 0
outer loop
vertex -53.23112783855256 -23.950793996065226 0.52
vertex -40.41180513986347 -33.56528602008204 0.52
vertex -40.41180513986347 -33.56528602008204 1.08
endloop
endfacet
facet normal -0.5999999999999999 -0.8000000000000002 0
outer loop
vertex -53.23112783855256 -23.950793996065226 0.52
vertex -40.41180513986347 -33.56528602008204 1.08
vertex -53.23112783855256 -23.950793996065226 1.08
endloop
endfacet
facet normal 0.3071484102468207 0.9516616279344516 0
outer loop
vertex -40.41180513986347 -33.56528602008204 0.52
vertex -55.105068987356994 -28.82304098295676 0.52
vertex -55.105068987356994 -28.82304098295676 1.08
endloop
endfacet
facet normal 0.3071484102468207 0.9516616279344516 0
outer loop
vertex -40.41180513986347 -33.56528602008204 0.52
vertex -55.105068987356994 -28.82304098295676 1.08
vertex -40.41180513986347 -33.56528602008204 1.08
endloop
endfacet
facet normal -0.6000000000000003 -0.7999999999999997 0
outer loop
vertex -55.105068987356994 -28.82304098295676 0.52
vertex -42.28574628866791 -38.43753300697358 0.52
vertex -42.28574628866791 -38.43753300697358 1.08
endloop
endfacet
facet normal -0.6000000000000003 -0.7999999999999997 0
outer loop
vertex -55.105068987356994 -28.82304098295676 0.52
vertex -42.28574628866791 -38.43753300697358 1.08
vertex -55.105068987356994 -28.82304098295676 1.08
endloop
endfacet
facet normal 0.797871419113861 0.6028276690408573 0
outer loop
vertex -42.28574628866791 -38.43753300697358 0.52
vertex -53.23112783855256 -23.950793996065226 0.52
vertex -53.23112783855256 -23.950793996065226 1.08
endloop
endfacet
facet normal 0.797871419113861 0.6028276690408573 0
outer loop
vertex -42.28574628866791 -38.43753300697358 0.52
vertex -53.23112783855256 -23.950793996065226 1.08
vertex -42.28574628866791 -38.43753300697358 1.08
endloop
endfacet
facet normal 0 0 -1
outer loop
vertex -40.41180513986347 -20.745963321392953 0
vertex -56.979010136161435 -13.812381070816542 0
vertex -44.15968743747234 -13.812381070816542 0
endloop
endfacet
facet normal 0 0 1
outer loop
vertex -40.41180513986347 -20.745963321392953 0
vertex -44.15968743747234 -13.812381070816542 0
vertex -53.23112783855256 -20.745963321392953 0
endloop
endfacet
facet normal 0 0 -1
outer loop
vertex -40.41180513986347 -20.745963321392953 0.5599999999999999
vertex -53.23112783855256 -20.745963321392953 0.5599999999999999
vertex -44.15968743747234 -13.812381070816542 0.5599999999999999
endloop
endfacet
facet normal 0 0 1
outer loop
vertex -40.41180513986347 -20.745963321392953 0.5599999999999999
vertex -44.15968743747234 -13.812381070816542 0.5599999999999999
vertex -56.979010136161435 -13.812381070816542 0.5599999999999999
endloop
endfacet
facet normal 0 1 0
outer loop
vertex -40.41180513986347 -20.745963321392953 0
vertex -53.23112783855256 -20.745963321392953 0
vertex -53.23112783855256 -20.745963321392953 0.5599999999999999
endloop
endfacet
facet normal 0 1 0
outer loop
vertex -40.41180513986347 -20.745963321392953 0
vertex -53.23112783855256 -20.745963321392953 0.5599999999999999
vertex -40.41180513986347 -20.745963321392953 0.5599999999999999
endloop
endfacet
facet normal 0.6072621016337453 -0.7945015669709952 0
outer loop
vertex -53.23112783855256 -20.745963321392953 0
vertex -44.15968743747234 -13.812381070816542 0
vertex -44.15968743747234 -13.812381070816542 0.5599999999999999
endloop
endfacet
facet normal 0.6072621016337453 -0.7945015669709952 0
outer loop
vertex -53.23112783855256 -20.745963321392953 0
vertex -44.15968743747234 -13.812381070816542 0.5599999999999999
vertex -53.23112783855256 -20.745963321392953 0.5599999999999999
endloop
endfacet
facet normal 0 1 0
outer loop
vertex -44.15968743747234 -13.812381070816542 0
vertex -56.979010136161435 -13.812381070816542 0
vertex -56.979010136161435 -13.812381070816542 0.5599999999999999
endloop
endfacet
facet normal 0 1 0
outer loop
vertex -44.15968743747234 -13.812381070816542 0
vertex -56.979010136161435 -13.812381070816542 0.5599999999999999
vertex -44.15968743747234 -13.812381070816542 0.5599999999999999
endloop
endfacet
facet normal -0.38606574869589305 -0.9224712665898487 0
outer loop
vertex -56.979010136161435 -13.812381070816542 0
vertex -40.41180513986347 -20.745963321392953 0
vertex -40.41180513986347 -20.745963321392953 0.5599999999999999
endloop
endfacet
facet normal -0.38606574869589305 -0.9224712665898487 0
outer loop
vertex -56.979010136161435 -13.812381070816542 0
vertex -40.41180513986347 -20.745963321392953 0.5599999999999999
vertex -56.979010136161435 -13.812381070816542 0.5599999999999999
endloop
endfacet
facet normal 0 0 -1
outer loop
vertex -57.24162277047184 -31.173250144383093 0.52
vertex -54.579843718736164 -47.83836965267892 0.52
vertex -60.98950506808071 -31.173250144383097 0.52
endloop
endfacet
facet normal 0 0 1
outer loop
vertex -57.24162277047184 -31.173250144383093 0.52
vertex -60.98950506808071 -31.173250144383097 0.52
vertex -50.831961421127296 -47.83836965267892 0.52
endloop
endfacet
facet normal 0 0 -1
outer loop
vertex -57.24162277047184 -31.173250144383093 1.08
vertex -50.831961421127296 -47.83836965267892 1.08
vertex -60.98950506808071 -31.173250144383097 1.08
endloop
endfacet
facet normal 0 0 1
outer loop
vertex -57.24162277047184 -31.173250144383093 1.08
vertex -60.98950506808071 -31.173250144383097 1.08
vertex -54.579843718736164 -47.83836965267892 1.08
endloop
endfacet
facet normal -0.9333456062030597 -0.3589790793088689 0
outer loop
vertex -57.24162277047184 -31.173250144383093 0.52
vertex -50.831961421127296 -47.83836965267892 0.52
vertex -50.831961421127296 -47.83836965267892 1.08
endloop
endfacet
facet normal -0.9333456062030597 -0.3589790793088689 0
outer loop
vertex -57.24162277047184 -31.173250144383093 0.52
vertex -50.831961421127296 -47.83836965267892 1.08
vertex -57.24162277047184 -31.173250144383093 1.08
endloop
endfacet
facet normal 0.8538898716605265 0.520453731925874 0
outer loop
vertex -50.831961421127296 -47.83836965267892 0.52
vertex -60.98950506808071 -31.173250144383097 0.52
vertex -60.98950506808071 -31.173250144383097 1.08
endloop
endfacet
facet normal 0.8538898716605265 0.520453731925874 0
outer loop
vertex -50.831961421127296 -47.83836965267892 0.52
vertex -60.98950506808071 -31.173250144383097 1.08
vertex -50.831961421127296 -47.83836965267892 1.08
endloop
endfacet
facet normal -0.9333456062030595 -0.358979079308869 0
outer loop
vertex -60.98950506808071 -31.173250144383097 0.52
vertex -54.579843718736164 -47.83836965267892 0.52
vertex -54.579843718736164 -47.83836965267892 1.08
endloop
endfacet
facet normal -0.9333456062030595 -0.358979079308869 0
outer loop
vertex -60.98950506808071 -31.173250144383097 0.52
vertex -54.579843718736164 -47.83836965267892 1.08
vertex -60.98950506808071 -31.173250144383097 1.08
endloop
endfacet
facet normal 0.9874834886690839 0.15772241313755928 0
outer loop
vertex -54.579843718736164 -47.83836965267892 0.52
vertex -57.24162277047184 -31.173250144383093 0.52
vertex -57.24162277047184 -31.173250144383093 1.08
endloop
endfacet
facet normal 0.9874834886690839 0.15772241313755928 0
outer loop
vertex -54.579843718736164 -47.83836965267892 0.52
vertex -57.24162277047184 -31.173250144383093 1.08
vertex -54.579843718736164 -47.83836965267892 1.08
endloop
endfacet
facet normal 0 0 -1
outer loop
vertex -53.23112783855256 9.111962747963878 0.52
vertex -44.15968743747234 -9.111962747963878 0.52
vertex -56.979010136161435 4.98929222059412 0.52
endloop
endfacet
facet normal 0 0 1
outer loop
vertex -53.23112783855256 9.111962747963878 0.52
vertex -56.979010136161435 4.98929222059412 0.52
vertex -40.41180513986347 -4.98929222059412 0.52
endloop
endfacet
facet normal 0 0 -1
outer loop
vertex -53.23112783855256 9.111962747963878 1.08
vertex -40.41180513986347 -4.98929222059412 1.08
vertex -56.979010136161435 4.98929222059412 1.08
endloop
endfacet
facet normal 0 0 1
outer loop
vertex -53.23112783855256 9.111962747963878 1.08
vertex -56.979010136161435 4.98929222059412 1.08
vertex -44.15968743747234 -9.111962747963878 1.08
endloop
endfacet
facet normal -0.7399400733959436 -0.6726727939963126 0
outer loop
vertex -53.23112783855256 9.111962747963878 0.52
vertex -40.41180513986347 -4.98929222059412 0.52
vertex -40.41180513986347 -4.98929222059412 1.08
endloop
endfacet
facet normal -0.7399400733959436 -0.6726727939963126 0
outer loop
vertex -53.23112783855256 9.111962747963878 0.52
vertex -40.41180513986347 -4.98929222059412 1.08
vertex -53.23112783855256 9.111962747963878 1.08
endloop
endfacet
facet normal 0.5159496729392875 0.856618897172974 0
outer loop
vertex -40.41180513986347 -4.98929222059412 0.52
vertex -56.979010136161435 4.98929222059412 0.52
vertex -56.979010136161435 4.98929222059412 1.08
endloop
endfacet
facet normal 0.5159496729392875 0.856618897172974 0
outer loop
vertex -40.41180513986347 -4.98929222059412 0.52
vertex -56.979010136161435 4.98929222059412 1.08
vertex -40.41180513986347 -4.98929222059412 1.08
endloop
endfacet
facet normal -0.7399400733959436 -0.6726727939963126 0
outer loop
vertex -56.979010136161435 4.98929222059412 0.52
vertex -44.15968743747234 -9.111962747963878 0.52
vertex -44.15968743747234 -9.111962747963878 1.08
endloop
endfacet
facet normal -0.7399400733959436 -0.6726727939963126 0
outer loop
vertex -56.979010136161435 4.98929222059412 0.52
vertex -44.15968743747234 -9.111962747963878 1.08
vertex -56.979010136161435 4.98929222059412 1.08
endloop
endfacet
facet normal 0.8952220122603853 0.4456204088284856 0
outer loop
vertex -44.15968743747234 -9.111962747963878 0.52
vertex -53.23112783855256 9.111962747963878 0.52
vertex -53.23112783855256 9.111962747963878 1.08
endloop
endfacet
facet normal 0.8952220122603853 0.4456204088284856 0
outer loop
vertex -44.15968743747234 -9.111962747963878 0.52
vertex -53.23112783855256 9.111962747963878 1.08
vertex -44.15968743747234 -9.111962747963878 1.08
endloop
endfacet
facet normal 0 0 -1
outer loop
vertex -36.13869757363377 -4.98929222059412 0
vertex -29.579903552818248 4.98929222059412 0
vertex -29.579903552818248 -9.111962747963878 0
endloop
endfacet
facet normal 0 0 1
outer loop
vertex -36.13869757363377 -4.98929222059412 0
vertex -29.579903552818248 -9.111962747963878 0
vertex -36.13869757363377 9.111962747963878 0
endloop
endfacet
facet normal 0 0 -1
outer loop
vertex -36.13869757363377 -4.98929222059412 0.5599999999999999
vertex -36.13869757363377 9.111962747963878 0.5599999999999999
vertex -29.579903552818248 -9.111962747963878 0.5599999999999999
endloop
endfacet
facet normal 0 0 1
outer loop
vertex -36.13869757363377 -4.98929222059412 0.5599999999999999
vertex -29.579903552818248 -9.111962747963878 0.5599999999999999
vertex -29.579903552818248 4.98929222059412 0.5599999999999999
endloop
endfacet
facet normal 1 0 0
outer loop
vertex -36.13869757363377 -4.98929222059412 0
vertex -36.13869757363377 9.111962747963878 0
vertex -36.13869757363377 9.111962747963878 0.5599999999999999
endloop
endfacet
facet normal 1 0 0
outer loop
vertex -36.13869757363377 -4.98929222059412 0
vertex -36.13869757363377 9.111962747963878 0.5599999999999999
vertex -36.13869757363377 -4.98929222059412 0.5599999999999999
endloop
endfacet
facet normal -0.9409173417093171 -0.3386363182983663 0
outer loop
vertex -36.13869757363377 9.111962747963878 0
vertex -29.579903552818248 -9.111962747963878 0
vertex -29.579903552818248 -9.111962747963878 0.5599999999999999
endloop
endfacet
facet normal -0.9409173417093171 -0.3386363182983663 0
outer loop
vertex -36.13869757363377 9.111962747963878 0
vertex -29.579903552818248 -9.111962747963878 0.5599999999999999
vertex -36.13869757363377 9.111962747963878 0.5599999999999999
endloop
endfacet
facet normal 1 0 0
outer loop
vertex -29.579903552818248 -9.111962747963878 0
vertex -29.579903552818248 4.98929222059412 0
vertex -29.579903552818248 4.98929222059412 0.5599999999999999
endloop
endfacet
facet normal 1 0 0
outer loop
vertex -29.579903552818248 -9.111962747963878 0
vertex -29.579903552818248 4.98929222059412 0.5599999999999999
vertex -29.579903552818248 -9.111962747963878 0.5599999999999999
endloop
endfacet
facet normal -0.8356501861698503 0.5492620197631497 0
outer loop
vertex -29.579903552818248 4.98929222059412 0
vertex -36.13869757363377 -4.98929222059412 0
vertex -36.13869757363377 -4.98929222059412 0.5599999999999999
endloop
endfacet
facet normal -0.8356501861698503 0.5492620197631497 0
outer loop
vertex -29.579903552818248 4.98929222059412 0
vertex -36.13869757363377 -4.98929222059412 0.5599999999999999
vertex -29.579903552818248 4.98929222059412 0.5599999999999999
endloop
endfacet
facet normal 0 0 -1
outer loop
vertex -23.56416115493932 9.111962747963878 0.52
vertex -16.760580854129156 -9.111962747963878 0.52
vertex -26.375072878145975 4.98929222059412 0.52
endloop
endfacet
facet normal 0 0 1
outer loop
vertex -23.56416115493932 9.111962747963878 0.52
vertex -26.375072878145975 4.98929222059412 0.52
vertex -13.949669130922503 -4.98929222059412 0.52
endloop
endfacet
facet normal 0 0 -1
outer loop
vertex -23.56416115493932 9.111962747963878 1.08
vertex -13.949669130922503 -4.98929222059412 1.08
vertex -26.375072878145975 4.98929222059412 1.08
endloop
endfacet
facet normal 0 0 1
outer loop
vertex -23.56416115493932 9.111962747963878 1.08
vertex -26.375072878145975 4.98929222059412 1.08
vertex -16.760580854129156 -9.111962747963878 1.08
endloop
endfacet
facet normal -0.8262273428075477 -0.5633368246415099 0
outer loop
vertex -23.56416115493932 9.111962747963878 0.52
vertex -13.949669130922503 -4.98929222059412 0.52
vertex -13.949669130922503 -4.98929222059412 1.08
endloop
endfacet
facet normal -0.8262273428075477 -0.5633368246415099 0
outer loop
vertex -23.56416115493932 9.111962747963878 0.52
vertex -13.949669130922503 -4.98929222059412 1.08
vertex -23.56416115493932 9.111962747963878 1.08
endloop
endfacet
facet normal 0.6261579205915505 0.7796962603991797 0
outer loop
vertex -13.949669130922503 -4.98929222059412 0.52
vertex -26.375072878145975 4.98929222059412 0.52
vertex -26.375072878145975 4.98929222059412 1.08
endloop
endfacet
facet normal 0.6261579205915505 0.7796962603991797 0
outer loop
vertex -13.949669130922503 -4.98929222059412 0.52
vertex -26.375072878145975 4.98929222059412 1.08
vertex -13.949669130922503 -4.98929222059412 1.08
endloop
endfacet
facet normal -0.8262273428075477 -0.56333682464151 0
outer loop
vertex -26.375072878145975 4.98929222059412 0.52
vertex -16.760580854129156 -9.111962747963878 0.52
vertex -16.760580854129156 -9.111962747963878 1.08
endloop
endfacet
facet normal -0.8262273428075477 -0.56333682464151 0
outer loop
vertex -26.375072878145975 4.98929222059412 0.52
vertex -16.760580854129156 -9.111962747963878 1.08
vertex -26.375072878145975 4.98929222059412 1.08
endloop
endfacet
facet normal 0.936841827205926 0.349753328500905 0
outer loop
vertex -16.760580854129156 -9.111962747963878 0.52
vertex -23.56416115493932 9.111962747963878 0.52
vertex -23.56416115493932 9.111962747963878 1.08
endloop
endfacet
facet normal 0.936841827205926 0.349753328500905 0
outer loop
vertex -16.760580854129156 -9.111962747963878 0.52
vertex -23.56416115493932 9.111962747963878 1.08
vertex -16.760580854129156 -9.111962747963878 1.08
endloop
endfacet
facet normal 0 0 -1
outer loop
vertex -10.744838456250232 -4.98929222059412 0
vertex -5.148112938388001 4.989292220594114 0
vertex -5.148112938388001 -9.11196274796388 0
endloop
endfacet
facet normal 0 0 1
outer loop
vertex -10.744838456250232 -4.98929222059412 0
vertex -5.148112938388001 -9.11196274796388 0
vertex -10.744838456250232 9.111962747963878 0
endloop
endfacet
facet normal 0 0 -1
outer loop
vertex -10.744838456250232 -4.98929222059412 0.5599999999999999
vertex -10.744838456250232 9.111962747963878 0.5599999999999999
vertex -5.148112938388001 -9.11196274796388 0.5599999999999999
endloop
endfacet
facet normal 0 0 1
outer loop
vertex -10.744838456250232 -4.98929222059412 0.5599999999999999
vertex -5.148112938388001 -9.11196274796388 0.5599999999999999
vertex -5.148112938388001 4.989292220594114 0.5599999999999999
endloop
endfacet
facet normal 1 0 0
outer loop
vertex -10.744838456250232 -4.98929222059412 0
vertex -10.744838456250232 9.111962747963878 0
vertex -10.744838456250232 9.111962747963878 0.5599999999999999
endloop
endfacet
facet normal 1 0 0
outer loop
vertex -10.744838456250232 -4.98929222059412 0
vertex -10.744838456250232 9.111962747963878 0.5599999999999999
vertex -10.744838456250232 -4.98929222059412 0.5599999999999999
endloop
endfacet
facet normal -0.9559356936673726 -0.2935761393108762 0
outer loop
vertex -10.744838456250232 9.111962747963878 0
vertex -5.148112938388001 -9.11196274796388 0
vertex -5.148112938388001 -9.11196274796388 0.5599999999999999
endloop
endfacet
facet normal -0.9559356936673726 -0.2935761393108762 0
outer loop
vertex -10.744838456250232 9.111962747963878 0
vertex -5.148112938388001 -9.11196274796388 0.5599999999999999
vertex -10.744838456250232 9.111962747963878 0.5599999999999999
endloop
endfacet
facet normal 1 0 0
outer loop
vertex -5.148112938388001 -9.11196274796388 0
vertex -5.148112938388001 4.989292220594114 0
vertex -5.148112938388001 4.989292220594114 0.5599999999999999
endloop
endfacet
facet normal 1 0 0
outer loop
vertex -5.148112938388001 -9.11196274796388 0
vertex -5.148112938388001 4.989292220594114 0.5599999999999999
vertex -5.148112938388001 -9.11196274796388 0.5599999999999999
endloop
endfacet
facet normal -0.8721809670864397 0.48918336097230747 0
outer loop
vertex -5.148112938388001 4.989292220594114 0
vertex -10.744838456250232 -4.98929222059412 0
vertex -10.744838456250232 -4.98929222059412 0.5599999999999999
endloop
endfacet
facet normal -0.8721809670864397 0.48918336097230747 0
outer loop
vertex -5.148112938388001 4.989292220594114 0
vertex -10.744838456250232 -4.98929222059412 0.5599999999999999
vertex -5.148112938388001 4.989292220594114 0.5599999999999999
endloop
endfacet
facet normal 0 0 -1
outer loop
vertex 0.8139163984804543 9.111962747963869 0.52
vertex 7.556749230463517 -9.111962747963895 0.52
vertex -1.9718973961751227 4.989292220594112 0.52
endloop
endfacet
facet normal 0 0 1
outer loop
vertex 0.8139163984804543 9.111962747963869 0.52
vertex -1.9718973961751227 4.989292220594112 0.52
vertex 10.342563025119091 -4.989292220594138 0.52
endloop
endfacet
facet normal 0 0 -1
outer loop
vertex 0.8139163984804543 9.111962747963869 1.08
vertex 10.342563025119091 -4.989292220594138 1.08
vertex -1.9718973961751227 4.989292220594112 1.08
endloop
endfacet
facet normal 0 0 1
outer loop
vertex 0.8139163984804543 9.111962747963869 1.08
vertex -1.9718973961751227 4.989292220594112 1.08
vertex 7.556749230463517 -9.111962747963895 1.08
endloop
endfacet
facet normal -0.8285679348701804 -0.5598885400729011 0
outer loop
vertex 0.8139163984804543 9.111962747963869 0.52
vertex 10.342563025119091 -4.989292220594138 0.52
vertex 10.342563025119091 -4.989292220594138 1.08
endloop
endfacet
facet normal -0.8285679348701804 -0.5598885400729011 0
outer loop
vertex 0.8139163984804543 9.111962747963869 0.52
vertex 10.342563025119091 -4.989292220594138 1.08
vertex 0.8139163984804543 9.111962747963869 1.08
endloop
endfacet
facet normal 0.6295692218194121 0.7769443962972511 0
outer loop
vertex 10.342563025119091 -4.989292220594138 0.52
vertex -1.9718973961751227 4.989292220594112 0.52
vertex -1.9718973961751227 4.989292220594112 1.08
endloop
endfacet
facet normal 0.6295692218194121 0.7769443962972511 0
outer loop
vertex 10.342563025119091 -4.989292220594138 0.52
vertex -1.9718973961751227 4.989292220594112 1.08
vertex 10.342563025119091 -4.989292220594138 1.08
endloop
endfacet
facet normal -0.8285679348701802 -0.5598885400729012 0
outer loop
vertex -1.9718973961751227 4.989292220594112 0.52
vertex 7.556749230463517 -9.111962747963895 0.52
vertex 7.556749230463517 -9.111962747963895 1.08
endloop
endfacet
facet normal -0.8285679348701802 -0.5598885400729012 0
outer loop
vertex -1.9718973961751227 4.989292220594112 0.52
vertex 7.556749230463517 -9.111962747963895 1.08
vertex -1.9718973961751227 4.989292220594112 1.08
endloop
endfacet
facet normal 0.9378621709771762 0.3470079945044175 0
outer loop
vertex 7.556749230463517 -9.111962747963895 0.52
vertex 0.8139163984804543 9.111962747963869 0.52
vertex 0.8139163984804543 9.111962747963869 1.08
endloop
endfacet
facet normal 0.9378621709771762 0.3470079945044175 0
outer loop
vertex 7.556749230463517 -9.111962747963895 0.52
vertex 0.8139163984804543 9.111962747963869 1.08
vertex 7.556749230463517 -9.111962747963895 1.08
endloop
endfacet
facet normal 0 0 -1
outer loop
vertex 13.518778567331964 -4.989292220594136 0
vertex 19.090406156643105 4.989292220594107 0
vertex 19.09040615664312 -9.1119627479639 0
endloop
endfacet
facet normal 0 0 1
outer loop
vertex 13.518778567331964 -4.989292220594136 0
vertex 19.09040615664312 -9.1119627479639 0
vertex 13.518778567331953 9.111962747963872 0
endloop
endfacet
facet normal 0 0 -1
outer loop
vertex 13.518778567331964 -4.989292220594136 0.5599999999999999
vertex 13.518778567331953 9.111962747963872 0.5599999999999999
vertex 19.09040615664312 -9.1119627479639 0.5599999999999999
endloop
endfacet
facet normal 0 0 1
outer loop
vertex 13.518778567331964 -4.989292220594136 0.5599999999999999
vertex 19.09040615664312 -9.1119627479639 0.5599999999999999
vertex 19.090406156643105 4.989292220594107 0.5599999999999999
endloop
endfacet
facet normal 1 7.558292549256275e-16 0
outer loop
vertex 13.518778567331964 -4.989292220594136 0
vertex 13.518778567331953 9.111962747963872 0
vertex 13.518778567331953 9.111962747963872 0.5599999999999999
endloop
endfacet
facet normal 1 7.558292549256275e-16 0
outer loop
vertex 13.518778567331964 -4.989292220594136 0
vertex 13.518778567331953 9.111962747963872 0.5599999999999999
vertex 13.518778567331964 -4.989292220594136 0.5599999999999999
endloop
endfacet
facet normal -0.9563045442681674 -0.29237239714455426 0
outer loop
vertex 13.518778567331953 9.111962747963872 0
vertex 19.09040615664312 -9.1119627479639 0
vertex 19.09040615664312 -9.1119627479639 0.5599999999999999
endloop
endfacet
facet normal -0.9563045442681674 -0.29237239714455426 0
outer loop
vertex 13.518778567331953 9.111962747963872 0
vertex 19.09040615664312 -9.1119627479639 0.5599999999999999
vertex 13.518778567331953 9.111962747963872 0.5599999999999999
endloop
endfacet
facet normal 1 1.0077723399008368e-15 0
outer loop
vertex 19.09040615664312 -9.1119627479639 0
vertex 19.090406156643105 4.989292220594107 0
vertex 19.090406156643105 4.989292220594107 0.5599999999999999
endloop
endfacet
facet normal 1 1.0077723399008368e-15 0
outer loop
vertex 19.09040615664312 -9.1119627479639 0
vertex 19.090406156643105 4.989292220594107 0.5599999999999999
vertex 19.09040615664312 -9.1119627479639 0.5599999999999999
endloop
endfacet
facet normal -0.8731163235526175 0.4875119337472274 0
outer loop
vertex 19.090406156643105 4.989292220594107 0
vertex 13.518778567331964 -4.989292220594136 0
vertex 13.518778567331964 -4.989292220594136 0.5599999999999999
endloop
endfacet
facet normal -0.8731163235526175 0.4875119337472274 0
outer loop
vertex 19.090406156643105 4.989292220594107 0
vertex 13.518778567331964 -4.989292220594136 0.5599999999999999
vertex 19.090406156643105 4.989292220594107 0.5599999999999999
endloop
endfacet
facet normal 0 0 -1
outer loop
vertex 25.052435493511567 9.111962747963869 0.52
vertex 31.795268325494632 -9.111962747963897 0.52
vertex 22.266621698855985 4.98929222059411 0.52
endloop
endfacet
facet normal 0 0 1
outer loop
vertex 25.052435493511567 9.111962747963869 0.52
vertex 22.266621698855985 4.98929222059411 0.52
vertex 34.581082120150214 -4.989292220594138 0.52
endloop
endfacet
facet normal 0 0 -1
outer loop
vertex 25.052435493511567 9.111962747963869 1.08
vertex 34.581082120150214 -4.989292220594138 1.08
vertex 22.266621698855985 4.98929222059411 1.08
endloop
endfacet
facet normal 0 0 1
outer loop
vertex 25.052435493511567 9.111962747963869 1.08
vertex 22.266621698855985 4.98929222059411 1.08
vertex 31.795268325494632 -9.111962747963897 1.08
endloop
endfacet
facet normal -0.8285679348701801 -0.5598885400729016 0
outer loop
vertex 25.052435493511567 9.111962747963869 0.52
vertex 34.581082120150214 -4.989292220594138 0.52
vertex 34.581082120150214 -4.989292220594138 1.08
endloop
endfacet
facet normal -0.8285679348701801 -0.5598885400729016 0
outer loop
vertex 25.052435493511567 9.111962747963869 0.52
vertex 34.581082120150214 -4.989292220594138 1.08
vertex 25.052435493511567 9.111962747963869 1.08
endloop
endfacet
facet normal 0.6295692218194114 0.7769443962972514 0
outer loop
vertex 34.581082120150214 -4.989292220594138 0.52
vertex 22.266621698855985 4.98929222059411 0.52
vertex 22.266621698855985 4.98929222059411 1.08
endloop
endfacet
facet normal 0.6295692218194114 0.7769443962972514 0
outer loop
vertex 34.581082120150214 -4.989292220594138 0.52
vertex 22.266621698855985 4.98929222059411 1.08
vertex 34.581082120150214 -4.989292220594138 1.08
endloop
endfacet
facet normal -0.8285679348701801 -0.5598885400729016 0
outer loop
vertex 22.266621698855985 4.98929222059411 0.52
vertex 31.795268325494632 -9.111962747963897 0.52
vertex 31.795268325494632 -9.111962747963897 1.08
endloop
endfacet
facet normal -0.8285679348701801 -0.5598885400729016 0
outer loop
vertex 22.266621698855985 4.98929222059411 0.52
vertex 31.795268325494632 -9.111962747963897 1.08
vertex 22.266621698855985 4.98929222059411 1.08
endloop
endfacet
facet normal 0.9378621709771762 0.34700799450441766 0
outer loop
vertex 31.795268325494632 -9.111962747963897 0.52
vertex 25.052435493511567 9.111962747963869 0.52
vertex 25.052435493511567 9.111962747963869 1.08
endloop
endfacet
facet normal 0.9378621709771762 0.34700799450441766 0
outer loop
vertex 31.795268325494632 -9.111962747963897 0.52
vertex 25.052435493511567 9.111962747963869 1.08
vertex 31.795268325494632 -9.111962747963897 1.08
endloop
endfacet
facet normal 0 0 -1
outer loop
vertex 37.7572976623631 -4.989292220594136 0
vertex 43.354023180225326 4.989292220594107 0
vertex 43.354023180225326 -9.1119627479639 0
endloop
endfacet
facet normal 0 0 1
outer loop
vertex 37.7572976623631 -4.989292220594136 0
vertex 43.354023180225326 -9.1119627479639 0
vertex 37.7572976623631 9.111962747963872 0
endloop
endfacet
facet normal 0 0 -1
outer loop
vertex 37.7572976623631 -4.989292220594136 0.5599999999999999
vertex 37.7572976623631 9.111962747963872 0.5599999999999999
vertex 43.354023180225326 -9.1119627479639 0.5599999999999999
endloop
endfacet
facet normal 0 0 1
outer loop
vertex 37.7572976623631 -4.989292220594136 0.5599999999999999
vertex 43.354023180225326 -9.1119627479639 0.5599999999999999
vertex 43.354023180225326 4.989292220594107 0.5599999999999999
endloop
endfacet
facet normal 1 0 0
outer loop
vertex 37.7572976623631 -4.989292220594136 0
vertex 37.7572976623631 9.111962747963872 0
vertex 37.7572976623631 9.111962747963872 0.5599999999999999
endloop
endfacet
facet normal 1 0 0
outer loop
vertex 37.7572976623631 -4.989292220594136 0
vertex 37.7572976623631 9.111962747963872 0.5599999999999999
vertex 37.7572976623631 -4.989292220594136 0.5599999999999999
endloop
endfacet
facet normal -0.9559356936673729 -0.2935761393108758 0
outer loop
vertex 37.7572976623631 9.111962747963872 0
vertex 43.354023180225326 -9.1119627479639 0
vertex 43.354023180225326 -9.1119627479639 0.5599999999999999
endloop
endfacet
facet normal -0.9559356936673729 -0.2935761393108758 0
outer loop
vertex 37.7572976623631 9.111962747963872 0
vertex 43.354023180225326 -9.1119627479639 0.5599999999999999
vertex 37.7572976623631 9.111962747963872 0.5599999999999999
endloop
endfacet
facet normal 1 0 0
outer loop
vertex 43.354023180225326 -9.1119627479639 0
vertex 43.354023180225326 4.989292220594107 0
vertex 43.354023180225326 4.989292220594107 0.5599999999999999
endloop
endfacet
facet normal 1 0 0
outer loop
vertex 43.354023180225326 -9.1119627479639 0
vertex 43.354023180225326 4.989292220594107 0.5599999999999999
vertex 43.354023180225326 -9.1119627479639 0.5599999999999999
endloop
endfacet
facet normal -0.8721809670864399 0.48918336097230675 0
outer loop
vertex 43.354023180225326 4.989292220594107 0
vertex 37.7572976623631 -4.989292220594136 0
vertex 37.7572976623631 -4.989292220594136 0.5599999999999999
endloop
endfacet
facet normal -0.8721809670864399 0.48918336097230675 0
outer loop
vertex 43.354023180225326 4.989292220594107 0
vertex 37.7572976623631 -4.989292220594136 0.5599999999999999
vertex 43.354023180225326 4.989292220594107 0.5599999999999999
endloop
endfacet
facet normal 0 0 -1
outer loop
vertex 49.36976557810426 9.111962747963869 0.52
vertex 56.17334587891442 -9.111962747963897 0.52
vertex 46.5588538548976 4.98929222059411 0.52
endloop
endfacet
facet normal 0 0 1
outer loop
vertex 49.36976557810426 9.111962747963869 0.52
vertex 46.5588538548976 4.98929222059411 0.52
vertex 58.984257602121076 -4.989292220594138 0.52
endloop
endfacet
facet normal 0 0 -1
outer loop
vertex 49.36976557810426 9.111962747963869 1.08
vertex 58.984257602121076 -4.989292220594138 1.08
vertex 46.5588538548976 4.98929222059411 1.08
endloop
endfacet
facet normal 0 0 1
outer loop
vertex 49.36976557810426 9.111962747963869 1.08
vertex 46.5588538548976 4.98929222059411 1.08
vertex 56.17334587891442 -9.111962747963897 1.08
endloop
endfacet
facet normal -0.8262273428075476 -0.5633368246415096 0
outer loop
vertex 49.36976557810426 9.111962747963869 0.52
vertex 58.984257602121076 -4.989292220594138 0.52
vertex 58.984257602121076 -4.989292220594138 1.08
endloop
endfacet
facet normal -0.8262273428075476 -0.5633368246415096 0
outer loop
vertex 49.36976557810426 9.111962747963869 0.52
vertex 58.984257602121076 -4.989292220594138 1.08
vertex 49.36976557810426 9.111962747963869 1.08
endloop
endfacet
facet normal 0.6261579205915508 0.7796962603991797 0
outer loop
vertex 58.984257602121076 -4.989292220594138 0.52
vertex 46.5588538548976 4.98929222059411 0.52
vertex 46.5588538548976 4.98929222059411 1.08
endloop
endfacet
facet normal 0.6261579205915508 0.7796962603991797 0
outer loop
vertex 58.984257602121076 -4.989292220594138 0.52
vertex 46.5588538548976 4.98929222059411 1.08
vertex 58.984257602121076 -4.989292220594138 1.08
endloop
endfacet
facet normal -0.8262273428075476 -0.5633368246415096 0
outer loop
vertex 46.5588538548976 4.98929222059411 0.52
vertex 56.17334587891442 -9.111962747963897 0.52
vertex 56.17334587891442 -9.111962747963897 1.08
endloop
endfacet
facet normal -0.8262273428075476 -0.5633368246415096 0
outer loop
vertex 46.5588538548976 4.98929222059411 0.52
vertex 56.17334587891442 -9.111962747963897 1.08
vertex 46.5588538548976 4.98929222059411 1.08
endloop
endfacet
facet normal 0.9368418272059261 0.3497533285009046 0
outer loop
vertex 56.17334587891442 -9.111962747963897 0.52
vertex 49.36976557810426 9.111962747963869 0.52
vertex 49.36976557810426 9.111962747963869 1.08
endloop
endfacet
facet normal 0.9368418272059261 0.3497533285009046 0
outer loop
vertex 56.17334587891442 -9.111962747963897 0.52
vertex 49.36976557810426 9.111962747963869 1.08
vertex 56.17334587891442 -9.111962747963897 1.08
endloop
endfacet
endsolid house-kirigami-flat
