solid kirigami_star_pleated
  facet normal -0.828060 0.282490 0.484269
    outer loop
      vertex 0.000000000 0.000000000 35.000000000
      vertex 0.000000000 60.000000000 0.000000000
      vertex -14.694631307 20.225424859 -1.924782933
    endloop
  endfacet
  facet normal -0.012779 0.874826 0.484269
    outer loop
      vertex 0.000000000 0.000000000 35.000000000
      vertex -14.694631307 20.225424859 -1.924782933
      vertex -57.063390978 18.541019662 0.000000000
    endloop
  endfacet
  facet normal -0.524549 -0.700238 0.484269
    outer loop
      vertex 0.000000000 0.000000000 35.000000000
      vertex -57.063390978 18.541019662 0.000000000
      vertex -23.776412907 -7.725424859 -1.924782933
    endloop
  endfacet
  facet normal -0.835958 0.258182 0.484269
    outer loop
      vertex 0.000000000 0.000000000 35.000000000
      vertex -23.776412907 -7.725424859 -1.924782933
      vertex -35.267115138 -48.541019662 0.000000000
    endloop
  endfacet
  facet normal 0.503871 -0.715261 0.484269
    outer loop
      vertex 0.000000000 0.000000000 35.000000000
      vertex -35.267115138 -48.541019662 0.000000000
      vertex -0.000000000 -25.000000000 -1.924782933
    endloop
  endfacet
  facet normal -0.503871 -0.715261 0.484269
    outer loop
      vertex 0.000000000 0.000000000 35.000000000
      vertex -0.000000000 -25.000000000 -1.924782933
      vertex 35.267115138 -48.541019662 0.000000000
    endloop
  endfacet
  facet normal 0.835958 0.258182 0.484269
    outer loop
      vertex 0.000000000 0.000000000 35.000000000
      vertex 35.267115138 -48.541019662 0.000000000
      vertex 23.776412907 -7.725424859 -1.924782933
    endloop
  endfacet
  facet normal 0.524549 -0.700238 0.484269
    outer loop
      vertex 0.000000000 0.000000000 35.000000000
      vertex 23.776412907 -7.725424859 -1.924782933
      vertex 57.063390978 18.541019662 0.000000000
    endloop
  endfacet
  facet normal 0.012779 0.874826 0.484269
    outer loop
      vertex 0.000000000 0.000000000 35.000000000
      vertex 57.063390978 18.541019662 0.000000000
      vertex 14.694631307 20.225424859 -1.924782933
    endloop
  endfacet
  facet normal 0.828060 0.282490 0.484269
    outer loop
      vertex 0.000000000 0.000000000 35.000000000
      vertex 14.694631307 20.225424859 -1.924782933
      vertex 0.000000000 60.000000000 0.000000000
    endloop
  endfacet
endsolid kirigami_star_pleated
