solid saloon
facet normal -1 0 0
outer loop
vertex 0 0 0.61
vertex 0 1.45 0
vertex 0 0 0
endloop
endfacet
facet normal -1 0 0
outer loop
vertex 0 0 0.61
vertex 0 1.45 1.3
vertex 0 1.45 0
endloop
endfacet
facet normal -1 0 0
outer loop
vertex 0 0 0.61
vertex 0 0.13 1.3
vertex 0 1.45 1.3
endloop
endfacet
facet normal -1 0 0
outer loop
vertex 0 0 0.61
vertex 0 0.13 1.62
vertex 0 0.13 1.3
endloop
endfacet
facet normal -1 0 0
outer loop
vertex 0 0.13 1.62
vertex 0 0 0.7
vertex 0 0 1.62
endloop
endfacet
facet normal -1 0 0
outer loop
vertex 0 0 0.61
vertex 0 0 0.7
vertex 0 0.13 1.62
endloop
endfacet
facet normal -1 0 0
outer loop
vertex 0 0 0.61
vertex 0 -0.46 0.7
vertex 0 0 0.7
endloop
endfacet
facet normal -1 0 0
outer loop
vertex 0 -0.46 0.7
vertex 0 0 0.61
vertex 0 -0.46 0.61
endloop
endfacet
facet normal 1 0 0
outer loop
vertex 1.7 0 0.61
vertex 1.7 0 0
vertex 1.7 1.45 0
endloop
endfacet
facet normal 1 0 0
outer loop
vertex 1.7 0 0.61
vertex 1.7 1.45 0
vertex 1.7 1.45 1.3
endloop
endfacet
facet normal 1 0 0
outer loop
vertex 1.7 0 0.61
vertex 1.7 1.45 1.3
vertex 1.7 0.13 1.3
endloop
endfacet
facet normal 1 0 0
outer loop
vertex 1.7 0 0.61
vertex 1.7 0.13 1.3
vertex 1.7 0.13 1.62
endloop
endfacet
facet normal 1 0 0
outer loop
vertex 1.7 0.13 1.62
vertex 1.7 0 1.62
vertex 1.7 0 0.7
endloop
endfacet
facet normal 1 0 0
outer loop
vertex 1.7 0 0.61
vertex 1.7 0.13 1.62
vertex 1.7 0 0.7
endloop
endfacet
facet normal 1 0 0
outer loop
vertex 1.7 0 0.61
vertex 1.7 0 0.7
vertex 1.7 -0.46 0.7
endloop
endfacet
facet normal 1 0 0
outer loop
vertex 1.7 -0.46 0.7
vertex 1.7 -0.46 0.61
vertex 1.7 0 0.61
endloop
endfacet
facet normal 0 1 0
outer loop
vertex 0 1.45 0
vertex 0 1.45 1.3
vertex 1.7 1.45 1.3
endloop
endfacet
facet normal 0 1 0
outer loop
vertex 0 1.45 0
vertex 1.7 1.45 1.3
vertex 1.7 1.45 0
endloop
endfacet
facet normal 0 0 1
outer loop
vertex 0 1.45 1.3
vertex 0 0.13 1.3
vertex 1.7 0.13 1.3
endloop
endfacet
facet normal 0 0 1
outer loop
vertex 0 1.45 1.3
vertex 1.7 0.13 1.3
vertex 1.7 1.45 1.3
endloop
endfacet
facet normal 0 -1 0
outer loop
vertex 0 0.13 1.3
vertex 1.7 0.13 1.62
vertex 0 0.13 1.62
endloop
endfacet
facet normal 0 -1 0
outer loop
vertex 0 0.13 1.3
vertex 1.7 0.13 1.3
vertex 1.7 0.13 1.62
endloop
endfacet
facet normal 0 0 1
outer loop
vertex 0 0.13 1.62
vertex 0 0 1.62
vertex 1.7 0 1.62
endloop
endfacet
facet normal 0 0 1
outer loop
vertex 0 0.13 1.62
vertex 1.7 0 1.62
vertex 1.7 0.13 1.62
endloop
endfacet
facet normal 0 -1 0
outer loop
vertex 0 0 1.62
vertex 0 0 0.7
vertex 1.7 0 0.7
endloop
endfacet
facet normal 0 -1 0
outer loop
vertex 0 0 1.62
vertex 1.7 0 0.7
vertex 1.7 0 1.62
endloop
endfacet
facet normal 0 0 -1
outer loop
vertex 0 0 0.7
vertex 1.7 -0.46 0.7
vertex 0 -0.46 0.7
endloop
endfacet
facet normal 0 0 -1
outer loop
vertex 0 0 0.7
vertex 1.7 0 0.7
vertex 1.7 -0.46 0.7
endloop
endfacet
facet normal 0 -1 0
outer loop
vertex 0 -0.46 0.7
vertex 0 -0.46 0.61
vertex 1.7 -0.46 0.61
endloop
endfacet
facet normal 0 -1 0
outer loop
vertex 0 -0.46 0.7
vertex 1.7 -0.46 0.61
vertex 1.7 -0.46 0.7
endloop
endfacet
facet normal 0 0 -1
outer loop
vertex 0 -0.46 0.61
vertex 0 0 0.61
vertex 1.7 0 0.61
endloop
endfacet
facet normal 0 0 -1
outer loop
vertex 0 -0.46 0.61
vertex 1.7 0 0.61
vertex 1.7 -0.46 0.61
endloop
endfacet
facet normal 0 -1 0
outer loop
vertex 0 0 0
vertex 0.55 0 0
vertex 0.55 0 0.61
endloop
endfacet
facet normal 0 -1 0
outer loop
vertex 0 0 0
vertex 0.55 0 0.61
vertex 0 0 0.61
endloop
endfacet
facet normal 0 -1 0
outer loop
vertex 1.15 0 0
vertex 1.7 0 0
vertex 1.7 0 0.61
endloop
endfacet
facet normal 0 -1 0
outer loop
vertex 1.15 0 0
vertex 1.7 0 0.61
vertex 1.15 0 0.61
endloop
endfacet
facet normal 0 -1 0
outer loop
vertex 0.55 0 0.58
vertex 1.15 0 0.58
vertex 1.15 0 0.61
endloop
endfacet
facet normal 0 -1 0
outer loop
vertex 0.55 0 0.58
vertex 1.15 0 0.61
vertex 0.55 0 0.61
endloop
endfacet
facet normal 0 -1 0
outer loop
vertex 0.7999999999999999 0 0
vertex 0.9 0 0
vertex 0.9 0 0.58
endloop
endfacet
facet normal 0 -1 0
outer loop
vertex 0.7999999999999999 0 0
vertex 0.9 0 0.58
vertex 0.7999999999999999 0 0.58
endloop
endfacet
endsolid saloon
