solid cube
  facet normal 0.000000 0.000000 -1.000000
    outer loop
      vertex -50 -50 -50
      vertex -50 50 -50
      vertex 50 50 -50
    endloop
  endfacet
  facet normal 0.000000 0.000000 -1.000000
    outer loop
      vertex -50 -50 -50
      vertex 50 50 -50
      vertex 50 -50 -50
    endloop
  endfacet
  facet normal 0.000000 0.000000 1.000000
    outer loop
      vertex -50 -50 50
      vertex 50 -50 50
      vertex 50 50 50
    endloop
  endfacet
  facet normal 0.000000 0.000000 1.000000
    outer loop
      vertex -50 -50 50
      vertex 50 50 50
      vertex -50 50 50
    endloop
  endfacet
  facet normal 0.000000 -1.000000 0.000000
    outer loop
      vertex -50 -50 -50
      vertex 50 -50 -50
      vertex 50 -50 50
    endloop
  endfacet
  facet normal 0.000000 -1.000000 0.000000
    outer loop
      vertex -50 -50 -50
      vertex 50 -50 50
      vertex -50 -50 50
    endloop
  endfacet
  facet normal 0.000000 1.000000 0.000000
    outer loop
      vertex 50 50 -50
      vertex -50 50 -50
      vertex -50 50 50
    endloop
  endfacet
  facet normal 0.000000 1.000000 0.000000
    outer loop
      vertex 50 50 -50
      vertex -50 50 50
      vertex 50 50 50
    endloop
  endfacet
  facet normal 1.000000 0.000000 0.000000
    outer loop
      vertex 50 -50 -50
      vertex 50 50 -50
      vertex 50 50 50
    endloop
  endfacet
  facet normal 1.000000 0.000000 0.000000
    outer loop
      vertex 50 -50 -50
      vertex 50 50 50
      vertex 50 -50 50
    endloop
  endfacet
  facet normal -1.000000 0.000000 0.000000
    outer loop
      vertex -50 50 -50
      vertex -50 -50 -50
      vertex -50 -50 50
    endloop
  endfacet
  facet normal -1.000000 0.000000 0.000000
    outer loop
      vertex -50 50 -50
      vertex -50 -50 50
      vertex -50 50 50
    endloop
  endfacet
endsolid cube
